<svg xmlns="http://www.w3.org/2000/svg" width="24" height="24" viewBox="0 0 24 24">
  <path fill="#777" fill-rule="evenodd" d="M12,8 C12.550814,8 12.9973369,8.44652293 12.9973369,8.99733689 C12.9973369,8.99822341 12.9973357,8.99910993 12.9973333,8.99999644 L12.9866453,13.0080035 C12.9851832,13.5562954 12.5402939,14 11.992,14 C11.4441335,14 11,13.5558665 11,13.008 L11,9 C11,8.44771525 11.4477153,8 12,8 Z M12,17 C11.4477153,17 11,16.5522847 11,16 C11,15.4477153 11.4477153,15 12,15 C12.5522847,15 13,15.4477153 13,16 C13,16.5522847 12.5522847,17 12,17 Z"/>
</svg>
