<svg xmlns="http://www.w3.org/2000/svg" width="24" height="24" viewBox="0 0 24 24">
  <path fill="#777" fill-rule="evenodd" d="M12.9152143,6.48549026 L18.1314362,15.4991217 C18.4080636,15.9771339 18.244809,16.5888903 17.7667968,16.8655177 C17.6145689,16.9536125 17.4417991,17 17.2659184,17 L6.76224997,17 C6.20996522,17 5.76224997,16.5522847 5.76224997,16 C5.76224997,15.8221183 5.8096983,15.6474561 5.89970207,15.4940246 L11.1871487,6.48039315 C11.4665912,6.0040211 12.0792999,5.84437817 12.555672,6.12382067 C12.7047624,6.21127794 12.828638,6.33588653 12.9152143,6.48549026 Z M12,8 C11.4477153,8 11,8.44771525 11,9 L11,12 C11,12.5522847 11.4477153,13 12,13 C12.5522847,13 13,12.5522847 13,12 L13,9 C13,8.44771525 12.5522847,8 12,8 Z M12,16 C12.5522847,16 13,15.5522847 13,15 C13,14.4477153 12.5522847,14 12,14 C11.4477153,14 11,14.4477153 11,15 C11,15.5522847 11.4477153,16 12,16 Z"/>
</svg>
