<svg xmlns="http://www.w3.org/2000/svg" width="24" height="24" viewBox="0 0 24 24">
  <path fill="#777" fill-rule="evenodd" d="M12.8257671,4.55420441 L20.1595946,17.5656328 C20.4307768,18.0467551 20.2605867,18.6566184 19.7794644,18.9278006 C19.6295994,19.0122713 19.4604771,19.0566516 19.2884456,19.0566516 L4.70223447,19.0566516 C4.14994972,19.0566516 3.70223447,18.6089364 3.70223447,18.0566516 C3.70223447,17.886234 3.74578647,17.7186436 3.82875668,17.5697876 L11.0811404,4.55835923 C11.3500279,4.07595077 11.9590737,3.90285788 12.4414822,4.17174544 C12.6023522,4.26141212 12.7353352,4.39376322 12.8257671,4.55420441 Z M12,8 C11.4477153,8 11,8.44771525 11,9 L11,13.008 C11,13.5558665 11.4441335,14 11.992,14 C12.5402939,14 12.9851832,13.5562954 12.9866453,13.0080035 L12.9973333,8.99999644 C12.9973357,8.99910993 12.9973369,8.99822341 12.9973369,8.99733689 C12.9973369,8.44652293 12.550814,8 12,8 Z M12,17 C12.5522847,17 13,16.5522847 13,16 C13,15.4477153 12.5522847,15 12,15 C11.4477153,15 11,15.4477153 11,16 C11,16.5522847 11.4477153,17 12,17 Z"/>
</svg>
