<svg xmlns="http://www.w3.org/2000/svg" width="24" height="24" viewBox="0 0 24 24">
  <path fill="#777" fill-rule="evenodd" d="M13.9487955,4.97131075 L21.1826051,17.0276601 C21.7509014,17.9748206 21.4437713,19.2033412 20.4966108,19.7716375 C20.1857799,19.958136 19.8301071,20.0566516 19.4676192,20.0566516 L5,20.0566516 C3.8954305,20.0566516 3,19.1612211 3,18.0566516 C3,17.6941637 3.09851567,17.3384909 3.28501415,17.0276601 L10.5188238,4.97131075 C11.0871201,4.02415021 12.3156406,3.71702009 13.2628011,4.2853164 C13.5443003,4.45421593 13.7798959,4.68981154 13.9487955,4.97131075 Z M12.2338096,6.00030226 L5,18.0566516 L19.4676192,18.0566516 L12.2338096,6.00030226 Z M12.2338096,9.05665162 C12.7860944,9.05665162 13.2338096,9.50436687 13.2338096,10.0566516 L13.2338096,13.0566516 C13.2338096,13.6089364 12.7860944,14.0566516 12.2338096,14.0566516 C11.6815249,14.0566516 11.2338096,13.6089364 11.2338096,13.0566516 L11.2338096,10.0566516 C11.2338096,9.50436687 11.6815249,9.05665162 12.2338096,9.05665162 Z M12.2338096,17.0566516 C11.6815249,17.0566516 11.2338096,16.6089364 11.2338096,16.0566516 C11.2338096,15.5043669 11.6815249,15.0566516 12.2338096,15.0566516 C12.7860944,15.0566516 13.2338096,15.5043669 13.2338096,16.0566516 C13.2338096,16.6089364 12.7860944,17.0566516 12.2338096,17.0566516 Z"/>
</svg>
