<svg width="24" height="24" viewBox="0 0 24 24" fill="none" xmlns="http://www.w3.org/2000/svg">
<path fill-rule="evenodd" clip-rule="evenodd" d="M20 11.5C20 15.6421 16.6421 19 12.5 19C8.35786 19 5 15.6421 5 11.5C5 7.35786 8.35786 4 12.5 4C16.6421 4 20 7.35786 20 11.5ZM11.25 7.75C11.25 7.05964 11.8096 6.5 12.5 6.5C13.1904 6.5 13.75 7.05964 13.75 7.75V11.9167C13.75 12.607 13.1904 13.1667 12.5 13.1667C11.8096 13.1667 11.25 12.607 11.25 11.9167V7.75ZM12.5 16.5C13.1904 16.5 13.75 15.9404 13.75 15.25C13.75 14.5596 13.1904 14 12.5 14C11.8096 14 11.25 14.5596 11.25 15.25C11.25 15.9404 11.8096 16.5 12.5 16.5Z" fill="#52555A"/>
</svg>
