<svg version="1.1" id="Layer_1" xmlns="http://www.w3.org/2000/svg" x="0px" y="0px"
	 viewBox="0 0 24 24" style="enable-background:new 0 0 24 24;" xml:space="preserve">
<path class="st0" d="M10,3c0-0.6,0.4-1,1-1s1,0.4,1,1v2c0,0.6-0.4,1-1,1s-1-0.4-1-1V3z M4.7,6.2c-0.4-0.4-0.4-1,0-1.4
	c0.4-0.4,1-0.4,1.4,0l2.1,2.1c0.4,0.4,0.4,1,0,1.4c-0.4,0.4-1,0.4-1.4,0L4.7,6.2z M17.1,9.1l-3.2,3.2c-0.2,0.2-0.2,0.5,0,0.7
	l0.7,0.7c0.2,0.2,0.5,0.2,0.7,0l3.2-3.2c1.4-1.4,1.4-3.6,0-4.9c-1.4-1.4-3.6-1.4-4.9,0l-3.2,3.1c-0.2,0.2-0.2,0.5,0,0.7l0.7,0.7
	c0.2,0.2,0.5,0.2,0.7,0L15,6.9c0.6-0.6,1.5-0.6,2.1,0C17.7,7.5,17.7,8.5,17.1,9.1z M6.9,15l3.2-3.2c0.2-0.2,0.2-0.5,0-0.7l-0.7-0.7
	c-0.2-0.2-0.5-0.2-0.7,0l-3.2,3.2c-1.4,1.4-1.4,3.6,0,4.9c1.4,1.4,3.6,1.4,4.9,0l3.2-3.2c0.2-0.2,0.2-0.5,0-0.7l-0.7-0.7
	c-0.2-0.2-0.5-0.2-0.7,0L9,17.1c-0.6,0.6-1.5,0.6-2.1,0S6.3,15.6,6.9,15z M15.7,15.8c-0.4,0.4-0.4,1,0,1.4l2.1,2.1
	c0.4,0.4,1,0.4,1.4,0s0.4-1,0-1.4l-2.1-2.1C16.7,15.4,16.1,15.4,15.7,15.8z M13,18c-0.6,0-1,0.4-1,1v2c0,0.6,0.4,1,1,1s1-0.4,1-1v-2
	C14,18.5,13.6,18,13,18z M5,10c0.6,0,1,0.4,1,1s-0.4,1-1,1H3c-0.6,0-1-0.4-1-1s0.4-1,1-1H5z M22,13c0-0.6-0.4-1-1-1h-2
	c-0.6,0-1,0.4-1,1s0.4,1,1,1h2C21.6,14,22,13.6,22,13z"/>
</svg>
