<svg xmlns="http://www.w3.org/2000/svg" width="24" height="24" viewBox="0 0 24 24">
  <path fill="#777" fill-rule="evenodd" d="M3.54630456,8.69126374 C3.08294036,7.96574671 3.13581712,7.02512384 3.67757439,6.35610933 L4.65835861,5.14494168 C5.20011588,4.47592718 6.10919018,4.22863941 6.91519176,4.53103452 L8.12573059,4.98520362 C8.37054346,4.85063062 8.62236857,4.72893203 8.88024653,4.62068531 L9.29796015,3.36754447 C9.57018824,2.55086019 10.3344659,2 11.1953267,2 L12.7538083,2 C13.6146691,2 14.3789468,2.55086019 14.6511749,3.36754447 L15.0688885,4.62068531 C15.3267665,4.72893203 15.5785916,4.85063062 15.8234045,4.98520362 L17.0339433,4.53103452 C17.8399449,4.22863941 18.7490192,4.47592718 19.2907764,5.14494168 L20.2715607,6.35610933 C20.8133179,7.02512384 20.8661947,7.96574671 20.4028305,8.69126374 L19.6762104,9.82897629 C19.7494603,10.0892863 19.8095092,10.3536532 19.8560378,10.6212636 L20.9920633,11.315648 C21.726578,11.7646129 22.0913946,12.6332187 21.8977431,13.4720158 L21.547161,14.9905535 C21.3535094,15.8293505 20.6448427,16.4501233 19.787852,16.5316602 L18.4807191,16.6560251 C18.3183244,16.8825965 18.1442138,17.1005708 17.9591655,17.3090323 L18.1308502,18.6017634 C18.244184,19.4551313 17.798737,20.2852784 17.0250004,20.662655 L15.6242465,21.3458483 C14.8505099,21.7232248 13.9221004,21.5631523 13.3194126,20.9484582 L12.3795799,19.989903 C12.2450082,19.9966269 12.1099747,20 11.9745675,20 C11.8391604,20 11.7041268,19.9966269 11.5695552,19.989903 L10.6297224,20.9484582 C10.0270346,21.5631523 9.09862516,21.7232248 8.32488859,21.3458483 L6.92413464,20.662655 C6.15039806,20.2852784 5.70495104,19.4551313 5.81828487,18.6017634 L5.98996952,17.3090323 C5.80492127,17.1005708 5.63081063,16.8825965 5.4684159,16.6560251 L4.16128306,16.5316602 C3.30429235,16.4501233 2.5956256,15.8293505 2.40197405,14.9905535 L2.05139198,13.4720158 C1.85774044,12.6332187 2.22255704,11.7646129 2.95707176,11.315648 L4.09309721,10.6212636 C4.13962587,10.3536532 4.19967477,10.0892863 4.27292467,9.82897629 L3.54630456,8.69126374 Z M6.47142649,9.5556036 L6.31052891,10.0146634 C6.1612016,10.4407119 6.06035827,10.8838201 6.01061291,11.3377521 L5.95711493,11.8259271 L4.00013211,13.0221136 L4.35071418,14.5406514 L6.62082361,14.7566371 L6.88254119,15.1753031 C7.1282843,15.5684149 7.41901903,15.9321835 7.74832949,16.2589806 L8.10056297,16.6085258 L7.80087693,18.8650669 L9.20163088,19.5482602 L10.8103543,17.9074892 L11.2948781,17.9620175 C11.5192347,17.9872666 11.7460122,18 11.9745675,18 C12.2031229,18 12.4299004,17.9872666 12.654257,17.9620175 L13.1387807,17.9074892 L14.7475042,19.5482602 L16.1482581,18.8650669 L15.8485721,16.6085258 L16.2008056,16.2589806 C16.530116,15.9321835 16.8208507,15.5684149 17.0665939,15.1753031 L17.3283114,14.7566371 L19.5984209,14.5406514 L19.9490029,13.0221136 L17.9920201,11.8259271 L17.9385221,11.3377521 C17.8887768,10.8838201 17.7879334,10.4407119 17.6386061,10.0146634 L17.4777086,9.5556036 L18.7172687,7.61475012 L17.7364845,6.40358247 L15.6109164,7.20105162 L15.1899862,6.93327173 C14.7988897,6.6844709 14.3802588,6.48174053 13.9418047,6.3296504 L13.4765646,6.1682688 L12.7538083,4 L11.1953267,4 L10.4725705,6.1682688 L10.0073304,6.3296504 C9.56887623,6.48174053 9.15024536,6.6844709 8.75914885,6.93327173 L8.33821866,7.20105162 L6.21265054,6.40358247 L5.23186631,7.61475012 L6.47142649,9.5556036 Z M11.9745675,16.5127493 C9.48224492,16.5127493 7.46181825,14.4923226 7.46181825,12 C7.46181825,9.5076774 9.48224492,7.48725073 11.9745675,7.48725073 C14.4668901,7.48725073 16.4873168,9.5076774 16.4873168,12 C16.4873168,14.4923226 14.4668901,16.5127493 11.9745675,16.5127493 Z M11.9745675,14.5127493 C13.3623206,14.5127493 14.4873168,13.3877531 14.4873168,12 C14.4873168,10.6122469 13.3623206,9.48725073 11.9745675,9.48725073 C10.5868144,9.48725073 9.46181825,10.6122469 9.46181825,12 C9.46181825,13.3877531 10.5868144,14.5127493 11.9745675,14.5127493 Z"/>
</svg>
