<svg width="32" height="32" viewBox="0 0 32 32" fill="none" xmlns="http://www.w3.org/2000/svg">
<path d="M18.9523 1C20.345 1 21.5952 1.85404 22.1017 3.1514L30.8305 25.5111C31.5095 27.2505 30.65 29.211 28.9106 29.89C28.5187 30.043 28.1018 30.1215 27.6811 30.1215H4.31739C2.45019 30.1215 0.936523 28.6078 0.936523 26.7406C0.936523 26.3158 1.01659 25.8948 1.17254 25.4996L9.99626 3.13983C10.5058 1.84856 11.7529 1 13.1411 1H18.9523ZM12.4936 7.14748C12.2071 7.26147 11.9797 7.48794 11.8646 7.77408L5.17137 24.4137C4.9391 24.9912 5.21891 25.6476 5.79634 25.8799C5.93004 25.9336 6.0728 25.9613 6.21691 25.9613H19.5286C20.151 25.9613 20.6556 25.4567 20.6556 24.8343C20.6556 24.6917 20.6285 24.5503 20.5758 24.4178L14.1973 8.3816L13.9573 7.77813C13.7273 7.1998 13.072 6.91745 12.4936 7.14748Z" fill="#AFAFAF"/>
</svg>
