<svg xmlns="http://www.w3.org/2000/svg" width="24" height="24" viewBox="0 0 24 24">
  <path fill="#777" fill-rule="evenodd" d="M9.40731853,16 L6.5,16 C5.67157288,16 5,15.3284271 5,14.5 C5,14.2045333 5.08726072,13.9156471 5.25083323,13.669589 L6.4922373,11.8021755 C7.26544484,10.6390584 8.71006932,10.1899612 9.97121403,10.6270306 L11.2185564,8.53622162 C12.0674238,7.11334071 13.9090397,6.64801083 15.3319207,7.49687826 C15.8202107,7.7881841 16.2156638,8.21225422 16.4722002,8.71967446 L19.0524005,13.8232212 C19.4261751,14.5625344 19.1298475,15.4648704 18.3905343,15.838645 C18.1807052,15.9447283 17.9488766,16 17.7137555,16 L9.40731853,16 Z M12.9755262,14 L16.9007025,14 L14.6873402,9.62204619 C14.6018281,9.45290611 14.4700104,9.31154941 14.307247,9.21444746 C13.8329534,8.93149165 13.2190814,9.08660161 12.9361256,9.56089525 L11.5493216,11.8854713 L12.7856667,13.6339979 C12.8674118,13.7496078 12.9304935,13.8728024 12.9755262,14 Z M7.52680856,9 C6.97452381,9 6.52680856,8.55228475 6.52680856,8 C6.52680856,7.44771525 6.97452381,7 7.52680856,7 C8.07909331,7 8.52680856,7.44771525 8.52680856,8 C8.52680856,8.55228475 8.07909331,9 7.52680856,9 Z M9.80707842,12.8856627 C9.73593284,12.7850436 9.64680227,12.6984412 9.54417815,12.6302196 C9.08424764,12.3244707 8.46354187,12.4494596 8.15779299,12.9093901 L7.43278617,14 L10.595002,14 L9.80707842,12.8856627 Z"/>
</svg>
