<svg width="24" height="24" viewBox="0 0 24 24" fill="none" xmlns="http://www.w3.org/2000/svg">
<path d="M15.9412 5C16.9158 5 17.7059 5.79009 17.7059 6.76471V10.2941H21.2353C22.2099 10.2941 23 11.0842 23 12.0588V18.2353C23 19.2099 22.2099 20 21.2353 20H9.76471C8.79009 20 8 19.2099 8 18.2353V6.76471C8 5.79009 8.79009 5 9.76471 5H15.9412ZM15.9412 6.76471H9.76471V18.2353H11.5294V15.5882H14.1765V18.2353H15.9412V6.76471ZM21.2353 12.0588H17.7059V18.2353H21.2353V12.0588ZM20.3529 15.5882V17.3529H18.5882V15.5882H20.3529ZM12.4118 12.9412V14.7059H10.6471V12.9412H12.4118ZM15.0588 12.9412V14.7059H13.2941V12.9412H15.0588ZM20.3529 12.9412V14.7059H18.5882V12.9412H20.3529ZM12.4118 10.2941V12.0588H10.6471V10.2941H12.4118ZM15.0588 10.2941V12.0588H13.2941V10.2941H15.0588ZM12.4118 7.64706V9.41176H10.6471V7.64706H12.4118ZM15.0588 7.64706V9.41176H13.2941V7.64706H15.0588Z" fill="#52555A"/>
<path d="M3.5 9C3.98325 9 4.375 9.39175 4.375 9.875V11.625H6.125C6.60825 11.625 7 12.0168 7 12.5C7 12.9832 6.60825 13.375 6.125 13.375H4.375V15.125C4.375 15.6082 3.98325 16 3.5 16C3.01675 16 2.625 15.6082 2.625 15.125V13.375H0.875C0.391751 13.375 0 12.9832 0 12.5C0 12.0168 0.391751 11.625 0.875 11.625H2.625V9.875C2.625 9.39175 3.01675 9 3.5 9Z" fill="#52555A"/>
</svg>
