<svg xmlns="http://www.w3.org/2000/svg" width="24" height="24"><path fill="#777" d="M5.619 16.826A8 8 0 0 1 17.361 6.062l1.963-1.8a1 1 0 1 1 1.352 1.475l-15 13.75a1 1 0 0 1-1.352-1.474l1.295-1.187zm10.26-9.404a6.017 6.017 0 0 0-.824-.587c.133.316.255.653.363 1.008l.46-.421zm-7.685 7.044A15.047 15.047 0 0 1 8.03 13H6.083a5.968 5.968 0 0 0 1.02 2.466l1.09-1zm5.551-5.089c-.165-.811-.406-1.54-.705-2.14C12.598 6.355 12.179 6 12 6c-.179 0-.598.354-1.04 1.238-.489.978-.82 2.3-.925 3.762h1.94l1.77-1.623zm4.018.947L19.36 8.86a8 8 0 0 1-11.127 10.2l2.66-2.438.067.14c.442.884.861 1.238 1.04 1.238.179 0 .598-.354 1.04-1.238.387-.775.675-1.765.83-2.87L17.026 11h.892a5.962 5.962 0 0 0-.154-.676zM6.083 11h1.948c.098-1.577.426-3.011.914-4.165A6.005 6.005 0 0 0 6.083 11zm11.834 2h-1.948c-.098 1.577-.426 3.011-.914 4.165A6.005 6.005 0 0 0 17.917 13z"/></svg>