<svg xmlns="http://www.w3.org/2000/svg" width="24" height="24" viewBox="0 0 24 24">
  <path fill="#777" fill-rule="evenodd" d="M11.0002191,4 C10.4479343,4 10.0002191,3.55228475 10.0002191,3 C10.0002191,2.44771525 10.4479343,2 11.0002191,2 L13.0002191,2 C13.5525038,2 14.0002191,2.44771525 14.0002191,3 C14.0002191,3.55228475 13.5525038,4 13.0002191,4 L13.0002191,6 L18.0002191,6 C18.5525038,6 19.0002191,6.44771525 19.0002191,7 C19.0002191,7.18216275 18.9515117,7.35294928 18.86641,7.50004646 C18.8762172,7.51718584 18.885636,7.53476583 18.8946462,7.5527864 L21.8946462,13.5527864 C21.9702198,13.7039336 22.0039238,13.8650698 22.0001543,14.0230068 C21.987772,16.2215594 20.201684,18 18.0002191,18 C15.7987541,18 14.0126661,16.2215594 14.0002838,14.0230068 C13.9965143,13.8650698 14.0302183,13.7039336 14.1057919,13.5527864 L16.8821851,8 L13.0002191,8 L13.0002191,20 L17.0002191,20 C17.5525038,20 18.0002191,20.4477153 18.0002191,21 C18.0002191,21.5522847 17.5525038,22 17.0002191,22 L7.00021906,22 C6.44793431,22 6.00021906,21.5522847 6.00021906,21 C6.00021906,20.4477153 6.44793431,20 7.00021906,20 L11.0002191,20 L11.0002191,8 L7.11825305,8 L9.89464625,13.5527864 C9.97021983,13.7039336 10.0039238,13.8650698 10.0001543,14.0230068 C9.98777198,16.2215594 8.20168404,18 6.00021906,18 C3.79875407,18 2.01266614,16.2215594 2.00028383,14.0230068 C1.99651431,13.8650698 2.03021828,13.7039336 2.10579187,13.5527864 L5.10579187,7.5527864 C5.11480216,7.53476583 5.1242209,7.51718584 5.13402813,7.50004646 C5.04892645,7.35294928 5.00021906,7.18216275 5.00021906,7 C5.00021906,6.44771525 5.44793431,6 6.00021906,6 L11.0002191,6 L11.0002191,4 Z M4.11825305,14 L7.88218507,14 L6.00021906,10.236068 L4.11825305,14 Z M19.8821851,14 L18.0002191,10.236068 L16.118253,14 L19.8821851,14 Z"/>
</svg>
