<svg xmlns="http://www.w3.org/2000/svg" width="24" height="24" viewBox="0 0 24 24">
  <path fill="#777" fill-rule="evenodd" d="M15.8831683,13.0006119 C16.8226206,13.0207002 17.7736767,13.4059445 18.5063772,14.138645 C19.4433598,15.0756276 19.9136334,16.8685456 20.0549992,19.5864213 L20.1126423,20.6946576 L19.004406,20.6370145 C16.2865304,20.4956486 14.4936123,20.0253751 13.5566298,19.0883925 C12.8239292,18.355692 12.4386849,17.4046359 12.4185967,16.4651836 L9.86711599,19.0166642 C9.62357062,19.2602096 9.32125717,19.4367322 8.98945809,19.5291338 L5.34023483,20.545394 C4.80819597,20.6935598 4.25678117,20.3823692 4.10861542,19.8503303 C4.0600714,19.6760167 4.05973377,19.4917979 4.10763851,19.3173076 L5.11282402,15.6559752 C5.20466664,15.3214436 5.38194508,15.0165538 5.62724744,14.7712514 L7.79200848,12.6064904 C7.64529957,12.4665622 7.50021245,12.3248684 7.35677998,12.1814359 L2.79289322,7.61754918 C2.40236893,7.22702488 2.40236893,6.5938599 2.79289322,6.20333561 L5.62132034,3.37490849 C6.01184464,2.9843842 6.64500961,2.9843842 7.03553391,3.37490849 L11.5958188,7.93519342 C11.7404528,8.07982735 11.8833211,8.22614155 12.0243964,8.37410244 L14.9842853,5.41421356 L17.1056056,3.29289322 C17.4961299,2.90236893 18.1292949,2.90236893 18.5198192,3.29289322 L21.3482463,6.12132034 C21.7387706,6.51184464 21.7387706,7.14500961 21.3482463,7.53553391 L19.226926,9.65685425 L15.8831683,13.0006119 Z M13.3497794,9.87714659 C13.7751199,10.3991059 14.1800051,10.9377591 14.5634492,11.4919039 L16.3984989,9.65685425 L14.9842853,8.24264069 L13.3497794,9.87714659 Z M9.29488937,13.9320366 L7.041461,16.185465 L6.50338842,18.1453644 L8.45290242,17.6024507 L10.9096302,15.145723 C10.3554702,14.7623017 9.81682141,14.3574101 9.29488937,13.9320366 Z M16.3984989,6.82842712 L17.8127124,8.24264069 L19.226926,6.82842712 L17.8127124,5.41421356 L16.3984989,6.82842712 Z M8.77099354,10.7672224 C9.87614298,11.8723718 11.0878058,12.8655978 12.3883172,13.7324201 L13.1445425,14.2364626 L13.6542918,13.7267133 L13.1493423,12.9693428 C12.2816789,11.6679405 11.2876088,10.4554105 10.1816053,9.34940698 L6.32842712,5.49622883 L4.91421356,6.91044239 L8.77099354,10.7672224 Z M17.0921637,15.5528586 C16.406784,14.8674789 15.3854158,14.8240165 14.8137085,15.3957238 C14.2420012,15.9674311 14.2854637,16.9887993 14.9708433,17.674179 C15.3645441,18.0678797 16.3770724,18.3859142 17.9704556,18.5524708 C17.8038989,16.9590876 17.4858644,15.9465593 17.0921637,15.5528586 Z"/>
</svg>
