<svg xmlns="http://www.w3.org/2000/svg" width="24" height="24" viewBox="0 0 24 24">
  <path fill="#777" fill-rule="evenodd" d="M7,9 L7,7 C7,4.23857625 9.23857625,2 12,2 C14.7614237,2 17,4.23857625 17,7 L17,9 L18,9 C19.1045695,9 20,9.8954305 20,11 L20,20 C20,21.1045695 19.1045695,22 18,22 L6,22 C4.8954305,22 4,21.1045695 4,20 L4,11 C4,9.8954305 4.8954305,9 6,9 L7,9 Z M7,11 L6,11 L6,20 L18,20 L18,11 L17,11 L7,11 Z M9,9 L15,9 L15,7 C15,5.34314575 13.6568542,4 12,4 C10.3431458,4 9,5.34314575 9,7 L9,9 Z M12,13 C12.5522847,13 13,13.4477153 13,14 L13,17 C13,17.5522847 12.5522847,18 12,18 C11.4477153,18 11,17.5522847 11,17 L11,14 C11,13.4477153 11.4477153,13 12,13 Z"/>
</svg>
