<svg version="1.1" id="Layer_1" xmlns="http://www.w3.org/2000/svg" xmlns:xlink="http://www.w3.org/1999/xlink" x="0px" y="0px"
		 viewBox="0 0 24 24" style="enable-background:new 0 0 24 24;" xml:space="preserve">
<path class="st0" d="M6,2h12c1.1,0,2,1.1,2,2.4v1.4c-0.6,0.1-1.1,0.4-1.4,1L18,7.8V4H6v15h5.6c-0.1,0.1-0.1,0.3-0.1,0.4L11.2,21H6
	c-1.1,0-2-1.1-2-2.4V4.4C4,3.1,4.9,2,6,2z M16.2,21H18c1.1,0,2-1.1,2-2.4v-4.3l-2,3.5V19h-0.7L16.2,21z M18,15.8L18,15.8L16.2,19h0
	l-1,1.7c-0.1,0.1-0.1,0.2-0.2,0.3l-2.1,1.8c-0.2,0.2-0.5,0.1-0.7-0.1C12,22.6,12,22.4,12,22.3l0.5-2.7c0-0.1,0.1-0.2,0.1-0.3l6.9-12
	c0.1-0.2,0.3-0.4,0.5-0.4v0c0.3-0.1,0.6-0.1,0.8,0.1l0.9,0.5c0.5,0.3,0.6,0.9,0.4,1.4L20,12.4v0L18,15.8z M12.7,17l1.2-2H9v-1h5.4
	l1.2-2H8c-0.6,0-1,0.4-1,1v3c0,0.6,0.4,1,1,1H12.7z M8,6C7.4,6,7,6.4,7,7s0.4,1,1,1h8c0.6,0,1-0.4,1-1s-0.4-1-1-1H8z M7,10
	c0-0.6,0.4-1,1-1h5c0.6,0,1,0.4,1,1s-0.4,1-1,1H8C7.4,11,7,10.6,7,10z"/>
</svg>
