<svg xmlns="http://www.w3.org/2000/svg" width="24" height="24" viewBox="0 0 24 24">
  <path fill="#777" fill-rule="evenodd" d="M6.38196601,6 L6.66170799,5.44051605 C7.0757131,4.61250582 8.07305544,4 8.99703014,4 L15.0029699,4 C15.9316352,4 16.9237783,4.6114887 17.338292,5.44051605 L17.618034,6 L19.0049107,6 C20.6607474,6 22,7.34295351 22,9.00276013 L22,17.9972399 C22,19.6549255 20.6603599,21 19.0049107,21 L4.99508929,21 C3.33925262,21 2,19.6570465 2,17.9972399 L2,9.00276013 C2,7.34507451 3.33964013,6 4.99508929,6 L6.38196601,6 Z M7.61803399,8 L4.99508929,8 C4.4460262,8 4,8.44783555 4,9.00276013 L4,17.9972399 C4,18.5537106 4.44505952,19 4.99508929,19 L19.0049107,19 C19.5539738,19 20,18.5521644 20,17.9972399 L20,9.00276013 C20,8.44628939 19.5549405,8 19.0049107,8 L16.381966,8 L15.5494376,6.33494324 C15.4741358,6.18433967 15.1750439,6 15.0029699,6 L8.99703014,6 C8.82842324,6 8.52480102,6.18646594 8.45056237,6.33494324 L7.61803399,8 Z M12,18 C9.790861,18 8,16.209139 8,14 C8,11.790861 9.790861,10 12,10 C14.209139,10 16,11.790861 16,14 C16,16.209139 14.209139,18 12,18 Z M12,16 C13.1045695,16 14,15.1045695 14,14 C14,12.8954305 13.1045695,12 12,12 C10.8954305,12 10,12.8954305 10,14 C10,15.1045695 10.8954305,16 12,16 Z M11,7 L13,7 C13.5522847,7 14,7.44771525 14,8 C14,8.55228475 13.5522847,9 13,9 L11,9 C10.4477153,9 10,8.55228475 10,8 C10,7.44771525 10.4477153,7 11,7 Z"/>
</svg>
