<svg xmlns="http://www.w3.org/2000/svg" width="24" height="24" viewBox="0 0 24 24">
  <path fill="#777" fill-rule="evenodd" d="M4.76459829,14.7004732 L0.479175728,12.1292196 C0.242385595,11.9871455 0.165603063,11.6800154 0.307677142,11.4432253 C0.349902024,11.3728505 0.408800925,11.3139516 0.479175728,11.2717267 L4.76459829,8.70047317 L16.7645983,8.70047317 L16.7645983,7.70047317 C16.7645983,7.14818842 17.2123135,6.70047317 17.7645983,6.70047317 C18.316883,6.70047317 18.7645983,7.14818842 18.7645983,7.70047317 L18.7645983,8.70047317 L21.7645983,8.70047317 C22.316883,8.70047317 22.7645983,9.14818842 22.7645983,9.70047317 L22.7645983,13.7004732 C22.7645983,14.2527579 22.316883,14.7004732 21.7645983,14.7004732 L18.7645983,14.7004732 L18.7645983,15.7004732 C18.7645983,16.2527579 18.316883,16.7004732 17.7645983,16.7004732 C17.2123135,16.7004732 16.7645983,16.2527579 16.7645983,15.7004732 L16.7645983,14.7004732 L4.76459829,14.7004732 Z M16.7645983,12.7004732 L16.7645983,10.7004732 L6.76459829,10.7004732 L6.76459829,12.7004732 L16.7645983,12.7004732 Z M18.7645983,10.7004732 L18.7645983,12.7004732 L20.7645983,12.7004732 L20.7645983,10.7004732 L18.7645983,10.7004732 Z" transform="rotate(-45 11.5 11.7)"/>
</svg>
