<svg xmlns="http://www.w3.org/2000/svg" width="24" height="24" viewBox="0 0 24 24">
  <path fill="#777" fill-rule="evenodd" d="M21.4,12.2l-2.2-4.9C18.6,5.9,17.1,5,15.6,5h-1c-1.1,0-2,0.7-2.3,1.8l0,0C12.2,6.9,12.1,7,12,7 s-0.2-0.1-0.3-0.2l0,0C11.5,5.7,10.5,5,9.5,5h-1c-1.6,0-3,0.9-3.7,2.4l-2.2,4.9C2.2,12.9,2,13.7,2,14.5C2,17,4,19,6.5,19	c1.5,0,2.8-0.7,3.6-1.8c0,0,0.1,0,0.1-0.1C11,16.4,11.6,16,12,16s1,0.4,1.8,1.1c0,0,0.1,0,0.1,0.1c0.8,1.1,2.1,1.8,3.6,1.8 c2.5,0,4.5-2,4.5-4.5C22,13.7,21.8,12.9,21.4,12.2z M6.5,17C5.1,17,4,15.9,4,14.5c0-0.5,0.1-0.9,0.3-1.2c0,0,0-0.1,0.1-0.1 C4.8,12.5,5.6,12,6.5,12C7.9,12,9,13.1,9,14.5S7.9,17,6.5,17z M13,14.2c-0.3-0.1-0.7-0.2-1-0.2s-0.7,0.1-1,0.2 C10.8,11.9,8.9,10,6.5,10c-0.2,0-0.5,0-0.7,0.1l0.8-1.9C6.9,7.5,7.7,7,8.4,7h1c0.1,0,0.3,0.1,0.3,0.2l0,0C10,7.9,10.4,8.5,11,8.8V9	c0,0.6,0.4,1,1,1s1-0.4,1-1V8.8c0.6-0.3,1-0.8,1.2-1.5l0,0c0-0.1,0.2-0.2,0.3-0.2h1c0.8,0,1.5,0.5,1.8,1.2l0.8,1.9 C18,10,17.7,10,17.5,10C15.1,10,13.2,11.9,13,14.2z M17.5,17c-1.4,0-2.5-1.1-2.5-2.5s1.1-2.5,2.5-2.5c0.9,0,1.7,0.5,2.1,1.2 c0,0,0,0.1,0.1,0.1c0.2,0.4,0.3,0.8,0.3,1.2C20,15.9,18.9,17,17.5,17z" />
</svg>
