<svg width="24" height="24" viewBox="0 0 24 24" xmlns="http://www.w3.org/2000/svg">
 <g transform="matrix(1.6876 0 0 1.6876 -1.5004 -1.5004)" clip-rule="evenodd" fill="#777" fill-rule="evenodd">
  <path d="m7.4444 13.333c-0.06136 0-0.11111-0.0498-0.11111-0.1111v-10.444c0-0.06137 0.04975-0.11111 0.11111-0.11111h1.1111c0.06137 0 0.11112 0.04974 0.11112 0.11111v10.444c0 0.0613-0.04975 0.1111-0.11112 0.1111z"/>
  <path d="m13.333 8.5556c0 0.06136-0.0498 0.11111-0.1111 0.11111h-10.444c-0.06137 0-0.11111-0.04975-0.11111-0.11111v-1.1111c0-0.06137 0.04974-0.11112 0.11111-0.11112h10.444c0.0613 0 0.1111 0.04975 0.1111 0.11112z"/>
  <path d="m11.221 5.5642c0.0434 0.04339 0.0434 0.11374 0 0.15713l-5.4997 5.4998c-0.04339 0.0433-0.11374 0.0433-0.15713 0l-0.78568-0.7857c-0.04339-0.0434-0.04339-0.1138 0-0.1572l5.4997-5.4997c0.0434-0.04339 0.1137-0.04339 0.1571 0z"/>
  <path d="m5.5644 4.7791c0.04339-0.0434 0.11375-0.0434 0.15714 0l5.4997 5.4997c0.0434 0.0434 0.0434 0.1137 0 0.1571l-0.7857 0.7857c-0.0434 0.0434-0.1137 0.0434-0.1571 0l-5.4997-5.4997c-0.04339-0.04339-0.04339-0.11374 0-0.15713z"/>
 </g>
</svg>
