<svg xmlns="http://www.w3.org/2000/svg" width="24" height="24" viewBox="0 0 24 24">
  <path fill="#777" d="M7.5,4 C7.77614237,4 8,4.22385763 8,4.5 L8,19.5 C8,19.7761424 7.77614237,20 7.5,20 C7.22385763,20 7,19.7761424 7,19.5 L7,4.5 C7,4.22385763 7.22385763,4 7.5,4 Z M13.5,4 C13.7761424,4 14,4.22385763 14,4.5 L14,19.5 C14,19.7761424 13.7761424,20 13.5,20 C13.2238576,20 13,19.7761424 13,19.5 L13,4.5 C13,4.22385763 13.2238576,4 13.5,4 Z M5,4 C5.55228475,4 6,4.44771525 6,5 L6,19 C6,19.5522847 5.55228475,20 5,20 C4.44771525,20 4,19.5522847 4,19 L4,5 C4,4.44771525 4.44771525,4 5,4 Z M11,4 C11.5522847,4 12,4.44771525 12,5 L12,19 C12,19.5522847 11.5522847,20 11,20 C10.4477153,20 10,19.5522847 10,19 L10,5 C10,4.44771525 10.4477153,4 11,4 Z M16,4 C16.5522847,4 17,4.44771525 17,5 L17,19 C17,19.5522847 16.5522847,20 16,20 C15.4477153,20 15,19.5522847 15,19 L15,5 C15,4.44771525 15.4477153,4 16,4 Z M19,4 C19.5522847,4 20,4.44771525 20,5 L20,19 C20,19.5522847 19.5522847,20 19,20 C18.4477153,20 18,19.5522847 18,19 L18,5 C18,4.44771525 18.4477153,4 19,4 Z"/>
</svg>
