<svg width="25" height="24" viewBox="0 0 25 24" fill="none" xmlns="http://www.w3.org/2000/svg">
<path fill-rule="evenodd" clip-rule="evenodd" d="M9.23317 19.6966C8.64383 19.2054 8.24853 18.4301 8.24853 17.6167C8.24853 16.9956 8.4592 16.009 8.60981 15.3037L8.63051 15.2067C8.63971 15.1637 8.64871 15.1215 8.65751 15.0802C8.249 15.0801 7.80077 15.0799 7.43258 15.0797C7.12606 15.0795 6.875 15.0794 6.74853 15.0794C5.04648 15.0794 4.24852 13.6072 4.24852 12.6162C4.24852 11.6602 4.54846 10.6545 4.70286 10.1368C4.73645 10.0241 4.76316 9.93461 4.77838 9.87371C4.90364 9.37267 5.29202 8.2608 5.56515 7.47884C5.66489 7.19331 5.74926 6.95176 5.79984 6.80002C5.95564 6.33263 6.17291 5.91354 6.49133 5.56965C6.81712 5.21779 7.20315 4.99394 7.6198 4.85506C8.33946 4.61518 9.23408 4.61569 10.1254 4.6162C10.1638 4.61622 10.2023 4.61624 10.2407 4.61625L13.8354 4.56002C13.9243 4.36186 14.0593 4.23709 14.1267 4.183C14.2432 4.08944 14.3536 4.04386 14.3975 4.02666C14.4956 3.98832 14.5822 3.97175 14.6154 3.9656C14.6981 3.9503 14.7848 3.94188 14.8512 3.93648C14.9944 3.92482 15.1817 3.91681 15.3856 3.91106C15.799 3.89941 16.3421 3.89551 16.8785 3.89749C17.4156 3.89946 17.9563 3.90736 18.3665 3.91992C18.5695 3.92614 18.751 3.93381 18.887 3.94331C18.9511 3.94778 19.0264 3.95406 19.0951 3.96397C19.1227 3.96795 19.1907 3.97811 19.2679 4.00065C19.299 4.0097 19.3946 4.03817 19.5026 4.10145C19.5566 4.13313 19.6607 4.20031 19.7606 4.31768C19.8665 4.44203 20 4.66401 20 4.96779L20 12.8653C20 13.2801 19.7589 13.5341 19.6495 13.6284C19.5346 13.7273 19.424 13.7771 19.3777 13.7967C19.2767 13.8395 19.1869 13.8584 19.1523 13.8655C19.0668 13.883 18.9777 13.8928 18.9107 13.8991C18.7655 13.9127 18.5768 13.9225 18.3723 13.93C17.9573 13.9451 17.4129 13.9525 16.8748 13.9525C16.3367 13.9525 15.7923 13.9451 15.3773 13.93C15.1728 13.9225 14.9841 13.9127 14.8389 13.8991C14.7923 13.8947 14.7349 13.8886 14.6756 13.8794C14.1905 14.4427 13.9066 15.245 13.7193 15.9922C13.6921 16.1005 13.6603 16.2442 13.6235 16.4102C13.5272 16.8452 13.3969 17.4331 13.2283 17.9374C13.002 18.614 12.5848 19.5664 11.6955 20.0107C10.7719 20.4722 9.85023 20.2109 9.23317 19.6966ZM13.7495 12.0048L13.7497 6.56161L10.2563 6.61625H10.2485C9.18016 6.61625 8.62444 6.62837 8.25225 6.75243C8.1064 6.80105 8.02368 6.85845 7.95885 6.92846C7.88664 7.00645 7.79141 7.14986 7.69721 7.43247C7.62343 7.6538 7.51624 7.96054 7.39892 8.29628C7.13526 9.05082 6.82041 9.9518 6.71867 10.3588C6.67706 10.5252 6.62649 10.6982 6.57414 10.8774C6.41914 11.4077 6.24852 11.9914 6.24852 12.6162C6.24852 12.6664 6.2814 12.8038 6.38122 12.9207C6.45829 13.011 6.56401 13.0794 6.74853 13.0794C6.88442 13.0794 7.15196 13.0795 7.47454 13.0797C8.35762 13.0802 9.65317 13.0809 9.78946 13.0794L9.79076 13.0794C10.1199 13.0758 10.3955 13.2279 10.5713 13.4297C10.7173 13.5973 10.7721 13.7699 10.7936 13.8509C10.8373 14.015 10.8341 14.162 10.8323 14.2202C10.8279 14.3649 10.804 14.5256 10.7815 14.6578C10.7374 14.9176 10.6644 15.2595 10.5911 15.6025C10.5855 15.6285 10.58 15.6545 10.5744 15.6806C10.4012 16.4918 10.2485 17.2486 10.2485 17.6167C10.2485 17.8021 10.3531 18.0264 10.5136 18.1602C10.5857 18.2203 10.6444 18.2411 10.6786 18.2468C10.704 18.2511 10.74 18.2524 10.8016 18.2216C10.9123 18.1663 11.1201 17.9352 11.3315 17.303C11.4665 16.8996 11.5519 16.5112 11.6381 16.1192C11.6826 15.9165 11.7274 15.713 11.7793 15.5059C12.002 14.6174 12.4825 13.0139 13.7495 12.0048ZM15.7495 11.9403C16.0833 11.9483 16.4772 11.9525 16.8748 11.9525C17.2723 11.9525 17.6662 11.9483 18 11.9403L18 5.91107C17.6636 5.90371 17.2684 5.89893 16.8711 5.89747C16.4752 5.89602 16.083 5.89788 15.7497 5.90349L15.7495 11.9403Z" fill="#52555A"/>
</svg>
