<svg xmlns="http://www.w3.org/2000/svg" width="24" height="24" viewBox="0 0 24 24">
  <path fill="#777" fill-rule="evenodd" d="M21,18 C21.5522847,18 22,18.4477153 22,19 C22,19.5522847 21.5522847,20 21,20 L3,20 C2.44771525,20 2,19.5522847 2,19 C2,18.4477153 2.44771525,18 3,18 L3,16 C3,15.4477153 3.44771525,15 4,15 C4,10.9203823 7.05368842,7.55399184 11,7.06189375 L11,6 C10.4477153,6 10,5.55228475 10,5 C10,4.44771525 10.4477153,4 11,4 L13,4 C13.5522847,4 14,4.44771525 14,5 C14,5.55228475 13.5522847,6 13,6 L13,7.06189375 C16.9414623,7.55338715 19.9924939,10.9121134 19.9999862,14.9849641 L20.0004241,15.0000001 C20.552514,15.0002292 21,15.4478566 21,16 L21,18 Z M19,18 L19,17 L5,17 L5,18 L19,18 Z M18.0001839,15 C17.992607,11.6789048 15.3091494,9 12,9 C8.68854702,9 6.0036572,11.6826358 5.9999808,15 L18.000185,15 Z M10.8636965,9.62284137 C11.4033704,9.50549343 11.9359918,9.84785624 12.0533397,10.3875301 C12.1706877,10.927204 11.8283249,11.4598255 11.288651,11.5771734 C10.2578784,11.801307 9.38849514,12.5022749 8.94471332,13.4561196 C8.7117404,13.9568611 8.11694733,14.1739305 7.61620581,13.9409575 C7.1154643,13.7079846 6.89839497,13.1131916 7.13136789,12.61245 C7.83770807,11.0942742 9.21916237,9.9804327 10.8636965,9.62284137 Z"/>
</svg>
