<svg xmlns="http://www.w3.org/2000/svg" width="24" height="24" viewBox="0 0 24 24">
  <path fill="#777" fill-rule="evenodd" d="M8,19 L8,16 L11,16 L11,19 L13,19 L13,12 L13,6 L6,6 L6,19 L8,19 Z M15,10 L19,10 C20.1045695,10 21,10.8954305 21,12 L21,19 C21,20.1045695 20.1045695,21 19,21 L15,21 L6,21 C4.8954305,21 4,20.1045695 4,19 L4,6 C4,4.8954305 4.8954305,4 6,4 L13,4 C14.1045695,4 15,4.8954305 15,6 L15,10 Z M15,19 L19,19 L19,12 L15,12 L15,19 Z M7,7 L9,7 L9,9 L7,9 L7,7 Z M7,10 L9,10 L9,12 L7,12 L7,10 Z M10,7 L12,7 L12,9 L10,9 L10,7 Z M10,10 L12,10 L12,12 L10,12 L10,10 Z M7,13 L9,13 L9,15 L7,15 L7,13 Z M10,13 L12,13 L12,15 L10,15 L10,13 Z M16,13 L18,13 L18,15 L16,15 L16,13 Z M16,16 L18,16 L18,18 L16,18 L16,16 Z"/>
</svg>
