<svg xmlns="http://www.w3.org/2000/svg" width="24" height="24" viewBox="0 0 24 24">
  <path fill="#777" fill-rule="evenodd" d="M7.73093817,10.7304752 L8.9990719,9.7397005 C9.43427822,9.39968006 10.0627237,9.47684346 10.4027441,9.91204978 C10.7427646,10.3472561 10.6656012,10.9757016 10.2303948,11.315722 L7.07835183,13.7783679 C6.64314551,14.1183884 6.01470005,14.041225 5.6746796,13.6060186 L3.2120337,10.4539756 C2.87201326,10.0187693 2.94917666,9.39032384 3.38438298,9.05030339 C3.8195893,8.71028295 4.44803477,8.78744635 4.78805521,9.22265267 L5.746528,10.4494419 C6.46853774,6.77325255 9.70859106,4 13.5963722,4 C18.0146502,4 21.5963722,7.581722 21.5963722,12 C21.5963722,16.418278 18.0146502,20 13.5963722,20 C11.7100706,20 9.92196377,19.3437873 8.49834017,18.1654762 C8.07288366,17.8133325 8.0134519,17.1829629 8.36559562,16.7575064 C8.71773934,16.3320499 9.34810888,16.2726182 9.7735654,16.6247619 C10.8417586,17.5088888 12.1799822,18 13.5963722,18 C16.9100807,18 19.5963722,15.3137085 19.5963722,12 C19.5963722,8.6862915 16.9100807,6 13.5963722,6 C10.7182379,6 8.31341806,8.02650021 7.73093817,10.7304752 Z M12.6153076,13 L12.5963722,13 L13.0963722,7 L14.0963722,7 L14.5212781,12.09887 L17.2456642,15.4152222 L16.5385574,16.1223289 L12.6153076,13 Z"/>
</svg>
