<svg xmlns="http://www.w3.org/2000/svg" width="24" height="24" viewBox="0 0 24 24">
  <path fill="#777" fill-rule="evenodd" d="M14,14 L19,14 L19,9 L16,9 L8,9 L5,9 L5,14 L10,14 L10,13.5 C10,13.2238576 10.2238576,13 10.5,13 L13.5,13 C13.7761424,13 14,13.2238576 14,13.5 L14,14 Z M5,16 L5,18 L19,18 L19,16 L5,16 Z M8,7 L8,5 C8,4.44771525 8.44771525,4 9,4 L15,4 C15.5522847,4 16,4.44771525 16,5 L16,7 L19,7 C20.1045695,7 21,7.8954305 21,9 L21,18 C21,19.1045695 20.1045695,20 19,20 L5,20 C3.8954305,20 3,19.1045695 3,18 L3,9 C3,7.8954305 3.8954305,7 5,7 L8,7 Z M10,6 L10,7 L14,7 L14,6 L10,6 Z"/>
</svg>
