<svg xmlns="http://www.w3.org/2000/svg" width="24" height="24" viewBox="0 0 24 24">
  <path fill="#777" fill-rule="evenodd" d="M17,6 L15,6 L15,5 L5,5 L5,19 L9,19 L9,20 C9,20.3506354 9.06015422,20.6872211 9.17070571,21 L5,21 C3.8954305,21 3,20.1045695 3,19 L3,5 C3,3.8954305 3.8954305,3 5,3 L15,3 C16.1045695,3 17,3.8954305 17,5 L17,6 Z M9.76389349,7 C9.28885357,7.53075649 9,8.23164556 9,9 L7,9 C6.44771525,9 6,8.55228475 6,8 C6,7.44771525 6.44771525,7 7,7 L9.76389349,7 Z M7,11 L9,11 L9,13 L7,13 C6.44771525,13 6,12.5522847 6,12 C6,11.4477153 6.44771525,11 7,11 Z M7,15 L9,15 L9,17 L7,17 C6.44771525,17 6,16.5522847 6,16 C6,15.4477153 6.44771525,15 7,15 Z M12,7 L19,7 C20.1045695,7 21,7.8954305 21,9 L21,20 C21,21.1045695 20.1045695,22 19,22 L12,22 C10.8954305,22 10,21.1045695 10,20 L10,9 C10,7.8954305 10.8954305,7 12,7 Z M12,9 L12,20 L19,20 L19,9 L12,9 Z M14,16 C13.4477153,16 13,15.5522847 13,15 C13,14.4477153 13.4477153,14 14,14 C14.5522847,14 15,14.4477153 15,15 C15,15.5522847 14.5522847,16 14,16 Z M14,19 C13.4477153,19 13,18.5522847 13,18 C13,17.4477153 13.4477153,17 14,17 C14.5522847,17 15,17.4477153 15,18 C15,18.5522847 14.5522847,19 14,19 Z M17,16 C16.4477153,16 16,15.5522847 16,15 C16,14.4477153 16.4477153,14 17,14 C17.5522847,14 18,14.4477153 18,15 C18,15.5522847 17.5522847,16 17,16 Z M17,19 C16.4477153,19 16,18.5522847 16,18 C16,17.4477153 16.4477153,17 17,17 C17.5522847,17 18,17.4477153 18,18 C18,18.5522847 17.5522847,19 17,19 Z M14,10 L17,10 C17.5522847,10 18,10.4477153 18,11 L18,12 C18,12.5522847 17.5522847,13 17,13 L14,13 C13.4477153,13 13,12.5522847 13,12 L13,11 C13,10.4477153 13.4477153,10 14,10 Z"/>
</svg>
