<svg width="24" height="24" viewBox="0 0 24 24" xmlns="http://www.w3.org/2000/svg">
    <path
        d="M18.5 3.5C19.6046 3.5 20.5 4.51482 20.5 5.76667V18.2333C20.5 19.4852 19.6046 20.5 18.5 20.5H5.5C4.39543 20.5 3.5 19.4852 3.5 18.2333V5.76667C3.5 4.51482 4.39543 3.5 5.5 3.5H18.5ZM18.5 5.76667H5.5V18.2333H6.5V14.2667C6.5 13.9537 6.72386 13.7 7 13.7H9C9.27614 13.7 9.5 13.9537 9.5 14.2667V18.2333H10.5V8.6C10.5 8.28704 10.7239 8.03333 11 8.03333H13C13.2761 8.03333 13.5 8.28704 13.5 8.6V18.2333H14.5V12C14.5 11.687 14.7239 11.4333 15 11.4333H17C17.2761 11.4333 17.5 11.687 17.5 12V18.2333H18.5V5.76667Z"
        fill="#777" />
</svg>