<svg xmlns="http://www.w3.org/2000/svg" width="24" height="24" viewBox="0 0 24 24">
  <path fill="#777" fill-rule="evenodd" d="M5,4 L19,4 C20.1045695,4 21,4.8954305 21,6 L21,19 C21,20.1045695 20.1045695,21 19,21 L5,21 C3.8954305,21 3,20.1045695 3,19 L3,6 C3,4.8954305 3.8954305,4 5,4 Z M5,6 L5,19 L19,19 L19,6 L5,6 Z M7,7 L14,7 C14.5522847,7 15,7.44771525 15,8 C15,8.55228475 14.5522847,9 14,9 L7,9 C6.44771525,9 6,8.55228475 6,8 C6,7.44771525 6.44771525,7 7,7 Z M17,7 C17.5522847,7 18,7.44771525 18,8 C18,8.55228475 17.5522847,9 17,9 C16.4477153,9 16,8.55228475 16,8 C16,7.44771525 16.4477153,7 17,7 Z M17,10 C17.5522847,10 18,10.4477153 18,11 C18,11.5522847 17.5522847,12 17,12 C16.4477153,12 16,11.5522847 16,11 C16,10.4477153 16.4477153,10 17,10 Z M12,10 L14,10 C14.5522847,10 15,10.4477153 15,11 C15,11.5522847 14.5522847,12 14,12 L12,12 C11.4477153,12 11,11.5522847 11,11 C11,10.4477153 11.4477153,10 12,10 Z M17,13 C17.5522847,13 18,13.4477153 18,14 C18,14.5522847 17.5522847,15 17,15 C16.4477153,15 16,14.5522847 16,14 C16,13.4477153 16.4477153,13 17,13 Z M12,13 L14,13 C14.5522847,13 15,13.4477153 15,14 C15,14.5522847 14.5522847,15 14,15 L12,15 C11.4477153,15 11,14.5522847 11,14 C11,13.4477153 11.4477153,13 12,13 Z M17,16 C17.5522847,16 18,16.4477153 18,17 C18,17.5522847 17.5522847,18 17,18 C16.4477153,18 16,17.5522847 16,17 C16,16.4477153 16.4477153,16 17,16 Z M12,16 L14,16 C14.5522847,16 15,16.4477153 15,17 C15,17.5522847 14.5522847,18 14,18 L12,18 C11.4477153,18 11,17.5522847 11,17 C11,16.4477153 11.4477153,16 12,16 Z M7,10 L9,10 C9.55228475,10 10,10.4477153 10,11 C10,11.5522847 9.55228475,12 9,12 L7,12 C6.44771525,12 6,11.5522847 6,11 C6,10.4477153 6.44771525,10 7,10 Z M7,13 L9,13 C9.55228475,13 10,13.4477153 10,14 C10,14.5522847 9.55228475,15 9,15 L7,15 C6.44771525,15 6,14.5522847 6,14 C6,13.4477153 6.44771525,13 7,13 Z M7,16 L9,16 C9.55228475,16 10,16.4477153 10,17 C10,17.5522847 9.55228475,18 9,18 L7,18 C6.44771525,18 6,17.5522847 6,17 C6,16.4477153 6.44771525,16 7,16 Z"/>
</svg>
