<svg version="1.1" id="Layer_1" xmlns="http://www.w3.org/2000/svg" xmlns:xlink="http://www.w3.org/1999/xlink" x="0px" y="0px"
		 viewBox="0 0 24 24" style="enable-background:new 0 0 24 24;" xml:space="preserve">
	<path class="st0" d="M20.7,2.9c1.2,0,2.1,0.9,2.2,2l0,0.2l0,5.3c-0.7-0.4-1.4-0.7-2.2-0.9l0-4.4H2.2v11.8l9.8,0
	c0.1,0.8,0.2,1.5,0.5,2.2L2.2,19C1,19,0.1,18.1,0,17l0-0.2V5.1C0,3.9,0.9,3,2,2.9l0.2,0H20.7z"/>
	<path class="st0" d="M23,17.1L22.9,17c-0.2-0.1-0.4-0.4-0.4-0.6l0-0.1c0-0.3,0.2-0.6,0.4-0.7l0.2-0.1c0.4-0.3,0.5-0.8,0.3-1.2
	l-0.4-0.8c-0.1-0.2-0.3-0.3-0.5-0.4c-0.2-0.1-0.5,0-0.7,0.1l-0.1,0.1c-0.2,0.1-0.5,0.2-0.8,0.1l-0.1-0.1c-0.3-0.2-0.4-0.4-0.4-0.7
	v-0.2c0-0.5-0.4-0.9-0.9-0.9h-0.9c-0.5,0-0.9,0.4-0.9,0.9v0.2c0,0.3-0.1,0.5-0.3,0.7l-0.1,0.1c-0.3,0.2-0.6,0.2-0.9,0l-0.1-0.1
	c-0.4-0.2-0.9-0.1-1.2,0.3l-0.4,0.8c-0.1,0.2-0.1,0.4-0.1,0.7c0.1,0.2,0.2,0.4,0.4,0.5l0.2,0.1c0.2,0.1,0.4,0.4,0.4,0.6l0,0.1
	c0,0.3-0.2,0.6-0.4,0.7l-0.2,0.1c-0.2,0.1-0.4,0.3-0.4,0.5s0,0.5,0.1,0.7l0.4,0.8c0.1,0.2,0.3,0.3,0.5,0.4c0.2,0.1,0.5,0,0.7-0.1
	l0.1-0.1c0.2-0.1,0.5-0.2,0.8-0.1l0.1,0.1c0.3,0.2,0.4,0.4,0.4,0.7v0.2c0,0.5,0.4,0.9,0.9,0.9h0.9c0.5,0,0.9-0.4,0.9-0.9V20
	c0-0.3,0.1-0.5,0.3-0.7l0.1-0.1c0.3-0.2,0.6-0.2,0.9,0l0.1,0.1c0.4,0.2,0.9,0.1,1.2-0.3l0.4-0.8C23.6,17.9,23.4,17.3,23,17.1z
	 M19,17.6c-0.7,0-1.3-0.6-1.3-1.3c0-0.7,0.6-1.3,1.3-1.3c0.7,0,1.3,0.6,1.3,1.3C20.3,17,19.7,17.6,19,17.6z"/>
	<path class="st0" d="M6,8.2c0.9,0,1.6,0.7,1.6,1.6c0,0.5-0.2,1.3-0.6,1.9c0.9,0.4,1.2,1.4,1.5,2.2c0,0.1,0.1,0.2,0.1,0.4
	c0,0,0,0,0,0.1c0,0.2-0.1,0.4-0.3,0.4l-0.1,0H3.8c0,0,0,0-0.1,0c-0.2,0-0.4-0.3-0.4-0.5c0-0.2,0.1-0.3,0.1-0.4
	C3.7,13,4,12.1,4.9,11.7c-0.3-0.6-0.6-1.4-0.6-1.8C4.4,8.9,5.1,8.2,6,8.2z"/>
	<path class="st0" d="M13.1,10.4c0.6,0,1.1,0.5,1.1,1.1c0,0.6-0.5,1.1-1.1,1.1h-2.2c-0.6,0-1.1-0.5-1.1-1.1c0-0.6,0.5-1.1,1.1-1.1
	H13.1z"/>
	<path class="st0" d="M17.5,7.1c0.6,0,1.1,0.5,1.1,1.1s-0.5,1.1-1.1,1.1h-6.5c-0.6,0-1.1-0.5-1.1-1.1s0.5-1.1,1.1-1.1H17.5z"/>
</svg>
