<svg width="16" height="16" viewBox="0 0 16 16" fill="none" xmlns="http://www.w3.org/2000/svg">
  <path fill-rule="evenodd" clip-rule="evenodd" d="M7.71947 2.66683C7.5346 2.66683 7.38614 2.81595 7.38614 2.99927V8.51966L7.93029 8.70104C8.27958 8.81747 8.46836 9.19502 8.35192 9.54432C8.23549 9.89361 7.85795 10.0824 7.50865 9.96595L6.50865 9.63262C6.45866 9.61596 6.41082 9.59342 6.36614 9.5655L4.44521 8.36492C4.31714 8.28487 4.1491 8.31621 4.05849 8.43703C3.97513 8.54817 3.98204 8.70275 4.07497 8.80601L6.53608 11.5406C7.08129 12.0804 8.04385 12.6668 9.71947 12.6668C10.3842 12.6668 10.9474 12.3195 11.3705 11.7053C11.8001 11.0816 12.0528 10.218 12.0528 9.3335V5.00016C12.0528 4.81607 11.9036 4.66683 11.7195 4.66683C11.5354 4.66683 11.3861 4.81607 11.3861 5.00016V7.3335C11.3861 7.70169 11.0877 8.00016 10.7195 8.00016C10.3513 8.00016 10.0528 7.70169 10.0528 7.3335V5.00016C10.0528 4.07969 10.799 3.3335 11.7195 3.3335C12.6399 3.3335 13.3861 4.07969 13.3861 5.00016V9.3335C13.3861 10.449 13.0722 11.5854 12.4685 12.4617C11.8582 13.3475 10.9214 14.0002 9.71947 14.0002C7.67398 14.0002 6.37166 13.2618 5.5814 12.4716L5.569 12.4592L3.08392 9.69796C2.56483 9.1212 2.52624 8.2578 2.99182 7.63703C3.49797 6.96216 4.43652 6.78716 5.15188 7.23425L6.0528 7.79733V2.99927C6.0528 2.07802 6.79977 1.3335 7.71947 1.3335C8.63994 1.3335 9.38614 2.07969 9.38614 3.00016V6.66683C9.38614 7.03502 9.08766 7.3335 8.71947 7.3335C8.35128 7.3335 8.0528 7.03502 8.0528 6.66683V3.00016C8.0528 2.81607 7.90356 2.66683 7.71947 2.66683Z" fill="#F2F2F2"/>
  <path fill-rule="evenodd" clip-rule="evenodd" d="M8.05281 3.66683C8.05281 2.74635 8.799 2.00016 9.71947 2.00016C10.6399 2.00016 11.3861 2.74635 11.3861 3.66683V6.66683H10.0528V3.66683C10.0528 3.48273 9.90357 3.3335 9.71947 3.3335C9.53538 3.3335 9.38614 3.48273 9.38614 3.66683L9.38614 6.66683H8.0528L8.05281 3.66683Z" fill="#F2F2F2"/>
</svg>
