<svg xmlns="http://www.w3.org/2000/svg" width="24" height="24" viewBox="0 0 24 24">
  <path fill="#777" fill-rule="evenodd" d="M11.0190173,14.0002691 L11.0000819,14.0002691 L11.5000819,8.00026909 L12.5000819,8.00026909 L12.9249878,13.0991391 L15.6493739,16.4154913 L14.9422671,17.122598 L11.0190173,14.0002691 Z M12.0000819,22.0002691 C7.02951917,22.0002691 3.00008192,17.9708318 3.00008192,13.0002691 C3.00008192,8.02970634 7.02951917,4.00026909 12.0000819,4.00026909 C16.9706447,4.00026909 21.0000819,8.02970634 21.0000819,13.0002691 C21.0000819,17.9708318 16.9706447,22.0002691 12.0000819,22.0002691 Z M12.0000819,20.0002691 C15.8660752,20.0002691 19.0000819,16.8662623 19.0000819,13.0002691 C19.0000819,9.13427584 15.8660752,6.00026909 12.0000819,6.00026909 C8.13408867,6.00026909 5.00008192,9.13427584 5.00008192,13.0002691 C5.00008192,16.8662623 8.13408867,20.0002691 12.0000819,20.0002691 Z M7.66130809,2.06760711 C8.17640307,1.86836956 8.75548401,2.12442261 8.95472155,2.6395176 C9.1539591,3.15461258 8.89790605,3.73369352 8.38281107,3.93293106 C6.54464018,4.6439313 4.9540428,5.88945578 3.81669749,7.49860846 C3.4979287,7.94961279 2.87390429,8.05681087 2.42289997,7.73804208 C1.97189564,7.41927329 1.86469756,6.79524889 2.18346635,6.34424456 C3.54729368,4.41465783 5.45454018,2.92117982 7.66130809,2.06760711 Z M16.3610206,2.06760711 C18.5677885,2.92117982 20.475035,4.41465783 21.8388623,6.34424456 C22.1576311,6.79524889 22.050433,7.41927329 21.5994287,7.73804208 C21.1484244,8.05681087 20.5244,7.94961279 20.2056312,7.49860846 C19.0682859,5.88945578 17.4776885,4.6439313 15.6395176,3.93293106 C15.1244226,3.73369352 14.8683696,3.15461258 15.0676071,2.6395176 C15.2668447,2.12442261 15.8459256,1.86836956 16.3610206,2.06760711 Z"/>
</svg>
