<svg width="25" height="24" viewBox="0 0 25 24" fill="none" xmlns="http://www.w3.org/2000/svg">
<g id="Miscellaneous/misc-car 1">
<path id="vector" d="M12.6666 5C14.1123 5 15.5559 5.2322 16.9941 5.69486C17.9036 5.98745 18.6193 6.6957 18.9214 7.60203L20.6153 12.6838C20.6649 12.8324 20.6776 13.069 20.6584 13.3356C20.664 13.4077 20.6666 13.4805 20.6666 13.5539V19C20.6666 19.5523 20.2189 20 19.6666 20H18.6666C18.1143 20 17.6666 19.5523 17.6666 19L17.666 18H7.66602L7.66663 19C7.66663 19.5523 7.21892 20 6.66663 20H5.66663C5.11435 20 4.66663 19.5523 4.66663 19V13.5575C4.66663 13.4868 4.6691 13.4165 4.67397 13.3469C4.65568 13.0739 4.66836 12.8325 4.71795 12.6838L6.41186 7.60202C6.71398 6.69568 7.42972 5.98742 8.33919 5.69485C9.77735 5.2322 11.2209 5 12.6666 5ZM12.6873 12C10.9511 12 9.20607 12.1935 7.45102 12.581C6.99285 12.6822 6.66663 13.0883 6.66663 13.5575V16H10.6666V15C10.6666 14.4477 11.1143 14 11.6666 14H13.6666C14.2189 14 14.6666 14.4477 14.6666 15V16H18.6666V13.5539C18.6666 13.0852 18.3411 12.6794 17.8836 12.5777C16.1503 12.1924 14.4186 12 12.6873 12ZM8.66663 13C9.21892 13 9.66663 13.4477 9.66663 14C9.66663 14.5523 9.21892 15 8.66663 15C8.11435 15 7.66663 14.5523 7.66663 14C7.66663 13.4477 8.11435 13 8.66663 13ZM16.6666 13C17.2189 13 17.6666 13.4477 17.6666 14C17.6666 14.5523 17.2189 15 16.6666 15C16.1143 15 15.6666 14.5523 15.6666 14C15.6666 13.4477 16.1143 13 16.6666 13ZM12.6666 7C11.4315 7 10.1943 7.199 8.95167 7.59876C8.64852 7.69628 8.40993 7.93237 8.30923 8.23448L7.54802 10.518L7.65141 10.4963C9.33513 10.1656 11.014 10 12.6873 10C14.3871 10 16.0862 10.1709 17.7835 10.5123L17.024 8.23449C16.9233 7.93238 16.6847 7.69629 16.3816 7.59876C15.139 7.199 13.9017 7 12.6666 7Z" fill="#52555A"/>
</g>
</svg>
