<svg xmlns="http://www.w3.org/2000/svg" width="24" height="24" viewBox="0 0 24 24">
  <path fill="#777" fill-rule="evenodd" d="M12,22 C6.4771525,22 2,17.5228475 2,12 C2,6.4771525 6.4771525,2 12,2 C17.5228475,2 22,6.4771525 22,12 C22,17.5228475 17.5228475,22 12,22 Z M12,20 C16.418278,20 20,16.418278 20,12 C20,7.581722 16.418278,4 12,4 C7.581722,4 4,7.581722 4,12 C4,16.418278 7.581722,20 12,20 Z M10.183829,9.92121614 L16.4255344,7.24619956 C16.5524418,7.19181066 16.6994115,7.25059855 16.7538004,7.37750599 C16.7807521,7.44039319 16.7807521,7.51157844 16.7538004,7.57446564 L14.0787839,13.816171 C14.0282092,13.9341784 13.9341784,14.0282092 13.816171,14.0787839 L7.57446564,16.7538004 C7.4475582,16.8081893 7.30058847,16.7494015 7.24619956,16.622494 C7.2192479,16.5596068 7.2192479,16.4884216 7.24619956,16.4255344 L9.92121614,10.183829 C9.97179076,10.0658216 10.0658216,9.97179076 10.183829,9.92121614 Z M12,11 C11.4477153,11 11,11.4477153 11,12 C11,12.5522847 11.4477153,13 12,13 C12.5522847,13 13,12.5522847 13,12 C13,11.4477153 12.5522847,11 12,11 Z"/>
</svg>
