<svg xmlns="http://www.w3.org/2000/svg" width="24" height="24" viewBox="0 0 24 24">
  <path fill="#777" fill-rule="evenodd" d="M11.946614,16.9301541 C11.946614,17.4824388 11.4988988,17.9301541 10.946614,17.9301541 C10.3943293,17.9301541 9.94661402,17.4824388 9.94661402,16.9301541 L9.94661402,6.42187803 C9.94661402,5.03902831 11.0660304,3.91715972 12.4488768,3.91413374 C13.8302294,3.91111103 14.9524873,5.02846817 14.95551,6.40982076 L14.955516,18.9791364 C14.955516,21.1733391 13.1767633,22.9520917 10.9825607,22.9520917 C8.77914138,22.9485374 7,21.1665195 7,18.9695155 L7,6.49655186 C7,3.46322323 9.45725,1.00330065 12.4905768,1.00000331 C15.5208436,0.996709298 17.9800305,3.45055554 17.9833245,6.4808223 L17.9833277,16.9575776 C17.9833277,17.5098623 17.5356125,17.9575776 16.9833277,17.9575776 C16.431043,17.9575776 15.9833277,17.5098623 15.9833277,16.9575776 L15.9833277,6.48678664 C15.9812324,4.55729846 14.4184488,2.99790882 12.4927509,3.00000213 C10.563144,3.00209969 9,4.5669438 9,6.49655186 L9,18.9695155 C9,20.0632116 9.88567883,20.9503223 10.9793735,20.9520892 C12.0721938,20.9520917 12.955516,20.0687696 12.955516,18.9791364 L12.955516,6.41529387 C12.9549092,6.13741147 12.730039,5.91352328 12.4532532,5.91412895 C12.173265,5.91474163 11.946614,6.14188909 11.946614,6.42187803 L11.946614,16.9301541 Z"/>
</svg>
