<svg width="24" height="24" viewBox="0 0 24 24" fill="none" xmlns="http://www.w3.org/2000/svg">
<path d="M14.8251 14.302C14.7832 14.1866 14.7001 14 14.7001 13.7511C14.7001 13.5022 14.7001 11.3386 14.7001 9.88051C14.7001 8.42241 13.7502 7.5 12.2502 7.5C10.7502 7.5 9.69553 8.43784 9.69553 9.89045C9.69553 9.89045 9.69553 13.6628 9.69553 13.7511C9.69553 13.8394 9.69224 13.9612 9.59375 14.302C9.49526 14.6427 9.25 15.5 9.25 15.5H15.2502C15.2502 15.5 14.8669 14.4173 14.8251 14.302ZM15.2001 18C15.2001 18.5538 14.7502 19.5 13.2502 19.5C11.7502 19.5 11.2001 18.5597 11.2001 18H15.2001ZM12.1955 5C12.6097 5 12.9455 5.33584 12.9455 5.75011L12.9461 5.76827C15.0494 5.96497 16.6955 7.73544 16.6955 9.89045V13.7511C16.6955 13.9368 16.7185 14.1219 16.764 14.302L17.0668 15.5015H17.4455C17.8597 15.5015 18.2502 16.0857 18.2502 16.5C18.2502 16.9143 17.8597 17.5 17.4455 17.5H6.75021C6.25 17.5 6.00002 16.875 6 16.5C5.99998 16.125 6.25 15.5 6.94553 15.5015L7.25024 15.5L7.62793 14.2805C7.67282 14.1014 7.69553 13.9176 7.69553 13.733V9.88051C7.69553 7.7273 9.34291 5.9589 11.4459 5.76731L11.4455 5.75011C11.4455 5.33584 11.7813 5 12.1955 5Z" fill="#52555A"/>
</svg>
