<svg xmlns="http://www.w3.org/2000/svg" width="24" height="24" viewBox="0 0 24 24">
  <path fill="#777" fill-rule="evenodd" d="M8.98397631,5 L9.62388993,5.86483117 C9.87865138,6.20913646 10.0161515,6.62613327 10.0161515,7.05444336 L10.0161515,11 C10.0161515,11.4327404 9.87579576,11.8538077 9.61615151,12.2 L9.01615151,13 L15.0161515,13 L14.4161515,12.2 C14.1565072,11.8538077 14.0161515,11.4327404 14.0161515,11 L14.0161515,7.0390625 C14.0161515,6.60950882 14.1544503,6.19136867 14.4105789,5.84652886 L15.0393353,5 L8.98397631,5 Z M13.0161515,15 L13.0161515,20 C13.0161515,20.5522847 12.5684363,21 12.0161515,21 C11.4638668,21 11.0161515,20.5522847 11.0161515,20 L11.0161515,15 L7.01615151,15 C6.46386676,15 6.01615151,14.5522847 6.01615151,14 C6.01615151,13.7836298 6.08632938,13.5730962 6.21615151,13.4 L8.01615151,11 L8.01615151,7.05444336 L6.1961947,4.5948061 C5.86769236,4.15084139 5.96129311,3.52463313 6.40525781,3.19613079 C6.57741046,3.06875006 6.78590887,3 7.00006391,3 L17.0277434,3 C17.5800282,3 18.0277434,3.44771525 18.0277434,4 C18.0277434,4.21477684 17.958594,4.42384691 17.8305297,4.59626682 L16.0161515,7.0390625 L16.0161515,11 L17.8161515,13.4 C18.1475224,13.8418278 18.0579793,14.4686292 17.6161515,14.8 C17.4430553,14.9298221 17.2325217,15 17.0161515,15 L13.0161515,15 Z"/>
</svg>
