<svg width="24" height="24" xmlns="http://www.w3.org/2000/svg"><path d="M4.096 5.62a5.242 5.242 0 0 1 .025-1.224C4.333 2.962 5.27 2 6.88 2c1.913 0 3.617 1.252 5.138 3.62h.194C13.764 3.25 15.48 2 17.393 2c1.838 0 2.69 1.208 2.664 2.88a5.947 5.947 0 0 1-.06.74H20a2 2 0 0 1 2 2v3a2 2 0 0 1-1 1.733v7.268a2 2 0 0 1-2 2H5a2 2 0 0 1-2-2v-7.268a2 2 0 0 1-1-1.732v-3a2 2 0 0 1 2-2h.096zm14.904 7h-6v7h6v-7zm-8 7v-7H5v7h6zm9-9v-3H4v3h16zM6.102 5.59H9.53C8.626 4.51 7.738 4 6.88 4c-.538 0-.704.171-.78.688a3.38 3.38 0 0 0 .002.902zm11.873 0c.05-.27.078-.516.082-.742.01-.672-.114-.848-.664-.848-.859 0-1.755.51-2.674 1.59h3.256z" fill="#777" fill-rule="nonzero"/></svg>