<svg xmlns="http://www.w3.org/2000/svg" width="24" height="24" viewBox="0 0 24 24">
  <path fill="#777" fill-rule="evenodd" d="M5.96377005,8 L10.8087361,14.6618283 C10.9330418,14.8327486 11,15.0386575 11,15.25 L11,17.381966 L13,18.381966 L13,15.25 C13,15.0386575 13.0669582,14.8327486 13.1912639,14.6618283 L18.03623,8 L5.96377005,8 Z M3.49077541,8 L3,8 C2.44771525,8 2,7.55228475 2,7 L2,4 C2,3.44771525 2.44771525,3 3,3 L21,3 C21.5522847,3 22,3.44771525 22,4 L22,7 C22,7.55228475 21.5522847,8 21,8 L20.5092246,8 L15,15.5751838 L15,20 C15,20.743382 14.2176875,21.2268777 13.5527864,20.8944272 L9.5527864,18.8944272 C9.21400238,18.7250352 9,18.3787721 9,18 L9,15.5751838 L3.49077541,8 Z M4,5 L4,6 L20,6 L20,5 L4,5 Z"/>
</svg>
