<svg width="24" height="24" viewBox="0 0 24 24" fill="none" xmlns="http://www.w3.org/2000/svg">
<path d="M5.99702 20.0046C5.44474 20.0046 4.99702 19.5569 4.99702 19.0046L4.997 13.004L3.3 13.0046C3.02386 13.0046 2.8 12.7808 2.8 12.5046C2.8 12.3629 2.86016 12.2278 2.96552 12.133L5.997 9.403L5.99702 6.50464C5.99702 6.22849 6.22088 6.00464 6.49702 6.00464H7.49702C7.77317 6.00464 7.99702 6.22849 7.99702 6.50464L7.997 7.604L11.3281 4.6067C11.7084 4.26443 12.2857 4.26443 12.666 4.6067L21.0268 12.1315C21.2321 12.3162 21.2487 12.6323 21.064 12.8376C20.969 12.9431 20.8337 13.0033 20.6918 13.0031L18.997 13L18.997 19.0046C18.997 19.5569 18.5493 20.0046 17.997 20.0046H5.99702ZM11.997 6.69536L6.997 11.194L6.99702 18.0046C6.99702 18.0046 12.1384 18.0279 16.997 18.0046L16.997 11.196L11.997 6.69536Z" fill="#52555A"/>
<path d="M12 10.51C12.9205 10.51 13.6667 11.2169 13.6667 12.0889C13.6667 12.7069 13.6316 13.0524 13.4723 13.4216C13.4152 13.5538 13.3445 13.6729 13.2599 13.7777L13.703 13.9352C14.4832 14.2127 15 14.9195 15 15.709V16.1942C15 16.3686 14.8508 16.51 14.6667 16.51H9.33335C9.14925 16.51 9.00002 16.3686 9.00002 16.1942V15.7099C9.00002 14.9198 9.5175 14.2127 10.2985 13.9356L10.7408 13.7786C10.656 13.6736 10.585 13.5542 10.5278 13.4216C10.3685 13.0524 10.3333 12.7069 10.3333 12.0889C10.3333 11.2169 11.0795 10.51 12 10.51Z" fill="#52555A"/>
</svg>
