<svg width="24" height="24" viewBox="0 0 24 24" fill="none" xmlns="http://www.w3.org/2000/svg">
  <path fill-rule="evenodd" clip-rule="evenodd" d="M7 18H17V9.82843L13.1716 6H7L7 18ZM17 20H7C5.89543 20 5 19.1046 5 18V6C5 4.89543 5.89543 4 7 4H13.5858C13.851 4 14.1054 4.10536 14.2929 4.29289L18.7071 8.70711C18.8946 8.89464 19 9.149 19 9.41421V18C19 19.1046 18.1046 20 17 20Z" fill="#52555A"/>
  <path fill-rule="evenodd" clip-rule="evenodd" d="M12.805 10.4197C12.7232 10.1691 12.4933 10 12.2344 10H11.7656C11.5067 10 11.2768 10.1691 11.195 10.4197L11.0693 10.8044C10.9918 10.8376 10.916 10.8749 10.8424 10.9163L10.4783 10.7769C10.2359 10.684 9.96248 10.7599 9.79954 10.9653L9.50456 11.337C9.34161 11.5424 9.32571 11.8311 9.46507 12.0538L9.68362 12.403C9.66159 12.4829 9.64352 12.564 9.62953 12.6461L9.28785 12.8593C9.06694 12.9971 8.95721 13.2637 9.01546 13.5211L9.1209 13.9872C9.17914 14.2447 9.39229 14.4352 9.65004 14.4602L10.0432 14.4984C10.092 14.5679 10.1444 14.6348 10.2 14.6988L10.1484 15.0956C10.1143 15.3575 10.2483 15.6123 10.481 15.7282L10.9023 15.9379C11.135 16.0537 11.4143 16.0046 11.5955 15.8159L11.8782 15.5217C11.9187 15.5237 11.9593 15.5248 12 15.5248C12.0407 15.5248 12.0813 15.5237 12.1218 15.5217L12.4045 15.8159C12.5857 16.0046 12.865 16.0537 13.0977 15.9379L13.519 15.7282C13.7517 15.6123 13.8857 15.3575 13.8516 15.0956L13.8 14.6988C13.8556 14.6348 13.908 14.5679 13.9568 14.4984L14.35 14.4602C14.6077 14.4352 14.8209 14.2447 14.8791 13.9872L14.9845 13.5211C15.0428 13.2637 14.9331 12.9971 14.7121 12.8593L14.3705 12.6461C14.3565 12.564 14.3384 12.4829 14.3164 12.403L14.5349 12.0538C14.6743 11.8311 14.6584 11.5424 14.4954 11.337L14.2005 10.9653C14.0375 10.7599 13.7641 10.684 13.5217 10.7769L13.1576 10.9163C13.084 10.8749 13.0082 10.8376 12.9307 10.8044L12.805 10.4197ZM12 13.9999C12.5523 13.9999 13 13.5522 13 13C13 12.4477 12.5523 12 12 12C11.4477 12 11 12.4477 11 13C11 13.5522 11.4477 13.9999 12 13.9999Z" fill="#52555A"/>
</svg>
