<svg xmlns="http://www.w3.org/2000/svg" width="24" height="24" viewBox="0 0 24 24">
  <path fill="#777" fill-rule="evenodd" d="M7.03414157,6 L17.0341416,6 C18.1387111,6 19.0341416,6.8954305 19.0341416,8 L19.0341416,21 C19.0341416,22.1045695 18.1387111,23 17.0341416,23 L7.03414157,23 C5.92957207,23 5.03414157,22.1045695 5.03414157,21 L5.03414157,8 C5.03414157,6.8954305 5.92957207,6 7.03414157,6 Z M7.03414157,8 L7.03414157,21 L17.0341416,21 L17.0341416,8 L7.03414157,8 Z M9.03414157,9 L15.0341416,9 C15.5864263,9 16.0341416,9.44771525 16.0341416,10 C16.0341416,10.5522847 15.5864263,11 15.0341416,11 L9.03414157,11 C8.48185682,11 8.03414157,10.5522847 8.03414157,10 C8.03414157,9.44771525 8.48185682,9 9.03414157,9 Z M9.03414157,12 C9.58642632,12 10.0341416,12.4477153 10.0341416,13 C10.0341416,13.5522847 9.58642632,14 9.03414157,14 C8.48185682,14 8.03414157,13.5522847 8.03414157,13 C8.03414157,12.4477153 8.48185682,12 9.03414157,12 Z M9.03414157,15 C9.58642632,15 10.0341416,15.4477153 10.0341416,16 C10.0341416,16.5522847 9.58642632,17 9.03414157,17 C8.48185682,17 8.03414157,16.5522847 8.03414157,16 C8.03414157,15.4477153 8.48185682,15 9.03414157,15 Z M12.0341416,12 C12.5864263,12 13.0341416,12.4477153 13.0341416,13 C13.0341416,13.5522847 12.5864263,14 12.0341416,14 C11.4818568,14 11.0341416,13.5522847 11.0341416,13 C11.0341416,12.4477153 11.4818568,12 12.0341416,12 Z M12.0341416,15 C12.5864263,15 13.0341416,15.4477153 13.0341416,16 C13.0341416,16.5522847 12.5864263,17 12.0341416,17 C11.4818568,17 11.0341416,16.5522847 11.0341416,16 C11.0341416,15.4477153 11.4818568,15 12.0341416,15 Z M15.0341416,12 C15.5864263,12 16.0341416,12.4477153 16.0341416,13 C16.0341416,13.5522847 15.5864263,14 15.0341416,14 C14.4818568,14 14.0341416,13.5522847 14.0341416,13 C14.0341416,12.4477153 14.4818568,12 15.0341416,12 Z M15.0341416,15 C15.5864263,15 16.0341416,15.4477153 16.0341416,16 C16.0341416,16.5522847 15.5864263,17 15.0341416,17 C14.4818568,17 14.0341416,16.5522847 14.0341416,16 C14.0341416,15.4477153 14.4818568,15 15.0341416,15 Z M9.03414157,18 C9.58642632,18 10.0341416,18.4477153 10.0341416,19 C10.0341416,19.5522847 9.58642632,20 9.03414157,20 C8.48185682,20 8.03414157,19.5522847 8.03414157,19 C8.03414157,18.4477153 8.48185682,18 9.03414157,18 Z M12.0341416,18 C12.5864263,18 13.0341416,18.4477153 13.0341416,19 C13.0341416,19.5522847 12.5864263,20 12.0341416,20 C11.4818568,20 11.0341416,19.5522847 11.0341416,19 C11.0341416,18.4477153 11.4818568,18 12.0341416,18 Z M15.0341416,18 C15.5864263,18 16.0341416,18.4477153 16.0341416,19 C16.0341416,19.5522847 15.5864263,20 15.0341416,20 C14.4818568,20 14.0341416,19.5522847 14.0341416,19 C14.0341416,18.4477153 14.4818568,18 15.0341416,18 Z M12.0341416,1 C12.5864263,1 13.0341416,1.44771525 13.0341416,2 L13.0341416,4 C13.0341416,4.55228475 12.5864263,5 12.0341416,5 C11.4818568,5 11.0341416,4.55228475 11.0341416,4 L11.0341416,2 C11.0341416,1.44771525 11.4818568,1 12.0341416,1 Z M23.4982432,6.12132034 C23.7743856,6.59961297 23.6105104,7.21120337 23.1322178,7.48734575 L21.400167,8.48734575 C20.9218744,8.76348812 20.3102839,8.59961297 20.0341416,8.12132034 C19.7579992,7.64302772 19.9218744,7.03143731 20.400167,6.75529494 L22.1322178,5.75529494 C22.6105104,5.47915256 23.2221008,5.64302772 23.4982432,6.12132034 Z M0.534141571,6.12132034 C0.810283946,5.64302772 1.42187435,5.47915256 1.90016698,5.75529494 L3.63221778,6.75529494 C4.11051041,7.03143731 4.27438556,7.64302772 3.99824319,8.12132034 C3.72210081,8.59961297 3.11051041,8.76348812 2.63221778,8.48734575 L0.900166975,7.48734575 C0.421874352,7.21120337 0.257999197,6.59961297 0.534141571,6.12132034 Z M5.71053861,1.99692349 C6.18883124,1.72078112 6.80042164,1.88465628 7.07656402,2.3629489 L8.07656402,4.09499971 C8.35270639,4.57329233 8.18883124,5.18488274 7.71053861,5.46102511 C7.23224599,5.73716749 6.62065558,5.57329233 6.34451321,5.09499971 L5.34451321,3.3629489 C5.06837083,2.88465628 5.23224599,2.27306587 5.71053861,1.99692349 Z M18.7105386,1.99692349 C19.1888312,2.27306587 19.3527064,2.88465628 19.076564,3.3629489 L18.076564,5.09499971 C17.8004216,5.57329233 17.1888312,5.73716749 16.7105386,5.46102511 C16.232246,5.18488274 16.0683708,4.57329233 16.3445132,4.09499971 L17.3445132,2.3629489 C17.6206556,1.88465628 18.232246,1.72078112 18.7105386,1.99692349 Z"/>
</svg>
