<svg xmlns="http://www.w3.org/2000/svg" width="24" height="24" viewBox="0 0 24 24">
  <path fill="#777" fill-rule="evenodd" d="M9.98812185,11.911061 C9.93083587,12.097248 9.9,12.295023 9.9,12.5 C9.9,13.6045695 10.7954305,14.5 11.9,14.5 C13.0045695,14.5 13.9,13.6045695 13.9,12.5 C13.9,11.3954305 13.0045695,10.5 11.9,10.5 C11.695023,10.5 11.497248,10.5308359 11.311061,10.5881219 C11.6583235,10.7449078 11.9,11.0942306 11.9,11.5 C11.9,12.0522847 11.4522847,12.5 10.9,12.5 C10.4942306,12.5 10.1449078,12.2583235 9.98812185,11.911061 Z M11.9,19 C7.58809256,19 4.90551071,17.1610417 2.16794971,13.0547002 C1.94401676,12.7188008 1.94401676,12.2811992 2.16794971,11.9452998 C4.90551071,7.8389583 7.58809256,6 11.9,6 C16.2119074,6 18.8944893,7.8389583 21.6320503,11.9452998 C21.8559832,12.2811992 21.8559832,12.7188008 21.6320503,13.0547002 C18.8944893,17.1610417 16.2119074,19 11.9,19 Z M11.9,17 C15.2584359,17 17.3385737,15.6960882 19.5882527,12.5 C17.3385737,9.30391178 15.2584359,8 11.9,8 C8.5415641,8 6.46142634,9.30391178 4.21174732,12.5 C6.46142634,15.6960882 8.5415641,17 11.9,17 Z M11.9,16.5 C9.690861,16.5 7.9,14.709139 7.9,12.5 C7.9,10.290861 9.690861,8.5 11.9,8.5 C14.109139,8.5 15.9,10.290861 15.9,12.5 C15.9,14.709139 14.109139,16.5 11.9,16.5 Z"/>
</svg>
