<svg xmlns="http://www.w3.org/2000/svg" width="24" height="24" viewBox="0 0 24 24">
  <path fill="#777" fill-rule="evenodd" d="M5,11 L8,11 C8.55228475,11 9,11.4477153 9,12 L9,20 C9,20.5522847 8.55228475,21 8,21 L5,21 C4.44771525,21 4,20.5522847 4,20 L4,12 C4,11.4477153 4.44771525,11 5,11 Z M6,13 L6,19 L7,19 L7,13 L6,13 Z M11,4 L14,4 C14.5522847,4 15,4.44771525 15,5 L15,20 C15,20.5522847 14.5522847,21 14,21 L11,21 C10.4477153,21 10,20.5522847 10,20 L10,5 C10,4.44771525 10.4477153,4 11,4 Z M12,6 L12,19 L13,19 L13,6 L12,6 Z M17,8 L20,8 C20.5522847,8 21,8.44771525 21,9 L21,20 C21,20.5522847 20.5522847,21 20,21 L17,21 C16.4477153,21 16,20.5522847 16,20 L16,9 C16,8.44771525 16.4477153,8 17,8 Z M18,10 L18,19 L19,19 L19,10 L18,10 Z"/>
</svg>
