<svg xmlns="http://www.w3.org/2000/svg" width="24" height="24" viewBox="0 0 24 24">
  <path fill="#777" fill-rule="evenodd" d="M10.9970209,18.0046376 L10.9970209,14.5046376 C10.9970209,14.2284952 11.2208785,14.0046376 11.4970209,14.0046376 L12.4970209,14.0046376 C12.7731633,14.0046376 12.9970209,14.2284952 12.9970209,14.5046376 L12.9970209,18.0046376 L16.9970209,18.0046376 L16.9970209,14.0046376 L16.9970209,11.1953624 L11.9970209,6.6953624 L6.99702089,11.1953624 L6.99702089,13.5046376 L6.99702089,18.0046376 L10.9970209,18.0046376 Z M5.99702089,9.4046376 L5.99702089,6.5046376 C5.99702089,6.22849522 6.22087851,6.0046376 6.49702089,6.0046376 L7.49702089,6.0046376 C7.77316326,6.0046376 7.99702089,6.22849522 7.99702089,6.5046376 L7.99702089,7.6046376 L11.3280562,4.60670585 C11.7083611,4.26443138 12.2856806,4.26443138 12.6659856,4.60670585 L21.0268327,12.1314682 C21.2320877,12.3161978 21.2487269,12.6323427 21.0639974,12.8375977 C20.9690402,12.9431057 20.8337135,13.0032806 20.6917671,13.003115 L18.9970209,13.001138 L18.9970209,19.0046376 C18.9970209,19.5569223 18.5493056,20.0046376 17.9970209,20.0046376 L5.99702089,20.0046376 C5.44473614,20.0046376 4.99702089,19.5569223 4.99702089,19.0046376 L4.99702089,13.0046376 L3.3,13.0046376 C3.02385763,13.0046376 2.8,12.78078 2.8,12.5046376 C2.8,12.3628943 2.8601607,12.2278118 2.96551763,12.1329905 L5.99702089,9.4046376 Z"/>
</svg>
