<svg xmlns="http://www.w3.org/2000/svg" width="24" height="24" viewBox="0 0 24 24">
  <path fill="#777" fill-rule="evenodd" d="M5.03373799,16.0823226 C4.09619236,15.2747824 3.1611808,14.3037016 2.22827425,13.1716286 C1.92390858,12.8022838 1.92390858,12.2690624 2.22827425,11.8997176 C5.42177899,8.02443085 8.63995061,6.03567311 11.9,6.03567311 C13.1684724,6.03567311 14.2959409,6.19481886 15.3252855,6.52401746 L17.7551463,4.26727709 C18.1598204,3.89143488 18.7925538,3.9148077 19.168396,4.31948174 C19.5442382,4.72415578 19.5208654,5.35688922 19.1161914,5.73273143 L5.08052252,18.7684003 C4.67584848,19.1442425 4.04311504,19.1208697 3.66727283,18.7161956 C3.29143062,18.3115216 3.31480344,17.6787882 3.71947748,17.3029459 L5.03373799,16.0823226 Z M13.5635424,8.16024161 C13.0434108,8.07612447 12.4915338,8.03567311 11.9,8.03567311 C9.49899374,8.03567311 6.96488702,9.50767294 4.31182189,12.5356731 C5.05355982,13.3822345 5.78599952,14.1071732 6.50883195,14.7123247 L7.98177974,13.3443201 C7.92816216,13.0831532 7.9,12.812702 7.9,12.5356731 C7.9,10.3265341 9.690861,8.53567311 11.9,8.53567311 C12.2799404,8.53567311 12.6475085,8.58864516 12.9957218,8.68760667 L13.5635424,8.16024161 Z M7.93067997,18.0500611 L9.52500503,16.569327 C10.3303193,16.8811765 11.1221445,17.0356731 11.9,17.0356731 C15.2584359,17.0356731 17.3385737,15.7317613 19.5882527,12.5356731 C18.7204362,11.3027781 17.8778481,10.3514465 16.9773805,9.64791126 L18.4588521,8.27199014 C19.5694456,9.19951792 20.5968168,10.4281227 21.6320503,11.9809729 C21.8559832,12.3168723 21.8559832,12.7544739 21.6320503,13.0903733 C18.8944893,17.1967148 16.2119074,19.0356731 11.9,19.0356731 C10.5703158,19.0356731 9.24759841,18.7048236 7.93067997,18.0500611 Z M10.049078,16.0825927 L11.7229847,14.5279468 C11.7813078,14.5330617 11.8403489,14.5356731 11.9,14.5356731 C13.0045695,14.5356731 13.9,13.6402426 13.9,12.5356731 C13.9,12.5258436 13.8999291,12.5160306 13.8997878,12.5062347 L15.5739679,10.9513348 C15.7837564,11.4371651 15.9,11.972844 15.9,12.5356731 C15.9,14.7448121 14.109139,16.5356731 11.9,16.5356731 C11.2321588,16.5356731 10.6025442,16.3720057 10.049078,16.0825927 Z"/>
</svg>
