<svg xmlns="http://www.w3.org/2000/svg" width="24" height="24" viewBox="0 0 24 24">
  <path fill="#777" fill-rule="evenodd" d="M13,7 L20.1412058,7 C20.6934906,7 21.1412058,7.44771525 21.1412058,8 C21.1412058,8.19594439 21.0836403,8.38757134 20.9756596,8.55107789 L18,13.0568848 L20.9511496,17.4416403 C21.2595231,17.8998152 21.1380852,18.5212254 20.6799103,18.829599 C20.5148818,18.940671 20.3204763,19 20.1215506,19 L9,19 C8.44771525,19 8,18.5522847 8,18 L8,17 L5,17 L5,20 C5,20.5522847 4.55228475,21 4,21 C3.44771525,21 3,20.5522847 3,20 L3,5 C3,4.44771525 3.44771525,4 4,4 C4.55228475,4 5,4.44771525 5,5 L12,5 C12.5522847,5 13,5.44771525 13,6 L13,7 Z M13,9 L13,16 C13,16.5522847 12.5522847,17 12,17 L10,17 L18.2431013,17 L15.5962761,13.0674033 L18.2824116,9 L13,9 Z M5,7 L5,15 L11,15 L11,7 L5,7 Z"/>
</svg>
