<svg width="24px" height="24px" viewBox="0 0 24 24" version="1.1" xmlns="http://www.w3.org/2000/svg" xmlns:xlink="http://www.w3.org/1999/xlink">
  <g id="CF-Icon" stroke="none" stroke-width="1" fill="none" fill-rule="evenodd">
    <g id="CF-Icon-Copy" fill="#00BF4B" fill-rule="nonzero">
      <g id="custom-fields">
        <path d="M6,14 L6,16 L3,16 C2.44771525,16 2,15.5522847 2,15 L2,9 C2,8.44771525 2.44771525,8 3,8 L6,8 L6,10 L4,10 L4,14 L6,14 Z M10,14 L20,14 L20,10 L10,10 L10,8 L21,8 C21.5522847,8 22,8.44771525 22,9 L22,15 C22,15.5522847 21.5522847,16 21,16 L10,16 L10,14 Z M9,16.5 C9,16.7761424 9.22385763,17 9.5,17 L10.5,17 C11.0522847,17 11.5,17.4477153 11.5,18 C11.5,18.5522847 11.0522847,19 10.5,19 L9.5,19 C8.93719704,19 8.41783027,18.8140276 8,18.5001831 C7.58216973,18.8140276 7.06280296,19 6.5,19 L5.5,19 C4.94771525,19 4.5,18.5522847 4.5,18 C4.5,17.4477153 4.94771525,17 5.5,17 L6.5,17 C6.77614237,17 7,16.7761424 7,16.5 L7,7.49999981 C7,7.22385763 6.77614237,7 6.5,7 L6,7 C5.44771525,7 5,6.55228475 5,6 C5,5.44771525 5.44771525,5 6,5 L6.5,5 C7.06280296,5 7.58216973,5.18597241 8,5.49981691 C8.41783027,5.18597241 8.93719704,5 9.5,5 L10,5 C10.5522847,5 11,5.44771525 11,6 C11,6.55228475 10.5522847,7 10,7 L9.5,7 C9.22385763,7 9,7.22385763 9,7.5 L9,16.5000003 L9,16.5 Z" id="Shape"></path>
      </g>
    </g>
  </g>
</svg>
