<svg width="24" height="24" viewBox="0 0 24 24" fill="none" xmlns="http://www.w3.org/2000/svg">
  <path fill-rule="evenodd" clip-rule="evenodd" d="M12 6C11.924 6 11.7679 6.03173 11.5347 6.26184C11.2972 6.4962 11.0375 6.8849 10.7978 7.44417C10.6069 7.8896 10.4412 8.41404 10.3111 9H13.6889C13.5588 8.41404 13.3931 7.8896 13.2022 7.44417C12.9625 6.8849 12.7028 6.4962 12.4653 6.26184C12.2321 6.03173 12.076 6 12 6ZM8.86644 6.88228C8.61672 7.51285 8.41528 8.2274 8.2697 9H6.80269C7.30364 8.13401 8.01482 7.40484 8.86644 6.88228ZM8.02863 11H6.08296C6.0284 11.3252 6 11.6593 6 12C6 12.3407 6.0284 12.6748 6.08296 13H8.02863C8.00969 12.6717 8 12.3378 8 12C8 11.6622 8.00969 11.3283 8.02863 11ZM8.2697 15H6.80269C7.30364 15.866 8.01482 16.5952 8.86644 17.1177C8.61672 16.4871 8.41528 15.7726 8.2697 15ZM10.3111 15H13.6889C13.5588 15.586 13.3931 16.1104 13.2022 16.5558C12.9625 17.1151 12.7028 17.5038 12.4653 17.7382C12.2321 17.9683 12.076 18 12 18C11.924 18 11.7679 17.9683 11.5347 17.7382C11.2972 17.5038 11.0375 17.1151 10.7978 16.5558C10.6069 16.1104 10.4412 15.586 10.3111 15ZM13.9676 13H10.0324C10.0111 12.6755 10 12.3416 10 12C10 11.6584 10.0111 11.3245 10.0324 11H13.9676C13.9889 11.3245 14 11.6584 14 12C14 12.3416 13.9889 12.6755 13.9676 13ZM15.7303 15C15.5847 15.7726 15.3833 16.4871 15.1336 17.1177C15.9852 16.5952 16.6964 15.866 17.1973 15H15.7303ZM17.917 13H15.9714C15.9903 12.6717 16 12.3378 16 12C16 11.6622 15.9903 11.3283 15.9714 11H17.917C17.9716 11.3252 18 11.6593 18 12C18 12.3407 17.9716 12.6748 17.917 13ZM15.1336 6.88228C15.9852 7.40484 16.6964 8.13401 17.1973 9H15.7303C15.5847 8.2274 15.3833 7.51285 15.1336 6.88228ZM12 20C16.4183 20 20 16.4183 20 12C20 7.58172 16.4183 4 12 4C7.58172 4 4 7.58172 4 12C4 16.4183 7.58172 20 12 20Z" fill="#52555A"/>
</svg>
