<svg width="24" height="24" viewBox="0 0 24 24" fill="none" xmlns="http://www.w3.org/2000/svg">
  <path d="M12.6002 1.34082L14.8102 3.862L18.1237 3.35123C18.721 3.25916 19.2628 3.7138 19.2758 4.31797L19.3482 7.66986L22.2149 9.40849C22.7316 9.72187 22.8544 10.4184 22.476 10.8896L20.3769 13.5038L21.4553 16.6783C21.6497 17.2505 21.296 17.8631 20.7033 17.9808L17.4149 18.6342L16.2005 21.7592C15.9816 22.3224 15.317 22.5643 14.7872 22.2735L11.8482 20.6603L8.90918 22.2735C8.37944 22.5643 7.7148 22.3224 7.49591 21.7592L6.28148 18.6342L2.99308 17.9808C2.40035 17.8631 2.04671 17.2505 2.24109 16.6783L3.31949 13.5038L1.22038 10.8896C0.842022 10.4184 0.964841 9.72187 1.48154 9.40849L4.34818 7.66986L4.42056 4.31797C4.4336 3.7138 4.97542 3.25916 5.57267 3.35123L8.88621 3.862L11.0962 1.34082C11.4946 0.886392 12.2018 0.886392 12.6002 1.34082ZM11.8482 3.51705L10.0284 5.59313C9.803 5.85022 9.46191 5.97436 9.12402 5.92228L6.39546 5.50168L6.33586 8.26182C6.32848 8.60363 6.14699 8.91797 5.85467 9.09526L3.49412 10.527L5.22265 12.6797C5.4367 12.9462 5.49973 13.3037 5.38976 13.6274L4.50175 16.2415L7.20961 16.7795C7.54493 16.8461 7.82299 17.0794 7.94683 17.3981L8.94686 19.9714L11.367 18.6429C11.6667 18.4784 12.0297 18.4784 12.3294 18.6429L14.7495 19.9714L15.7496 17.3981C15.8734 17.0794 16.1515 16.8461 16.4868 16.7795L19.1947 16.2415L18.3066 13.6274C18.1967 13.3037 18.2597 12.9462 18.4737 12.6797L20.2023 10.527L17.8417 9.09526C17.5494 8.91797 17.3679 8.60363 17.3605 8.26182L17.3009 5.50168L14.5724 5.92228C14.2345 5.97436 13.8934 5.85022 13.668 5.59313L11.8482 3.51705Z" fill="#52555A"/>
  <rect x="15.0001" y="7" width="2" height="11" rx="1" transform="rotate(45 15.0001 7)" fill="#52555A"/>
  <circle cx="9.75" cy="8.5" r="1" fill="#52555A"/>
  <circle cx="14" cy="14.5" r="1" fill="#52555A"/>
</svg>
