<svg xmlns="http://www.w3.org/2000/svg" width="24" height="24" viewBox="0 0 24 24">
  <path fill="#777" fill-rule="evenodd" d="M13,18 L13,15 C13,13.8954305 13.8954305,13 15,13 L18,13 L18,6 L6,6 L6,18 L13,18 Z M17.2259491,15 L15,15 L15,17.2015313 L17.2259491,15 Z M6,4 L18,4 C19.1045695,4 20,4.8954305 20,6 L20,14.6518881 C20,14.9190161 19.8931233,15.1750403 19.7031963,15.3628838 L15.3068582,19.7109957 C15.1196488,19.8961515 14.8669678,20 14.6036618,20 L6,20 C4.8954305,20 4,19.1045695 4,18 L4,6 C4,4.8954305 4.8954305,4 6,4 Z M8,7 L14,7 C14.5522847,7 15,7.44771525 15,8 C15,8.55228475 14.5522847,9 14,9 L8,9 C7.44771525,9 7,8.55228475 7,8 C7,7.44771525 7.44771525,7 8,7 Z M8,10 L12,10 C12.5522847,10 13,10.4477153 13,11 C13,11.5522847 12.5522847,12 12,12 L8,12 C7.44771525,12 7,11.5522847 7,11 C7,10.4477153 7.44771525,10 8,10 Z"/>
</svg>
