<svg width="24" height="24" viewBox="0 0 24 24" fill="none" xmlns="http://www.w3.org/2000/svg">
<path fill-rule="evenodd" clip-rule="evenodd" d="M5 2C2.23858 2 0 4.23858 0 7V8.51163C0 8.78135 0.218651 9 0.488372 9H1.54545C1.79649 9 2 8.79649 2 8.54545V7C2 5.34315 3.34315 4 5 4C6.65685 4 8 5.34315 8 7V9H7C5.89543 9 5 9.89543 5 11V20C5 21.1046 5.89543 22 7 22H19C20.1046 22 21 21.1046 21 20V11C21 9.89543 20.1046 9 19 9H10V7C10 4.23858 7.76142 2 5 2ZM19 11H7V20H19V11ZM13 13C12.4477 13 12 13.4477 12 14V17C12 17.5523 12.4477 18 13 18C13.5523 18 14 17.5523 14 17V14C14 13.4477 13.5523 13 13 13Z" fill="#C4C4C4"/>
</svg>
