<svg width="24" height="24" viewBox="0 0 24 24" fill="none" xmlns="http://www.w3.org/2000/svg">
<path d="M20.5 4.5C21.5544 4.5 22.4182 5.31588 22.4945 6.35074L22.5 6.5V11C21.5 11 21.5 11 20.5 11V6.5H3.5V17.5H13C13 18 13 19 12.9984 19.5006L3.5 19.5C2.44564 19.5 1.58183 18.6841 1.50549 17.6493L1.5 17.5V6.5C1.5 5.44564 2.31588 4.58183 3.35074 4.50549L3.5 4.5H20.5ZM7 9.5C7.82843 9.5 8.5 10.1716 8.5 11C8.5 11.4542 8.29817 12.1617 7.97931 12.7083C8.78215 13.0966 9.11603 13.9639 9.36719 14.6979C9.39672 14.7842 9.42277 14.8969 9.44534 15.0358C9.44879 15.0571 9.45052 15.0785 9.45052 15.1C9.45052 15.2934 9.31337 15.4547 9.13104 15.4919L9.0504 15.5H4.94966C4.92814 15.5 4.90666 15.4983 4.88542 15.4948C4.66734 15.4593 4.51931 15.2538 4.55485 15.0357C4.57772 14.8951 4.60413 14.7813 4.63409 14.6942C4.88837 13.9549 5.14565 13.0736 6.01134 12.6916C5.69791 12.1479 5.5 11.4497 5.5 11C5.5 10.1716 6.17157 9.5 7 9.5ZM13.5 11.5C14.0523 11.5 14.5 11.9477 14.5 12.5C14.5 13.0523 14.0523 13.5 13.5 13.5H11.5C10.9477 13.5 10.5 13.0523 10.5 12.5C10.5 11.9477 10.9477 11.5 11.5 11.5H13.5ZM17.5 8.5C18.0523 8.5 18.5 8.94772 18.5 9.5C18.5 10.0523 18.0523 10.5 17.5 10.5H11.5C10.9477 10.5 10.5 10.0523 10.5 9.5C10.5 8.94772 10.9477 8.5 11.5 8.5H17.5Z" fill="#52555A"/>
<path d="M20.0879 12.7711L22.2074 14.7342C22.5975 15.0956 22.5975 15.6816 22.2074 16.043L20.0879 18.0061C19.6977 18.3675 19.065 18.3675 18.6748 18.0061C18.2847 17.6447 18.2847 17.0588 18.6748 16.6974L19.124 16.2804L18.9743 16.2812C17.6069 16.2812 16.4983 17.3079 16.4983 18.5746C16.4983 19.0857 16.051 19.5 15.4991 19.5C14.9473 19.5 14.5 19.0857 14.5 18.5746C14.5 16.2857 16.5032 14.4303 18.9743 14.4303L19.0521 14.4295L18.6748 14.0798C18.2847 13.7184 18.2847 13.1325 18.6748 12.7711C19.065 12.4096 19.6977 12.4096 20.0879 12.7711Z" fill="#52555A"/>
</svg>
