<svg xmlns="http://www.w3.org/2000/svg" width="24" height="24" viewBox="0 0 24 24">
  <path fill="#52555A" d="M12.6759771,2.30298451 L21.8092412,7.8165735 C22.2649359,8.09166824 22.3933414,8.69522683 22.0960429,9.16465934 C22.0126535,9.29633063 21.9007091,9.40827503 21.7690378,9.49166439 L18.7287726,11.415788 L18.7287991,17.5700774 C18.7287991,17.8434374 18.6362508,18.1050879 18.4723583,18.2951049 C16.3420085,20.765035 14.1940701,22 12.0285432,22 C9.86322965,22 7.69791611,20.7652783 5.53260258,18.2958349 C5.36569721,18.1054334 5.27120093,17.8412912 5.27120093,17.5650578 L5.27077264,11.820788 L2.19075875,9.96155744 C1.73506411,9.68646269 1.60665864,9.08290411 1.90395712,8.6134716 C1.98734647,8.48180031 2.09929087,8.36985591 2.23096216,8.28646655 L11.6395675,2.3278591 C11.9618204,2.1237716 12.3631548,2.11413928 12.6759771,2.30298451 Z M17.0457726,12.481788 L12.3604325,15.4502718 C12.0381796,15.6543593 11.6368452,15.6639917 11.3240229,15.4751464 L6.95277264,12.835788 L6.9534007,17.125758 L7.15857307,17.3454704 C8.78433796,19.0528357 10.3321386,19.9038281 11.8168666,19.9776635 L12.0285432,19.9829331 C13.5741386,19.9829331 15.1729991,19.1377163 16.8451577,17.3546535 L17.0465993,17.1348348 L17.0457726,12.481788 Z M21,12 C21.5522847,12 22,12.4477153 22,13 L22,18 C22,18.5522847 21.5522847,19 21,19 C20.4477153,19 20,18.5522847 20,18 L20,13 C20,12.4477153 20.4477153,12 21,12 Z M12.1098827,4.31076037 L4.60188239,9.06592969 L11.8901507,13.4659777 L19.398151,8.71080839 L12.1098827,4.31076037 Z"/>
</svg>
