<svg xmlns="http://www.w3.org/2000/svg" width="24" height="24" viewBox="0 0 24 24">
  <path fill="#777" fill-rule="evenodd" d="M11,15 L11,13 C11,12.4477153 11.4477153,12 12,12 L19,12 C19.5522847,12 20,12.4477153 20,13 L20,19 C20,19.5522847 19.5522847,20 19,20 L12,20 C11.4477153,20 11,19.5522847 11,19 L11,17 L7,17 C6.44771525,17 6,16.5522847 6,16 L6,10 L5,10 C4.44771525,10 4,9.55228475 4,9 L4,5 C4,4.44771525 4.44771525,4 5,4 L19,4 C19.5522847,4 20,4.44771525 20,5 L20,9 C20,9.55228475 19.5522847,10 19,10 L8,10 L8,15 L11,15 Z M6,6 L6,8 L18,8 L18,6 L6,6 Z M13,14 L13,18 L18,18 L18,14 L13,14 Z M15,15 L16,15 C16.5522847,15 17,15.4477153 17,16 C17,16.5522847 16.5522847,17 16,17 L15,17 C14.4477153,17 14,16.5522847 14,16 C14,15.4477153 14.4477153,15 15,15 Z"/>
</svg>
