<svg width="24" height="24" viewBox="0 0 24 24" fill="none" xmlns="http://www.w3.org/2000/svg">
<path fill-rule="evenodd" clip-rule="evenodd" d="M15.1716 13.7574C15.6951 12.967 16 12.0191 16 11C16 8.23858 13.7614 6 11 6C8.23858 6 6 8.23858 6 11C6 13.7614 8.23858 16 11 16C12.0191 16 12.9669 15.6951 13.7574 15.1716L16.2929 17.7072C16.6834 18.0977 17.3166 18.0977 17.7071 17.7072C18.0976 17.3167 18.0976 16.6835 17.7071 16.293L15.1716 13.7574ZM14 11C14 12.6569 12.6569 14 11 14C9.34315 14 8 12.6569 8 11C8 9.34315 9.34315 8 11 8C12.6569 8 14 9.34315 14 11Z" fill="#52555A"/>
</svg>
