<svg xmlns="http://www.w3.org/2000/svg" width="24" height="24" viewBox="0 0 24 24">
  <path fill="#777" fill-rule="evenodd" d="M7.3947747,19.9268548 L2.5,19.9268548 C1.67157288,19.9268548 1,19.2552819 1,18.4268548 C1,18.0687879 1.12808824,17.7225324 1.3611151,17.4506677 L5.13511987,13.0476621 C6.21338633,11.7896846 8.10728627,11.644 9.3652638,12.7222665 C9.43205618,12.7795171 9.49627388,12.8396571 9.55773664,12.9025064 L11.9866814,9.56270731 C12.9611962,8.22274949 14.837447,7.92649937 16.1774048,8.90101415 C16.4312229,9.08560914 16.6545029,9.3088892 16.8390979,9.56270731 L22.6441088,17.5445972 C23.1313662,18.2145761 22.9832411,19.1527015 22.3132622,19.6399589 C22.0568817,19.8264174 21.7480184,19.9268548 21.4310047,19.9268548 L7.3947747,19.9268548 Z M13.7404211,17.9268548 L20.4491196,17.9268548 L15.2216258,10.7390507 C15.1600941,10.6544447 15.0856674,10.580018 15.0010614,10.5184863 C14.5544088,10.1936481 13.9289919,10.2923981 13.6041536,10.7390507 L10.8994895,14.4579638 L13.4646643,17.4506677 C13.5888002,17.595493 13.680492,17.7571752 13.7404211,17.9268548 Z M8.17214628,14.3492449 C8.13882159,14.3103661 8.10255986,14.2741043 8.06368106,14.2407797 C7.64435521,13.8813575 7.01305523,13.929919 6.65363308,14.3492449 L3.58711032,17.9268548 L11.238669,17.9268548 L8.17214628,14.3492449 Z M6,10 C4.34314575,10 3,8.65685425 3,7 C3,5.34314575 4.34314575,4 6,4 C7.65685425,4 9,5.34314575 9,7 C9,8.65685425 7.65685425,10 6,10 Z M6,8 C6.55228475,8 7,7.55228475 7,7 C7,6.44771525 6.55228475,6 6,6 C5.44771525,6 5,6.44771525 5,7 C5,7.55228475 5.44771525,8 6,8 Z"/>
</svg>
