<svg width="23" height="24" viewBox="0 0 23 24" fill="none" xmlns="http://www.w3.org/2000/svg">
<path fill-rule="evenodd" clip-rule="evenodd" d="M4 6V4H12V6H4ZM13 2H3C2.44772 2 2 2.44772 2 3V7C2 7.55228 2.44772 8 3 8H7V12V18.75C7 19.4404 7.55964 20 8.25 20H12V21C12 21.5523 12.4477 22 13 22H20C20.5523 22 21 21.5523 21 21V17C21 16.4477 20.5523 16 20 16H13C12.4477 16 12 16.4477 12 17V18H9V13H12V14C12 14.5523 12.4477 15 13 15H20C20.5523 15 21 14.5523 21 14V10C21 9.44772 20.5523 9 20 9H13C12.4477 9 12 9.44772 12 10V11H9V8H13C13.5523 8 14 7.55228 14 7V3C14 2.44772 13.5523 2 13 2ZM19 13H14V11H19V13ZM14 18V20H19V18H14Z" fill="#52555A"/>
</svg>
