<svg xmlns="http://www.w3.org/2000/svg" width="24" height="24" viewBox="0 0 24 24">
  <path fill="#777" fill-rule="evenodd" d="M11.376818,15.8038297 C7.98332983,15.3196543 5.37436867,12.4016893 5.37436867,8.87436867 C5.37436867,5.00837542 8.50837542,1.87436867 12.3743687,1.87436867 C16.2403619,1.87436867 19.3743687,5.00837542 19.3743687,8.87436867 C19.3743687,12.4016893 16.7654075,15.3196543 13.3719193,15.8038297 C13.3735432,15.8271318 13.3743687,15.8506538 13.3743687,15.8743687 L13.3743687,21.8743687 C13.3743687,22.4266534 12.9266534,22.8743687 12.3743687,22.8743687 C11.8220839,22.8743687 11.3743687,22.4266534 11.3743687,21.8743687 L11.3743687,15.8743687 C11.3743687,15.8506538 11.3751942,15.8271318 11.376818,15.8038297 Z M12.3743687,13.8743687 C15.1357924,13.8743687 17.3743687,11.6357924 17.3743687,8.87436867 C17.3743687,6.11294492 15.1357924,3.87436867 12.3743687,3.87436867 C9.61294492,3.87436867 7.37436867,6.11294492 7.37436867,8.87436867 C7.37436867,11.6357924 9.61294492,13.8743687 12.3743687,13.8743687 Z" transform="rotate(-45 12.374 12.374)"/>
</svg>
