<svg xmlns="http://www.w3.org/2000/svg" width="24" height="24" viewBox="0 0 24 24" fill="none">
  <path d="M19 5C20.1046 5 21 5.89543 21 7V18C21 19.1046 20.1046 20 19 20H5C3.89543 20 3 19.1046 3 18V7C3 5.89543 3.89543 5 5 5H19ZM8.32646 15.1576L8.23399 15.2427L5.587 18H12.168L9.69775 15.2648C9.68175 15.2471 9.66513 15.23 9.64791 15.2135C9.28005 14.8605 8.71237 14.8445 8.32646 15.1576ZM14.2591 12.8158L14.1027 13.012L12.227 15.082L14.862 18H19V16.429L15.8981 13.0128L15.8192 12.9141C15.7523 12.8185 15.6691 12.7353 15.5735 12.6684C15.1558 12.376 14.5924 12.4473 14.2591 12.8158ZM19 7L9.82933 7.00009C9.93986 7.31284 10 7.6494 10 8C10 9.65685 8.65685 11 7 11C6.23169 11 5.53084 10.7112 5.0001 10.2362L5 15.723L6.79087 13.858C7.88342 12.7193 9.65807 12.6296 10.8573 13.6147L12.591 11.701L12.6559 11.6152C13.6356 10.3864 15.4152 10.1163 16.7204 11.0299C16.9499 11.1906 17.1555 11.3824 17.3314 11.5996L17.405 11.698L19 13.455V7ZM7 7C6.44772 7 6 7.44772 6 8C6 8.55228 6.44772 9 7 9C7.55228 9 8 8.55228 8 8C8 7.44772 7.55228 7 7 7Z" fill="#52555A"/>
</svg>
