<svg xmlns="http://www.w3.org/2000/svg" width="24" height="24" viewBox="0 0 24 24">
	<path fill="#777" fill-rule="evenodd" d="M22,15V10c0-1.7-1.3-3-3-3L14,7l-3,0.1c-1.1,0-2,0.8-2,2v1H7c-0.7,0-1.6-0.1-2.6-0.4c-0.1,0-0.3,0-0.5-0.1	C2.3,9.6,1,10.9,1,12.5c0,0.1,0,0.3,0.1,0.5c0.3,1.6,1.7,2.7,3.4,2.4c1-0.1,1.9-0.2,2.6-0.4h2l0,1c0,1.1,0.8,2,2,2h3H19 C20.7,18,22,16.7,22,15z M11,16v-1c0-1.1-0.8-2-2-2H8c-1,0-2.3,0.1-4,0.4c-0.5,0.1-1-0.3-1.1-0.8l0-0.1c0-0.6,0.4-0.9,0.9-0.9l0.1,0	C5.7,11.9,7,12,8,12h1c1.1,0,2-0.8,2-2V9h2l0,6.9L11,16z M19,16h-2.7h-0.7c-0.3,0-0.5-0.2-0.5-0.5c0-0.3,0.2-0.5,0.5-0.5l2.5,0 c1.3,0,1.3-2.1,0-2h-1.6c-0.3,0-0.5-0.2-0.5-0.5s0.2-0.5,0.5-0.5l0.4-0.1c0.6,0,1-0.4,1-1c0-0.6-0.4-1-1-1l-1.6,0 c-0.3,0-0.5-0.2-0.5-0.5c0-0.3,0.2-0.5,0.5-0.5h3.5c0.6,0,1,0.4,1,1V15C20,15.5,19.5,16,19,16z" transform="rotate(-45 11.5 13)" />
</svg>
