<svg width="24" height="24" viewBox="0 0 24 24" xmlns="http://www.w3.org/2000/svg">
 <g transform="matrix(1.2857 0 0 1.2857 3 3.0001)" fill="#777">
  <path d="m6.7697 9.1905v-4.2487h2.8131v0.74061h-1.9148v1.0124h1.7281v0.74061h-1.7281v1.7551z"/>
  <path d="m5.9722 4.9419v4.2486h-0.89827v-4.2486z"/>
  <path d="m1.763 6.9999 5.237 5.2369 5.2369-5.2369-5.2369-5.237zm-1.5491-0.51636c-0.28518 0.28518-0.28518 0.74754-1e-6 1.0327l6.2697 6.2696c0.28518 0.2852 0.74754 0.2852 1.0327 0l6.2696-6.2696c0.2852-0.28517 0.2852-0.74753 0-1.0327l-6.2696-6.2697c-0.28517-0.28518-0.74753-0.28518-1.0327-1e-6z" clip-rule="evenodd" fill-rule="evenodd"/>
 </g>
</svg>
