<svg xmlns="http://www.w3.org/2000/svg" width="24" height="24" viewBox="0 0 24 24">
  <path fill="#777" fill-rule="evenodd" d="M19,12.0019531 L19,6 C19,5.44771525 18.5522847,5 18,5 L6,5 C5.44771525,5 5,5.44771525 5,6 L5,12.0019531 L8.23675871,12.0019531 L10.0591802,6.70598381 C10.3703219,5.80180406 11.6512908,5.80811862 11.9535032,6.7153219 L14.302601,13.7670152 L15.175078,12.4497522 C15.3602953,12.1701117 15.6733725,12.0019531 16.0087891,12.0019531 L19,12.0019531 Z M19,14.0019531 L16.5459045,14.0019531 L14.8363966,16.5829626 C14.3760679,17.2779654 13.3174105,17.1377078 13.0539431,16.3468119 L10.9893909,10.1492885 L9.89577581,13.3273414 C9.75687625,13.7309844 9.37706859,14.0019531 8.95019531,14.0019531 L5,14.0019531 L5,18 C5,18.5522847 5.44771525,19 6,19 L18,19 C18.5522847,19 19,18.5522847 19,18 L19,14.0019531 Z M6,3 L18,3 C19.6568542,3 21,4.34314575 21,6 L21,18 C21,19.6568542 19.6568542,21 18,21 L6,21 C4.34314575,21 3,19.6568542 3,18 L3,6 C3,4.34314575 4.34314575,3 6,3 Z"/>
</svg>
