<svg xmlns="http://www.w3.org/2000/svg" width="24" height="24" viewBox="0 0 24 24">
  <path fill="#777" fill-rule="evenodd" d="M13,4.06189375 L13,6.98657227 C13,7.53885702 12.5522847,7.98657227 12,7.98657227 C11.4477153,7.98657227 11,7.53885702 11,6.98657227 L11,3 C11,2.44771525 11.4477153,2 12,2 C17.5228475,2 22,6.4771525 22,12 C22,17.5228475 17.5228475,22 12,22 C6.4771525,22 2,17.5228475 2,12 C2,9.09178453 3.24973634,6.38332007 5.38854544,4.49727558 C5.80277897,4.1319962 6.43469904,4.17168138 6.79997843,4.58591491 C7.16525781,5.00014844 7.12557263,5.63206851 6.7113391,5.99734789 C4.99865683,7.50762525 4,9.67194299 4,12 C4,16.418278 7.581722,20 12,20 C16.418278,20 20,16.418278 20,12 C20,7.92038235 16.9463116,4.55399184 13,4.06189375 Z M7.33340821,8.45080535 L8.04051498,7.74369858 L13.1757628,12.1315492 L11.7615492,13.5457628 L7.33340821,8.45080535 Z"/>
</svg>
