<svg xmlns="http://www.w3.org/2000/svg" width="24" height="24" viewBox="0 0 24 24">
  <path fill="#777" fill-rule="evenodd" d="M18,18 L18,20 C18,20.5522847 17.5522847,21 17,21 L7,21 C6.44771525,21 6,20.5522847 6,20 L6,18 L4,18 C3.44771525,18 3,17.5522847 3,17 L3,10 C3,8.34314575 4.34314575,7 6,7 L6,4 C6,3.44771525 6.44771525,3 7,3 L17,3 C17.5522847,3 18,3.44771525 18,4 L18,7 C19.6568542,7 21,8.34314575 21,10 L21,17 C21,17.5522847 20.5522847,18 20,18 L18,18 Z M6,16 L6,14 C6,13.4477153 6.44771525,13 7,13 L17,13 C17.5522847,13 18,13.4477153 18,14 L18,16 L19,16 L19,10 C19,9.44771525 18.5522847,9 18,9 L6,9 C5.44771525,9 5,9.44771525 5,10 L5,16 L6,16 Z M8,5 L8,7 L16,7 L16,5 L8,5 Z M8,15 L8,19 L16,19 L16,15 L8,15 Z M7,12 C6.44771525,12 6,11.5522847 6,11 C6,10.4477153 6.44771525,10 7,10 C7.55228475,10 8,10.4477153 8,11 C8,11.5522847 7.55228475,12 7,12 Z M10,12 C9.44771525,12 9,11.5522847 9,11 C9,10.4477153 9.44771525,10 10,10 C10.5522847,10 11,10.4477153 11,11 C11,11.5522847 10.5522847,12 10,12 Z M10,16 L14,16 C14.5522847,16 15,16.4477153 15,17 C15,17.5522847 14.5522847,18 14,18 L10,18 C9.44771525,18 9,17.5522847 9,17 C9,16.4477153 9.44771525,16 10,16 Z"/>
</svg>
