<svg width="24" height="24" viewBox="0 0 24 24" fill="none" xmlns="http://www.w3.org/2000/svg">
<path fill-rule="evenodd" clip-rule="evenodd" d="M11.6838 2.05132C11.889 1.98289 12.111 1.98289 12.3162 2.05132L20.3162 4.71798C20.7246 4.8541 21 5.23624 21 5.66667V12.4459V12.936C21 12.9415 20.9956 12.9459 20.9901 12.9459C20.9849 12.9459 20.9806 12.9499 20.9802 12.955C20.75 15.9413 18.5381 19.1757 15.4615 20.6422C15.2008 20.7837 14.7567 21.0271 14 21.4459C12.9008 22.0543 12.3623 22.3004 12.1369 22.3937C12.0468 22.4309 11.952 22.4348 11.8621 22.3973C11.6593 22.3127 11.1682 22.0809 10 21.4459L8.36204 20.5556C5.37759 19.0514 3.24555 15.8839 3.01983 12.955C3.01943 12.9499 3.01512 12.9459 3.00993 12.9459C3.00445 12.9459 3 12.9415 3 12.936V12.4459V5.66667C3 5.23624 3.27543 4.8541 3.68377 4.71798L11.6838 2.05132ZM7.12932 12.2715C6.78176 12.7007 6.84794 13.3304 7.27715 13.6779L10.3857 16.1952L10.4806 16.2634C10.9035 16.5315 11.4695 16.4459 11.7922 16.0474L17.4561 9.05307C17.8036 8.62386 17.7375 7.99417 17.3083 7.6466C16.879 7.29904 16.2494 7.36522 15.9018 7.79443L10.8672 14.0116L8.53579 12.1236C8.10658 11.7761 7.47688 11.8423 7.12932 12.2715Z" fill="#52555A"/>
</svg>
