<svg xmlns="http://www.w3.org/2000/svg" width="24" height="24" viewBox="0 0 24 24">
  <path fill="#777" fill-rule="evenodd" d="M14,6 L10,6 C10,6.55228475 9.55228475,7 9,7 C8.44771525,7 8,6.55228475 8,6 L6,6 C5.44771525,6 5,6.44771525 5,7 L5,8 L19,8 L19,7 C19,6.44771525 18.5522847,6 18,6 L16,6 C16,6.55228475 15.5522847,7 15,7 C14.4477153,7 14,6.55228475 14,6 Z M16,4 L18,4 C19.6568542,4 21,5.34314575 21,7 L21,18 C21,19.6568542 19.6568542,21 18,21 L6,21 C4.34314575,21 3,19.6568542 3,18 L3,7 C3,5.34314575 4.34314575,4 6,4 L8,4 C8,3.44771525 8.44771525,3 9,3 C9.55228475,3 10,3.44771525 10,4 L14,4 C14,3.44771525 14.4477153,3 15,3 C15.5522847,3 16,3.44771525 16,4 Z M19,10 L5,10 L5,18 C5,18.5522847 5.44771525,19 6,19 L18,19 C18.5522847,19 19,18.5522847 19,18 L19,10 Z M9.435,11 C10.56,11 11.28,11.612 11.28,12.575 C11.28,13.196 10.956,13.673 10.443,13.889 L10.443,13.925 C11.154,14.195 11.487,14.798 11.487,15.536 C11.487,16.733 10.65,17.444 9.453,17.444 C8.778,17.444 7.5,17.264 7.5,16.706 C7.5,16.535 7.734,16.022 7.941,16.022 C8.103,16.022 8.517,16.391 9.246,16.391 C9.777,16.391 10.137,16.076 10.137,15.518 C10.137,14.924 9.84,14.6 9.084,14.6 L8.832,14.6 C8.643,14.6 8.562,14.465 8.562,14.15 L8.562,13.988 C8.562,13.673 8.643,13.538 8.832,13.538 L9.003,13.538 C9.588,13.538 9.93,13.241 9.93,12.791 C9.93,12.35 9.687,12.062 9.201,12.062 C8.517,12.062 8.301,12.341 8.139,12.341 C7.959,12.341 7.689,11.9 7.689,11.657 C7.689,11.207 8.544,11 9.435,11 Z M14.799,11.036 C14.943,11.036 15.168,11.144 15.168,11.252 L15.168,16.319 L16.131,16.319 C16.32,16.319 16.401,16.454 16.401,16.769 L16.401,16.922 C16.401,17.237 16.32,17.372 16.131,17.372 L12.639,17.372 C12.45,17.372 12.369,17.237 12.369,16.922 L12.369,16.769 C12.369,16.454 12.45,16.319 12.639,16.319 L13.836,16.319 L13.836,12.278 L12.612,12.458 C12.378,12.458 12.324,11.954 12.324,11.702 C12.324,11.567 12.405,11.477 12.558,11.45 L14.799,11.036 Z"/>
</svg>
