<svg xmlns="http://www.w3.org/2000/svg" width="24" height="24" viewBox="0 0 24 24">
  <path fill="#777" fill-rule="evenodd" d="M11.9957864,17.0005301 L11.9957864,11.363961 L10.1171068,13.2426407 C9.72658249,13.633165 9.09341751,13.633165 8.70289322,13.2426407 C8.31236893,12.8521164 8.31236893,12.2189514 8.70289322,11.8284271 L12.2384271,8.29289322 C12.6289514,7.90236893 13.2621164,7.90236893 13.6526407,8.29289322 L17.1881746,11.8284271 C17.5786989,12.2189514 17.5786989,12.8521164 17.1881746,13.2426407 C16.7976503,13.633165 16.1644853,13.633165 15.773961,13.2426407 L13.9957864,11.4644661 L13.9957864,17.0000011 L14,17 C14.7596567,16.999371 15.7911587,17 16.5,17 C18.9852814,17 21,14.9852814 21,12.5 C21,10.5131596 19.7123755,8.82706001 17.9260835,8.23065835 C17.5674046,6.38961314 15.9459831,5 14,5 C12.691472,5 11.5296963,5.62832141 10.7999182,6.59971887 C10.2985359,6.22314263 9.67532684,6 9,6 C7.34314575,6 6,7.34314575 6,9 C6,9.35623616 6.06209127,9.69797013 6.1760418,10.0149699 C4.39491499,10.1784367 3,11.6764066 3,13.5001763 C3,15.4331729 4.56700338,17.0001763 6.5,17.0001763 C7.61243556,17.0001763 11,17.0007935 11,17.0007935 L11.9957864,17.0005301 Z M9,4 C9.47994749,4 9.95057795,4.06825026 10.4001604,4.19920571 C11.4200603,3.43366704 12.6748959,3 14,3 C16.4989924,3 18.6794444,4.53815203 19.57193,6.77022049 C21.6438737,7.88132727 23,10.0603834 23,12.5 C23,16.0898509 20.0898509,19 16.5,19 C16.349375,19 16.18196,18.9999724 16.0000001,18.99992 L13,19 L10.9996356,19.0007934 C10.5762067,19.0007163 10.5762067,19.0007163 9.16685037,19.0004849 C8.87364285,19.0004394 8.87364285,19.0004394 8.5750709,19.0003951 C7.35380749,19.0002261 6.90192508,19.0001763 6.5,19.0001763 C3.46243388,19.0001763 1,16.5377424 1,13.5001763 C1,11.366633 2.2194566,9.50172854 4.0164655,8.59127163 C4.22441159,6.02102238 6.37618826,4 9,4 Z"/>
</svg>
