<svg xmlns="http://www.w3.org/2000/svg" width="24" height="24" viewBox="0 0 24 24">
  <path fill="#777" d="M12.0425605,10.6923882 L14.6184695,10.6923882 C14.8631594,11.2101353 15,11.7888347 15,12.3994949 C15,14.6086339 13.209139,16.3994949 11,16.3994949 L6,16.3994949 C3.790861,16.3994949 2,14.6086339 2,12.3994949 C2,10.1903559 3.790861,8.39949494 6,8.39949494 L8.0802269,8.39949494 C7.60104783,8.99074396 7.28950054,9.65741063 7.14558505,10.3994949 L6,10.3994949 C4.8954305,10.3994949 4,11.2949254 4,12.3994949 C4,13.5040644 4.8954305,14.3994949 6,14.3994949 L11,14.3994949 C12.1045695,14.3994949 13,13.5040644 13,12.3994949 C13,11.6769205 12.6168128,11.0438442 12.0425605,10.6923882 Z M10.9574395,13.1066017 L8.38153053,13.1066017 C8.13684062,12.5888545 8,12.0101552 8,11.3994949 C8,9.19035594 9.790861,7.39949494 12,7.39949494 L17,7.39949494 C19.209139,7.39949494 21,9.19035594 21,11.3994949 C21,13.6086339 19.209139,15.3994949 17,15.3994949 L15.0480074,15.3994949 C15.4971151,14.8098477 15.7928119,14.143181 15.935098,13.3994949 L17,13.3994949 C18.1045695,13.3994949 19,12.5040644 19,11.3994949 C19,10.2949254 18.1045695,9.39949494 17,9.39949494 L12,9.39949494 C10.8954305,9.39949494 10,10.2949254 10,11.3994949 C10,12.1220694 10.3831872,12.7551457 10.9574395,13.1066017 Z" transform="rotate(-45 11.5 11.9)"/>
</svg>
