<svg width="24px" height="24px" viewBox="0 0 24 24" xmlns="http://www.w3.org/2000/svg">
    <g id="map-pin" stroke="none" stroke-width="1" fill="none" fill-rule="evenodd">
        <g id="Group-6">
            <path d="M12,3 C15.8659932,3 19,6.13400675 19,10 C19,11.5109942 18.5708589,12.7938743 17.6864755,14.1082635 C17.1829055,14.8566798 16.5638111,15.5872206 15.5595146,16.6595515 C15.2835601,16.9542003 14.2289851,18.0643491 14.2301842,18.0630816 C13.6604621,18.6653101 13.2041212,19.1569347 12.7432941,19.6689647 L12,20.4948471 L11.2567059,19.6689647 C10.7958788,19.1569347 10.3395379,18.6653101 9.76981579,18.0630816 C9.77101486,18.0643491 8.71643995,16.9542003 8.44048535,16.6595515 C7.43618894,15.5872206 6.81709447,14.8566798 6.31352447,14.1082635 C5.42914107,12.7938743 5,11.5109942 5,10 C5,6.13400675 8.13400675,3 12,3 Z M12,5 C9.23857625,5 7,7.23857625 7,10 C7,11.0931591 7.30116203,11.993457 7.97287632,12.9917728 C8.40217484,13.6298053 8.96367619,14.2923854 9.90024819,15.292404 C10.1704853,15.5809478 11.219456,16.6851971 11.2226967,16.6886227 C11.503846,16.9858135 11.7584035,17.257117 12,17.5177008 C12.2415965,17.257117 12.496154,16.9858135 12.7773033,16.6886227 C12.780544,16.6851971 13.8295147,15.5809478 14.0997518,15.292404 C15.0363238,14.2923854 15.5978252,13.6298053 16.0271237,12.9917728 C16.698838,11.993457 17,11.0931591 17,10 C17,7.23857625 14.7614237,5 12,5 Z M12,7 C13.6568542,7 15,8.34314575 15,10 C15,11.6568542 13.6568542,13 12,13 C10.3431458,13 9,11.6568542 9,10 C9,8.34314575 10.3431458,7 12,7 Z M12,9 C11.4477153,9 11,9.44771525 11,10 C11,10.5522847 11.4477153,11 12,11 C12.5522847,11 13,10.5522847 13,10 C13,9.44771525 12.5522847,9 12,9 Z" id="Combined-Shape" fill="#52555A" fill-rule="nonzero"/>
        </g>
    </g>
</svg>