<svg xmlns="http://www.w3.org/2000/svg" width="24" height="24" viewBox="0 0 24 24">
  <path fill="#777" fill-rule="evenodd" d="M16.1521308,15.8904307 C16.051099,15.4902746 16,15.079149 16,14.6664356 L16,9.51965332 C16,7.57580247 14.4241975,6 12.4803467,6 L11.5064087,6 C9.56987264,6 8,7.56987264 8,9.50640869 L8,14.6423489 C8,15.0524231 7.94955246,15.4609399 7.84979403,15.858695 L7.56355056,17 L16.432276,17 L16.1521308,15.8904307 Z M13,4.02414081 C15.8047288,4.28603608 18,6.64647816 18,9.51965332 L18,14.6664356 C18,14.9140636 18.0306594,15.160739 18.0912785,15.4008327 L18.4950379,17 L19,17 C19.5522847,17 20,17.4477153 20,18 C20,18.5522847 19.5522847,19 19,19 L5,19 C4.44771525,19 4,18.5522847 4,18 C4,17.4477153 4.44771525,17 5,17 L5.50160732,17 L5.90987642,15.3721566 C5.96973148,15.1335035 6,14.8883934 6,14.6423489 L6,9.50640869 C6,6.63603227 8.19626656,4.2786214 11,4.02297575 L11,4 C11,3.44771525 11.4477153,3 12,3 C12.5522847,3 13,3.44771525 13,4 L13,4.02414081 Z M13.5,21.9705811 C12.1192881,21.9705811 11,20.7460938 11,20 L16,20 C16,20.7382812 14.8807119,21.9705811 13.5,21.9705811 Z"/>
</svg>
