<svg xmlns="http://www.w3.org/2000/svg" width="24" height="24" viewBox="0 0 24 24">
  <path fill="#777" fill-rule="evenodd" d="M19.9381062,13 C19.4868586,16.6187173 16.6187173,19.4868586 13,19.9381062 L13,21 C13,21.5522847 12.5522847,22 12,22 C11.4477153,22 11,21.5522847 11,21 L11,19.9381062 C7.38128266,19.4868586 4.51314142,16.6187173 4.06189375,13 L3,13 C2.44771525,13 2,12.5522847 2,12 C2,11.4477153 2.44771525,11 3,11 L4.06189375,11 C4.51314142,7.38128266 7.38128266,4.51314142 11,4.06189375 L11,3 C11,2.44771525 11.4477153,2 12,2 C12.5522847,2 13,2.44771525 13,3 L13,4.06189375 C16.6187173,4.51314142 19.4868586,7.38128266 19.9381062,11 L21,11 C21.5522847,11 22,11.4477153 22,12 C22,12.5522847 21.5522847,13 21,13 L19.9381062,13 Z M17.9170416,13 L17,13 C16.4477153,13 16,12.5522847 16,12 C16,11.4477153 16.4477153,11 17,11 L17.9170416,11 C17.4955231,8.48749513 15.5125049,6.50447689 13,6.08295844 L13,7 C13,7.55228475 12.5522847,8 12,8 C11.4477153,8 11,7.55228475 11,7 L11,6.08295844 C8.48749513,6.50447689 6.50447689,8.48749513 6.08295844,11 L7,11 C7.55228475,11 8,11.4477153 8,12 C8,12.5522847 7.55228475,13 7,13 L6.08295844,13 C6.50447689,15.5125049 8.48749513,17.4955231 11,17.9170416 L11,17 C11,16.4477153 11.4477153,16 12,16 C12.5522847,16 13,16.4477153 13,17 L13,17.9170416 C15.5125049,17.4955231 17.4955231,15.5125049 17.9170416,13 Z M12,13.5 C11.1715729,13.5 10.5,12.8284271 10.5,12 C10.5,11.1715729 11.1715729,10.5 12,10.5 C12.8284271,10.5 13.5,11.1715729 13.5,12 C13.5,12.8284271 12.8284271,13.5 12,13.5 Z"/>
</svg>
