<svg width="24" height="24" viewBox="0 0 24 24" fill="none" xmlns="http://www.w3.org/2000/svg">
<g id="Miscellaneous/misc-money-bag">
<path id="vector" d="M12 1C13.0107 1 14.0208 1.3232 14.8203 1.9707H17.9785L16.834 8.20117C18.701 9.8915 22 13.5012 22 17.9707C22 19.9727 21.3905 21.5623 20.1895 22.6973L19.9004 22.9707H4.09961L3.81055 22.6973C2.60855 21.5633 2 19.9727 2 17.9707C2 13.4969 5.30093 9.88783 7.16797 8.19922L6.02344 1.9707H9.17969C9.97919 1.3232 10.9893 1 12 1ZM14.6602 8.9707H9.3418C8.2618 9.8337 4 13.5227 4 17.9707C4 19.2537 4.30283 20.2397 4.92383 20.9707H19.0742C19.6962 20.2397 20 19.2537 20 17.9707C20 13.5097 15.7402 9.8317 14.6602 8.9707ZM12.5 10C12.7761 10 13 10.2239 13 10.5V11H14.5C14.7761 11 15 11.2239 15 11.5V12.5C15 12.7761 14.7761 13 14.5 13H11V14H14C14.5523 14 15 14.4477 15 15V18C15 18.5128 14.614 18.9355 14.1166 18.9933L14 19H13V19.5C13 19.7761 12.7761 20 12.5 20H11.5C11.2239 20 11 19.7761 11 19.5V19H9.5C9.22386 19 9 18.7761 9 18.5V17.5C9 17.2239 9.22386 17 9.5 17H13V16H10C9.44772 16 9 15.5523 9 15V12C9 11.4477 9.44772 11 10 11H11V10.5C11 10.2239 11.2239 10 11.5 10H12.5ZM12 2.99414C11.3645 2.99414 10.7298 3.22405 10.2578 3.68555L9.96484 3.9707H8.42383L8.97461 6.9707H15.0254L15.5762 3.9707H14.0352L13.7422 3.68555C13.2702 3.22405 12.6355 2.99414 12 2.99414Z" fill="#52555A"/>
</g>
</svg>
