<?xml version="1.0" encoding="utf-8"?>
<svg version="1.1" id="Layer_1" xmlns="http://www.w3.org/2000/svg" xmlns:xlink="http://www.w3.org/1999/xlink" x="0px" y="0px"
	 viewBox="0 0 24 24" style="enable-background:new 0 0 24 24;" xml:space="preserve">
<path d="M17,3c1.7,0,3,1.3,3,3s-1.3,3-3,3c-0.7,0-1.4-0.3-1.9-0.7l-5.1,3.1c0,0.2,0.1,0.4,0.1,0.6s0,0.4-0.1,0.6l5.1,3.1
	c0.5-0.4,1.2-0.7,1.9-0.7c1.7,0,3,1.3,3,3s-1.3,3-3,3s-3-1.3-3-3c0-0.2,0-0.4,0.1-0.6l-5.1-3.1C8.4,14.7,7.7,15,7,15
	c-1.7,0-3-1.3-3-3c0-1.7,1.3-3,3-3c0.7,0,1.4,0.3,1.9,0.7l5.1-3.1C14,6.4,14,6.2,14,6C14,4.3,15.3,3,17,3z M17,17c-0.6,0-1,0.4-1,1
	s0.4,1,1,1s1-0.4,1-1S17.6,17,17,17z M7,11c-0.6,0-1,0.4-1,1s0.4,1,1,1s1-0.4,1-1S7.6,11,7,11z M17,5c-0.6,0-1,0.4-1,1s0.4,1,1,1
	s1-0.4,1-1S17.6,5,17,5z"/>
</svg>
