<svg width="24" height="24" viewBox="0 0 24 24" fill="none" xmlns="http://www.w3.org/2000/svg">
<path fill-rule="evenodd" clip-rule="evenodd" d="M14.9168 4.30341C15.5062 4.79458 15.9015 5.56992 15.9015 6.38335C15.9015 7.00437 15.6908 7.99098 15.5402 8.69627L15.5195 8.79325C15.5103 8.83631 15.5013 8.8785 15.4925 8.91977C15.901 8.91987 16.3492 8.92012 16.7174 8.92032C17.0239 8.92049 17.275 8.92063 17.4015 8.92063C19.1035 8.92063 19.9015 10.3928 19.9015 11.3838C19.9015 12.3398 19.6015 13.3455 19.4471 13.8632C19.4135 13.9759 19.3868 14.0654 19.3716 14.1263C19.2464 14.6273 18.858 15.7392 18.5848 16.5212C18.4851 16.8067 18.4007 17.0482 18.3502 17.2C18.1944 17.6674 17.9771 18.0865 17.6587 18.4304C17.3329 18.7822 16.9468 19.0061 16.5302 19.1449C15.8105 19.3848 14.9159 19.3843 14.0246 19.3838C13.9862 19.3838 13.9477 19.3838 13.9093 19.3838L10.3145 19.44C10.2257 19.6381 10.0907 19.7629 10.0233 19.817C9.90681 19.9106 9.79641 19.9561 9.75245 19.9733C9.65443 20.0117 9.56778 20.0283 9.53455 20.0344C9.45188 20.0497 9.36519 20.0581 9.29884 20.0635C9.15555 20.0752 8.96825 20.0832 8.76439 20.0889C8.35098 20.1006 7.80794 20.1045 7.2715 20.1025C6.7344 20.1005 6.19365 20.0926 5.78351 20.0801C5.58047 20.0739 5.39896 20.0662 5.26298 20.0567C5.1989 20.0522 5.12355 20.0459 5.05489 20.036C5.02732 20.032 4.9593 20.0219 4.88206 19.9993C4.85104 19.9903 4.75537 19.9618 4.64742 19.8986C4.59337 19.8669 4.48934 19.7997 4.38941 19.6823C4.28352 19.558 4.15002 19.336 4.15002 19.0322L4.15002 11.1347C4.15003 10.7199 4.39105 10.4659 4.50052 10.3716C4.61537 10.2727 4.72595 10.2229 4.77228 10.2033C4.87332 10.1605 4.96306 10.1416 4.99769 10.1345C5.0832 10.117 5.17227 10.1072 5.2393 10.1009C5.38446 10.0873 5.57323 10.0775 5.7777 10.07C6.19268 10.0549 6.7371 10.0475 7.2752 10.0475C7.8133 10.0475 8.35772 10.0549 8.77269 10.07C8.97716 10.0775 9.16593 10.0873 9.31109 10.1009C9.35774 10.1053 9.41506 10.1114 9.47444 10.1206C9.95947 9.55734 10.2434 8.75499 10.4307 8.00778C10.4579 7.89946 10.4897 7.75577 10.5265 7.58982C10.6228 7.15479 10.7531 6.56686 10.9217 6.06256C11.148 5.38603 11.5652 4.43358 12.4545 3.98927C13.378 3.52784 14.2998 3.78914 14.9168 4.30341ZM10.4005 11.9952L10.4003 17.4384L13.8936 17.3838H13.9015C14.9698 17.3838 15.5256 17.3716 15.8977 17.2476C16.0436 17.199 16.1263 17.1416 16.1911 17.0715C16.2634 16.9936 16.3586 16.8501 16.4528 16.5675C16.5266 16.3462 16.6337 16.0395 16.7511 15.7037C17.0147 14.9492 17.3296 14.0482 17.4313 13.6412C17.4729 13.4748 17.5235 13.3018 17.5759 13.1226C17.7309 12.5923 17.9015 12.0086 17.9015 11.3838C17.9015 11.3336 17.8686 11.1962 17.7688 11.0793C17.6917 10.989 17.586 10.9206 17.4015 10.9206C17.2656 10.9206 16.998 10.9205 16.6755 10.9203C15.7924 10.9198 14.4968 10.9191 14.3605 10.9206L14.3592 10.9206C14.03 10.9242 13.7545 10.7721 13.5787 10.5703C13.4327 10.4027 13.3779 10.2301 13.3564 10.1491C13.3127 9.98497 13.3159 9.83798 13.3177 9.77983C13.3221 9.63506 13.346 9.47443 13.3684 9.34222C13.4126 9.08241 13.4856 8.74053 13.5589 8.39754C13.5644 8.3715 13.57 8.34546 13.5756 8.31945C13.7487 7.50816 13.9015 6.75144 13.9015 6.38335C13.9015 6.19793 13.7969 5.97361 13.6364 5.83978C13.5643 5.77973 13.5056 5.75888 13.4714 5.75317C13.446 5.74893 13.41 5.74763 13.3484 5.77838C13.2377 5.8337 13.0299 6.06482 12.8185 6.69695C12.6835 7.1004 12.5981 7.48884 12.5119 7.88084C12.4674 8.08347 12.4226 8.28704 12.3707 8.49414C12.1479 9.3826 11.6675 10.9861 10.4005 11.9952ZM8.40045 12.0597C8.06672 12.0517 7.67277 12.0475 7.2752 12.0475C6.87766 12.0475 6.48375 12.0517 6.15002 12.0597L6.15002 18.0889C6.48636 18.0963 6.88156 18.1011 7.27885 18.1025C7.67479 18.104 8.06701 18.1021 8.40032 18.0965L8.40045 12.0597Z" fill="#52555A"/>
</svg>
