<svg xmlns="http://www.w3.org/2000/svg" width="24" height="24" viewBox="0 0 24 24">
  <path fill="#777" fill-rule="evenodd" d="M9.20202888,5 C9.91221956,3.66666667 10.8448766,3 12,3 C13.1551234,3 14.0877804,3.66666667 14.7979711,5 L18,5 C19.1045695,5 20,5.8954305 20,7 L20,19 C20,20.1045695 19.1045695,21 18,21 L6,21 C4.8954305,21 4,20.1045695 4,19 L4,7 C4,5.8954305 4.8954305,5 6,5 L9.20202888,5 Z M8.43402463,7 L6,7 L6,19 L18,19 L18,7 L15.5659754,7 C15.6867907,7.43318968 15.7958649,7.90156435 15.8931978,8.40512402 L15.8931854,8.40512641 C15.9455896,8.67624367 15.7682877,8.93850963 15.4971704,8.99091382 C15.4659032,8.99695745 15.4341301,9 15.4022842,9 L8.59776479,9.00004573 C8.32159716,9.00004573 8.09771906,8.77616763 8.09771906,8.5 C8.09771906,8.4681502 8.10076199,8.43637324 8.10680639,8.40510224 C8.20413826,7.90155085 8.31321101,7.43318343 8.43402463,7 Z M12,7 C12.5522847,7 13,6.55228475 13,6 C13,5.44771525 12.5522847,5 12,5 C11.4477153,5 11,5.44771525 11,6 C11,6.55228475 11.4477153,7 12,7 Z M9,11 L15,11 C15.5522847,11 16,11.4477153 16,12 C16,12.5522847 15.5522847,13 15,13 L9,13 C8.44771525,13 8,12.5522847 8,12 C8,11.4477153 8.44771525,11 9,11 Z M9,14 L12,14 C12.5522847,14 13,14.4477153 13,15 C13,15.5522847 12.5522847,16 12,16 L9,16 C8.44771525,16 8,15.5522847 8,15 C8,14.4477153 8.44771525,14 9,14 Z"/>
</svg>
