<svg xmlns="http://www.w3.org/2000/svg" width="24" height="24" viewBox="0 0 24 24">
  <path fill="#777" fill-rule="evenodd" d="M5.50704925,7 L11.3302124,12.1273449 C11.7062893,12.4584839 12.2693855,12.4601578 12.6474245,12.1312606 L18.5453676,7 L5.50704925,7 Z M19,9.25543921 L13.9601627,13.6401405 C12.8260457,14.6268319 11.1367572,14.6218101 10.0085264,13.6283933 L5,9.21834297 L5,17 L19,17 L19,9.25543921 Z M5,5 L19,5 C20.1045695,5 21,5.8954305 21,7 L21,17 C21,18.1045695 20.1045695,19 19,19 L5,19 C3.8954305,19 3,18.1045695 3,17 L3,7 C3,5.8954305 3.8954305,5 5,5 Z"/>
</svg>
