<svg width="24" height="24" viewBox="0 0 24 24" fill="none" xmlns="http://www.w3.org/2000/svg">
<path fill-rule="evenodd" clip-rule="evenodd" d="M6.17631 9.35261C7.93053 9.35261 9.35261 7.93053 9.35261 6.17631C9.35261 4.42208 7.93053 3 6.17631 3C4.42208 3 3 4.42208 3 6.17631C3 7.93053 4.42208 9.35261 6.17631 9.35261ZM5.11906 13.3803V14.6494C5.11906 16.4035 6.54114 17.8254 8.29537 17.8254H13.6294L17.1465 20.7561C17.8361 21.3307 18.8831 20.8404 18.8831 19.9428V17.6447C20.1167 17.2087 21.0006 16.0323 21.0006 14.6494V7.23877C21.0006 5.48471 19.5785 4.06276 17.8243 4.06276L14.648 4.06211H9.35414C9.92403 4.632 10.1872 5.39361 10.1848 6.18182H17.8234C18.4081 6.18182 18.8821 6.65581 18.8821 7.24049V14.6512C18.8821 15.2359 18.4081 15.7098 17.8234 15.7098C17.2386 15.7098 16.7646 16.1838 16.7646 16.7685V17.6842L14.6896 15.9552C14.4993 15.7967 14.2595 15.7098 14.0118 15.7098H8.29445C7.70971 15.7098 7.23568 15.2359 7.23568 14.6512V9.9294C6.61127 10.0778 5.90129 10.0809 5.11906 9.88534V10.6286V13.3803ZM9.352 9.35532C9.352 8.77063 9.82598 8.29665 10.4107 8.29665H15.7047C16.2894 8.29665 16.7634 8.77063 16.7634 9.35532C16.7634 9.94 16.2894 10.414 15.7047 10.414H10.4107C9.82598 10.414 9.352 9.94 9.352 9.35532ZM9.352 12.5313C9.352 11.9466 9.82598 11.4727 10.4107 11.4727H13.5872C14.1719 11.4727 14.6458 11.9466 14.6458 12.5313C14.6458 13.116 14.1719 13.59 13.5872 13.59H10.4107C9.82598 13.59 9.352 13.116 9.352 12.5313Z" fill="#52555A"/>
</svg>
