<svg xmlns="http://www.w3.org/2000/svg" width="24" height="24" viewBox="0 0 24 24">
  <path fill="#777" fill-rule="evenodd" d="M5,8 L5,5 C5,4.44771525 5.44771525,4 6,4 L18,4 C18.5522847,4 19,4.44771525 19,5 L19,8 L20,8 C20.5522847,8 21,8.44771525 21,9 L21,20 C21,20.5522847 20.5522847,21 20,21 L4,21 C3.44771525,21 3,20.5522847 3,20 L3,9 C3,8.44771525 3.44771525,8 4,8 L5,8 Z M5,10 L5,19 L19,19 L19,10 L5,10 Z M7,6 L7,8 L17,8 L17,6 L7,6 Z M7,11 L11,11 C11.5522847,11 12,11.4477153 12,12 C12,12.5522847 11.5522847,13 11,13 L7,13 C6.44771525,13 6,12.5522847 6,12 C6,11.4477153 6.44771525,11 7,11 Z M7,14 L14,14 C14.5522847,14 15,14.4477153 15,15 C15,15.5522847 14.5522847,16 14,16 L7,16 C6.44771525,16 6,15.5522847 6,15 C6,14.4477153 6.44771525,14 7,14 Z"/>
</svg>
