<svg xmlns="http://www.w3.org/2000/svg" width="24" height="24" viewBox="0 0 24 24">
  <path fill="#777" fill-rule="evenodd" d="M5.51981766,13.7209222 C4.77259127,15.0122363 3.8669811,16.1011704 2.62906997,17.1028629 C2.19973725,17.4502703 1.57006502,17.3838566 1.22265768,16.9545239 C0.87525035,16.5251912 0.941664004,15.8955189 1.37099673,15.5481116 C2.41097644,14.7065811 3.15973276,13.806253 3.78874629,12.7192277 C4.14017549,12.1119078 4.32826355,11.7169982 4.89667841,10.4484062 C5.69603063,8.66440661 6.19410002,7.77093409 7.07405831,6.77921627 C7.68152811,6.09459448 8.13605148,5.79131154 8.85444697,6.15527848 C9.51028097,6.48754936 9.56837824,6.95637357 9.47931014,7.75820773 C9.41167218,8.36711735 9.33026633,8.7130707 8.79154765,10.8438004 C8.74373936,11.0331551 8.74373936,11.0331551 8.6963922,11.2223248 C8.46427913,12.1524687 8.30945426,12.8454073 8.22332983,13.374173 C8.69280936,12.9807642 9.09027058,12.4851737 9.50274653,11.8283683 C9.59350326,11.683852 9.68455754,11.5331266 9.80087906,11.3361659 C9.81528631,11.3117709 10.0347541,10.9381843 10.0998409,10.8288184 C10.481415,10.187656 10.762364,9.77695369 11.1117878,9.39469146 C11.5858523,8.87607493 12.1523695,8.60279818 12.8008413,9.1707576 C13.1704847,9.49450713 13.2258057,9.82061286 13.2113358,10.3370348 C13.2003632,10.7286411 13.1566106,11.0322356 12.9725235,12.1419642 C13.0917486,11.9852898 13.2075936,11.8240175 13.3213165,11.6571852 C13.4979194,11.3981074 13.6631647,11.136033 13.8644006,10.8010239 C13.8496993,10.8254979 14.2469534,10.1574644 14.3562991,9.98026881 C14.5817115,9.61498639 14.8050157,9.39198189 15.2878074,9.36054307 C15.9800188,9.31546709 16.2683295,9.71452787 16.4019506,10.2101269 C16.4649243,10.4436959 16.4796144,10.6423856 16.4999467,11.1882803 C16.5136846,11.5571254 16.5169236,11.6341886 16.5270652,11.7971533 C16.5307999,11.8571657 16.534983,11.9145368 16.5395384,11.969095 C16.9934285,11.6321936 17.5163248,11.2373154 17.457966,11.2804435 C19.1352737,10.0408886 20.4946117,9.36163253 22.3099665,9.08111324 C22.8557732,8.99677197 23.3666091,9.37086365 23.4509504,9.91667039 C23.5352916,10.4624771 23.1611999,10.973313 22.6153932,11.0576543 C21.1765811,11.279988 20.0869208,11.8244872 18.6466276,12.8888848 C18.7683349,12.7989414 17.4695808,13.7789558 17.1154689,14.0235415 C16.2689713,14.6082189 15.3285485,14.411599 14.878724,13.5495318 C14.8135933,13.4247118 14.7602252,13.2924041 14.7162259,13.1490516 C14.2496315,13.7881129 13.7381496,14.3679348 13.13051,14.9238064 C13.0798326,14.9701664 13.0285777,15.0162559 12.9767317,15.0620791 C12.4896272,15.4925984 11.9493767,15.6887176 11.3613437,15.3182946 C10.9079752,15.0327015 10.7798086,14.6287734 10.7528855,14.0921605 C10.7444467,13.9239637 10.7473624,13.7447958 10.7620137,13.5386269 C10.0728363,14.4912822 9.31855908,15.1828874 8.28198026,15.7197925 C7.60236674,16.0718043 6.85121349,15.9941626 6.41994744,15.3293686 C6.17035599,14.944625 6.11400889,14.4895826 6.15052171,13.8921149 C6.1849096,13.3294178 6.30264451,12.6578714 6.52020325,11.7147517 C6.07090773,12.7098103 5.87019452,13.1154209 5.51981766,13.7209222 Z"/>
</svg>
