<svg xmlns="http://www.w3.org/2000/svg" width="24" height="24" viewBox="0 0 24 24">
  <path fill="#777" fill-rule="evenodd" d="M5,8.17070571 L5,5 C5,3.8954305 5.8954305,3 7,3 L17,3 C18.1045695,3 19,3.8954305 19,5 L19,8.17070571 C20.1651924,8.58254212 21,9.69378117 21,11 L21,18 C21,19.6568542 19.6568542,21 18,21 L6,21 C4.34314575,21 3,19.6568542 3,18 L3,11 C3,9.69378117 3.83480763,8.58254212 5,8.17070571 Z M17,11.344483 L17,5 L7,5 L7,11.3145559 L11.3302124,15.1273449 C11.7062893,15.4584839 12.2693855,15.4601578 12.6474245,15.1312606 L17,11.344483 Z M5,12.218343 L5,18 C5,18.5522847 5.44771525,19 6,19 L18,19 C18.5522847,19 19,18.5522847 19,18 L19,12.2554392 L13.9601627,16.6401405 C12.8260457,17.6268319 11.1367572,17.6218101 10.0085264,16.6283933 L5,12.218343 Z M9,6 L15,6 C15.5522847,6 16,6.44771525 16,7 C16,7.55228475 15.5522847,8 15,8 L9,8 C8.44771525,8 8,7.55228475 8,7 C8,6.44771525 8.44771525,6 9,6 Z M9,9 L15,9 C15.5522847,9 16,9.44771525 16,10 C16,10.5522847 15.5522847,11 15,11 L9,11 C8.44771525,11 8,10.5522847 8,10 C8,9.44771525 8.44771525,9 9,9 Z"/>
</svg>
