<svg xmlns="http://www.w3.org/2000/svg" width="24" height="24" viewBox="0 0 24 24">
  <path fill="#777" fill-rule="evenodd" d="M13.4142136,14 L14.8284271,15.4142136 C15.2189514,15.8047379 15.2189514,16.4379028 14.8284271,16.8284271 C14.4379028,17.2189514 13.8047379,17.2189514 13.4142136,16.8284271 L12,15.4142136 L10.5857864,16.8284271 C10.1952621,17.2189514 9.56209717,17.2189514 9.17157288,16.8284271 C8.78104858,16.4379028 8.78104858,15.8047379 9.17157288,15.4142136 L10.5857864,14 L9.17157288,12.5857864 C8.78104858,12.1952621 8.78104858,11.5620972 9.17157288,11.1715729 C9.56209717,10.7810486 10.1952621,10.7810486 10.5857864,11.1715729 L12,12.5857864 L13.4142136,11.1715729 C13.8047379,10.7810486 14.4379028,10.7810486 14.8284271,11.1715729 C15.2189514,11.5620972 15.2189514,12.1952621 14.8284271,12.5857864 L13.4142136,14 Z M9.20202888,5 C9.91221956,3.66666667 10.8448766,3 12,3 C13.1551234,3 14.0877804,3.66666667 14.7979711,5 L18,5 C19.1045695,5 20,5.8954305 20,7 L20,19 C20,20.1045695 19.1045695,21 18,21 L6,21 C4.8954305,21 4,20.1045695 4,19 L4,7 C4,5.8954305 4.8954305,5 6,5 L9.20202888,5 Z M8.43402463,7 L6,7 L6,19 L18,19 L18,7 L15.5659754,7 C15.6867907,7.43318968 15.7958649,7.90156435 15.8931978,8.40512402 L15.8931854,8.40512641 C15.9455896,8.67624367 15.7682877,8.93850963 15.4971704,8.99091382 C15.4659032,8.99695745 15.4341301,9 15.4022842,9 L8.59776479,9.00004573 C8.32159716,9.00004573 8.09771906,8.77616763 8.09771906,8.5 C8.09771906,8.4681502 8.10076199,8.43637324 8.10680639,8.40510224 C8.20413826,7.90155085 8.31321101,7.43318343 8.43402463,7 Z M12,7 C12.5522847,7 13,6.55228475 13,6 C13,5.44771525 12.5522847,5 12,5 C11.4477153,5 11,5.44771525 11,6 C11,6.55228475 11.4477153,7 12,7 Z"/>
</svg>
