<svg xmlns="http://www.w3.org/2000/svg" width="24" height="24" viewBox="0 0 24 24">
  <path fill="#777" fill-rule="evenodd" d="M11.3426288,3.35220424 C10.9263703,3.35220424 10.5536522,3.61005462 10.4068689,3.99958474 C9.47226547,6.47964832 9.0048739,9.095237 9.0048739,11.8522042 C9.0048739,14.6091805 9.47226854,17.2247773 10.4068782,19.7048482 C10.553667,20.0943655 10.9263926,20.3522182 11.3426454,20.3522182 L14.0048739,20.3522042 C14.043114,20.3522042 14.0812888,20.3490448 14.1190086,20.3427582 C14.4972177,20.2797233 14.7527168,19.9220245 14.689682,19.5438154 L14.2970136,17.1878053 C14.216649,16.7056173 13.7994589,16.3522042 13.3106197,16.3522042 L12.2609456,16.3522042 C11.7654708,16.3522042 11.3447039,15.9893827 11.2718229,15.4992974 C11.093828,14.3023768 11.0048739,13.086548 11.0048739,11.8522042 C11.0048739,10.6178605 11.093828,9.40203173 11.2718229,8.20511108 C11.3447039,7.71502574 11.7654708,7.35220424 12.2609456,7.35220424 L13.3106197,7.35220424 C13.7994589,7.35220424 14.216649,6.9987912 14.2970136,6.51660323 L14.630347,4.51660323 C14.6394022,4.4622718 14.6439531,4.4072851 14.6439531,4.35220424 C14.6439531,3.8648526 14.2922931,3.4502592 13.818967,3.36729827 C13.7948291,3.36306757 13.7710823,3.35802442 13.7477458,3.35220424 L11.3426288,3.35220424 Z M13.0048739,11.8522042 C13.0048739,12.6958972 13.0499402,13.5291769 13.1400373,14.3522042 L13.3106197,14.3522042 C14.7771372,14.3522042 16.0287075,15.4124434 16.2698015,16.8590073 L16.6624698,19.2150174 C16.9070948,20.6827671 15.9155563,22.0709211 14.4478066,22.315546 C14.3014239,22.3399431 14.1532757,22.3522042 14.0048791,22.3522042 L11.3426506,22.3522182 C10.0938883,22.3522182 8.97572161,21.5786673 8.53535928,20.4101262 C7.5149758,17.7024467 7.0048739,14.8478549 7.0048739,11.8522042 C7.0048739,8.85656346 7.51497245,6.00198054 8.53534144,3.29432962 C8.97568005,2.1257689 10.0938539,1.35220424 11.3426288,1.35220424 L14.0048739,1.35220424 C14.1786749,1.35220424 14.3386769,1.3951794 14.4774021,1.46965493 C15.7419411,1.83414248 16.6439531,2.99871135 16.6439531,4.35220424 C16.6439531,4.51744682 16.6303005,4.68240692 16.6031348,4.8454012 L16.2698015,6.8454012 C16.0287075,8.29196511 14.7771372,9.35220424 13.3106197,9.35220424 L13.1400379,9.35220424 C13.0499402,10.1752316 13.0048739,11.0085113 13.0048739,11.8522042 Z" transform="rotate(-45 11.852 11.852)"/>
</svg>
