<svg xmlns="http://www.w3.org/2000/svg" width="24" height="24" viewBox="0 0 24 24">
  <path fill="#777" fill-rule="evenodd" d="M7,5.99961781 L7,4.99971335 C7,3.34301741 8.34314575,2 10,2 L19,2 C20.6568542,2 22,3.34301741 22,4.99971335 L22,10.9991401 C22,12.3052341 21.1651924,13.416367 20,13.828164 L20,15.9986623 C20,16.846419 19.0111425,17.3095308 18.3598156,16.7668102 L16,14.8004851 L16,15.9986623 C16,17.6553583 14.6568542,18.9983757 13,18.9983757 L7.96204994,18.9983757 L4.6401844,21.7663325 C3.98885748,22.309053 3,21.8459412 3,20.9981846 L3,18.8276863 C1.83480763,18.4158892 1,17.3047563 1,15.9986623 L1,8.99933116 C1,7.34263522 2.34314575,5.99961781 4,5.99961781 L7,5.99961781 Z M16,12.1990245 C16.0136351,12.2092503 16.0270351,12.2198444 16.0401844,12.2308011 L18,13.8638247 L18,12.998949 C18,12.446717 18.4477153,11.9990445 19,11.9990445 C19.5522847,11.9990445 20,11.551372 20,10.9991401 L20,4.99971335 C20,4.44748137 19.5522847,3.9998089 19,3.9998089 L10,3.9998089 C9.44771525,3.9998089 9,4.44748137 9,4.99971335 L9,5.99961781 L13,5.99961781 C14.6568542,5.99961781 16,7.34263522 16,8.99933116 L16,12.1990245 Z M6.9598156,17.2303233 C7.1395306,17.0805752 7.36606349,16.9985668 7.6,16.9985668 L13,16.9985668 C13.5522847,16.9985668 14,16.5508943 14,15.9986623 L14,8.99933116 C14,8.44709918 13.5522847,7.99942671 13,7.99942671 L4,7.99942671 C3.44771525,7.99942671 3,8.44709918 3,8.99933116 L3,15.9986623 C3,16.5508943 3.44771525,16.9985668 4,16.9985668 C4.55228475,16.9985668 5,17.4462392 5,17.9984712 L5,18.863347 L6.9598156,17.2303233 Z M5.99990445,9.99923561 L11.0000955,9.99923561 C11.5523275,9.99923561 12,10.4469081 12,10.9991401 C12,11.551372 11.5523275,11.9990445 11.0000955,11.9990445 L5.99990445,11.9990445 C5.44767247,11.9990445 5,11.551372 5,10.9991401 C5,10.4469081 5.44767247,9.99923561 5.99990445,9.99923561 Z M7.99990445,12.998949 L11.0000955,12.998949 C11.5523275,12.998949 12,13.4466214 12,13.9988534 C12,14.5510854 11.5523275,14.9987579 11.0000955,14.9987579 L7.99990445,14.9987579 C7.44767247,14.9987579 7,14.5510854 7,13.9988534 C7,13.4466214 7.44767247,12.998949 7.99990445,12.998949 Z" transform="matrix(-1 0 0 1 23 0)"/>
</svg>
