<?xml version="1.0" encoding="utf-8"?>
<!-- Generator: Adobe Illustrator 24.3.0, SVG Export Plug-In . SVG Version: 6.00 Build 0)  -->
<svg version="1.1" id="Layer_1" focusable="false" xmlns="http://www.w3.org/2000/svg" xmlns:xlink="http://www.w3.org/1999/xlink"
	 x="0px" y="0px" viewBox="0 0 24 24" style="enable-background:new 0 0 24 24;" xml:space="preserve">
<path d="M20.7,6.3c-0.3,0-0.5,0.1-0.8,0.2L17,9V7c0-1.1-1-2-2.2-2H4.2C3,5,2,5.9,2,7V17c0,1.1,1,2,2.2,2h10.7c1.2,0,2.2-0.9,2.2-2
	v-2l2.9,2.4c0.2,0.2,0.5,0.2,0.8,0.2c0.7,0,1.3-0.5,1.3-1.3V7.6C22,6.9,21.4,6.3,20.7,6.3z M15,17c0,0-0.1,0-0.2,0H4.2
	C4.1,17,4,17,4,17V7c0,0,0.1,0,0.2,0h10.7C14.9,7,15,7,15,7V17z M20,15.1l-3-2.5v-1.3l3-2.5V15.1z"/>
<path d="M12.3,11h-1.8V9.2c0-0.4-0.3-0.7-0.7-0.7H9.2c-0.4,0-0.7,0.3-0.7,0.7V11H6.7C6.3,11,6,11.3,6,11.7v0.7C6,12.7,6.3,13,6.7,13
	h1.9v1.9c0,0.4,0.3,0.7,0.7,0.7h0.7c0.4,0,0.7-0.3,0.7-0.7V13h1.8c0.4,0,0.7-0.3,0.7-0.7v-0.7C13,11.3,12.7,11,12.3,11z"/>
</svg>
