<svg xmlns="http://www.w3.org/2000/svg" width="24" height="24" viewBox="0 0 24 24">
  <path fill="#777" fill-rule="evenodd" d="M8.41733512,17 L4.88068583,20.5414702 C4.14707862,21.2760774 3,20.7624768 3,19.7500148 L3,6.0085302 C3,4.3490487 4.34013829,3 5.99406028,3 L18.0059397,3 C19.6604229,3 21,4.35055094 21,6.0085302 L21,13.9914698 C21,15.6509513 19.6598617,17 18.0059397,17 L8.41733512,17 Z M5,17.5916378 L7.2951343,15.293375 C7.48270969,15.1055439 7.73727001,15 8.00272253,15 L18.0059397,15 C18.5523144,15 19,14.5493378 19,13.9914698 L19,6.0085302 C19,5.45148424 18.5521843,5 18.0059397,5 L5.99406028,5 C5.44768556,5 5,5.45066217 5,6.0085302 L5,17.5916378 Z M9,9 C9.55228475,9 10,9.44771525 10,10 C10,10.5522847 9.55228475,11 9,11 C8.44771525,11 8,10.5522847 8,10 C8,9.44771525 8.44771525,9 9,9 Z M12,9 C12.5522847,9 13,9.44771525 13,10 C13,10.5522847 12.5522847,11 12,11 C11.4477153,11 11,10.5522847 11,10 C11,9.44771525 11.4477153,9 12,9 Z M15,9 C15.5522847,9 16,9.44771525 16,10 C16,10.5522847 15.5522847,11 15,11 C14.4477153,11 14,10.5522847 14,10 C14,9.44771525 14.4477153,9 15,9 Z"/>
</svg>
