<svg xmlns="http://www.w3.org/2000/svg" width="24" height="24" viewBox="0 0 24 24">
  <path fill="#979797" d="M3,13.046495 C2.99322018,12.9019014 3.01824399,12.752173 3.08085497,12.6060807 L5.56135723,6.8182421 C6.0340936,5.71519056 7.11870799,5 8.31879232,5 L15.6812077,5 C16.881292,5 17.9659064,5.71519056 18.4386428,6.8182421 L20.919145,12.6060807 C20.981756,12.752173 21.0067798,12.9019014 21,13.046495 L21,17 C21,18.1045695 20.1045695,19 19,19 L5,19 C3.8954305,19 3,18.1045695 3,17 L3,13.046495 Z M19,14 L16.8292943,14 C16.4174579,15.1651924 15.3062188,16 14,16 L10,16 C8.69378117,16 7.58254212,15.1651924 7.17070571,14 L5,14 L5,17 L19,17 L19,14 Z M18.483461,12 L16.6003527,7.6060807 C16.4427739,7.23839685 16.0812358,7 15.6812077,7 L8.31879232,7 C7.91876421,7 7.55722608,7.23839685 7.39964729,7.6060807 L5.51653902,12 L8,12 C8.55228475,12 9,12.4477153 9,13 C9,13.5522847 9.44771525,14 10,14 L14,14 C14.5522847,14 15,13.5522847 15,13 C15,12.4477153 15.4477153,12 16,12 L18.483461,12 Z"/>
</svg>
