<svg xmlns="http://www.w3.org/2000/svg" width="24" height="24" viewBox="0 0 24 24">
  <path fill="#777" fill-rule="evenodd" d="M12.1707057,17 L5,17 C3.8954305,17 3,16.1045695 3,15 L3,7 C3,5.8954305 3.8954305,5 5,5 L17,5 C18.0548695,5 18.918997,5.81666378 18.994624,6.85223287 C19.0167155,6.96725068 19.0181981,7.0846187 19,7.19881819 L19,10.1707057 C18.6872211,10.0601542 18.3506354,10 18,10 C17.6493646,10 17.3127789,10.0601542 17,10.1707057 L17,8.98996048 L12.7450863,12.0194988 C11.7020255,12.7621678 10.3025708,12.7609558 9.26079798,12.0164812 L5,8.97161774 L5,15 L12.1707057,15 C12.0601542,15.3127789 12,15.6493646 12,16 C12,16.3506354 12.0601542,16.6872211 12.1707057,17 Z M5.68089262,7 L10.4236375,10.3892737 C10.7708952,10.6374319 11.23738,10.6378359 11.585067,10.3902796 L16.3466331,7 L5.68089262,7 Z M19,15 L21,15 C21.5522847,15 22,15.4477153 22,16 C22,16.5522847 21.5522847,17 21,17 L19,17 L19,19 C19,19.5522847 18.5522847,20 18,20 C17.4477153,20 17,19.5522847 17,19 L17,17 L15,17 C14.4477153,17 14,16.5522847 14,16 C14,15.4477153 14.4477153,15 15,15 L17,15 L17,13 C17,12.4477153 17.4477153,12 18,12 C18.5522847,12 19,12.4477153 19,13 L19,15 Z"/>
</svg>
