<svg width="24" height="24" viewBox="0 0 24 24" xmlns="http://www.w3.org/2000/svg">
  <path fill-rule="evenodd" clip-rule="evenodd" d="M4 1H16C17.1046 1 18 2.06332 18 3.375V8.83671L16 12.3008V3H4V18H12.7096L11.7089 19.7333C11.6593 19.819 11.6164 19.9082 11.5802 20H4C2.89543 20 2 18.9367 2 17.625V3.375C2 2.06332 2.89543 1 4 1ZM16.1791 19.9906C16.175 19.991 16.171 19.9914 16.1669 19.9918L15.1421 21.7667C15.1091 21.824 15.0705 21.8777 15.027 21.9272C15.0003 21.9549 14.972 21.981 14.9423 22.0055L12.8129 23.7573C12.5997 23.9328 12.2846 23.9021 12.1091 23.6889C12.0174 23.5773 11.9783 23.4316 12.002 23.2891L12.4545 20.5692C12.4741 20.4509 12.5149 20.3371 12.5749 20.2333L19.4842 8.26595C19.518 8.2074 19.5569 8.15356 19.5999 8.10467C19.9112 7.78167 20.4134 7.69897 20.8194 7.9334L21.6855 8.4334C22.1637 8.70955 22.3276 9.32114 22.0515 9.79943L18 16.8168V16.8367L16.1791 19.9906ZM15 14.0329L13.8643 16H6C5.44772 16 5 15.5523 5 15V12C5 11.4477 5.44772 11 6 11H14C14.5523 11 15 11.4477 15 12V14.0329ZM6 5C5.44772 5 5 5.44772 5 6C5 6.55228 5.44772 7 6 7H14C14.5523 7 15 6.55228 15 6C15 5.44772 14.5523 5 14 5H6ZM5 9C5 8.44772 5.44772 8 6 8H11C11.5523 8 12 8.44772 12 9C12 9.55228 11.5523 10 11 10H6C5.44772 10 5 9.55228 5 9ZM7 13H13V14H7V13Z" fill="#777777"/>
</svg>
