<svg width="24" height="24" viewBox="0 0 24 24" xmlns="http://www.w3.org/2000/svg">
  <path fill-rule="evenodd" clip-rule="evenodd" d="M12 3C13.1613 3 14.0228 3.89844 14.6426 5H18C19.1046 5 20 5.89543 20 7V19C20 20.1046 19.1046 21 18 21H6C4.89543 21 4 20.1046 4 19V7C4 5.89543 4.89543 5 6 5H9.35735C9.97718 3.89844 10.8387 3 12 3ZM8.1172 8.42301C8.19919 8.05994 8.32658 7.55583 8.50686 7H6V19H18V7H15.4931C15.6734 7.55583 15.8008 8.05994 15.8828 8.42301C15.9508 8.72436 15.7188 9 15.4099 9H8.59012C8.28119 9 8.04916 8.72436 8.1172 8.42301ZM12 7C12.5523 7 13 6.55228 13 6C13 5.44772 12.5523 5 12 5C11.4477 5 11 5.44772 11 6C11 6.55228 11.4477 7 12 7Z" fill="#777777"/>
  <path fill-rule="evenodd" clip-rule="evenodd" d="M15.6432 10.5173C15.214 10.1697 14.5843 10.2359 14.2367 10.6651L11.0901 14.5508L9.5358 13.2922C9.10659 12.9446 8.4769 13.0108 8.12933 13.44C7.78177 13.8692 7.84795 14.4989 8.27716 14.8465L10.6086 16.7344C11.0378 17.082 11.6675 17.0158 12.0151 16.5866L15.791 11.9237C16.1385 11.4945 16.0724 10.8648 15.6432 10.5173Z" fill="#777777"/>
</svg>
