<svg xmlns="http://www.w3.org/2000/svg" width="24" height="24" viewBox="0 0 24 24">
  <path fill="#777" fill-rule="evenodd" d="M5.99908828,15.0687672 L2.46324821,12.8186871 C1.77151633,12.3784941 1.87436939,11.3386766 2.63893569,11.0425326 L20.6389357,4.0704867 C21.4917249,3.74017084 22.3038356,4.63325911 21.8941928,5.45090868 L14.8941928,19.4229546 C14.6287212,19.9528378 13.9632566,20.1368743 13.4632482,19.8186871 L9.87926727,17.537972 C9.83577382,17.5725331 9.78880433,17.6039245 9.73851054,17.6316225 L7.48252909,18.874045 C6.81606525,19.2410824 6.0001237,18.7589455 6.0001237,17.9980969 L6.0001237,15.0822154 C5.99974798,15.0777327 5.99940287,15.0732499 5.99908828,15.0687672 Z M9.35601761,14.8343759 L13.6023121,17.5365633 L18.9457001,6.87112578 L5.20555955,12.1931753 L7.43522477,13.6120531 L11.9694018,11.1002783 C12.4525114,10.8326525 13.0611027,11.0073367 13.3287285,11.4904463 C13.5963542,11.9735559 13.42167,12.5821472 12.9385604,12.849773 L9.35601761,14.8343759 Z"/>
</svg>
