<svg xmlns="http://www.w3.org/2000/svg" width="24" height="24" viewBox="0 0 24 24">
  <path fill="#777" fill-rule="evenodd" d="M5.45160036,14.0545485 L7.18365116,15.0545485 L10.4820035,9.34163468 L8.74995267,8.34163468 L5.45160036,14.0545485 Z M4.45160036,15.7865993 L4.41750472,15.8456547 L4.60692747,17.5283317 L6.14804345,16.8482736 L6.18365116,16.7865993 L4.45160036,15.7865993 Z M6.7523483,18.8970136 C6.97359315,18.8647366 7.20383495,18.8042832 7.4453034,18.7165173 C8.58306446,18.3029784 9.81006006,17.3681787 11.4891581,15.7509207 C11.7932906,15.4579892 13.0183922,14.2480007 13.3192276,13.9599779 C14.0109296,13.2977355 14.5246614,12.8575356 15.0003174,12.5451738 C16.2949063,11.6950215 17.5418631,12.3434261 17.2323931,13.8407692 C17.1309007,14.3318313 16.9013928,14.9108763 16.4465399,15.9036518 C18.4117922,14.7581359 20.4865016,14.0045856 22.0839028,14.0045856 C22.6361876,14.0045856 23.0839028,14.4523008 23.0839028,15.0045856 C23.0839028,15.5568703 22.6361876,16.0045856 22.0839028,16.0045856 C20.4138024,16.0045856 17.6786527,17.26431 15.517343,18.9353526 C14.8750325,19.4319626 14.3968281,19.6257831 13.7861629,19.0741664 C13.2960695,18.6314628 13.328427,18.2416847 13.533144,17.5852583 C13.6596529,17.1796069 13.7685712,16.9241885 14.2851465,15.8110911 C13.8054003,16.2812282 13.10533,16.9711025 12.8765967,17.1914116 C11.0057891,18.9933186 9.60744686,20.0586606 8.12850887,20.5962062 C6.6770912,21.1237491 5.28619532,21.0301319 4.03970398,20.213201 C3.60777556,20.3976538 3.0333704,20.2135058 2.73839565,19.7891891 C2.63899029,19.646196 2.58016602,19.4870804 2.5681922,19.3288006 L2.31694543,16.0076139 C2.29398931,15.704161 2.35794703,15.4129132 2.50253681,15.1624764 L8.01790187,5.60958387 L9.51790187,3.01150766 C9.79404424,2.53321504 10.4056346,2.36933988 10.8839273,2.64548226 L14.3480289,4.64548226 C14.8263215,4.92162463 14.9901967,5.53321504 14.7140543,6.01150766 L13.2140543,8.60958387 L7.69705524,18.1653065 C7.55350109,18.4139496 7.33534889,18.6139052 7.06372913,18.7458053 L6.7523483,18.8970136 Z M9.74995267,6.60958387 L11.4820035,7.60958387 L12.4820035,5.87753306 L10.7499527,4.87753306 L9.74995267,6.60958387 Z" transform="rotate(9 12.698 11.718)"/>
</svg>
