<svg xmlns="http://www.w3.org/2000/svg" width="24" height="24" viewBox="0 0 24 24">
  <path fill="#777" fill-rule="evenodd" d="M19.9999919,7.88866056 C20.6583973,8.6016341 21.0606602,9.55468152 21.0606602,10.6016825 C21.0606602,11.6486914 20.6583911,12.6017455 19.9999768,13.3147208 L19.9999686,16.2275573 C19.9999686,17.3321094 19.1045522,18.2275259 18,18.2275259 C17.6137844,18.2275259 17.23583,18.1156995 16.9117906,17.9055545 C13.4132721,15.6367065 10.6266005,14.3908937 8.60448578,14.1458346 L9.48639392,19.4372835 C9.58798254,20.0468152 9.11793944,20.6016825 8.5,20.6016825 L5.52038574,20.6016825 C5.51918744,20.6016825 5.51798964,20.6016804 5.51679233,20.6016761 C5.02942184,20.6104684 4.59614353,20.2613062 4.51360608,19.7660815 L3.56953958,14.1016825 L3,14.1016825 C2.44771525,14.1016825 2,13.6539672 2,13.1016825 L2,8.10168247 C2,7.54939772 2.44771525,7.10168247 3,7.10168247 L7.92309619,7.10168247 C7.94996593,7.10147669 7.97693713,7.10147612 8.00400844,7.10168247 L8.0985001,7.10168247 C10.156189,7.08287967 13.1116571,5.83841296 16.895895,3.33259426 C17.8168571,2.72285571 19.0577475,2.97507793 19.667558,3.89600173 C19.8843791,4.2234406 20,4.60746793 20,5.00018892 L19.9999919,7.88866056 Z M5.59712709,14.1016825 L6.34712709,18.6016825 L7.31953958,18.6016825 L6.56953958,14.1016825 L5.59712709,14.1016825 Z M9,9.04229577 L9,12.1809405 C11.3769861,12.5119893 14.3610451,13.8675975 18.0000406,16.2275545 L18.0000406,5.00018613 C14.3824678,7.39564373 11.3984647,8.75127733 9,9.04229577 Z M4,9.10168247 L4,12.1016825 L7,12.1016825 L7,9.10168247 L4,9.10168247 Z"/>
</svg>
