<svg xmlns="http://www.w3.org/2000/svg" width="24" height="24" viewBox="0 0 24 24">
  <path fill="#777" fill-rule="evenodd" d="M18,6.19881819 L18,9 C17.2987292,9 16.6255579,9.12030844 16,9.34141142 L16,7.98996048 L11.7450863,11.0194988 C10.7020255,11.7621678 9.3025708,11.7609558 8.26079798,11.0164812 L4,7.97161774 L4,14 L12.0829584,14 C12.0283988,14.3252085 12,14.6592878 12,15 C12,15.3407122 12.0283988,15.6747915 12.0829584,16 L4,16 C2.8954305,16 2,15.1045695 2,14 L2,6 C2,4.8954305 2.8954305,4 4,4 L16,4 C17.0548695,4 17.918997,4.81666378 17.994624,5.85223287 C18.0167155,5.96725068 18.0181981,6.0846187 18,6.19881819 Z M4.68089262,6 L9.42363755,9.38927369 C9.77089516,9.63743189 10.23738,9.6378359 10.585067,9.39027956 L15.3466331,6 L4.68089262,6 Z M18,20 C15.2385763,20 13,17.7614237 13,15 C13,12.2385763 15.2385763,10 18,10 C20.7614237,10 23,12.2385763 23,15 C23,17.7614237 20.7614237,20 18,20 Z M18,18 C19.6568542,18 21,16.6568542 21,15 C21,13.3431458 19.6568542,12 18,12 C16.3431458,12 15,13.3431458 15,15 C15,16.6568542 16.3431458,18 18,18 Z M17,14 L19,14 C19.5522847,14 20,14.4477153 20,15 C20,15.5522847 19.5522847,16 19,16 L17,16 C16.4477153,16 16,15.5522847 16,15 C16,14.4477153 16.4477153,14 17,14 Z"/>
</svg>
