<svg xmlns="http://www.w3.org/2000/svg" width="24" height="24" viewBox="0 0 24 24">
  <path fill="#777" fill-rule="evenodd" d="M2,16.528 C2,16.384 2.048,16.24 2.128,16.08 L6.288,6.8 C6.512,6.304 6.912,6 7.472,6 L7.568,6 C8.128,6 8.512,6.304 8.736,6.8 L12.896,16.08 C12.976,16.224 13.008,16.368 13.008,16.496 C13.008,17.024 12.608,17.44 12.08,17.44 C11.616,17.44 11.296,17.168 11.12,16.752 L10.208,14.656 L4.768,14.656 L3.824,16.816 C3.664,17.216 3.328,17.44 2.912,17.44 C2.4,17.44 2,17.04 2,16.528 Z M5.52,12.912 L9.456,12.912 L7.488,8.384 L5.52,12.912 Z M14.176,16.464 L14.176,7.152 C14.176,6.592 14.608,6.16 15.168,6.16 L18.592,6.16 C21.216,6.16 22.848,7.648 22.848,9.904 L22.848,9.936 C22.848,12.448 20.832,13.76 18.368,13.76 L16.144,13.76 L16.144,16.464 C16.144,17.008 15.712,17.44 15.168,17.44 C14.608,17.44 14.176,17.008 14.176,16.464 Z M16.144,11.984 L18.432,11.984 C19.92,11.984 20.848,11.152 20.848,9.984 L20.848,9.952 C20.848,8.64 19.904,7.952 18.432,7.952 L16.144,7.952 L16.144,11.984 Z"/>
</svg>
