<svg xmlns="http://www.w3.org/2000/svg" width="24" height="24" viewBox="0 0 24 24">
  <path fill="#777" fill-rule="evenodd" d="M16.9997366,4.9672106 L19.2800216,5.36928636 C20.3678102,5.56109284 21.0941472,6.59840961 20.9023407,7.68619822 L18.9922108,18.5190835 C18.8004043,19.6068721 17.7630875,20.3332091 16.6752989,20.1414027 L16.6461031,20.1362546 C16.2851963,20.6581137 15.6825241,21 15,21 L5,21 C3.8954305,21 3,20.1045695 3,19 L3,5 C3,3.8954305 3.8954305,3 5,3 L15,3 C16.0936189,3 16.982225,3.87776411 16.9997366,4.9672106 Z M17,6.99811026 L17,18.167803 L17.0225953,18.1717871 L18.9327252,7.33890186 L17,6.99811026 Z M5,5 L5,19 L15,19 L15,5 L5,5 Z M7,6 L10,6 C10.5522847,6 11,6.44771525 11,7 C11,7.55228475 10.5522847,8 10,8 L7,8 C6.44771525,8 6,7.55228475 6,7 C6,6.44771525 6.44771525,6 7,6 Z M7,15 L9,15 C9.55228475,15 10,15.4477153 10,16 C10,16.5522847 9.55228475,17 9,17 L7,17 C6.44771525,17 6,16.5522847 6,16 C6,15.4477153 6.44771525,15 7,15 Z M7,9 L13,9 C13.5522847,9 14,9.44771525 14,10 C14,10.5522847 13.5522847,11 13,11 L7,11 C6.44771525,11 6,10.5522847 6,10 C6,9.44771525 6.44771525,9 7,9 Z M7,12 L11,12 C11.5522847,12 12,12.4477153 12,13 C12,13.5522847 11.5522847,14 11,14 L7,14 C6.44771525,14 6,13.5522847 6,13 C6,12.4477153 6.44771525,12 7,12 Z"/>
</svg>
