<svg xmlns="http://www.w3.org/2000/svg" width="24" height="24" viewBox="0 0 24 24">
  <path fill="#777" fill-rule="evenodd" d="M13.4143443,8 L14.9143443,8 C15.1904867,8 15.4143443,8.22385763 15.4143443,8.5 L15.4143443,9.5 C15.4143443,9.77614237 15.1904867,10 14.9143443,10 L11.4143443,10 L11.4143443,11 L14.4143443,11 C14.9666291,11 15.4143443,11.4477153 15.4143443,12 L15.4143443,15 C15.4143443,15.5522847 14.9666291,16 14.4143443,16 L13.4143443,16 L13.4143443,16.5 C13.4143443,16.7761424 13.1904867,17 12.9143443,17 L11.9143443,17 C11.6382019,17 11.4143443,16.7761424 11.4143443,16.5 L11.4143443,16 L9.9143443,16 C9.63820193,16 9.4143443,15.7761424 9.4143443,15.5 L9.4143443,14.5 C9.4143443,14.2238576 9.63820193,14 9.9143443,14 L13.4143443,14 L13.4143443,13 L10.4143443,13 C9.86205955,13 9.4143443,12.5522847 9.4143443,12 L9.4143443,9 C9.4143443,8.44771525 9.86205955,8 10.4143443,8 L11.4143443,8 L11.4143443,7.5 C11.4143443,7.22385763 11.6382019,7 11.9143443,7 L12.9143443,7 C13.1904867,7 13.4143443,7.22385763 13.4143443,7.5 L13.4143443,8 Z M19.2996515,13.2707973 L18.3364267,14.0790389 C17.913352,14.4340407 17.2825965,14.3788567 16.9275947,13.955782 C16.5725929,13.5327074 16.6277768,12.9019518 17.0508515,12.54695 L19.7592276,10.2743526 C20.1823023,9.91935081 20.8130579,9.97453477 21.1680596,10.3976094 L23.440657,13.1059855 C23.7956588,13.5290602 23.7404749,14.1598158 23.3174002,14.5148176 C22.8943255,14.8698194 22.2635699,14.8146354 21.9085681,14.3915608 L21.2678369,13.627967 C20.5036188,17.8209984 16.8408494,21 12.4365472,21 C10.3499851,21 8.37044224,20.2829699 6.7833177,18.9919569 C6.35487663,18.6434505 6.29007674,18.0136102 6.63858311,17.5851691 C6.98708948,17.156728 7.61692983,17.0919281 8.04537091,17.4404345 C9.27913226,18.4440117 10.8140786,19 12.4365472,19 C15.8572046,19 18.7037749,16.5304906 19.2996515,13.2707973 Z M5.41968368,11.7225793 L6.33820916,10.9518449 C6.76128383,10.5968431 7.39203942,10.6520271 7.74704122,11.0751017 C8.10204301,11.4981764 8.04685905,12.128932 7.62378438,12.4839338 L4.91540828,14.7565312 C4.49233362,15.111533 3.86157802,15.056349 3.50657623,14.6332744 L1.23397884,11.9248983 C0.878977045,11.5018236 0.934161009,10.871068 1.35723567,10.5160662 C1.78031034,10.1610644 2.41106593,10.2162484 2.76606773,10.639323 L3.43179755,11.4327089 C3.72214073,6.72818071 7.59874983,3 12.3424939,3 C14.4597175,3 16.4653481,3.74658062 18.0578731,5.08549663 C18.4806039,5.44090776 18.5351774,6.07171647 18.1797662,6.49444732 C17.8243551,6.91717817 17.1935464,6.97175159 16.7708155,6.61634046 C15.5350887,5.57740267 13.9839415,5 12.3424939,5 C8.61007127,5 5.56386953,7.98334339 5.41968368,11.7225793 Z"/>
</svg>
