<svg xmlns="http://www.w3.org/2000/svg" width="24" height="24" viewBox="0 0 24 24">
  <path fill="#777" fill-rule="evenodd" d="M18,13.0019152 L18,5 C18,4.44771525 17.5522847,4 17,4 L11,4 L11,7 C11,8.1045695 10.1045695,9 9,9 L6,9 L6,19 C6,19.5522847 6.44771525,20 7,20 L14,20 L14.0179717,20 C13.6298014,20.6018169 13.5960543,21.368573 13.9220939,22 L7,22 C5.34314575,22 4,20.6568542 4,19 L4,7.01135254 C4,6.74770342 4.10411866,6.49472165 4.2897014,6.30745205 L8.26492113,2.29609951 C8.45271091,2.10660281 8.70843516,2 8.97521973,2 L17,2 C18.6568542,2 20,3.34314575 20,5 L20,13.3582438 C19.4155104,13.1239581 18.7853334,13 18.1392306,13 C18.0927133,13 18.0462997,13.0006405 18,13.0019152 Z M12,15 L9,15 C8.44771525,15 8,14.5522847 8,14 C8,13.4477153 8.44771525,13 9,13 L12,13 C12.3271057,13 12.6175293,13.1570551 12.7999765,13.3998712 C12.3142112,13.7647548 12,14.3456834 12,15 Z M12,18 L9,18 C8.44771525,18 8,17.5522847 8,17 C8,16.4477153 8.44771525,16 9,16 L12,16 L12,18 Z M6.41910889,7 L9,7 L9,4.39564984 L6.41910889,7 Z M12,10 C12.5522847,10 13,10.4477153 13,11 C13,11.5522847 12.5522847,12 12,12 L9,12 C8.44771525,12 8,11.5522847 8,11 C8,10.4477153 8.44771525,10 9,10 L12,10 Z M15,12 C14.4477153,12 14,11.5522847 14,11 C14,10.4477153 14.4477153,10 15,10 C15.5522847,10 16,10.4477153 16,11 C16,11.5522847 15.5522847,12 15,12 Z M15,15.5207797 C15.7325953,14.5944172 16.8664962,14 18.1392306,14 C19.2387851,14 20.2695827,14.4471827 21.0179562,15.2227778 C21.4014436,15.6202143 21.3901356,16.2532783 20.9926991,16.6367658 C20.5952625,17.0202532 19.9621985,17.0089452 19.5787111,16.6115087 C19.2034713,16.2226198 18.690312,16 18.1392306,16 C17.3989483,16 16.7526044,16.4021986 16.406795,17 L17,17 C17.5522847,17 18,17.4477153 18,18 C18,18.5522847 17.5522847,19 17,19 L14,19 C13.4477153,19 13,18.5522847 13,18 L13,15 C13,14.4477153 13.4477153,14 14,14 C14.5522847,14 15,14.4477153 15,15 L15,15.5207797 Z M20.9983346,21.4792203 C20.2657393,22.4055828 19.1318384,23 17.859104,23 C16.7595495,23 15.7287519,22.5528173 14.9803785,21.7772222 C14.596891,21.3797857 14.608199,20.7467217 15.0056355,20.3632342 C15.4030721,19.9797468 16.0361361,19.9910548 16.4196236,20.3884913 C16.7948634,20.7773802 17.3080226,21 17.859104,21 C18.5993863,21 19.2457302,20.5978014 19.5915396,20 L18.9983346,20 C18.4460499,20 17.9983346,19.5522847 17.9983346,19 C17.9983346,18.4477153 18.4460499,18 18.9983346,18 L21.9983346,18 C22.5506194,18 22.9983346,18.4477153 22.9983346,19 L22.9983346,22 C22.9983346,22.5522847 22.5506194,23 21.9983346,23 C21.4460499,23 20.9983346,22.5522847 20.9983346,22 L20.9983346,21.4792203 Z"/>
</svg>
