<svg xmlns="http://www.w3.org/2000/svg" width="24" height="24" viewBox="0 0 24 24">
  <path fill="#777" fill-rule="evenodd" d="M13,8 L14.5,8 C14.7761424,8 15,8.22385763 15,8.5 L15,9.5 C15,9.77614237 14.7761424,10 14.5,10 L11,10 L11,11 L14,11 C14.5522847,11 15,11.4477153 15,12 L15,15 C15,15.5522847 14.5522847,16 14,16 L13,16 L13,16.5 C13,16.7761424 12.7761424,17 12.5,17 L11.5,17 C11.2238576,17 11,16.7761424 11,16.5 L11,16 L9.5,16 C9.22385763,16 9,15.7761424 9,15.5 L9,14.5 C9,14.2238576 9.22385763,14 9.5,14 L13,14 L13,13 L10,13 C9.44771525,13 9,12.5522847 9,12 L9,9 C9,8.44771525 9.44771525,8 10,8 L11,8 L11,7.5 C11,7.22385763 11.2238576,7 11.5,7 L12.5,7 C12.7761424,7 13,7.22385763 13,7.5 L13,8 Z M12,22 C6.4771525,22 2,17.5228475 2,12 C2,6.4771525 6.4771525,2 12,2 C17.5228475,2 22,6.4771525 22,12 C22,17.5228475 17.5228475,22 12,22 Z M12,20 C16.418278,20 20,16.418278 20,12 C20,7.581722 16.418278,4 12,4 C7.581722,4 4,7.581722 4,12 C4,16.418278 7.581722,20 12,20 Z"/>
</svg>
