<svg width="24" height="24" xmlns="http://www.w3.org/2000/svg"><path d="M4 5c-1.1 0-2 .893-2 1.984v10.318c0 1.09.9 1.984 2 1.984h16c1.1 0 2-.893 2-1.984V6.984C22 5.893 21.1 5 20 5H4zm.391 1.24H19.61c.634 0 1.141.49 1.141 1.105v9.571c0 .614-.507 1.105-1.141 1.105H4.39c-.634 0-1.141-.49-1.141-1.105V7.345c0-.615.507-1.105 1.141-1.105zm6.084 4.675c-.733 0-1.325.575-1.325 1.29 0 .722.577 1.277 1.313 1.277.207 0 .392-.034.612-.136v-.57c-.194.192-.369.272-.587.272-.488 0-.838-.346-.838-.843 0-.471.36-.843.813-.843.23 0 .41.077.612.272v-.558a1.278 1.278 0 0 0-.6-.16zm-2.287.013c-.44 0-.776.303-.776.706 0 .338.161.514.613.682.262.098.475.148.475.385 0 .2-.16.347-.375.347a.563.563 0 0 1-.525-.322l-.313.297c.224.324.496.472.863.472.502 0 .85-.33.85-.807 0-.39-.162-.568-.713-.768-.29-.107-.375-.177-.375-.31 0-.155.155-.273.363-.273.145 0 .26.059.387.198l.25-.335a1.084 1.084 0 0 0-.725-.272zm4.324 0c-.714 0-1.3.568-1.3 1.277a1.3 1.3 0 0 0 1.3 1.29 1.29 1.29 0 0 0 1.288-1.29c0-.709-.573-1.277-1.288-1.277zm-8.15.05v2.455h.713c1.078 0 1.325-.845 1.325-1.228 0-.726-.54-1.228-1.325-1.228h-.713zm2.263 0v2.455h.487v-2.456h-.487zm7.088 0l1.05 2.517h.262l1.075-2.518h-.525l-.675 1.65-.662-1.65h-.525zm2.6 0v2.455h1.375v-.422H16.8v-.657h.85v-.422h-.85v-.546h.887v-.409h-1.375zm1.687 0v2.455h.488v-.993h.062l.662.993h.6l-.774-1.03c.364-.074.562-.33.562-.707 0-.46-.317-.719-.875-.719H18zm.488.384h.15c.301 0 .462.12.462.36 0 .246-.167.384-.475.384h-.137v-.744zm-13.638.024h.163c.657 0 .887.433.887.819 0 .184-.055.806-.925.806H4.85v-1.625z" fill="#777" fill-rule="nonzero"/></svg>