<svg width="24" height="24" xmlns="http://www.w3.org/2000/svg"><g fill="#777" fill-rule="nonzero"><path d="M10.731 15.81l-.006.018-.167-.084a1.002 1.002 0 0 1-.085-.043l-1.175-.594a1 1 0 0 0-.772-.054L4 16.585v3.282h3.675a3 3 0 0 1 .95.154l3.703 1.235a3 3 0 0 0 2.749-.446l5.192-3.894a.227.227 0 0 0 .024-.342 1.145 1.145 0 0 0-1.235-.253l-2.01.804a5 5 0 0 1-.805.246 2.5 2.5 0 0 1-3.355 2.416l-3.29-1.197a1 1 0 1 1 .685-1.88l3.289 1.198a.5.5 0 1 0 .342-.94L10.73 15.81zm.642-1.895l3.225 1.174c.26.095.495.228.701.392a2.999 2.999 0 0 0 1.006-.213l2.01-.804a3.145 3.145 0 0 1 3.392.696 2.227 2.227 0 0 1-.238 3.356l-5.192 3.894a5 5 0 0 1-4.581.743L7.992 21.92a1 1 0 0 0-.317-.052H3.5a1.5 1.5 0 0 1-1.5-1.5v-4.141a1.5 1.5 0 0 1 1.02-1.42l4.865-1.648a3 3 0 0 1 2.314.164l1.174.593zM15.5 14a6.5 6.5 0 1 1 0-13 6.5 6.5 0 0 1 0 13zm0-2a4.5 4.5 0 1 0 0-9 4.5 4.5 0 0 0 0 9z"/><path d="M16 5h1a.5.5 0 1 1 0 1h-2.5v1H17a.5.5 0 0 1 .5.5v2a.5.5 0 0 1-.5.5h-1v.5a.5.5 0 1 1-1 0V10h-1a.5.5 0 1 1 0-1h2.5V8H14a.5.5 0 0 1-.5-.5v-2A.5.5 0 0 1 14 5h1v-.5a.5.5 0 1 1 1 0V5z"/></g></svg>