<svg width="24" height="24" xmlns="http://www.w3.org/2000/svg"><path d="M4 5c-1.1 0-2 .893-2 1.984v10.318c0 1.09.9 1.984 2 1.984h16c1.1 0 2-.893 2-1.984V6.984C22 5.893 21.1 5 20 5H4zm.391 1.24H19.61c.634 0 1.141.49 1.141 1.105v9.571c0 .614-.507 1.105-1.141 1.105H4.39c-.634 0-1.141-.49-1.141-1.105V7.345c0-.615.507-1.105 1.141-1.105zm1.034 3.882l-1.487 3.373h.887l.325-.757h1.675l.325.757h1.688V10.99l1.125 2.505h.762l1.138-2.468v2.468h.837v-3.373h-1.337l-1.025 2.269-1.025-2.27H8v3.25l-1.463-3.25H5.425zm8.375 0v3.385H17l1-1.129.988 1.129h1.062l-1.5-1.736 1.5-1.65h-1.063l-.962 1.055-.925-1.054h-3.3zm-7.838.706l.526 1.19H5.462l.5-1.19zm8.663.013l2.038.012.812.918-.913 1.017h-1.937v-.67h1.85v-.645h-1.85v-.632z" fill="#777" fill-rule="nonzero"/></svg>