<svg width="24" height="24" viewBox="0 0 24 24" fill="none" xmlns="http://www.w3.org/2000/svg">
<path d="M19 18C19.5523 18 20 18.4477 20 19C20 19.5523 19.5523 20 19 20H5C4.44772 20 4 19.5523 4 19C4 18.4477 4.44772 18 5 18H19ZM6.5 12C6.77614 12 7 12.2239 7 12.5V16.5C7 16.7762 6.77614 17 6.5 17H5.5C5.22386 17 5 16.7762 5 16.5V12.5C5 12.2239 5.22386 12 5.5 12H6.5ZM9.5 12C9.77614 12 10 12.2239 10 12.5V16.5C10 16.7762 9.77614 17 9.5 17H8.5C8.22386 17 8 16.7762 8 16.5V12.5C8 12.2239 8.22386 12 8.5 12H9.5ZM12.5 12C12.7761 12 13 12.2239 13 12.5V16.5C13 16.7762 12.7761 17 12.5 17H11.5C11.2239 17 11 16.7762 11 16.5V12.5C11 12.2239 11.2239 12 11.5 12H12.5ZM15.5 12C15.7761 12 16 12.2239 16 12.5V16.5C16 16.7762 15.7761 17 15.5 17H14.5C14.2239 17 14 16.7762 14 16.5V12.5C14 12.2239 14.2239 12 14.5 12H15.5ZM18.5 12C18.7761 12 19 12.2239 19 12.5V16.5C19 16.7762 18.7761 17 18.5 17H17.5C17.2239 17 17 16.7762 17 16.5V12.5C17 12.2239 17.2239 12 17.5 12H18.5ZM19 9.00002C19.5523 9.00002 20 9.44773 20 10C20 10.5523 19.5523 11 19 11H5C4.44772 11 4 10.5523 4 10C4 9.44773 4.44772 9.00002 5 9.00002H19ZM12.8063 3.35521L19.4374 6.2764C19.8923 6.47678 20.0986 7.00797 19.8982 7.46285C19.7544 7.78931 19.4313 8.00002 19.0745 8.00002H4.92545C4.4284 8.00002 4.02545 7.59708 4.02545 7.10002C4.02545 6.74328 4.23616 6.42021 4.56262 6.2764L11.1937 3.35521C11.7074 3.12891 12.2926 3.12891 12.8063 3.35521Z" fill="#52555A"/>
</svg>
