<svg width="24" height="24" xmlns="http://www.w3.org/2000/svg"><path d="M4 5c-1.1 0-2 .87-2 1.932v10.049c0 1.062.9 1.932 2 1.932h16c1.1 0 2-.87 2-1.932V6.932C22 5.87 21.1 5 20 5H4zm.391 1.208H19.61c.634 0 1.141.477 1.141 1.075v9.323c0 .598-.507 1.075-1.141 1.075H4.39c-.634 0-1.141-.477-1.141-1.075V7.283c0-.598.507-1.075 1.141-1.075zm9.484 3.587c-1.24 0-1.875.59-1.875 1.34 0 1.357 1.625 1.175 1.625 1.872 0 .118-.094.399-.775.399-.683 0-1.125-.254-1.125-.254l-.213.918s.443.242 1.288.242 2.012-.625 2.012-1.534c0-1.093-1.624-1.18-1.624-1.667 0-.249.2-.435.787-.435.381 0 .813.278.813.278l.2-.942s-.568-.217-1.113-.217zm-5.287.084l-1.075 3.068s-.074-.261-.1-.423C6.797 11.193 5.8 10.7 5.8 10.7l.95 3.479h1.3l1.8-4.3H8.588zm1.725 0l-.7 4.3H10.8l.712-4.3h-1.2zm6.412 0l-1.938 4.3h1.175l.238-.616h1.475l.125.616h1.075l-.913-4.3h-1.237zM4.5 9.891s2.322.695 2.862 2.38l-.4-1.957s-.171-.423-.637-.423H4.5zm12.675 1.232l.325 1.619h-.975l.65-1.619z" fill="#777" fill-rule="nonzero"/></svg>