<svg width="24" height="24" xmlns="http://www.w3.org/2000/svg"><g fill="none" fill-rule="evenodd"><g transform="translate(5 8.882)" stroke="#777"><rect y="3.235" width="7" height="1" rx=".5"/><rect width="3.941" height="1" rx=".5"/><rect y="6.118" width="7" height="1" rx=".5"/></g><path d="M17.647 9.353h1.059c.195 0 .353.158.353.353v.706a.353.353 0 0 1-.353.353h-2.47v.706h2.117c.39 0 .706.316.706.705v2.118c0 .39-.316.706-.706.706h-.706v.353a.353.353 0 0 1-.353.353h-.706a.353.353 0 0 1-.353-.353V15h-1.059a.353.353 0 0 1-.352-.353v-.706c0-.195.158-.353.352-.353h2.471v-.706H15.53a.706.706 0 0 1-.705-.706V10.06c0-.39.316-.706.705-.706h.706V9c0-.195.158-.353.353-.353h.706c.195 0 .353.158.353.353v.353z" fill="#777" fill-rule="nonzero"/><path d="M4 5c-1.1 0-2 .893-2 1.985v10.32c0 1.092.9 1.985 2 1.985h16c1.1 0 2-.893 2-1.985V6.985C22 5.893 21.1 5 20 5H4zm.391 1.25H19.61c.634 0 1.141.49 1.141 1.104v9.572c0 .614-.507 1.104-1.141 1.104H4.39c-.634 0-1.141-.49-1.141-1.104V7.354c0-.614.507-1.104 1.141-1.104z" fill="#777" fill-rule="nonzero"/></g></svg>