<svg xmlns="http://www.w3.org/2000/svg" width="24" height="24" viewBox="0 0 24 24">
  <path fill="#777" fill-rule="evenodd" d="M13,8 L14.5,8 C14.7761424,8 15,8.22385763 15,8.5 L15,9.5 C15,9.77614237 14.7761424,10 14.5,10 L11,10 L11,11 L14,11 C14.5522847,11 15,11.4477153 15,12 L15,15 C15,15.5522847 14.5522847,16 14,16 L13,16 L13,16.5 C13,16.7761424 12.7761424,17 12.5,17 L11.5,17 C11.2238576,17 11,16.7761424 11,16.5 L11,16 L9.5,16 C9.22385763,16 9,15.7761424 9,15.5 L9,14.5 C9,14.2238576 9.22385763,14 9.5,14 L13,14 L13,13 L10,13 C9.44771525,13 9,12.5522847 9,12 L9,9 C9,8.44771525 9.44771525,8 10,8 L11,8 L11,7.5 C11,7.22385763 11.2238576,7 11.5,7 L12.5,7 C12.7761424,7 13,7.22385763 13,7.5 L13,8 Z M6,3 L18,3 C19.6568542,3 21,4.34314575 21,6 L21,18 C21,19.6568542 19.6568542,21 18,21 L6,21 C4.34314575,21 3,19.6568542 3,18 L3,6 C3,4.34314575 4.34314575,3 6,3 Z M6,5 C5.44771525,5 5,5.44771525 5,6 L5,18 C5,18.5522847 5.44771525,19 6,19 L18,19 C18.5522847,19 19,18.5522847 19,18 L19,6 C19,5.44771525 18.5522847,5 18,5 L6,5 Z"/>
</svg>
