<svg xmlns="http://www.w3.org/2000/svg" width="24" height="24" viewBox="0 0 24 24">
  <path fill="#777" fill-rule="evenodd" d="M19,14 L20.5,14 C20.7761424,14 21,14.2238576 21,14.5 L21,15.5 C21,15.7761424 20.7761424,16 20.5,16 L17,16 L17,17 L20,17 C20.5522847,17 21,17.4477153 21,18 L21,21 C21,21.5522847 20.5522847,22 20,22 L19,22 L19,22.5 C19,22.7761424 18.7761424,23 18.5,23 L17.5,23 C17.2238576,23 17,22.7761424 17,22.5 L17,22 L15.5,22 C15.2238576,22 15,21.7761424 15,21.5 L15,20.5 C15,20.2238576 15.2238576,20 15.5,20 L19,20 L19,19 L16,19 C15.4477153,19 15,18.5522847 15,18 L15,15 C15,14.4477153 15.4477153,14 16,14 L17,14 L17,13.5 C17,13.2238576 17.2238576,13 17.5,13 L18.5,13 C18.7761424,13 19,13.2238576 19,13.5 L19,14 Z M18,12 L18,5 C18,4.44771525 17.5522847,4 17,4 L11,4 L11,7 C11,8.1045695 10.1045695,9 9,9 L6,9 L6,19 C6,19.5522847 6.44771525,20 7,20 L14,20 L14,22 L7,22 C5.34314575,22 4,20.6568542 4,19 L4,7.01135254 C4,6.74770342 4.10411866,6.49472165 4.2897014,6.30745205 L8.26492113,2.29609951 C8.45271091,2.10660281 8.70843516,2 8.97521973,2 L17,2 C18.6568542,2 20,3.34314575 20,5 L20,12 L18,12 Z M6.41910889,7 L9,7 L9,4.39564984 L6.41910889,7 Z M12,10 C12.5522847,10 13,10.4477153 13,11 C13,11.5522847 12.5522847,12 12,12 L9,12 C8.44771525,12 8,11.5522847 8,11 C8,10.4477153 8.44771525,10 9,10 L12,10 Z M15,12 C14.4477153,12 14,11.5522847 14,11 C14,10.4477153 14.4477153,10 15,10 C15.5522847,10 16,10.4477153 16,11 C16,11.5522847 15.5522847,12 15,12 Z M12,13 C12.5522847,13 13,13.4477153 13,14 C13,14.5522847 12.5522847,15 12,15 L9,15 C8.44771525,15 8,14.5522847 8,14 C8,13.4477153 8.44771525,13 9,13 L12,13 Z M12,16 C12.5522847,16 13,16.4477153 13,17 C13,17.5522847 12.5522847,18 12,18 L9,18 C8.44771525,18 8,17.5522847 8,17 C8,16.4477153 8.44771525,16 9,16 L12,16 Z"/>
</svg>
