<svg xmlns="http://www.w3.org/2000/svg" width="24" height="24" viewBox="0 0 24 24">
  <path fill="#777" fill-rule="evenodd" d="M10.731317,14.8098008 L10.7246369,14.8281542 L10.5582114,14.744094 C10.5287341,14.7309336 10.5001741,14.7164848 10.4725743,14.7008393 L9.29766247,14.1074002 C9.05825569,13.9864777 8.78030818,13.9667959 8.5262504,14.0527756 L4,15.5845753 L4,18.8672871 L7.67544468,18.8672871 C7.99789097,18.8672871 8.31822857,18.9192707 8.62412798,19.0212372 L12.3279661,20.2558499 C13.261883,20.5671555 14.2891016,20.4004609 15.0766494,19.8098 L20.2686292,15.9158152 C20.2772049,15.9093834 20.2853133,15.9023511 20.2928932,15.8947711 C20.381363,15.8063014 20.381363,15.6628636 20.2928932,15.5743939 C19.9690976,15.2505982 19.4834909,15.1509237 19.0583263,15.3209895 L17.0482606,16.1250158 C16.7851234,16.2302707 16.5155602,16.3121948 16.2425053,16.370916 C16.2507822,16.6763567 16.2028132,16.9884604 16.0919673,17.2930069 C15.619736,18.5904516 14.1851302,19.2594193 12.8876854,18.787188 L9.59876122,17.5901175 C9.07978332,17.401225 8.81219624,16.8273827 9.00108875,16.3084048 C9.18998125,15.7894269 9.76382361,15.5218398 10.2828015,15.7107323 L13.5717257,16.9078028 C13.8312146,17.0022491 14.1181358,16.8684555 14.2125821,16.6089666 C14.3070283,16.3494776 14.1732348,16.0625564 13.9137458,15.9681102 L10.731317,14.8098008 Z M11.3730182,12.9150054 L14.5977861,14.0887249 C14.8583084,14.1835473 15.0934909,14.3171718 15.2991828,14.4806967 C15.6407106,14.46842 15.9812262,14.3977637 16.3054793,14.2680624 L18.315545,13.4640361 C19.4835431,12.9968369 20.817586,13.2706595 21.7071068,14.1601803 C22.5766251,15.0296986 22.5766251,16.4394664 21.7071068,17.3089847 C21.6326079,17.3834836 21.5529151,17.4526008 21.4686292,17.5158152 L16.2766494,21.4098 C14.9640697,22.3942348 13.2520386,22.6720592 11.6955106,22.1532165 L7.99167245,20.9186038 C7.88970598,20.884615 7.78292678,20.8672871 7.67544468,20.8672871 L3.5,20.8672871 C2.67157288,20.8672871 2,20.1957142 2,19.3672871 L2,15.2259312 C2,14.5828112 2.40997119,14.0112541 3.01915135,13.8050918 L7.88511887,12.1583231 C8.64729222,11.900384 9.48113475,11.9594294 10.1993551,12.3221971 L11.3730182,12.9150054 Z M12.9331416,3.28029013 C13.4210757,3.09904007 13.9489718,3 14.5,3 C16.9852814,3 19,5.01471863 19,7.5 C19,9.98528137 16.9852814,12 14.5,12 C12.9124137,12 11.5168451,11.1778748 10.7158039,9.93613433 C10.4835574,9.97809241 10.2443371,10 10,10 C7.790861,10 6,8.209139 6,6 C6,3.790861 7.790861,2 10,2 C11.1588608,2 12.20262,2.4928087 12.9331416,3.28029013 Z M11.2222137,4.41678178 C10.884227,4.15547916 10.4602706,4 10,4 C8.8954305,4 8,4.8954305 8,6 C8,7.1045695 8.8954305,8 10,8 C10.0091625,8 10.0183107,7.99993839 10.027444,7.99981555 C10.0093097,7.83570812 10,7.66894125 10,7.5 C10,6.306849 10.4643592,5.22215492 11.2222137,4.41678178 Z M14.5,10 C15.8807119,10 17,8.88071187 17,7.5 C17,6.11928813 15.8807119,5 14.5,5 C13.1192881,5 12,6.11928813 12,7.5 C12,8.88071187 13.1192881,10 14.5,10 Z"/>
</svg>
