<svg width="24" height="24" xmlns="http://www.w3.org/2000/svg"><path d="M4 5c-1.1 0-2 .893-2 1.984v10.318c0 1.09.9 1.984 2 1.984h16c1.1 0 2-.893 2-1.984V6.984C22 5.893 21.1 5 20 5H4zm.391 1.24H19.61c.634 0 1.141.49 1.141 1.105v9.571c0 .614-.507 1.105-1.141 1.105H4.39c-.634 0-1.141-.49-1.141-1.105V7.345c0-.615.507-1.105 1.141-1.105zM8.8 7.381c-2.647 0-4.8 2.136-4.8 4.762 0 2.626 2.153 4.762 4.8 4.762 1.231 0 2.35-.47 3.2-1.228a4.798 4.798 0 0 0 3.2 1.228c2.647 0 4.8-2.136 4.8-4.762 0-2.626-2.153-4.762-4.8-4.762-1.23 0-2.35.47-3.2 1.228A4.795 4.795 0 0 0 8.8 7.38zm6.4.794c2.214 0 4 1.771 4 3.968 0 2.196-1.786 3.968-4 3.968-1.02 0-1.956-.37-2.662-.992a4.716 4.716 0 0 0 1.062-2.976c0-1.127-.402-2.16-1.063-2.976a4.016 4.016 0 0 1 2.663-.992z" fill="#777" fill-rule="nonzero"/></svg>