<svg xmlns="http://www.w3.org/2000/svg" width="24" height="24" viewBox="0 0 24 24">
  <path fill="#777" fill-rule="evenodd" d="M15.0017832,11 L15.0000001,9.25554747 C14.9999308,9.18774981 15.02553,9.12270803 15.0711513,9.07476781 C15.1660198,8.9750774 15.3198319,8.9750774 15.4147004,9.07476781 L17.8576973,11.6419372 C18.0474342,11.841318 18.0474342,12.1645782 17.8576973,12.3639591 L15.4203115,14.9252322 C15.374818,14.973038 15.3131354,14.9999272 15.2487979,14.9999998 C15.1146337,15.0001513 15.0057553,14.8859844 15.0056112,14.7450009 L15.0038276,13 L8.99617243,13 L8.99438876,14.7450009 C8.99424465,14.8859844 8.88536628,15.0001513 8.75120211,14.9999998 C8.68686462,14.9999272 8.62518202,14.973038 8.57968852,14.9252322 L6.14230268,12.3639591 C5.95256577,12.1645782 5.95256577,11.841318 6.14230268,11.6419372 L8.58529961,9.07476781 C8.68016806,8.9750774 8.83398021,8.9750774 8.92884866,9.07476781 C8.97447004,9.12270803 9.00006916,9.18774981 8.99999986,9.25554747 L8.99821675,11 L15.0017832,11 Z M5,3 L19,3 C20.1045695,3 21,3.8954305 21,5 L21,19 C21,20.1045695 20.1045695,21 19,21 L5,21 C3.8954305,21 3,20.1045695 3,19 L3,5 C3,3.8954305 3.8954305,3 5,3 Z M5,5 L5,19 L19,19 L19,5 L5,5 Z"/>
</svg>
