<svg xmlns="http://www.w3.org/2000/svg" width="24" height="24" viewBox="0 0 24 24">
  <path fill="#777" fill-rule="evenodd" d="M5,3 L19,3 C20.1045695,3 21,3.8954305 21,5 L21,19 C21,20.1045695 20.1045695,21 19,21 L5,21 C3.8954305,21 3,20.1045695 3,19 L3,5 C3,3.8954305 3.8954305,3 5,3 Z M5,5 L5,19 L19,19 L19,5 L5,5 Z M8.425,9.528 C8.537,9.528 8.712,9.612 8.712,9.696 L8.712,13.637 L9.461,13.637 C9.608,13.637 9.671,13.742 9.671,13.987 L9.671,14.106 C9.671,14.351 9.608,14.456 9.461,14.456 L6.745,14.456 C6.598,14.456 6.535,14.351 6.535,14.106 L6.535,13.987 C6.535,13.742 6.598,13.637 6.745,13.637 L7.676,13.637 L7.676,10.494 L6.724,10.634 C6.542,10.634 6.5,10.242 6.5,10.046 C6.5,9.941 6.563,9.871 6.682,9.85 L8.425,9.528 Z M10.196,12.006 C10.196,10.431 10.819,9.5 11.855,9.5 C12.891,9.5 13.514,10.431 13.514,12.006 C13.514,13.581 12.891,14.512 11.855,14.512 C10.819,14.512 10.196,13.581 10.196,12.006 Z M11.855,10.319 C11.463,10.319 11.246,10.893 11.246,12.006 C11.246,13.119 11.463,13.693 11.855,13.693 C12.247,13.693 12.464,13.119 12.464,12.006 C12.464,10.893 12.247,10.319 11.855,10.319 Z M15.6,9.5 C16.636,9.5 17.259,10.431 17.259,12.006 C17.259,13.581 16.636,14.512 15.6,14.512 C14.564,14.512 13.941,13.581 13.941,12.006 C13.941,10.431 14.564,9.5 15.6,9.5 Z M15.6,10.319 C15.208,10.319 14.991,10.893 14.991,12.006 C14.991,13.119 15.208,13.693 15.6,13.693 C15.992,13.693 16.209,13.119 16.209,12.006 C16.209,10.893 15.992,10.319 15.6,10.319 Z"/>
</svg>
