<svg xmlns="http://www.w3.org/2000/svg" width="24" height="24" viewBox="0 0 24 24">
  <path fill="#777" fill-rule="evenodd" d="M12.8381205,15.8061472 L14.5295173,15.8079639 C14.6675884,15.8081122 14.7793969,15.9201612 14.7792486,16.0582323 C14.7791775,16.1244433 14.7528438,16.1879222 14.7060255,16.2347405 L12.1976616,18.7431044 C12.0023994,18.9383665 11.685817,18.9383665 11.4905548,18.7431044 L8.97641642,16.228966 C8.87878535,16.1313349 8.87878535,15.9730437 8.97641642,15.8754126 C9.02336631,15.8284627 9.0870645,15.8021181 9.15346164,15.8021894 L10.8381205,15.8039989 L10.8381205,13.0098503 L8.06351754,13.0098503 L8.06168416,14.7167235 C8.06153586,14.8547946 7.94948689,14.9666031 7.81141578,14.9664548 C7.74520474,14.9663837 7.68172591,14.94005 7.63490761,14.8932317 L5.12654372,12.3848678 C4.93128157,12.1896056 4.93128157,11.8730231 5.12654372,11.677761 L7.64068211,9.16362259 C7.73831318,9.06599152 7.89660442,9.06599152 7.9942355,9.16362259 C8.04118539,9.21057249 8.06752998,9.27427068 8.06745866,9.34066782 L8.06566577,11.0098503 L10.8381205,11.0098503 L10.8381205,8.25070043 L9.15292459,8.24889034 C9.01485348,8.24874203 8.90304496,8.13669306 8.90319326,7.99862195 C8.90326438,7.93241091 8.92959812,7.86893209 8.97641642,7.82211379 L11.4847803,5.31374989 C11.6800425,5.11848775 11.9966249,5.11848775 12.1918871,5.31374989 L14.7060255,7.82788828 C14.8036566,7.92551935 14.8036566,8.0838106 14.7060255,8.18144167 C14.6590756,8.22839157 14.5953774,8.25473615 14.5289803,8.25466483 L12.8381205,8.25284866 L12.8381205,11.0098503 L15.6189643,11.0098503 L15.6207577,9.34013076 C15.620906,9.20205965 15.732955,9.09025113 15.8710261,9.09039944 C15.9372372,9.09047055 16.000716,9.11680429 16.0475343,9.1636226 L18.5558982,11.6719865 C18.7511603,11.8672486 18.7511603,12.1838311 18.5558982,12.3790933 L16.0417598,14.8932317 C15.9441287,14.9908627 15.7858375,14.9908627 15.6882064,14.8932317 C15.6412565,14.8462818 15.6149119,14.7825836 15.6149832,14.7161864 L15.616816,13.0098503 L12.8381205,13.0098503 L12.8381205,15.8061472 Z M13.2426407,0.714718626 L23.1421356,10.6142136 C23.9231842,11.3952621 23.9231842,12.6615921 23.1421356,13.4426407 L13.2426407,23.3421356 C12.4615921,24.1231842 11.1952621,24.1231842 10.4142136,23.3421356 L0.514718626,13.4426407 C-0.266329958,12.6615921 -0.266329958,11.3952621 0.514718626,10.6142136 L10.4142136,0.714718626 C11.1952621,-0.0663299577 12.4615921,-0.0663299577 13.2426407,0.714718626 Z M11.8284271,2.12893219 L1.92893219,12.0284271 L11.8284271,21.9279221 L21.7279221,12.0284271 L11.8284271,2.12893219 Z" transform="rotate(45 11.828 12.028)"/>
</svg>
