<?xml version="1.0" encoding="UTF-8"?><svg id="Layer_1" xmlns="http://www.w3.org/2000/svg" viewBox="0 0 257.86 257.86"><defs><style>.cls-1,.cls-2{fill:#fff;}.cls-1,.cls-3,.cls-4{stroke:#000;}.cls-1,.cls-4{stroke-miterlimit:10;}.cls-5{stroke:#2b4bff;}.cls-5,.cls-3{stroke-linecap:round;stroke-linejoin:round;}.cls-5,.cls-3,.cls-4{fill:none;}.cls-3{stroke-width:1.25px;}.cls-6{fill:#2c4bff;}</style></defs><path d="M210.7,155.02c0,10.31-8.34,18.66-18.63,18.66s-18.64-8.36-18.64-18.66,8.35-18.67,18.64-18.67,18.63,8.36,18.63,18.67Z"/><path d="M192.84,159.01v-.23h.53v-68.19c0-2.13-.66-3.98-1.89-5.3-1.23-1.32-3.03-2.08-5.18-2.08h-116.96c-2.14,0-4.01.75-5.34,2.06-1.32,1.31-2.09,3.17-2.09,5.32v68.19h.53v.23h-12.65v9.46h152.67v-9.46h-9.62Z"/><path class="cls-2" d="M47.16,159.54v8.41h151.62v-8.41h-9.62v-1.28h.53v-67.67c0-2.01-.6-3.72-1.75-4.95-1.17-1.25-2.82-1.91-4.78-1.91h-116.98c-1.96,0-3.72.68-4.96,1.91-1.25,1.24-1.93,2.99-1.93,4.95v67.67h.53v1.28h-12.65Z"/><line class="cls-4" x1="161.65" y1="131.58" x2="206.01" y2="103.25"/><polyline class="cls-4" points="198.52 101.35 206.34 103.16 204.53 110.98"/><path class="cls-4" d="M59.29,158.79v-68.2c0-4.05,2.84-6.86,6.89-6.86h116.97c4.05,0,6.54,2.81,6.54,6.86v68.2M66.18,164.14,183.15,164.14,182.8,158.79v-65.86c0-1.35-.64-2.31-1.99-2.31h-112.29c-1.35,0-2.34.96-2.34,2.31v65.86"/><rect class="cls-4" x="47.16" y="159.54" width="151.63" height="8.4"/><line class="cls-4" x1="111.6" y1="163.75" x2="137.38" y2="163.75"/><circle class="cls-6" cx="84.7" cy="142.68" r="6.87"/><line class="cls-4" x1="89.42" y1="137.69" x2="124.49" y2="110.02"/><line class="cls-4" x1="124.49" y1="110.02" x2="161.65" y2="131.58"/><circle class="cls-6" cx="124.49" cy="110.02" r="6.87"/><circle class="cls-6" cx="161.65" cy="131.58" r="6.87"/><path class="cls-1" d="M207.14,155.99c0,10.31-8.34,18.66-18.63,18.66s-18.64-8.36-18.64-18.66,8.35-18.67,18.64-18.67,18.63,8.36,18.63,18.67Z"/><path class="cls-5" d="M194.97,162.06l.83,1.5,1.5.82-1.5.83-.83,1.5-.82-1.5-1.5-.83,1.5-.82.82-1.5Z"/><path class="cls-5" d="M177.99,151.11l.52.96.96.53-.96.54-.52.96-.53-.96-.96-.54.96-.53.53-.96Z"/><path class="cls-5" d="M186.3,145.26l.37.69.7.38-.7.38-.37.69-.38-.69-.69-.38.69-.38.38-.69Z"/><path class="cls-3" d="M180.82,160.19l-.95,4.46,4.14-.99,13.14-13.3-3.2-3.05-13.13,12.88Z"/><path class="cls-3" d="M191.09,150.11l3.22,3.11"/></svg>