<?xml version="1.0" encoding="UTF-8"?><svg id="Layer_1" xmlns="http://www.w3.org/2000/svg" xmlns:xlink="http://www.w3.org/1999/xlink" viewBox="0 0 257.86 257.86"><defs><style>.cls-1,.cls-2,.cls-3{fill:none;}.cls-4{fill:#fff;stroke-miterlimit:10;}.cls-4,.cls-3{stroke:#000;}.cls-2{stroke:#2b4bff;}.cls-2,.cls-3{stroke-linecap:round;stroke-linejoin:round;}.cls-3{stroke-width:1.25px;}.cls-5{fill:#0ae6c7;}.cls-6{clip-path:url(#clippath);}</style><clipPath id="clippath"><rect class="cls-1" x="76.37" y="79.52" width="105.12" height="98.82"/></clipPath></defs><g class="cls-6"><path d="M181.49,150.8c0,10.31-8.34,18.66-18.63,18.66s-18.64-8.36-18.64-18.66,8.35-18.67,18.64-18.67,18.63,8.36,18.63,18.67Z"/><path d="M128.68,174.32c26.14,0,47.33-21.22,47.33-47.4s-21.19-47.4-47.33-47.4-47.33,21.22-47.33,47.4,21.19,47.4,47.33,47.4Z"/><path class="cls-4" d="M124.18,177.85c26.14,0,47.33-21.22,47.33-47.4s-21.19-47.4-47.33-47.4-47.33,21.22-47.33,47.4,21.19,47.4,47.33,47.4Z"/><path class="cls-5" d="M124.12,109c-8.49,0-15.37,6.9-15.37,15.4s6.88,15.4,15.37,15.4,15.36-6.9,15.36-15.4-6.88-15.4-15.36-15.4Z"/><path class="cls-5" d="M124.11,145.53c-13.95,0-25.81,8.89-30.29,21.32,8.27,6.77,18.84,10.84,30.36,10.84s22.01-4.04,30.26-10.77c-4.46-12.47-16.34-21.4-30.33-21.4h0Z"/><path class="cls-4" d="M177.93,151.77c0,10.31-8.34,18.66-18.63,18.66s-18.64-8.36-18.64-18.66,8.35-18.67,18.64-18.67,18.63,8.36,18.63,18.67Z"/><path class="cls-2" d="M165.76,157.85l.83,1.5,1.5.82-1.5.83-.83,1.5-.82-1.5-1.5-.83,1.5-.82.82-1.5Z"/><path class="cls-2" d="M148.78,146.89l.52.96.96.53-.96.54-.52.96-.53-.96-.96-.54.96-.53.53-.96Z"/><path class="cls-2" d="M157.09,141.04l.37.69.7.38-.7.38-.37.69-.38-.69-.69-.38.69-.38.38-.69Z"/><path class="cls-3" d="M151.61,155.98l-.95,4.46,4.14-.99,13.14-13.3-3.2-3.05-13.13,12.88Z"/><path class="cls-3" d="M161.88,145.9l3.22,3.11"/></g></svg>