<?xml version="1.0" encoding="UTF-8"?><svg id="Layer_1" xmlns="http://www.w3.org/2000/svg" viewBox="0 0 257.86 257.86"><defs><style>.cls-1,.cls-2{stroke:#000;stroke-miterlimit:10;}.cls-2,.cls-3{fill:#fff;}.cls-4{fill:#0ae6c7;}.cls-4,.cls-3{stroke-width:0px;}</style></defs><polygon class="cls-1" points="80.54 119.81 132.82 72.72 183.79 119.81 160.67 119.81 160.67 185.14 103.67 185.14 103.67 119.81 80.54 119.81"/><polygon class="cls-2" points="74.07 119.81 126.34 72.72 177.32 119.81 154.19 119.81 154.19 185.14 97.2 185.14 97.2 119.81 74.07 119.81"/><path class="cls-4" d="m144.88,138.94c0,10.59-8.58,19.18-19.18,19.18s-19.19-8.59-19.19-19.18,8.59-19.19,19.19-19.19,19.18,8.59,19.18,19.19Z"/><path class="cls-3" d="m125.99,149.74c-1.47,0-2.77-.2-3.89-.61-1.13-.4-2.1-.95-2.91-1.63-.81-.68-1.47-1.45-1.98-2.3l2.17-1.76c.4.77.92,1.45,1.53,2.04.62.6,1.36,1.06,2.23,1.4.87.34,1.87.51,3,.51,1.57,0,2.83-.29,3.75-.86s1.39-1.42,1.39-2.52c0-.66-.22-1.25-.65-1.77-.44-.52-1.25-.92-2.44-1.2l-4.79-1.09c-1.28-.3-2.3-.7-3.06-1.2-.77-.5-1.32-1.1-1.66-1.79s-.51-1.44-.51-2.25c0-1.11.3-2.12.91-3.03.61-.91,1.48-1.65,2.62-2.2,1.14-.55,2.51-.83,4.1-.83,1.79,0,3.34.36,4.64,1.08,1.31.72,2.39,1.81,3.24,3.26l-2.07,1.6c-.75-1.32-1.6-2.26-2.57-2.81-.97-.55-2.13-.83-3.5-.83-1.11,0-2.01.15-2.71.46-.7.31-1.22.72-1.56,1.23-.34.51-.51,1.09-.51,1.72,0,.49.1.94.29,1.34.19.4.54.76,1.04,1.07.5.31,1.2.57,2.09.78l4.44.99c1.96.43,3.32,1.08,4.1,1.96.78.88,1.17,1.97,1.17,3.27,0,1.17-.32,2.2-.97,3.1-.65.89-1.56,1.59-2.75,2.09-1.18.5-2.57.75-4.17.75Zm-1.21,3.22v-27.45h2.2v27.45h-2.2Z"/></svg>