<?xml version="1.0" encoding="UTF-8"?><svg xmlns="http://www.w3.org/2000/svg" viewBox="0 0 257.86 257.86"><defs><style>.cls-1{mix-blend-mode:multiply;}.cls-2{fill:#fff;}.cls-2,.cls-3{stroke:#000;stroke-miterlimit:10;}.cls-3{fill:none;}.cls-4,.cls-5,.cls-6{stroke-width:0px;}.cls-7{isolation:isolate;}.cls-5{fill:#2c4bff;}.cls-6{fill:#0ae6c7;}</style></defs><g class="cls-7"><g id="Layer_1"><rect class="cls-4" x="91.25" y="79.66" width="71.09" height="94.69"/><rect class="cls-2" x="87.18" y="83.51" width="71.09" height="94.69"/><rect class="cls-2" x="96.8" y="95.78" width="51.84" height="21.69"/><g class="cls-1"><rect class="cls-6" x="97.74" y="128.08" width="7.72" height="8.01"/><rect class="cls-6" x="125.91" y="128.08" width="7.72" height="8.01"/><rect class="cls-6" x="140" y="128.08" width="7.72" height="8.01"/><rect class="cls-6" x="111.82" y="128.08" width="7.72" height="8.01"/><rect class="cls-6" x="97.74" y="144.12" width="7.72" height="8.01"/><rect class="cls-6" x="125.91" y="144.12" width="7.72" height="8.01"/><rect class="cls-6" x="140" y="144.12" width="7.72" height="8.01"/><rect class="cls-6" x="111.82" y="144.12" width="7.72" height="8.01"/><rect class="cls-6" x="97.74" y="160.15" width="7.72" height="8.01"/><rect class="cls-6" x="125.91" y="160.15" width="7.72" height="8.01"/><rect class="cls-6" x="140" y="160.15" width="7.72" height="8.01"/><rect class="cls-6" x="111.82" y="160.15" width="7.72" height="8.01"/></g><line class="cls-3" x1="141.45" y1="112.17" x2="170.52" y2="95.01"/><polyline class="cls-3" points="166.82 94.07 170.68 94.96 169.79 98.82"/><circle class="cls-5" cx="103.46" cy="117.66" r="3.39"/><line class="cls-3" x1="105.79" y1="115.19" x2="123.1" y2="101.53"/><line class="cls-3" x1="123.1" y1="101.53" x2="141.45" y2="112.17"/><circle class="cls-5" cx="123.1" cy="101.53" r="3.39"/><circle class="cls-5" cx="141.45" cy="112.17" r="3.39"/></g></g></svg>