<?xml version="1.0" encoding="UTF-8"?><svg xmlns="http://www.w3.org/2000/svg" viewBox="0 0 257.86 257.86"><defs><style>.cls-1{mix-blend-mode:multiply;}.cls-2{fill:#fff;}.cls-2,.cls-3{stroke:#000;stroke-miterlimit:10;}.cls-3{fill:none;}.cls-4,.cls-5{stroke-width:0px;}.cls-6{isolation:isolate;}.cls-5{fill:#0ae6c7;}</style></defs><g class="cls-6"><g id="Layer_1"><path class="cls-4" d="m150.03,64.76c-1.39,0-2.65.56-3.56,1.47-.91.91-1.48,2.17-1.48,3.57v25.45h-38.04v-24.57c0-3.27,2.65-5.92,5.92-5.92h37.17Z"/><path class="cls-4" d="m150.03,64.76c2.79,0,5.04,2.25,5.04,5.04"/><path class="cls-4" d="m155.07,69.8v11.32h-10.08v-11.32c0-1.4.57-2.66,1.48-3.57.91-.91,2.17-1.47,3.56-1.47,2.79,0,5.04,2.25,5.04,5.04Z"/><rect class="cls-4" x="91.25" y="79.66" width="71.09" height="94.69"/><rect class="cls-2" x="87.18" y="83.51" width="71.09" height="94.69"/><rect class="cls-2" x="96.8" y="101.84" width="51.84" height="15.63"/><g class="cls-1"><rect class="cls-5" x="97.74" y="128.08" width="7.72" height="8.01"/><rect class="cls-5" x="125.91" y="128.08" width="7.72" height="8.01"/><rect class="cls-5" x="140" y="128.08" width="7.72" height="8.01"/><rect class="cls-5" x="111.82" y="128.08" width="7.72" height="8.01"/><rect class="cls-5" x="97.74" y="144.12" width="7.72" height="8.01"/><rect class="cls-5" x="125.91" y="144.12" width="7.72" height="8.01"/><rect class="cls-5" x="140" y="144.12" width="7.72" height="8.01"/><rect class="cls-5" x="111.82" y="144.12" width="7.72" height="8.01"/><rect class="cls-5" x="97.74" y="160.15" width="7.72" height="8.01"/><rect class="cls-5" x="125.91" y="160.15" width="7.72" height="8.01"/><rect class="cls-5" x="140" y="160.15" width="7.72" height="8.01"/><rect class="cls-5" x="111.82" y="160.15" width="7.72" height="8.01"/></g><line class="cls-3" x1="101.59" y1="109.65" x2="106.44" y2="109.65"/><line class="cls-3" x1="108.98" y1="109.65" x2="143.86" y2="109.65"/><line class="cls-3" x1="96.8" y1="95.37" x2="148.65" y2="95.37"/><path class="cls-2" d="m146.68,66.88c-1.39,0-2.65.56-3.56,1.47-.91.91-1.48,2.17-1.48,3.57v23.45h-39.04v-22.57c0-3.27,2.65-5.92,5.92-5.92h38.17Z"/><path class="cls-2" d="m146.68,66.88c2.79,0,5.04,2.25,5.04,5.04"/><path class="cls-2" d="m151.72,71.92v7.75h-10.08v-7.75c0-1.4.57-2.66,1.48-3.57.91-.91,2.17-1.47,3.56-1.47,2.79,0,5.04,2.25,5.04,5.04Z"/><line class="cls-3" x1="108.02" y1="75.52" x2="113.35" y2="75.52"/><line class="cls-3" x1="116.15" y1="75.52" x2="135.36" y2="75.52"/><line class="cls-3" x1="108.02" y1="81.94" x2="135.36" y2="81.94"/><line class="cls-3" x1="108.02" y1="88.37" x2="135.36" y2="88.37"/></g></g></svg>