<?xml version="1.0" encoding="UTF-8"?><svg xmlns="http://www.w3.org/2000/svg" viewBox="0 0 257.86 257.86"><defs><style>.cls-1{fill:#0ae6c7;mix-blend-mode:multiply;}.cls-1,.cls-2,.cls-3{stroke-width:0px;}.cls-4{fill:#fff;}.cls-4,.cls-5{stroke:#000;stroke-miterlimit:10;}.cls-5{fill:none;}.cls-6{isolation:isolate;}.cls-3{fill:#2c4bff;}</style></defs><g class="cls-6"><g id="Layer_1"><rect class="cls-2" x="75.84" y="85.91" width="109.88" height="88.16"/><rect class="cls-4" x="72.14" y="89.6" width="109.88" height="88.16"/><line class="cls-5" x1="72.14" y1="105.25" x2="182.02" y2="105.25"/><path class="cls-5" d="m148.4,141.13c0,11.77-9.54,21.32-21.32,21.32s-21.33-9.55-21.33-21.32,9.55-21.33,21.33-21.33,21.32,9.55,21.32,21.33Z"/><path class="cls-3" d="m127.4,153.14c-1.63,0-3.08-.22-4.33-.67-1.25-.45-2.33-1.05-3.23-1.81-.9-.76-1.63-1.61-2.2-2.55l2.41-1.95c.45.85,1.02,1.61,1.7,2.27.69.66,1.51,1.18,2.48,1.56.97.38,2.08.57,3.34.57,1.75,0,3.14-.32,4.17-.96s1.54-1.57,1.54-2.8c0-.73-.24-1.39-.73-1.97-.49-.58-1.39-1.02-2.71-1.33l-5.32-1.21c-1.42-.33-2.55-.77-3.41-1.33s-1.47-1.22-1.84-1.99c-.38-.77-.57-1.6-.57-2.5,0-1.23.34-2.35,1.01-3.37.67-1.02,1.64-1.83,2.91-2.45,1.27-.61,2.79-.92,4.56-.92,1.99,0,3.71.4,5.16,1.21,1.46.8,2.66,2.01,3.6,3.62l-2.31,1.77c-.83-1.47-1.78-2.51-2.86-3.12-1.08-.61-2.37-.92-3.89-.92-1.23,0-2.24.17-3.02.51-.78.34-1.36.8-1.74,1.37s-.57,1.21-.57,1.92c0,.54.11,1.04.32,1.49.21.45.6.85,1.15,1.19.56.34,1.33.63,2.32.87l4.93,1.1c2.18.47,3.7,1.2,4.56,2.18.86.98,1.3,2.19,1.3,3.64,0,1.3-.36,2.45-1.08,3.44-.72.99-1.74,1.77-3.05,2.32-1.31.56-2.86.83-4.63.83Zm-1.35,3.58v-30.52h2.45v30.52h-2.45Z"/><ellipse class="cls-5" cx="88.89" cy="88.32" rx="4.61" ry="8.21"/><ellipse class="cls-5" cx="114.35" cy="88.32" rx="4.61" ry="8.21"/><ellipse class="cls-5" cx="139.81" cy="88.32" rx="4.61" ry="8.21"/><ellipse class="cls-5" cx="165.27" cy="88.32" rx="4.61" ry="8.21"/><rect class="cls-1" x="72.14" y="89.6" width="109.88" height="15.64"/></g></g></svg>