<?xml version="1.0" encoding="UTF-8"?><svg xmlns="http://www.w3.org/2000/svg" viewBox="0 0 257.86 257.86"><defs><style>.cls-1{fill:#0ae6c7;mix-blend-mode:multiply;}.cls-1,.cls-2,.cls-3{stroke-width:0px;}.cls-4{fill:#fff;}.cls-4,.cls-5{stroke:#000;stroke-miterlimit:10;}.cls-5{fill:none;}.cls-6{isolation:isolate;}.cls-3{fill:#2b4bff;}</style></defs><g class="cls-6"><g id="Layer_1"><rect class="cls-2" x="75.84" y="85.91" width="109.88" height="88.16"/><rect class="cls-4" x="72.14" y="89.6" width="109.88" height="88.16"/><line class="cls-5" x1="72.14" y1="105.25" x2="182.02" y2="105.25"/><path class="cls-5" d="m148.4,141.13c0,11.77-9.54,21.32-21.32,21.32s-21.33-9.55-21.33-21.32,9.55-21.33,21.33-21.33,21.32,9.55,21.32,21.33Z"/><ellipse class="cls-5" cx="88.89" cy="88.32" rx="4.61" ry="8.21"/><ellipse class="cls-5" cx="114.35" cy="88.32" rx="4.61" ry="8.21"/><ellipse class="cls-5" cx="139.81" cy="88.32" rx="4.61" ry="8.21"/><ellipse class="cls-5" cx="165.27" cy="88.32" rx="4.61" ry="8.21"/><rect class="cls-1" x="72.14" y="89.6" width="109.88" height="15.64"/><path class="cls-3" d="m119.13,150.73v-12.5c0-.37,0-.75.01-1.14,0-.4.02-.81.04-1.25-.62.61-1.34,1.13-2.14,1.56-.8.43-1.62.74-2.47.92l-.55-2.57c.39-.06.84-.18,1.35-.39.51-.2,1.05-.46,1.6-.77.55-.31,1.06-.65,1.52-1.01.46-.36.82-.71,1.08-1.06h2.48v18.21h-2.92Z"/><path class="cls-3" d="m132.53,151.01c-1.62,0-2.95-.35-3.99-1.05-1.04-.7-1.86-1.71-2.47-3.03l2.76-1.43c.28.88.69,1.6,1.25,2.17s1.39.84,2.5.84c.77,0,1.43-.14,1.97-.43.54-.28.96-.69,1.26-1.21.29-.52.44-1.15.44-1.89,0-.77-.14-1.42-.41-1.93-.28-.51-.67-.91-1.19-1.17s-1.16-.4-1.93-.4c-.53,0-1.03.05-1.49.17-.46.11-.87.28-1.24.51-.37.23-.69.53-.97.9l-2.43-.47,1.1-10.04h10.59v2.54h-8.25l-.66,5.13-.05.3h.05c.42-.46.97-.82,1.64-1.08.67-.26,1.47-.39,2.39-.39,1.18,0,2.19.24,3.03.73.85.49,1.51,1.16,1.99,2.03.48.86.72,1.87.72,3.01,0,.99-.17,1.88-.5,2.65s-.8,1.42-1.41,1.96c-.61.53-1.31.93-2.11,1.2-.8.27-1.67.4-2.61.4Z"/></g></g></svg>