<?xml version="1.0" encoding="UTF-8"?><svg id="Layer_1" xmlns="http://www.w3.org/2000/svg" viewBox="0 0 257.86 257.86"><defs><style>.cls-1{fill:none;stroke:#000;stroke-miterlimit:10;}.cls-2,.cls-3,.cls-4{stroke-width:0px;}.cls-3{fill:#0ae6c7;}.cls-4{fill:#fff;}</style></defs><polygon class="cls-2" points="187.19 85.12 187.19 125.91 175.73 125.91 175.7 144.79 161.93 133.68 161.93 159.3 116.82 159.3 81.72 187.66 81.65 159.3 64.81 159.3 64.81 95.96 122.5 95.96 122.5 85.12 187.19 85.12"/><polygon class="cls-4" points="182.88 89.13 182.88 129.92 171.42 129.92 171.39 148.8 157.62 137.69 157.62 163.31 112.51 163.31 77.4 191.67 77.34 163.31 60.5 163.31 60.5 99.97 118.19 99.97 118.19 89.13 182.88 89.13"/><polygon class="cls-3" points="157.62 100.11 157.62 137.83 148 130.06 118.19 130.06 118.19 100.11 157.62 100.11"/><polygon class="cls-1" points="157.63 99.97 60.5 99.97 60.5 163.32 77.34 163.32 77.4 191.67 112.51 163.32 157.63 163.32 157.63 99.97"/><polygon class="cls-1" points="118.19 89.14 182.88 89.14 182.88 129.92 171.42 129.92 171.39 148.81 148.01 129.92 118.19 129.92 118.19 89.14"/><path class="cls-2" d="m138.11,106.78c1.17,0,2.18.19,3.05.56.87.37,1.54.9,2.03,1.59.49.69.73,1.51.73,2.47,0,1.03-.23,1.88-.68,2.56-.45.68-1.05,1.2-1.8,1.55-.75.35-1.59.58-2.51.69v2.84h-2.2v-3.98c1.29-.19,2.3-.43,3.01-.72.72-.28,1.22-.64,1.51-1.06.29-.42.44-.95.44-1.57s-.14-1.15-.41-1.59-.69-.78-1.23-1.01c-.55-.23-1.25-.34-2.1-.34-1.17,0-2.12.32-2.85.97-.73.65-1.17,1.53-1.31,2.64l-1.88-1.09c.19-.9.57-1.69,1.13-2.38.56-.68,1.26-1.21,2.12-1.58.86-.37,1.84-.56,2.96-.56Zm-.32,14.59c.51,0,.93.16,1.25.48s.48.73.48,1.25-.16.93-.48,1.25-.73.48-1.25.48-.93-.16-1.25-.48-.48-.73-.48-1.25.16-.93.48-1.25.73-.48,1.25-.48Z"/></svg>