<?xml version="1.0" encoding="UTF-8"?><svg id="Layer_1" xmlns="http://www.w3.org/2000/svg" viewBox="0 0 257.86 257.86"><defs><style>.cls-1{stroke:#000;}.cls-1,.cls-2{fill:none;stroke-miterlimit:10;}.cls-2{stroke:#fff;}.cls-3,.cls-4,.cls-5{stroke-width:0px;}.cls-4{fill:#2b4bff;}.cls-5{fill:#fff;}</style></defs><polygon class="cls-3" points="187.58 77.38 187.58 118.17 176.12 118.17 176.09 137.05 162.32 125.94 162.32 151.56 117.21 151.56 82.1 179.92 82.04 151.56 65.2 151.56 65.2 88.22 122.89 88.22 122.89 77.38 187.58 77.38"/><polygon class="cls-5" points="183.26 81.4 183.26 122.19 171.8 122.19 171.77 141.07 158 129.96 158 155.58 112.89 155.58 77.78 183.94 77.72 155.58 60.88 155.58 60.88 92.24 118.57 92.24 118.57 81.4 183.26 81.4"/><polygon class="cls-4" points="158.01 92.38 158.01 130.1 148.39 122.33 118.58 122.33 118.58 92.38 158.01 92.38"/><polygon class="cls-1" points="158.01 92.24 60.88 92.24 60.88 155.58 77.73 155.58 77.78 183.94 112.89 155.58 158.01 155.58 158.01 92.24"/><polygon class="cls-1" points="118.58 81.4 183.27 81.4 183.27 122.19 171.81 122.19 171.77 141.08 148.39 122.19 118.58 122.19 118.58 81.4"/><line class="cls-2" x1="125.43" y1="114.24" x2="140.87" y2="114.24"/><line class="cls-2" x1="125.43" y1="101.49" x2="151.16" y2="101.49"/><line class="cls-2" x1="125.43" y1="107.86" x2="151.16" y2="107.86"/></svg>