<?xml version="1.0" encoding="UTF-8"?><svg id="Layer_1" xmlns="http://www.w3.org/2000/svg" viewBox="0 0 257.86 257.86"><defs><style>.cls-1{stroke:#000;}.cls-1,.cls-2{fill:none;stroke-miterlimit:10;}.cls-2{stroke:#fff;}.cls-3,.cls-4,.cls-5{stroke-width:0px;}.cls-4{fill:#2c4bff;}.cls-5{fill:#fff;}</style></defs><polygon class="cls-3" points="113.85 82.39 113.85 104.16 74.97 104.16 74.97 150.82 87.38 150.82 87.42 171.7 113.28 150.82 146.51 150.82 146.51 127.49 146.82 127.49 172.68 148.37 172.72 127.49 185.39 127.49 185.39 82.39 113.85 82.39"/><polygon class="cls-5" points="72.97 153.59 85.38 153.59 85.42 173.93 110.6 153.59 143.51 153.59 143.51 130.26 144.5 130.26 169.68 150.6 169.72 130.26 182.39 130.26 182.39 86.16 111.85 86.16 111.85 107.93 72.97 107.93 72.97 153.59"/><rect class="cls-4" x="111.35" y="107.93" width="32.66" height="23.33"/><polygon class="cls-1" points="144.01 107.93 72.47 107.93 72.47 154.59 84.88 154.59 84.92 175.47 110.78 154.59 144.01 154.59 144.01 107.93"/><polygon class="cls-1" points="111.35 86.16 182.89 86.16 182.89 131.26 170.22 131.26 170.18 152.15 144.32 131.26 111.35 131.26 111.35 86.16"/><polyline class="cls-2" points="121.76 114.18 116.45 119.5 121.96 125.01"/><polyline class="cls-2" points="133.6 125.01 138.91 119.7 133.4 114.18"/><line class="cls-2" x1="138.91" y1="119.7" x2="116.45" y2="119.7"/></svg>