<?xml version="1.0" encoding="UTF-8"?><svg id="Layer_1" xmlns="http://www.w3.org/2000/svg" viewBox="0 0 257.86 257.86"><defs><style>.cls-1{fill:#fff;}.cls-1,.cls-2,.cls-3,.cls-4{stroke-miterlimit:10;}.cls-1,.cls-4{stroke:#000;}.cls-2{stroke-dasharray:0 0 4 3;}.cls-2,.cls-3{stroke:#0ae6c7;}.cls-2,.cls-3,.cls-4{fill:none;}.cls-5,.cls-6,.cls-7{stroke-width:0px;}.cls-6{fill:#2c4bff;}.cls-7{fill:#0ae6c7;}</style></defs><circle class="cls-5" cx="131.44" cy="128.25" r="47.2"/><circle class="cls-1" cx="126.42" cy="129.61" r="47.2"/><polyline class="cls-4" points="126.42 100.3 126.42 131.76 138.04 146"/><circle class="cls-6" cx="126.42" cy="87.36" r="1.75"/><circle class="cls-6" cx="126.42" cy="172.65" r="1.75"/><circle class="cls-6" cx="169.07" cy="130" r="1.75"/><circle class="cls-6" cx="83.78" cy="130" r="1.75"/><path class="cls-3" d="m126.42,166.66c-20.46,0-37.05-16.59-37.05-37.05s16.59-37.05,37.05-37.05c18.81,0,34.35,14.02,36.74,32.19"/><polygon class="cls-7" points="158.57 122.1 159.19 121.31 163.06 124.37 165.83 120.29 166.66 120.85 163.28 125.82 158.57 122.1"/><path class="cls-2" d="m163.48,129.61c0,19.3-14.75,35.15-33.59,36.89"/></svg>