<?xml version="1.0" encoding="UTF-8"?><svg xmlns="http://www.w3.org/2000/svg" viewBox="0 0 257.86 257.86"><defs><style>.cls-1{fill:#0ae6c7;mix-blend-mode:multiply;}.cls-1,.cls-2{stroke-width:0px;}.cls-3{stroke-dasharray:0 0 6 3;}.cls-3,.cls-4,.cls-5,.cls-6{stroke:#000;stroke-miterlimit:10;}.cls-3,.cls-5,.cls-6{fill:none;}.cls-4{fill:#fff;stroke-width:1.18px;}.cls-7{isolation:isolate;}.cls-6{stroke-dasharray:0 0 5.76 2.88;}</style></defs><g class="cls-7"><g id="Layer_1"><rect class="cls-2" x="76.45" y="79.64" width="30.46" height="30.46"/><rect class="cls-2" x="115.46" y="79.64" width="30.46" height="30.46"/><rect class="cls-2" x="154.46" y="79.64" width="30.46" height="30.46"/><rect class="cls-4" x="72.94" y="82.79" width="30.46" height="30.46"/><rect class="cls-4" x="111.94" y="82.79" width="30.46" height="30.46"/><rect class="cls-1" x="111.94" y="147.76" width="30.46" height="30.46"/><rect class="cls-4" x="150.94" y="82.79" width="30.46" height="30.46"/><line class="cls-3" x1="127.17" y1="118.49" x2="127.17" y2="142.81"/><polyline class="cls-5" points="133.75 136.33 127.08 142.81 120.6 136.14"/><line class="cls-5" x1="88.17" y1="117.49" x2="88.17" y2="120.49"/><polyline class="cls-5" points="88.17 122.72 88.17 125.72 91.17 125.72"/><line class="cls-6" x1="94.05" y1="125.72" x2="161.74" y2="125.72"/><polyline class="cls-5" points="163.18 125.72 166.18 125.72 166.18 122.72"/><line class="cls-5" x1="166.18" y1="120.49" x2="166.18" y2="117.49"/></g></g></svg>