<?xml version="1.0" encoding="UTF-8"?><svg id="Layer_1" xmlns="http://www.w3.org/2000/svg" viewBox="0 0 257.86 257.86"><defs><style>.cls-1{fill:#fff;}.cls-1,.cls-2{stroke:#000;stroke-miterlimit:10;}.cls-2{fill:none;}.cls-3,.cls-4,.cls-5{stroke-width:0px;}.cls-4{fill:#2b4bff;}.cls-5{fill:#0ae6c7;}</style></defs><path class="cls-3" d="m186.38,138.77c0,8.75-5.86,16.13-13.89,18.43v6.3h-96.23v-73.93h96.23v30.75c8.03,2.3,13.89,9.69,13.89,18.45Z"/><rect class="cls-1" x="82.63" y="83.21" width="73.92" height="96.23" transform="translate(-11.73 250.92) rotate(-90)"/><rect class="cls-4" x="114.33" y="60.9" width="10.52" height="95.21" transform="translate(11.09 228.1) rotate(-90)"/><line class="cls-2" x1="81.74" y1="156.43" x2="102.67" y2="156.43"/><line class="cls-2" x1="81.74" y1="146.68" x2="116.63" y2="146.68"/><path class="cls-1" d="m182.87,140.31c0,10.59-8.58,19.18-19.18,19.18s-19.19-8.59-19.19-19.18,8.59-19.19,19.19-19.19,19.18,8.59,19.18,19.19Z"/><path class="cls-5" d="m163.98,151.11c-1.47,0-2.77-.2-3.89-.61-1.13-.4-2.1-.95-2.91-1.63-.81-.68-1.47-1.45-1.98-2.3l2.17-1.76c.4.77.92,1.45,1.53,2.04.62.6,1.36,1.06,2.23,1.4.87.34,1.87.51,3,.51,1.57,0,2.83-.29,3.75-.86s1.39-1.42,1.39-2.52c0-.66-.22-1.25-.65-1.77-.44-.52-1.25-.92-2.44-1.2l-4.79-1.09c-1.28-.3-2.3-.7-3.06-1.2-.77-.5-1.32-1.1-1.66-1.79s-.51-1.44-.51-2.25c0-1.11.3-2.12.91-3.03.61-.91,1.48-1.65,2.62-2.2,1.14-.55,2.51-.83,4.1-.83,1.79,0,3.34.36,4.64,1.08,1.31.72,2.39,1.81,3.24,3.26l-2.07,1.6c-.75-1.32-1.6-2.26-2.57-2.81-.97-.55-2.13-.83-3.5-.83-1.11,0-2.01.15-2.71.46-.7.31-1.22.72-1.56,1.23-.34.51-.51,1.09-.51,1.72,0,.49.1.94.29,1.34.19.4.54.76,1.04,1.07.5.31,1.2.57,2.09.78l4.44.99c1.96.43,3.32,1.08,4.1,1.96.78.88,1.17,1.97,1.17,3.27,0,1.17-.32,2.2-.97,3.1-.65.89-1.56,1.59-2.75,2.09-1.18.5-2.57.75-4.17.75Zm-1.21,3.22v-27.45h2.2v27.45h-2.2Z"/></svg>