<?xml version="1.0" encoding="UTF-8"?><svg xmlns="http://www.w3.org/2000/svg" viewBox="0 0 257.86 257.86"><defs><style>.cls-1{fill:#0ae6c7;mix-blend-mode:multiply;}.cls-1,.cls-2{stroke-width:0px;}.cls-3,.cls-4,.cls-5{stroke-miterlimit:10;}.cls-3,.cls-5{stroke:#231f20;}.cls-4{fill:#fff;stroke:#000;}.cls-5{fill:none;}.cls-6{isolation:isolate;}.cls-2{fill:#2b4bff;}</style></defs><g class="cls-6"><g id="Layer_1"><path class="cls-3" d="m193.12,91.9v73.8c0,2.27-1.83,4.11-4.1,4.11h-42.95v15.2h-29.93v-15.2h-42.95c-2.27,0-4.11-1.84-4.11-4.11v-73.8c0-2.26,1.84-4.1,4.11-4.1h22.93l-4.76-11.84v-7.77h76.93v19.61h20.73c2.27,0,4.1,1.84,4.1,4.1Z"/><rect class="cls-4" x="64.74" y="92.46" width="124.04" height="82.01" rx="4.11" ry="4.11"/><line class="cls-4" x1="64.74" y1="166.43" x2="188.78" y2="166.43"/><rect class="cls-4" x="111.8" y="174.46" width="29.93" height="15.21"/><line class="cls-4" x1="105.58" y1="189.67" x2="147.94" y2="189.67"/><rect class="cls-4" x="85.82" y="72.12" width="79.1" height="94.3"/><line class="cls-5" x1="93.21" y1="105.85" x2="156.06" y2="105.85"/><line class="cls-5" x1="93.21" y1="113.29" x2="156.06" y2="113.29"/><line class="cls-5" x1="93.21" y1="98.41" x2="124.63" y2="98.41"/><circle class="cls-2" cx="101.42" cy="81.46" r="1.74"/><circle class="cls-2" cx="107.74" cy="81.46" r="1.74"/><circle class="cls-2" cx="95.1" cy="81.46" r="1.74"/><polygon class="cls-5" points="157.52 166.43 93.21 166.43 93.21 128.59 135.31 128.59 135.31 138.05 157.52 138.05 157.52 166.43"/><line class="cls-5" x1="93.21" y1="138.05" x2="157.52" y2="138.05"/><line class="cls-5" x1="93.21" y1="147.51" x2="157.52" y2="147.51"/><line class="cls-5" x1="93.21" y1="156.97" x2="157.52" y2="156.97"/><line class="cls-5" x1="135.31" y1="138.05" x2="135.31" y2="128.59"/><line class="cls-5" x1="135.31" y1="166.43" x2="135.31" y2="138.05"/><rect class="cls-1" x="75.08" y="105.85" width="10.74" height="60.58"/><rect class="cls-1" x="164.92" y="105.85" width="10.74" height="60.58"/></g></g></svg>