<?xml version="1.0" encoding="UTF-8"?><svg id="Layer_1" xmlns="http://www.w3.org/2000/svg" viewBox="0 0 257.86 257.86"><defs><style>.cls-1,.cls-2,.cls-3{stroke-miterlimit:10;}.cls-1,.cls-3{stroke:#231f20;}.cls-2{fill:#fff;stroke:#000;}.cls-3{fill:none;}.cls-4{fill:#2b4bff;stroke-width:0px;}</style></defs><path class="cls-1" d="m193.12,91.9v73.8c0,2.27-1.83,4.11-4.1,4.11h-42.95v15.2h-29.93v-15.2h-42.95c-2.27,0-4.11-1.84-4.11-4.11v-73.8c0-2.26,1.84-4.1,4.11-4.1h22.93l20.36-19.61h51.81v19.61h20.73c2.27,0,4.1,1.84,4.1,4.1Z"/><rect class="cls-2" x="64.74" y="92.46" width="124.04" height="82.01" rx="4.11" ry="4.11"/><line class="cls-2" x1="64.74" y1="166.43" x2="188.78" y2="166.43"/><rect class="cls-2" x="111.8" y="174.46" width="29.93" height="15.21"/><line class="cls-2" x1="105.58" y1="189.67" x2="147.94" y2="189.67"/><polygon class="cls-2" points="85.23 166.43 85.23 98.41 112.52 72.12 164.33 72.12 164.33 166.43 85.23 166.43"/><polygon class="cls-4" points="85.23 98.41 112.52 98.41 112.52 72.12 85.23 98.41"/><line class="cls-3" x1="93.36" y1="128.27" x2="156.2" y2="128.27"/><line class="cls-3" x1="93.36" y1="139.24" x2="156.2" y2="139.24"/><line class="cls-3" x1="93.36" y1="150.21" x2="156.2" y2="150.21"/><line class="cls-3" x1="93.36" y1="117.31" x2="124.78" y2="117.31"/></svg>