<?xml version="1.0" encoding="UTF-8"?><svg id="Layer_1" xmlns="http://www.w3.org/2000/svg" viewBox="0 0 257.86 257.86"><defs><style>.cls-1{fill:#fff;}.cls-1,.cls-2{stroke:#000;stroke-miterlimit:10;}.cls-2{fill:none;}.cls-3,.cls-4,.cls-5{stroke-width:0px;}.cls-4{fill:#2b4bff;}.cls-5{fill:#0ae6c7;}</style></defs><polygon class="cls-3" points="182.42 184.92 182.42 104.64 155.13 78.36 103.32 78.36 103.32 184.92 182.42 184.92"/><polygon class="cls-3" points="158.48 175.57 158.48 95.29 131.19 69.01 79.38 69.01 79.38 175.57 158.48 175.57"/><polygon class="cls-1" points="154.54 179.5 154.54 99.23 127.26 72.94 75.45 72.94 75.45 179.5 154.54 179.5"/><line class="cls-2" x1="83.09" y1="159.62" x2="146.9" y2="159.62"/><line class="cls-2" x1="83.09" y1="169.58" x2="146.9" y2="169.58"/><line class="cls-2" x1="83.09" y1="109.8" x2="146.36" y2="109.8"/><line class="cls-2" x1="123.94" y1="129.73" x2="146.9" y2="129.73"/><line class="cls-2" x1="123.94" y1="149.65" x2="146.64" y2="149.65"/><line class="cls-2" x1="123.94" y1="139.69" x2="146.64" y2="139.69"/><line class="cls-2" x1="123.94" y1="119.76" x2="146.64" y2="119.76"/><line class="cls-2" x1="83.09" y1="99.83" x2="118.93" y2="99.83"/><polygon class="cls-4" points="154.54 99.23 127.26 99.23 127.26 72.94 154.54 99.23"/><circle class="cls-5" cx="99.39" cy="133.73" r="15.93"/><line class="cls-2" x1="93.47" y1="127.81" x2="105.3" y2="139.65"/><line class="cls-2" x1="105.3" y1="127.81" x2="93.47" y2="139.65"/><polygon class="cls-1" points="178.48 188.85 178.48 108.57 151.2 82.29 99.39 82.29 99.39 188.85 178.48 188.85"/><line class="cls-2" x1="107.03" y1="168.96" x2="170.84" y2="168.96"/><line class="cls-2" x1="107.03" y1="178.93" x2="170.84" y2="178.93"/><line class="cls-2" x1="107.03" y1="119.14" x2="170.3" y2="119.14"/><line class="cls-2" x1="147.88" y1="139.07" x2="170.84" y2="139.07"/><line class="cls-2" x1="147.88" y1="159" x2="170.58" y2="159"/><line class="cls-2" x1="147.88" y1="149.04" x2="170.58" y2="149.04"/><line class="cls-2" x1="147.88" y1="129.11" x2="170.58" y2="129.11"/><line class="cls-2" x1="107.03" y1="109.18" x2="142.87" y2="109.18"/><polygon class="cls-4" points="178.48 108.57 151.2 108.57 151.2 82.29 178.48 108.57"/><circle class="cls-5" cx="124.98" cy="143.85" r="15.93"/><line class="cls-2" x1="119.06" y1="137.93" x2="130.9" y2="149.77"/><line class="cls-2" x1="130.9" y1="137.93" x2="119.06" y2="149.77"/></svg>