<?xml version="1.0" encoding="UTF-8"?><svg id="Layer_1" xmlns="http://www.w3.org/2000/svg" viewBox="0 0 257.86 257.86"><defs><style>.cls-1{fill:#fff;}.cls-1,.cls-2{stroke:#000;stroke-miterlimit:10;}.cls-2{fill:none;}.cls-3,.cls-4{stroke-width:0px;}.cls-4{fill:#0ae6c7;}</style></defs><path class="cls-3" d="m177.28,76.72l-.02,71.1c0,4.94-3.93,8.97-8.84,9.1h-23.17v19.66h-60.08v-71.11c.01-5.03,4.09-9.1,9.11-9.1h22.92v-19.65h60.08Z"/><path class="cls-1" d="m104.86,161.49c2.14,0,4.08-.86,5.48-2.26,1.4-1.4,2.28-3.34,2.28-5.49v-72.45h60.08v71.11c-.01,5.03-4.09,9.1-9.11,9.1h-58.72Z"/><rect class="cls-4" x="119.42" y="96.21" width="46.12" height="20.27"/><path class="cls-2" d="m119.29,161.49v-71.67h46.39s-.01,61.6-.01,61.6c0,3.98-2.55,7.36-6.11,8.6"/><line class="cls-1" x1="119.29" y1="96.21" x2="165.67" y2="96.21"/><line class="cls-1" x1="119.29" y1="116.48" x2="165.67" y2="116.48"/><line class="cls-1" x1="119.29" y1="135.71" x2="165.67" y2="135.71"/><line class="cls-1" x1="119.29" y1="145.32" x2="165.67" y2="145.32"/><line class="cls-1" x1="119.29" y1="126.09" x2="165.67" y2="126.09"/><line class="cls-1" x1="119.29" y1="154.93" x2="164.96" y2="154.93"/><line class="cls-1" x1="155.08" y1="89.81" x2="155.08" y2="161.49"/><path class="cls-1" d="m148.42,100.94c-2.14,0-4.08.86-5.48,2.26-1.4,1.4-2.28,3.34-2.28,5.49v72.45h-60.08v-71.11c.01-5.03,4.09-9.1,9.11-9.1h58.72Z"/><path class="cls-1" d="m163.83,161.49h-23.17v-52.8c0-2.15.88-4.09,2.28-5.49s3.34-2.26,5.47-2.26c3.9,0,7.1,2.84,7.67,6.57v46.23c0,.4.03.8.09,1.19.25,1.67,1.04,3.16,2.18,4.3,1.4,1.4,3.34,2.26,5.48,2.26Z"/><path class="cls-1" d="m156.17,108.69v46.24c-.06-.39-.09-.79-.09-1.19v-46.23c.06.38.09.78.09,1.18Z"/><line class="cls-1" x1="87.25" y1="114.8" x2="133.63" y2="114.8"/><line class="cls-1" x1="88.85" y1="104.61" x2="135.23" y2="104.61"/><line class="cls-1" x1="87.25" y1="135.18" x2="133.63" y2="135.18"/><line class="cls-1" x1="87.25" y1="124.99" x2="133.63" y2="124.99"/><line class="cls-1" x1="87.11" y1="145.37" x2="133.5" y2="145.37"/><line class="cls-1" x1="87.11" y1="155.56" x2="133.5" y2="155.56"/><rect class="cls-4" x="87.25" y="165.75" width="46.12" height="6.38"/><path class="cls-2" d="m96.36,100.94c-5.03,0-9.1,4.07-9.1,9.1v62.1s46.1,0,46.1,0v-62.1c.01-5.03,4.09-9.1,9.11-9.1"/><path class="cls-2" d="m131.72,100.94c-5.03,0-9.1,4.07-9.1,9.1v62.1"/><line class="cls-1" x1="87.25" y1="165.75" x2="133.63" y2="165.75"/></svg>