<?xml version="1.0" encoding="UTF-8"?><svg xmlns="http://www.w3.org/2000/svg" viewBox="0 0 257.86 257.86"><defs><style>.cls-1{fill:#0ae6c7;mix-blend-mode:multiply;}.cls-1,.cls-2,.cls-3{stroke-width:0px;}.cls-4{fill:#fff;}.cls-4,.cls-5{stroke:#000;stroke-miterlimit:10;}.cls-5{fill:none;}.cls-6{isolation:isolate;}.cls-3{fill:#2b4bff;}</style></defs><g class="cls-6"><g id="Layer_1"><polygon class="cls-2" points="170.45 180.25 170.45 99.97 143.16 73.68 91.35 73.68 91.35 180.25 170.45 180.25"/><polygon class="cls-4" points="166.51 184.18 166.51 103.9 139.23 77.62 87.42 77.62 87.42 184.18 166.51 184.18"/><line class="cls-5" x1="95.06" y1="164.29" x2="158.87" y2="164.29"/><line class="cls-5" x1="95.06" y1="174.26" x2="158.87" y2="174.26"/><line class="cls-5" x1="95.06" y1="114.47" x2="158.33" y2="114.47"/><line class="cls-5" x1="135.91" y1="134.4" x2="158.87" y2="134.4"/><line class="cls-5" x1="135.91" y1="154.33" x2="158.61" y2="154.33"/><line class="cls-5" x1="135.91" y1="144.36" x2="158.61" y2="144.36"/><line class="cls-5" x1="135.91" y1="124.44" x2="158.61" y2="124.44"/><line class="cls-5" x1="95.06" y1="104.51" x2="130.9" y2="104.51"/><polygon class="cls-3" points="166.51 103.9 139.23 103.9 139.23 77.62 166.51 103.9"/><line class="cls-5" x1="97.72" y1="153.91" x2="125.41" y2="126.44"/><circle class="cls-1" cx="101.93" cy="130.83" r="4.39"/><circle class="cls-1" cx="121.02" cy="149.52" r="4.39"/></g></g></svg>