<?xml version="1.0" encoding="UTF-8"?><svg id="Layer_1" xmlns="http://www.w3.org/2000/svg" viewBox="0 0 257.86 257.86"><defs><style>.cls-1{fill:#fff;}.cls-1,.cls-2{stroke:#000;stroke-miterlimit:10;}.cls-2{fill:none;}.cls-3,.cls-4,.cls-5{stroke-width:0px;}.cls-4{fill:#2b4bff;}.cls-5{fill:#0ae6c7;}</style></defs><polygon class="cls-3" points="169.64 180.25 169.64 99.97 142.36 73.68 90.55 73.68 90.55 180.25 169.64 180.25"/><polygon class="cls-1" points="165.71 184.18 165.71 103.9 138.43 77.62 86.61 77.62 86.61 184.18 165.71 184.18"/><path class="cls-5" d="m110.33,136.58c-.99,0-1.82-.26-2.51-.78-.69-.52-1.21-1.22-1.56-2.1-.36-.88-.54-1.92-.54-3.13,0-1.43.26-2.85.78-4.28.52-1.43,1.29-2.74,2.3-3.95,1.01-1.21,2.35-2.22,3.99-3.05l2.31,2.06c-1.32.49-2.47,1.22-3.46,2.18-.99.96-1.74,2-2.26,3.13-.52,1.13-.76,2.21-.7,3.25l.25.08c.16-.27.38-.48.66-.62.27-.14.69-.21,1.23-.21.49,0,.99.15,1.48.45.49.3.91.71,1.23,1.23.33.52.49,1.17.49,1.93,0,.66-.18,1.29-.54,1.89-.36.6-.81,1.07-1.36,1.4-.55.33-1.15.49-1.81.49Zm-12.02,0c-.99,0-1.82-.26-2.51-.78-.69-.52-1.21-1.22-1.56-2.1-.36-.88-.54-1.92-.54-3.13,0-1.43.26-2.85.78-4.28.52-1.43,1.29-2.74,2.3-3.95,1.02-1.21,2.35-2.22,3.99-3.05l2.31,2.06c-1.32.49-2.47,1.22-3.46,2.18-.99.96-1.74,2-2.26,3.13-.52,1.13-.76,2.21-.7,3.25l.25.08c.16-.27.38-.48.66-.62.27-.14.69-.21,1.23-.21.49,0,.99.15,1.48.45.49.3.91.71,1.23,1.23.33.52.49,1.17.49,1.93,0,.66-.18,1.29-.54,1.89-.36.6-.81,1.07-1.36,1.4-.55.33-1.15.49-1.81.49Z"/><line class="cls-2" x1="93.5" y1="111.46" x2="158.19" y2="111.46"/><line class="cls-2" x1="93.5" y1="99.17" x2="133.27" y2="99.17"/><line class="cls-2" x1="125.85" y1="136.02" x2="158.19" y2="136.02"/><line class="cls-2" x1="125.85" y1="123.74" x2="158.31" y2="123.74"/><line class="cls-2" x1="93.5" y1="148.3" x2="158.91" y2="148.3"/><line class="cls-2" x1="93.5" y1="172.87" x2="158.19" y2="172.87"/><line class="cls-2" x1="93.5" y1="160.59" x2="158.19" y2="160.59"/><polygon class="cls-4" points="165.71 103.9 138.43 103.9 138.43 77.62 165.71 103.9"/></svg>