<?xml version="1.0" encoding="UTF-8"?><svg xmlns="http://www.w3.org/2000/svg" viewBox="0 0 257.86 257.86"><defs><style>.cls-1{fill:#0ae6c7;mix-blend-mode:multiply;}.cls-1,.cls-2{stroke-width:0px;}.cls-3{stroke-dasharray:0 0 6.34 3.17;}.cls-3,.cls-4,.cls-5,.cls-6,.cls-7{stroke:#000;stroke-miterlimit:10;}.cls-3,.cls-4,.cls-6,.cls-7{fill:none;}.cls-4{stroke-dasharray:0 0 5.32 2.66;}.cls-5{fill:#fff;}.cls-8{isolation:isolate;}.cls-7{stroke-dasharray:0 0 5.31 2.65;}</style></defs><g class="cls-8"><g id="Layer_1"><circle class="cls-2" cx="90.39" cy="164.64" r="25.96"/><circle class="cls-2" cx="170.47" cy="164.54" r="25.96"/><circle class="cls-2" cx="130.43" cy="90.22" r="25.96"/><circle class="cls-5" cx="87.39" cy="167.64" r="25.96"/><circle class="cls-5" cx="167.47" cy="167.54" r="25.96"/><circle class="cls-5" cx="127.43" cy="93.22" r="25.96"/><path class="cls-1" d="m87.36,160.07c-3.06,0-5.54,2.49-5.54,5.55s2.48,5.55,5.54,5.55,5.54-2.48,5.54-5.55-2.48-5.55-5.54-5.55Z"/><path class="cls-1" d="m87.35,175.9c-7.65,0-14.16,4.87-16.62,11.68,4.54,3.71,10.33,5.94,16.65,5.94s12.07-2.21,16.6-5.9c-2.45-6.83-8.96-11.72-16.64-11.72Z"/><path class="cls-1" d="m167.44,159.97c-3.06,0-5.54,2.49-5.54,5.55s2.48,5.55,5.54,5.55,5.54-2.48,5.54-5.55-2.48-5.55-5.54-5.55Z"/><path class="cls-1" d="m167.44,175.79c-7.65,0-14.16,4.87-16.62,11.68,4.54,3.71,10.33,5.94,16.65,5.94s12.07-2.21,16.6-5.9c-2.45-6.83-8.96-11.72-16.64-11.72Z"/><path class="cls-1" d="m127.4,85.65c-3.06,0-5.54,2.49-5.54,5.55s2.48,5.55,5.54,5.55,5.54-2.48,5.54-5.55-2.48-5.55-5.54-5.55Z"/><path class="cls-1" d="m127.4,101.47c-7.65,0-14.16,4.87-16.62,11.68,4.54,3.71,10.33,5.94,16.65,5.94s12.07-2.21,16.6-5.9c-2.45-6.83-8.96-11.72-16.64-11.72Z"/><line class="cls-6" x1="154.7" y1="144.95" x2="153.22" y2="142.34"/><line class="cls-7" x1="151.91" y1="140.02" x2="140.8" y2="120.39"/><line class="cls-6" x1="140.15" y1="119.23" x2="138.67" y2="116.62"/><line class="cls-6" x1="113.34" y1="167.54" x2="116.34" y2="167.54"/><line class="cls-3" x1="119.51" y1="167.54" x2="136.93" y2="167.54"/><line class="cls-6" x1="138.52" y1="167.54" x2="141.52" y2="167.54"/><line class="cls-6" x1="116.21" y1="116.58" x2="114.73" y2="119.19"/><line class="cls-4" x1="113.42" y1="121.51" x2="102.3" y2="141.18"/><line class="cls-6" x1="101.64" y1="142.34" x2="100.17" y2="144.95"/></g></g></svg>