<?xml version="1.0" encoding="UTF-8"?><svg id="Layer_1" xmlns="http://www.w3.org/2000/svg" viewBox="0 0 257.86 257.86"><defs><style>.cls-1,.cls-2{stroke:#000;stroke-miterlimit:10;}.cls-2{fill:#fff;}.cls-3{fill:#2c4bff;stroke-width:0px;}</style></defs><path class="cls-1" d="m127.52,81.63c1.8-2.55,5.58-2.55,7.38,0l6.05,8.57c1.16,1.64,3.25,2.32,5.15,1.67l9.93-3.38c2.96-1.01,6.02,1.22,5.97,4.34l-.14,10.49c-.03,2,1.27,3.79,3.18,4.38l10.02,3.1c2.98.92,4.15,4.52,2.28,7.02l-6.28,8.4c-1.2,1.6-1.2,3.81,0,5.41l6.28,8.4c1.87,2.5.7,6.1-2.28,7.02l-10.02,3.1c-1.91.59-3.21,2.38-3.18,4.38l.14,10.49c.04,3.12-3.02,5.35-5.97,4.34l-9.93-3.38c-1.9-.65-3.99.04-5.15,1.67l-6.05,8.57c-1.8,2.55-5.58,2.55-7.38,0l-6.05-8.57c-1.16-1.64-3.25-2.32-5.15-1.67l-9.93,3.38c-2.96,1.01-6.02-1.22-5.97-4.34l.14-10.49c.03-2-1.27-3.79-3.18-4.38l-10.02-3.1c-2.98-.92-4.15-4.52-2.28-7.02l6.28-8.4c1.2-1.6,1.2-3.81,0-5.41l-6.28-8.4c-1.87-2.5-.7-6.1,2.28-7.02l10.02-3.1c1.91-.59,3.21-2.38,3.18-4.38l-.14-10.49c-.04-3.12,3.02-5.35,5.97-4.34l9.93,3.38c1.9.65,3.99-.04,5.15-1.67l6.05-8.57Z"/><path class="cls-2" d="m122.96,81.63c1.8-2.55,5.58-2.55,7.38,0l6.05,8.57c1.16,1.64,3.25,2.32,5.15,1.67l9.93-3.38c2.96-1.01,6.02,1.22,5.97,4.34l-.14,10.49c-.03,2,1.27,3.79,3.18,4.38l10.02,3.1c2.98.92,4.15,4.52,2.28,7.02l-6.28,8.4c-1.2,1.6-1.2,3.81,0,5.41l6.28,8.4c1.87,2.5.7,6.1-2.28,7.02l-10.02,3.1c-1.91.59-3.21,2.38-3.18,4.38l.14,10.49c.04,3.12-3.02,5.35-5.97,4.34l-9.93-3.38c-1.9-.65-3.99.04-5.15,1.67l-6.05,8.57c-1.8,2.55-5.58,2.55-7.38,0l-6.05-8.57c-1.16-1.64-3.25-2.32-5.15-1.67l-9.93,3.38c-2.96,1.01-6.02-1.22-5.97-4.34l.14-10.49c.03-2-1.27-3.79-3.18-4.38l-10.02-3.1c-2.98-.92-4.15-4.52-2.28-7.02l6.28-8.4c1.2-1.6,1.2-3.81,0-5.41l-6.28-8.4c-1.87-2.5-.7-6.1,2.28-7.02l10.02-3.1c1.91-.59,3.21-2.38,3.18-4.38l-.14-10.49c-.04-3.12,3.02-5.35,5.97-4.34l9.93,3.38c1.9.65,3.99-.04,5.15-1.67l6.05-8.57Z"/><path class="cls-3" d="m126.65,140.4c1.08,0,1.96.33,2.63,1.01.67.67,1.01,1.55,1.01,2.63s-.34,1.96-1.01,2.63c-.67.67-1.55,1.01-2.63,1.01s-1.96-.34-2.63-1.01c-.67-.67-1.01-1.55-1.01-2.63s.34-1.96,1.01-2.63c.67-.67,1.55-1.01,2.63-1.01Zm2.35-30.22v16l-.67,9.29h-3.36l-.67-9.29v-16h4.7Z"/></svg>