<?xml version="1.0" encoding="UTF-8"?><svg id="Layer_1" xmlns="http://www.w3.org/2000/svg" viewBox="0 0 257.86 257.86"><defs><style>.cls-1{fill:#fff;stroke:#000;}.cls-1,.cls-2{stroke-miterlimit:10;}.cls-2{fill:none;stroke:#fff;}.cls-3,.cls-4{stroke-width:0px;}.cls-4{fill:#2b4bff;}</style></defs><polygon class="cls-3" points="186.81 84.26 186.81 99.8 181.78 99.8 181.78 170.59 79.9 170.59 79.9 99.8 74.87 99.8 74.87 84.26 186.81 84.26"/><rect class="cls-1" x="76.09" y="98.31" width="101.88" height="75.29"/><rect class="cls-1" x="71.06" y="87.27" width="111.95" height="15.53"/><rect class="cls-1" x="109.51" y="98.37" width="35.05" height="9.07"/><path class="cls-4" d="m148.52,125.65c-17.23-4.64-21.49-11.27-21.49-11.27,0,0-4.26,6.63-21.49,11.27,0,0-3.19,24.3,21.49,36.01,24.68-11.71,21.49-36.01,21.49-36.01Z"/><polyline class="cls-2" points="117.72 140.76 122.53 145.57 136.34 131.76"/></svg>