<?xml version="1.0" encoding="UTF-8"?><svg id="Layer_1" xmlns="http://www.w3.org/2000/svg" viewBox="0 0 257.86 257.86"><defs><style>.cls-1{stroke:#fff;stroke-width:1.5px;}.cls-1,.cls-2{fill:none;}.cls-1,.cls-2,.cls-3{stroke-miterlimit:10;}.cls-2{stroke-dasharray:0 0 6 3;}.cls-2,.cls-3{stroke:#000;}.cls-3{fill:#fff;}.cls-4,.cls-5{stroke-width:0px;}.cls-5{fill:#2b4bff;}</style></defs><polygon class="cls-4" points="184.78 112.18 171.05 168.4 76.35 168.4 76.35 86.03 106.82 86.03 118.02 97.31 167.54 97.31 167.54 112.18 184.78 112.18"/><polygon class="cls-3" points="73.08 89.46 73.08 171.83 164.27 171.83 164.27 100.74 114.75 100.74 103.56 89.46 73.08 89.46"/><polygon class="cls-3" points="73.08 171.83 88.39 115.61 180.51 115.61 166.78 171.83 73.08 171.83"/><line class="cls-2" x1="75.17" y1="108.76" x2="162.18" y2="108.76"/><path class="cls-5" d="m143.12,136.07c-12.47-3.36-15.55-8.15-15.55-8.15,0,0-3.08,4.8-15.55,8.15,0,0-2.31,17.59,15.55,26.06,17.86-8.47,15.55-26.06,15.55-26.06Z"/><polyline class="cls-1" points="120.83 147 124.31 150.48 134.3 140.49"/></svg>