<?xml version="1.0" encoding="UTF-8"?><svg id="Layer_1" xmlns="http://www.w3.org/2000/svg" viewBox="0 0 257.86 257.86"><defs><style>.cls-1{fill:none;stroke-dasharray:0 0 6 3;}.cls-1,.cls-2{stroke:#000;stroke-miterlimit:10;}.cls-2,.cls-3{fill:#fff;}.cls-4,.cls-5,.cls-3{stroke-width:0px;}.cls-5{fill:#2b4bff;}</style></defs><polygon class="cls-4" points="184.78 112.18 171.05 168.4 76.35 168.4 76.35 86.03 106.82 86.03 118.02 97.31 167.54 97.31 167.54 112.18 184.78 112.18"/><polygon class="cls-2" points="73.08 89.46 73.08 171.83 164.27 171.83 164.27 100.74 114.75 100.74 103.56 89.46 73.08 89.46"/><polygon class="cls-2" points="73.08 171.83 88.39 115.61 180.51 115.61 166.78 171.83 73.08 171.83"/><line class="cls-1" x1="75.17" y1="108.76" x2="162.18" y2="108.76"/><path class="cls-5" d="m144.11,144.73c0,8.45-6.85,15.31-15.31,15.31s-15.32-6.86-15.32-15.31,6.86-15.32,15.32-15.32,15.31,6.86,15.31,15.32Z"/><path class="cls-3" d="m129.03,153.35c-1.17,0-2.21-.16-3.11-.48-.9-.32-1.67-.76-2.32-1.3-.65-.54-1.17-1.16-1.58-1.83l1.73-1.4c.32.61.73,1.16,1.22,1.63.49.48,1.09.85,1.78,1.12.7.27,1.49.41,2.4.41,1.26,0,2.26-.23,2.99-.69s1.11-1.13,1.11-2.01c0-.53-.17-1-.52-1.41-.35-.42-1-.73-1.95-.96l-3.82-.87c-1.02-.24-1.83-.56-2.45-.96s-1.05-.88-1.32-1.43c-.27-.55-.41-1.15-.41-1.8,0-.88.24-1.69.73-2.42.48-.73,1.18-1.32,2.09-1.76.91-.44,2-.66,3.27-.66,1.43,0,2.66.29,3.71.87,1.05.58,1.91,1.44,2.59,2.6l-1.66,1.27c-.6-1.05-1.28-1.8-2.05-2.24-.77-.44-1.7-.66-2.79-.66-.88,0-1.61.12-2.17.37-.56.25-.98.57-1.25.98s-.41.87-.41,1.38c0,.39.08.75.23,1.07.15.32.43.61.83.85.4.25.96.45,1.67.62l3.54.79c1.56.34,2.65.86,3.27,1.57.62.71.93,1.58.93,2.61,0,.93-.26,1.76-.78,2.47-.52.71-1.25,1.27-2.19,1.67-.94.4-2.05.6-3.33.6Zm-.97,2.57v-21.92h1.76v21.92h-1.76Z"/></svg>