<?xml version="1.0" encoding="UTF-8"?><svg xmlns="http://www.w3.org/2000/svg" viewBox="0 0 257.86 257.86"><defs><style>.cls-1{fill:#0ae6c7;mix-blend-mode:multiply;}.cls-1,.cls-2{stroke-width:0px;}.cls-3{fill:#fff;stroke:#000;stroke-miterlimit:10;}.cls-4{isolation:isolate;}</style></defs><g class="cls-4"><g id="Layer_1"><path class="cls-2" d="m172.19,120.86c-1.08-5.56-3.27-10.71-6.31-15.25l5.33-7.12-9.63-9.62-7.12,5.33c-4.53-3.05-9.69-5.23-15.25-6.32l-1.26-8.8h-13.61l-1.27,8.8c-5.56,1.08-10.72,3.27-15.25,6.32l-7.12-5.33-9.63,9.62,5.33,7.12c-3.04,4.54-5.23,9.69-6.31,15.25l-8.81,1.27v13.61l8.81,1.27c1.08,5.56,3.27,10.71,6.31,15.25l-5.33,7.12,9.63,9.63,7.12-5.34c4.53,3.05,9.69,5.23,15.25,6.32l1.27,8.81h13.61l1.27-8.81c5.56-1.08,10.71-3.27,15.24-6.32l7.12,5.34,9.63-9.63-5.33-7.12c3.04-4.54,5.23-9.69,6.31-15.25l8.81-1.27v-13.61l-8.81-1.27Zm-41.04,35.06c-14.91,0-26.99-12.08-26.99-26.99s12.08-26.98,26.99-26.98,26.98,12.08,26.98,26.98-12.08,26.99-26.98,26.99Z"/><path class="cls-3" d="m167.76,120.86c-1.08-5.56-3.27-10.71-6.31-15.25l5.33-7.12-9.63-9.62-7.12,5.33c-4.53-3.05-9.69-5.23-15.25-6.32l-1.26-8.8h-13.61l-1.27,8.8c-5.56,1.08-10.72,3.27-15.25,6.32l-7.12-5.33-9.63,9.62,5.33,7.12c-3.04,4.54-5.23,9.69-6.31,15.25l-8.81,1.27v13.61l8.81,1.27c1.08,5.56,3.27,10.71,6.31,15.25l-5.33,7.12,9.63,9.63,7.12-5.34c4.53,3.05,9.69,5.23,15.25,6.32l1.27,8.81h13.61l1.27-8.81c5.56-1.08,10.71-3.27,15.24-6.32l7.12,5.34,9.63-9.63-5.33-7.12c3.04-4.54,5.23-9.69,6.31-15.25l8.81-1.27v-13.61l-8.81-1.27Zm-41.04,35.06c-14.91,0-26.99-12.08-26.99-26.99s12.08-26.98,26.99-26.98,26.98,12.08,26.98,26.98-12.08,26.99-26.98,26.99Z"/><polygon class="cls-1" points="121.05 151.96 125.87 132.23 115.29 132.23 132.37 105.9 127.56 125.41 138.14 125.41 121.05 151.96"/></g></g></svg>