<?xml version="1.0" encoding="UTF-8"?><svg xmlns="http://www.w3.org/2000/svg" viewBox="0 0 257.86 257.86"><defs><style>.cls-1{fill:#0ae6c7;mix-blend-mode:multiply;}.cls-1,.cls-2{stroke-width:0px;}.cls-3{stroke-miterlimit:10;}.cls-3,.cls-4{fill:#fff;stroke:#000;}.cls-5{isolation:isolate;}.cls-4{stroke-linejoin:round;}</style></defs><g class="cls-5"><g id="Layer_1"><polygon class="cls-2" points="198.16 128.37 198.16 174.93 136.93 174.93 136.93 143.23 123.61 143.23 123.61 174.93 63.37 174.93 63.37 128.37 82.61 85.94 109.87 85.94 109.87 95.45 90.4 95.57 75.35 128.37 123.61 128.37 123.61 133.76 136.93 133.76 136.93 128.37 185.19 128.37 170.14 95.57 150.66 95.45 150.66 85.94 178.93 85.94 198.16 128.37"/><rect class="cls-3" x="59.71" y="125.36" width="60.24" height="46.56"/><rect class="cls-3" x="133.26" y="125.36" width="60.24" height="46.56"/><rect class="cls-3" x="119.94" y="130.75" width="13.32" height="9.47"/><polygon class="cls-4" points="59.71 125.36 78.94 82.94 106.21 82.94 106.21 92.45 86.73 92.56 71.68 125.36 59.71 125.36"/><polygon class="cls-4" points="193.5 125.36 174.26 82.94 147 82.94 147 92.45 166.47 92.56 181.52 125.36 193.5 125.36"/><rect class="cls-3" x="138.75" y="130.75" width="49.26" height="35.78"/><rect class="cls-3" x="65.19" y="130.75" width="49.26" height="35.78"/><polygon class="cls-1" points="77.21 166.53 92.71 130.75 102.44 130.75 87.22 166.53 77.21 166.53"/><polygon class="cls-1" points="150.77 166.53 166.27 130.75 175.99 130.75 160.77 166.53 150.77 166.53"/></g></g></svg>