<?xml version="1.0" encoding="UTF-8"?><svg id="Layer_1" xmlns="http://www.w3.org/2000/svg" viewBox="0 0 257.86 257.86"><defs><style>.cls-1{fill:none;stroke:#000;stroke-miterlimit:10;}.cls-2,.cls-3,.cls-4{stroke-width:0px;}.cls-3{fill:#2c4bff;}.cls-4{fill:#fff;}</style></defs><path class="cls-2" d="m191.8,160.91v-.22h.5v-64.87c0-2.03-.63-3.79-1.8-5.05-1.17-1.26-2.88-1.98-4.93-1.97h-111.26c-2.04,0-3.82.71-5.08,1.96-1.26,1.25-1.99,3.02-1.98,5.06v64.87h.5v.22h-12.03v9h145.23v-9h-9.15Z"/><path class="cls-4" d="m53.23,163.83v8h144.23v-8h-9.15v-1.22h.5v-64.37c0-1.91-.58-3.54-1.67-4.7-1.11-1.19-2.68-1.82-4.55-1.82h-111.28c-1.86,0-3.54.64-4.72,1.82-1.19,1.17-1.84,2.85-1.84,4.71v64.37h.5v1.22h-12.03Z"/><line class="cls-1" x1="162.13" y1="134.39" x2="204.33" y2="107.44"/><polyline class="cls-1" points="197.21 105.64 204.64 107.36 202.92 114.79"/><path class="cls-1" d="m64.76,160.27v-64.87c0-3.85,2.7-6.52,6.55-6.52h111.27c3.85,0,6.22,2.67,6.22,6.52v64.87m-117.49,5.09,111.27,0-.33-5.09v-62.65c0-1.28-.61-2.2-1.9-2.2h-106.81c-1.28,0-2.23.91-2.23,2.2v62.65"/><rect class="cls-1" x="53.22" y="160.99" width="144.23" height="7.99"/><line class="cls-1" x1="114.52" y1="164.99" x2="139.04" y2="164.99"/><circle class="cls-3" cx="88.93" cy="144.95" r="6.54"/><line class="cls-1" x1="93.42" y1="140.21" x2="126.78" y2="113.88"/><line class="cls-1" x1="126.78" y1="113.88" x2="162.13" y2="134.39"/><circle class="cls-3" cx="126.78" cy="113.88" r="6.54"/><circle class="cls-3" cx="162.13" cy="134.39" r="6.54"/></svg>