<?xml version="1.0" encoding="UTF-8"?><svg id="Layer_1" xmlns="http://www.w3.org/2000/svg" viewBox="0 0 257.86 257.86"><defs><style>.cls-1,.cls-2{stroke:#000;stroke-miterlimit:10;}.cls-2{fill:#fff;}.cls-3{fill:#0ae6c7;stroke-width:0px;}</style></defs><rect class="cls-1" x="177.59" y="93.84" width="20.43" height="42.96"/><path class="cls-1" d="m169.49,133.86l-2.61-2.01,4.59,4.74c2.27,2.34,2.21,6.06-.12,8.33-1.15,1.12-2.62,1.67-4.1,1.67s-3.08-.61-4.24-1.8l-6.88-7.1-.13.1,6.89,7.12c2.26,2.34,2.19,6.07-.14,8.34-1.14,1.11-2.62,1.66-4.1,1.66s-3.08-.6-4.23-1.8l-7.81-8.06-.14.11,7.82,8.08c2.26,2.34,2.21,6.06-.13,8.33-1.15,1.11-2.63,1.66-4.1,1.66s-3.08-.6-4.24-1.79l-8.74-9.02-.14.1,5.07,5.22c2.27,2.35,2.21,6.08-.13,8.34-1.15,1.11-2.63,1.66-4.1,1.66s-3.08-.6-4.24-1.79l-4.93-5.1-5.49,5.32c-2.34,2.26-6.08,2.2-8.34-.13-2.26-2.34-2.21-6.07.13-8.34l1.51-1.46-.13-.11-1.49,1.45c-2.34,2.27-6.07,2.21-8.34-.13-2.26-2.34-2.2-6.07.14-8.34l.59-.57-.14-.11-.58.56c-2.34,2.26-6.07,2.2-8.33-.14-1.86-1.91-2.15-4.75-.92-6.96h-30.38v-46.81h21.86c-2.43-3.94-1.88-8.12-1.88-8.12h52.11l30.56,8.51h12.14v38.39h-12.14Z"/><path class="cls-2" d="m166.89,148c-1.14,1.11-2.62,1.67-4.1,1.67s-3.08-.6-4.24-1.8l-6.88-7.1-.14.1,6.89,7.12c2.26,2.34,2.2,6.07-.14,8.34-1.14,1.11-2.62,1.67-4.1,1.67s-3.08-.6-4.24-1.8l-7.81-8.07-.15.11,7.83,8.08c2.26,2.34,2.21,6.07-.14,8.34-1.14,1.1-2.62,1.65-4.1,1.65s-3.08-.59-4.24-1.79l-8.74-9.02-.14.1,5.07,5.22c2.27,2.34,2.21,6.08-.14,8.34-1.14,1.11-2.62,1.67-4.1,1.67s-3.08-.6-4.24-1.79l-5.98-6.19-3.59,2.78-24.75-20.65h-32.38v-46.81h23.03l50.82,2.54,28.01,30.36-3.18,2.46,5.95,6.15c2.27,2.34,2.21,6.07-.13,8.34Z"/><path class="cls-2" d="m165.03,136.94h12.15v-38.39h-12.15l-30.56-8.51h-52.11s-1.96,15.01,18.02,15.01h17.95s5.56,16.22,26.13,16.02l20.57,15.87Z"/><rect class="cls-2" x="88.87" y="121.12" width="11.79" height="26.19" rx="5.89" ry="5.89" transform="translate(125.25 -27.23) rotate(45.92)"/><rect class="cls-2" x="97.19" y="129.72" width="11.79" height="26.19" rx="5.89" ry="5.89" transform="translate(133.96 -30.59) rotate(45.92)"/><rect class="cls-2" x="105.52" y="138.31" width="11.79" height="26.19" rx="5.89" ry="5.89" transform="translate(142.66 -33.96) rotate(45.92)"/><rect class="cls-2" x="111.93" y="151.39" width="11.79" height="20.89" rx="5.89" ry="5.89" transform="translate(152.11 -35.39) rotate(45.92)"/><rect class="cls-2" x="59.84" y="96.79" width="21.03" height="50.01"/><circle class="cls-3" cx="70.36" cy="139.05" r="2.77"/><rect class="cls-2" x="175.77" y="96.08" width="20.43" height="42.96"/><circle class="cls-3" cx="185.98" cy="103.05" r="2.77"/></svg>