<?xml version="1.0" encoding="UTF-8"?><svg id="Layer_1" xmlns="http://www.w3.org/2000/svg" viewBox="0 0 257.86 257.86"><defs><style>.cls-1{fill:#fff;stroke:#231f20;}.cls-1,.cls-2,.cls-3{stroke-miterlimit:10;}.cls-2{stroke:#000;}.cls-2,.cls-3{fill:none;}.cls-3{stroke:#fff;}.cls-4{fill:#0ae6c7;}.cls-4,.cls-5{stroke-width:0px;}.cls-5{fill:#231f20;}</style></defs><path class="cls-5" d="m157.2,144.39c-2.42,3.18-5.36,5.72-7.46,9.17-2.23,3.7-3.76,7.84-4.14,12.15l-.14.56c.77.3,1.37.98,1.56,1.86.04.18.06.37.06.55,0,1.19-.83,2.27-2.06,2.53l-.79.17c1.3-.13,2.51.74,2.79,2.04.04.18.06.37.06.55,0,1.19-.83,2.27-2.06,2.53l-1.08.26c1.4-.3,2.78.59,3.08,1.99.04.18.06.37.06.55,0,1.19-.83,2.27-2.06,2.53l-4.15.89-.24.81c-.08,4.42-3.72,7.94-8.14,7.86-3.42-.06-6.3-2.26-7.38-5.3l-3.75.8c-1.4.3-2.78-.6-3.08-2-.04-.18-.06-.37-.06-.55,0-1.19.83-2.27,2.06-2.53l1.08-.26c-1.4.3-2.78-.59-3.08-1.99-.04-.18-.06-.37-.06-.55,0-1.19.83-2.27,2.06-2.53l.93-.2c-1.35.22-2.64-.66-2.93-2.01-.04-.18-.06-.37-.06-.55,0-.86.43-1.66,1.12-2.13l-.09-.23c.43-8.6-3.29-17.36-8.79-23.84-5.78-6.83-9.83-13.8-9.83-23.07,0-18.31,15.49-33.01,34.08-31.72,15.73,1.1,28.44,13.89,29.45,29.63.51,7.93-2.17,15.75-6.96,22.03Z"/><path class="cls-1" d="m137.29,183.14c.02.23.02.46.02.7-.08,4.42-3.72,7.93-8.14,7.86-3.42-.06-6.3-2.26-7.39-5.3"/><path class="cls-1" d="m160.84,122.67c.51,7.93-2.18,15.75-6.96,22.03-2.42,3.18-5.37,5.72-7.46,9.17-2.24,3.69-3.76,7.83-4.15,12.15,0,0-26.35,5.65-26.35,5.65.43-8.6-3.29-17.36-8.79-23.85-5.79-6.83-9.83-13.8-9.83-23.06,0-18.31,15.49-33.02,34.08-31.72,15.73,1.1,28.44,13.89,29.45,29.63Z"/><line class="cls-2" x1="129.1" y1="66.16" x2="129.1" y2="81.83"/><line class="cls-2" x1="187.29" y1="124.19" x2="171.62" y2="124.19"/><line class="cls-2" x1="170.35" y1="82.89" x2="159.27" y2="93.98"/><line class="cls-2" x1="170.35" y1="165.34" x2="159.27" y2="154.26"/><line class="cls-2" x1="70.57" y1="124.19" x2="86.24" y2="124.19"/><line class="cls-2" x1="87.51" y1="82.89" x2="98.6" y2="93.98"/><line class="cls-2" x1="87.51" y1="165.34" x2="98.6" y2="154.26"/><rect class="cls-1" x="114.63" y="168.91" width="29.39" height="5.19" rx="2.6" ry="2.6" transform="translate(-32.97 30.8) rotate(-12.06)"/><rect class="cls-1" x="114.63" y="174.2" width="29.39" height="5.19" rx="2.6" ry="2.6" transform="translate(-34.08 30.92) rotate(-12.06)"/><rect class="cls-1" x="114.63" y="179.53" width="29.39" height="5.19" rx="2.6" ry="2.6" transform="translate(-35.19 31.03) rotate(-12.06)"/><path class="cls-1" d="m141.89,107.26c5.49,3.89,9.07,10.29,9.07,17.53"/><path class="cls-1" d="m129.5,103.33c3.55,0,6.9.86,9.85,2.39"/><polygon class="cls-4" points="133.43 167.41 133.43 158.21 137.95 136.27 129.1 141.13 120.3 136.27 124.82 158.21 124.82 169.25 133.43 167.41"/><line class="cls-3" x1="124.56" y1="158.21" x2="133.69" y2="158.21"/></svg>