<?xml version="1.0" encoding="UTF-8"?><svg id="Layer_1" xmlns="http://www.w3.org/2000/svg" viewBox="0 0 257.86 257.86"><defs><style>.cls-1{stroke-width:.92px;}.cls-1,.cls-2,.cls-3,.cls-4{stroke-miterlimit:10;}.cls-1,.cls-2,.cls-4{stroke:#000;}.cls-2,.cls-4{fill:#fff;}.cls-3{fill:none;stroke:#0ae6c7;}.cls-4{stroke-width:.73px;}</style></defs><path class="cls-1" d="m173.62,87.61c-9.15-9.15-23.99-9.15-33.15,0l-20.95,20.95c-1.43,1.43-2.63,2.99-3.61,4.66h-.01c-1.67.99-3.24,2.2-4.67,3.63l-20.95,20.95c-4.58,4.58-6.87,10.57-6.87,16.57s2.29,11.99,6.87,16.56c9.15,9.15,23.98,9.15,33.14,0l20.96-20.95c1.44-1.44,2.64-3,3.62-4.67,1.66-.98,3.23-2.19,4.66-3.62l20.96-20.95c4.58-4.58,6.87-10.57,6.87-16.56s-2.29-12-6.87-16.57Zm-50.47,32.87c4.77-1.15,10.01.14,13.73,3.87,2.85,2.85,4.27,6.58,4.27,10.31,0,1.15-.14,2.29-.41,3.42-4.76,1.15-10.01-.15-13.73-3.87-2.85-2.85-4.27-6.58-4.27-10.31,0-1.15.14-2.29.41-3.42Zm-4.74,42.97c-5.69,5.7-14.93,5.7-20.63,0-2.85-2.85-4.27-6.58-4.27-10.31s1.43-7.47,4.27-10.32l15.03-15.03c.57,5.08,2.81,10.02,6.71,13.92,3.9,3.9,8.83,6.14,13.92,6.71l-15.03,15.03Zm47.71-47.71l-15.02,15.02c-.57-5.09-2.81-10.01-6.71-13.9-3.9-3.9-8.84-6.14-13.93-6.71l15.03-15.03c5.7-5.7,14.94-5.7,20.63,0,2.85,2.85,4.27,6.58,4.27,10.31s-1.43,7.46-4.27,10.32Z"/><path class="cls-4" d="m146.9,129.71l-10.35,7.32c-.6,2.52-1.9,4.92-3.87,6.9l-3.44,3.44,14.56-3.1c2.17-3.65,3.25-7.78,3.25-11.89,0-.89-.05-1.78-.16-2.67Z"/><path class="cls-2" d="m176.3,103.14c0,5.99-2.29,11.99-6.87,16.56l-20.96,20.95c-1.43,1.43-3,2.64-4.66,3.62,2.17-3.65,3.25-7.78,3.25-11.89,0-.89-.05-1.78-.16-2.67l15.02-15.02c2.85-2.86,4.27-6.59,4.27-10.32s-1.43-7.46-4.27-10.31c-5.69-5.7-14.93-5.7-20.63,0l-15.03,15.03-3.44,3.44c-1.97,1.97-3.26,4.37-3.87,6.9-.27,1.13-.41,2.27-.41,3.42,0,3.73,1.43,7.46,4.27,10.31,3.72,3.72,8.96,5.01,13.73,3.87-.6,2.52-1.9,4.92-3.87,6.9l-3.44,3.44c-5.09-.57-10.02-2.81-13.92-6.71-3.9-3.9-6.14-8.84-6.71-13.92-.1-.89-.16-1.76-.16-2.65,0-4.13,1.08-8.26,3.25-11.9h.01c.98-1.68,2.18-3.24,3.61-4.67l20.95-20.95c9.15-9.15,23.99-9.15,33.15,0,4.58,4.58,6.87,10.57,6.87,16.57Z"/><path class="cls-2" d="m146.9,129.71c-.57-5.09-2.81-10.01-6.71-13.9-3.9-3.9-8.84-6.14-13.93-6.71l-3.44,3.44c-1.97,1.97-3.26,4.37-3.87,6.9,4.77-1.15,10.01.14,13.73,3.87,2.85,2.85,4.27,6.58,4.27,10.31,0,1.15-.14,2.29-.41,3.42-.6,2.52-1.9,4.92-3.87,6.9l-3.44,3.44-15.03,15.03c-5.69,5.7-14.93,5.7-20.63,0-2.85-2.85-4.27-6.58-4.27-10.31s1.43-7.47,4.27-10.32l15.03-15.03c-.1-.89-.16-1.76-.16-2.65,0-4.13,1.08-8.26,3.25-11.9-1.67.98-3.24,2.19-4.67,3.62l-20.95,20.95c-4.58,4.58-6.87,10.57-6.87,16.57s2.29,11.99,6.87,16.56c9.15,9.15,23.98,9.15,33.14,0l20.96-20.95c1.44-1.44,2.64-3,3.62-4.67,2.17-3.65,3.25-7.78,3.25-11.89,0-.89-.05-1.78-.16-2.67Z"/><line class="cls-3" x1="79.63" y1="79.74" x2="97.3" y2="97.41"/><line class="cls-3" x1="89.46" y1="109.19" x2="76.21" y2="105.06"/><line class="cls-3" x1="110.8" y1="89.1" x2="105.75" y2="76.17"/><line class="cls-3" x1="178.23" y1="178.12" x2="160.56" y2="160.45"/><line class="cls-3" x1="168.4" y1="148.67" x2="181.65" y2="152.8"/><line class="cls-3" x1="147.06" y1="168.77" x2="152.12" y2="181.69"/></svg>