<?xml version="1.0" encoding="UTF-8"?><svg xmlns="http://www.w3.org/2000/svg" viewBox="0 0 257.86 257.86"><defs><style>.cls-1{mix-blend-mode:multiply;}.cls-2{fill:#fff;stroke:#000;stroke-miterlimit:10;}.cls-3,.cls-4{stroke-width:0px;}.cls-5{isolation:isolate;}.cls-4{fill:#0ae6c7;}</style></defs><g class="cls-5"><g id="Layer_1"><path class="cls-3" d="m182.04,113.74c0,10.34-3.12,19.95-8.48,27.95-.36.53-.72,1.06-1.11,1.58l-2.78,3.5-37.88,47.6-36.77-46.37-4.99-6.3h0c-5.36-8-8.48-17.61-8.48-27.96,0-27.75,22.5-50.25,50.25-50.25s50.25,22.5,50.25,50.25Z"/><path class="cls-2" d="m176.32,113.74c0,10.34-3.12,19.95-8.48,27.95-.36.53-.72,1.06-1.11,1.58l-2.78,3.5-37.88,47.6-36.77-46.37-4.99-6.3h0c-5.36-8-8.48-17.61-8.48-27.96,0-27.75,22.5-50.25,50.25-50.25s50.25,22.5,50.25,50.25Z"/><circle class="cls-2" cx="126.07" cy="112.87" r="29.31"/><g class="cls-1"><path class="cls-4" d="m126.04,99.6c-5.26,0-9.52,4.27-9.52,9.53s4.26,9.52,9.52,9.52,9.52-4.27,9.52-9.52-4.26-9.53-9.52-9.53Z"/><path class="cls-4" d="m126.03,122.19c-8.64,0-15.99,5.5-18.77,13.19,5.12,4.19,11.67,6.71,18.8,6.71s13.63-2.5,18.75-6.66c-2.76-7.71-10.12-13.23-18.79-13.23Z"/></g></g></g></svg>