<?xml version="1.0" encoding="UTF-8"?><svg xmlns="http://www.w3.org/2000/svg" viewBox="0 0 257.86 257.86"><defs><style>.cls-1{fill:#0ae6c7;mix-blend-mode:multiply;stroke-width:0px;}.cls-2,.cls-3{stroke:#000;stroke-miterlimit:10;}.cls-3{fill:#fff;}.cls-4{isolation:isolate;}</style></defs><g class="cls-4"><g id="Layer_1"><path class="cls-2" d="m178.34,162.72l-11.83,11.84-26.43-26.43c-5.84,4.22-13.02,6.71-20.78,6.71-19.64,0-35.56-15.92-35.56-35.56s15.92-35.56,35.56-35.56,35.56,15.92,35.56,35.56c0,5.8-1.39,11.27-3.85,16.11l27.33,27.33Z"/><rect class="cls-3" x="145.32" y="133.18" width="16.74" height="41.06" transform="translate(-63.67 153.69) rotate(-45)"/><circle class="cls-3" cx="115.08" cy="118.87" r="35.56"/><path class="cls-3" d="m142.09,118.86c0,14.91-12.09,27-27.01,27-1.15,0-2.28-.07-3.39-.21-5.07-.63-9.71-2.67-13.51-5.73-6.16-4.95-10.1-12.54-10.1-21.06,0-14.91,12.09-27,27-27,1.3,0,2.57.1,3.81.26,4.92.7,9.43,2.73,13.12,5.71,6.14,4.95,10.07,12.53,10.07,21.03Z"/><path class="cls-3" d="m115.08,97.7c1.02,0,2.01.07,2.99.21,3.86.55,7.39,2.14,10.29,4.47,4.81,3.88,7.9,9.83,7.9,16.49"/><path class="cls-1" d="m135.46,101.14l-28.42,43.5c-4.88-1.52-9.09-4.34-12.29-8.01l28.79-43.41c4.73,1.55,8.8,4.34,11.92,7.93Z"/></g></g></svg>