<?xml version="1.0" encoding="UTF-8"?><svg id="Layer_1" xmlns="http://www.w3.org/2000/svg" viewBox="0 0 257.86 257.86"><defs><style>.cls-1{fill:none;stroke:#000;stroke-miterlimit:10;}.cls-2,.cls-3,.cls-4{stroke-width:0px;}.cls-3{fill:#2c4bff;}.cls-4{fill:#fff;}</style></defs><polygon class="cls-2" points="162.34 103.03 162.34 77.86 99.44 77.86 99.44 103.1 76.91 114.02 76.91 176.08 184.86 176.08 184.86 114.02 162.34 103.03"/><polygon class="cls-4" points="158.42 106.95 158.42 81.78 95.52 81.78 95.52 107.01 73 117.94 73 180 180.95 180 180.95 117.94 158.42 106.95"/><polygon class="cls-3" points="96.39 106.99 96.39 128.83 73.87 117.92 96.39 106.99"/><polygon class="cls-3" points="180.51 117.92 157.99 128.91 157.99 106.91 180.51 117.92"/><path class="cls-3" d="m127.19,121.01c.96,0,1.73.3,2.33.89.59.59.89,1.37.89,2.33s-.3,1.73-.89,2.33c-.6.59-1.37.89-2.33.89s-1.73-.3-2.33-.89c-.59-.6-.89-1.37-.89-2.33s.3-1.73.89-2.33c.6-.6,1.37-.89,2.33-.89Zm2.08-26.75v14.17l-.6,8.22h-2.97l-.6-8.22v-14.17h4.16Z"/><polyline class="cls-1" points="96.17 106.99 73.65 117.91 73.65 178.91 180.3 178.91 180.3 117.91 157.78 106.92"/><polyline class="cls-1" points="180.3 117.91 127.14 143.87 73.65 117.91"/><line class="cls-1" x1="131.64" y1="141.67" x2="180.3" y2="178.91"/><line class="cls-1" x1="73.65" y1="178.91" x2="122.61" y2="141.67"/><polyline class="cls-1" points="96.17 128.84 96.17 82 157.78 82 157.78 128.91"/></svg>