<?xml version="1.0" encoding="UTF-8"?><svg id="Layer_1" xmlns="http://www.w3.org/2000/svg" viewBox="0 0 257.86 257.86"><defs><style>.cls-1{fill:#fff;stroke:#000;stroke-miterlimit:10;}.cls-2,.cls-3{stroke-width:0px;}.cls-3{fill:#2b4bff;}</style></defs><polygon class="cls-2" points="183.03 77.69 80.56 77.69 80.56 144.52 98.34 144.52 98.39 174.44 135.43 144.52 183.03 144.52 183.03 77.69"/><polygon class="cls-1" points="177.3 83.42 74.83 83.42 74.83 150.25 92.61 150.25 92.66 180.17 129.7 150.25 177.3 150.25 177.3 83.42"/><path class="cls-3" d="m126.06,95.76c-5.77,0-10.43,4.68-10.43,10.44s4.67,10.44,10.43,10.44,10.43-4.68,10.43-10.44-4.67-10.44-10.43-10.44Z"/><path class="cls-3" d="m150.27,140.09h-48.34s-.04-.03-.07-.06c3.59-9.91,13.05-17,24.18-17s20.65,7.13,24.22,17.06Z"/></svg>