<?xml version="1.0" encoding="UTF-8"?><svg id="Layer_1" xmlns="http://www.w3.org/2000/svg" viewBox="0 0 257.86 257.86"><defs><style>.cls-1{fill:#fff;}.cls-1,.cls-2{stroke:#231f20;}.cls-1,.cls-2,.cls-3{stroke-miterlimit:10;}.cls-2,.cls-3{fill:none;}.cls-3{stroke:#000;}.cls-4,.cls-5{stroke-width:0px;}.cls-5{fill:#0ae6c7;}</style></defs><rect class="cls-4" x="70.95" y="93.68" width="121.09" height="65.57"/><rect class="cls-1" x="65.82" y="98.61" width="121.09" height="65.57"/><path class="cls-3" d="m145.54,131.4c0,10.59-8.58,19.18-19.18,19.18s-19.19-8.59-19.19-19.18,8.59-19.19,19.19-19.19,19.18,8.59,19.18,19.19Z"/><path class="cls-5" d="m133.53,132.69c-.78-.89-2.15-1.54-4.1-1.97l-1.63-.36-2.2-.49-.61-.14c-.89-.21-1.59-.47-2.09-.78s-.85-.66-1.04-1.07c-.19-.4-.29-.85-.29-1.34,0-.64.17-1.21.51-1.72.34-.51.87-.92,1.57-1.23.53-.24,1.18-.38,1.95-.43.24-.02.49-.03.76-.03.51,0,.99.04,1.44.11.76.13,1.45.37,2.06.72.97.55,1.82,1.49,2.57,2.81l2.07-1.6c-.85-1.45-1.93-2.53-3.24-3.26-1.01-.56-2.17-.9-3.46-1.02-.38-.04-.77-.06-1.18-.06-.35,0-.69.01-1.02.04-1.17.1-2.2.36-3.08.79-1.14.55-2.02,1.29-2.62,2.2-.61.92-.91,1.93-.91,3.03,0,.81.17,1.56.51,2.25.34.7.89,1.29,1.66,1.79.76.5,1.79.9,3.06,1.2l1.38.31,2.2.5,1.21.27c1.19.28,2.01.68,2.44,1.2.44.52.66,1.11.66,1.77,0,1.11-.47,1.95-1.39,2.52-.76.47-1.73.75-2.92.84-.26.02-.54.03-.83.03-.48,0-.94-.03-1.37-.1-.59-.08-1.13-.21-1.63-.41-.88-.34-1.62-.81-2.24-1.41-.61-.59-1.13-1.28-1.53-2.04l-2.17,1.75c.51.85,1.17,1.62,1.98,2.3s1.78,1.23,2.9,1.63c.81.29,1.7.48,2.69.55.39.04.79.06,1.21.06.34,0,.67-.01.99-.04,1.19-.08,2.24-.32,3.17-.71,1.19-.5,2.1-1.2,2.75-2.09.65-.9.97-1.93.97-3.1,0-1.3-.39-2.39-1.16-3.27Zm-7.93-15.02v27.45h2.2v-27.45h-2.2Z"/><path class="cls-2" d="m88.09,98.61c0,12.27-9.95,22.22-22.22,22.22h-.05v-22.22h22.27Z"/><path class="cls-2" d="m88.09,164.18h-22.27v-22.22h.05c12.27,0,22.22,9.95,22.22,22.22Z"/><path class="cls-2" d="m186.91,98.61v22.22c-12.28,0-22.22-9.95-22.22-22.22h22.22Z"/><path class="cls-2" d="m186.91,141.96v22.22h-22.22c0-12.27,9.94-22.22,22.22-22.22Z"/><path class="cls-2" d="m108.77,107.97s-18.91,23.33,0,45.09"/><path class="cls-2" d="m143.56,107.97s18.91,23.33,0,45.09"/></svg>