<?xml version="1.0" encoding="UTF-8"?><svg id="Layer_1" xmlns="http://www.w3.org/2000/svg" viewBox="0 0 257.86 257.86"><defs><style>.cls-1{letter-spacing:-.02em;}.cls-2,.cls-3{stroke:#000;stroke-miterlimit:10;}.cls-3{fill:#fff;}.cls-4{fill:#2b4bff;font-family:WorkSans-SemiBold, 'Work Sans';font-size:22.28px;font-weight:600;}</style></defs><path class="cls-2" d="m127.45,79.17c1.89-2.68,5.87-2.68,7.77,0l6.36,9.01c1.22,1.72,3.42,2.44,5.41,1.76l10.45-3.55c3.11-1.06,6.33,1.28,6.28,4.57l-.15,11.03c-.03,2.11,1.33,3.98,3.35,4.61l10.54,3.27c3.14.97,4.37,4.76,2.4,7.39l-6.61,8.84c-1.26,1.69-1.26,4.01,0,5.69l6.61,8.84c1.97,2.63.74,6.42-2.4,7.39l-10.54,3.27c-2.01.62-3.38,2.5-3.35,4.61l.15,11.03c.05,3.28-3.17,5.62-6.28,4.57l-10.45-3.55c-2-.68-4.2.04-5.41,1.76l-6.36,9.01c-1.89,2.68-5.87,2.68-7.77,0l-6.36-9.01c-1.22-1.72-3.42-2.44-5.41-1.76l-10.45,3.55c-3.11,1.06-6.33-1.28-6.28-4.57l.15-11.03c.03-2.11-1.33-3.98-3.35-4.61l-10.54-3.27c-3.14-.97-4.37-4.76-2.4-7.39l6.61-8.84c1.26-1.69,1.26-4.01,0-5.69l-6.61-8.84c-1.97-2.63-.74-6.42,2.4-7.39l10.54-3.27c2.01-.62,3.38-2.5,3.35-4.61l-.15-11.03c-.05-3.28,3.17-5.62,6.28-4.57l10.45,3.55c2,.68,4.2-.04,5.41-1.76l6.36-9.01Z"/><path class="cls-3" d="m122.65,79.17c1.89-2.68,5.87-2.68,7.77,0l6.36,9.01c1.22,1.72,3.42,2.44,5.41,1.76l10.45-3.55c3.11-1.06,6.33,1.28,6.28,4.57l-.15,11.03c-.03,2.11,1.33,3.98,3.35,4.61l10.54,3.27c3.14.97,4.37,4.76,2.4,7.39l-6.61,8.84c-1.26,1.69-1.26,4.01,0,5.69l6.61,8.84c1.97,2.63.74,6.42-2.4,7.39l-10.54,3.27c-2.01.62-3.38,2.5-3.35,4.61l.15,11.03c.05,3.28-3.17,5.62-6.28,4.57l-10.45-3.55c-2-.68-4.2.04-5.41,1.76l-6.36,9.01c-1.89,2.68-5.87,2.68-7.77,0l-6.36-9.01c-1.22-1.72-3.42-2.44-5.41-1.76l-10.45,3.55c-3.11,1.06-6.33-1.28-6.28-4.57l.15-11.03c.03-2.11-1.33-3.98-3.35-4.61l-10.54-3.27c-3.14-.97-4.37-4.76-2.4-7.39l6.61-8.84c1.26-1.69,1.26-4.01,0-5.69l-6.61-8.84c-1.97-2.63-.74-6.42,2.4-7.39l10.54-3.27c2.01-.62,3.38-2.5,3.35-4.61l-.15-11.03c-.05-3.28,3.17-5.62,6.28-4.57l10.45,3.55c2,.68,4.2-.04,5.41-1.76l6.36-9.01Z"/><text class="cls-4" transform="translate(100.68 135.62)"><tspan x="0" y="0">NE</tspan><tspan class="cls-1" x="30.56" y="0">W</tspan></text></svg>