<?xml version="1.0" encoding="UTF-8"?><svg id="Layer_1" xmlns="http://www.w3.org/2000/svg" viewBox="0 0 257.86 257.86"><defs><style>.cls-1,.cls-2{stroke:#000;stroke-miterlimit:10;}.cls-1,.cls-3{fill:#fff;}.cls-2{fill:none;}.cls-4,.cls-5,.cls-3{stroke-width:0px;}.cls-5{fill:#2b4bff;}</style></defs><path class="cls-4" d="m175.96,141.08h-19.73l1.88,2.77c.6.91.88,1.94.88,2.96,0,1.64-.75,3.27-2.16,4.33-2.22,1.66-5.33,1.39-7.22-.63l-1.72-1.83-.12.11c.45.82.67,1.72.67,2.62,0,1.64-.75,3.27-2.16,4.33-2.22,1.66-5.33,1.39-7.22-.63l-1.1-1.17c-.05.23-.11.46-.17.69-1.56,6.02-5.23,12.74-13.42,17.19l-5.62,7.66-32.95-7.66,8.51-48.91s3.75-15.01,13.75-17.51l17.19-6.82v-23.52h50.71v66.02Z"/><path class="cls-3" d="m172.07,144.25h-19.73l1.88,2.77c.6.91.88,1.94.88,2.96,0,1.64-.75,3.27-2.16,4.33-2.22,1.66-5.33,1.39-7.22-.63l-1.72-1.83-.12.11c.45.82.67,1.72.67,2.62,0,1.64-.75,3.27-2.16,4.33-2.22,1.66-5.33,1.39-7.22-.63l-1.1-1.17c-.05.23-.11.46-.17.69-1.56,6.02-5.23,12.74-13.42,17.19l-5.62,7.66-32.95-7.66,8.51-48.91s3.75-15.01,13.75-17.51l17.19-6.82v-23.52h50.71v66.02Z"/><rect class="cls-1" x="121.36" y="78.39" width="50.71" height="66.01"/><rect class="cls-5" x="158.76" y="78.89" width="7.21" height="65"/><line class="cls-2" x1="130.88" y1="85.42" x2="130.88" y2="99.79"/><path class="cls-2" d="m81.91,175.14l8.51-48.91s3.75-15.01,13.75-17.51l17.19-6.82"/><path class="cls-1" d="m114.85,142.48l17.72-26.58c2.33-3.49,6.99-4.52,10.57-2.34h0c3.6,2.19,4.82,6.83,2.76,10.5l-11.34,20.3s4.04,20.94-14.09,30.79l-5.63,7.66"/><path class="cls-2" d="m134.06,157.26l1.1,1.18c1.89,2.02,5,2.29,7.22.63h0c2.28-1.71,2.84-4.9,1.29-7.29l-4.78-7.37"/><path class="cls-2" d="m143.45,151.42l2.26,2.42c1.89,2.02,5,2.29,7.22.63h0c2.28-1.71,2.84-4.9,1.29-7.29l-1.88-2.77"/><line class="cls-2" x1="121.36" y1="132.72" x2="114.85" y2="130.53"/></svg>