<?xml version="1.0" encoding="UTF-8"?><svg xmlns="http://www.w3.org/2000/svg" viewBox="0 0 257.86 257.86"><defs><style>.cls-1{mix-blend-mode:multiply;}.cls-2{stroke:#000;stroke-miterlimit:10;}.cls-2,.cls-3{fill:#fff;}.cls-4,.cls-5,.cls-6,.cls-3{stroke-width:0px;}.cls-7{isolation:isolate;}.cls-5{fill:#2b4bff;}.cls-6{fill:#0ae6c7;}</style></defs><g class="cls-7"><g id="Layer_1"><circle class="cls-4" cx="131.25" cy="127.12" r="48.71"/><circle class="cls-2" cx="126.62" cy="130.75" r="48.71"/><g class="cls-1"><path class="cls-6" d="m126.56,108.7c-8.74,0-15.82,7.09-15.82,15.83s7.08,15.83,15.82,15.83,15.81-7.09,15.81-15.83-7.08-15.83-15.81-15.83Z"/><path class="cls-6" d="m126.55,146.24c-14.36,0-26.57,9.14-31.18,21.91,8.51,6.96,19.39,11.14,31.25,11.14s22.65-4.15,31.15-11.07c-4.59-12.81-16.82-21.99-31.22-21.99Z"/></g><path class="cls-5" d="m95.37,149.18c0,7.08-5.74,12.83-12.83,12.83s-12.84-5.75-12.84-12.83,5.75-12.84,12.84-12.84,12.83,5.75,12.83,12.84Z"/><path class="cls-3" d="m82.93,143.22l1.81,3.66,4.04.59c.36.05.5.49.24.75l-2.92,2.85.69,4.02c.06.36-.31.63-.64.46l-3.61-1.9-3.61,1.9c-.32.17-.7-.1-.64-.46l.69-4.02-2.92-2.85c-.26-.25-.12-.69.24-.75l4.04-.59,1.81-3.66c.16-.33.62-.33.79,0Z"/></g></g></svg>