<?xml version="1.0" encoding="UTF-8"?><svg xmlns="http://www.w3.org/2000/svg" viewBox="0 0 257.86 257.86"><defs><style>.cls-1{fill:#0ae6c7;mix-blend-mode:multiply;}.cls-1,.cls-2{stroke-width:0px;}.cls-3{stroke-dasharray:0 0 6 3;}.cls-3,.cls-4,.cls-5{stroke:#000;stroke-miterlimit:10;}.cls-3,.cls-5{fill:none;}.cls-4{fill:#fff;}.cls-6{isolation:isolate;}</style></defs><g class="cls-6"><g id="Layer_1"><circle class="cls-2" cx="159.54" cy="158.72" r="25.96"/><circle class="cls-2" cx="101.32" cy="96.14" r="25.96"/><circle class="cls-4" cx="156.54" cy="161.72" r="25.96"/><circle class="cls-4" cx="98.32" cy="99.14" r="25.96"/><path class="cls-1" d="m156.51,154.15c-3.06,0-5.54,2.49-5.54,5.55s2.48,5.55,5.54,5.55,5.54-2.48,5.54-5.55-2.48-5.55-5.54-5.55Z"/><path class="cls-1" d="m156.51,169.98c-7.65,0-14.16,4.87-16.62,11.68,4.54,3.71,10.33,5.94,16.65,5.94s12.07-2.21,16.6-5.9c-2.45-6.83-8.96-11.72-16.64-11.72Z"/><path class="cls-1" d="m98.29,91.57c-3.06,0-5.54,2.49-5.54,5.55s2.48,5.55,5.54,5.55,5.54-2.48,5.54-5.55-2.48-5.55-5.54-5.55Z"/><path class="cls-1" d="m98.29,107.39c-7.65,0-14.16,4.87-16.62,11.68,4.54,3.71,10.33,5.94,16.65,5.94s12.07-2.21,16.6-5.9c-2.45-6.83-8.96-11.72-16.64-11.72Z"/><polyline class="cls-3" points="90.01 123.79 90.01 164.58 124.54 164.58"/><polyline class="cls-5" points="120.07 159.19 125.39 164.66 119.92 169.98"/><polyline class="cls-3" points="167.09 135.77 167.09 94.97 132.56 94.97"/><polyline class="cls-5" points="137.03 100.37 131.71 94.9 137.18 89.58"/></g></g></svg>