<?xml version="1.0" encoding="UTF-8"?><svg id="Layer_1" xmlns="http://www.w3.org/2000/svg" viewBox="0 0 257.86 257.86"><defs><style>.cls-1{fill:#fff;stroke:#000;stroke-miterlimit:10;}.cls-2,.cls-3{stroke-width:0px;}.cls-3{fill:#0ae6c7;}</style></defs><rect class="cls-2" x="97.06" y="73.51" width="68.81" height="105.62" rx="3.07" ry="3.07"/><rect class="cls-1" x="91.99" y="78.73" width="68.81" height="105.62" rx="3.07" ry="3.07"/><line class="cls-1" x1="91.99" y1="179.21" x2="160.8" y2="179.21"/><path class="cls-1" d="m109.57,78.73h33.66v3.82c0,1.09-.88,1.97-1.97,1.97h-29.73c-1.09,0-1.97-.88-1.97-1.97v-3.82h0Z"/><line class="cls-1" x1="120.75" y1="81.62" x2="132.05" y2="81.62"/><path class="cls-3" d="m167.44,130.23h-35.92c-6.1,0-11.05,4.95-11.05,11.05h0v16.73l11.05-5.68h35.92c6.1,0,11.05-4.95,11.05-11.05h0c0-6.1-4.95-11.05-11.05-11.05Z"/><rect class="cls-1" x="100.99" y="98.36" width="50.82" height="22.58"/><rect class="cls-1" x="100.99" y="160.57" width="50.82" height="8.59" rx="4.3" ry="4.3"/><path class="cls-2" d="m133.4,145.53c-.62,0-1.16-.08-1.64-.25-.47-.17-.88-.4-1.22-.68-.34-.29-.62-.61-.83-.97l.91-.74c.17.32.38.61.64.86.26.25.57.45.94.59.37.14.79.21,1.26.21.66,0,1.19-.12,1.58-.36s.58-.59.58-1.06c0-.28-.09-.53-.27-.74-.18-.22-.53-.39-1.03-.5l-2.01-.46c-.54-.13-.97-.29-1.29-.5-.32-.21-.55-.46-.7-.75s-.21-.61-.21-.95c0-.46.13-.89.38-1.27.25-.38.62-.69,1.1-.93.48-.23,1.05-.35,1.72-.35.75,0,1.4.15,1.95.46.55.3,1,.76,1.36,1.37l-.87.67c-.31-.55-.67-.95-1.08-1.18-.41-.23-.9-.35-1.47-.35-.46,0-.84.06-1.14.19-.3.13-.51.3-.66.52-.14.21-.21.46-.21.72,0,.21.04.39.12.56.08.17.23.32.44.45.21.13.5.24.88.33l1.86.42c.82.18,1.4.45,1.72.82.33.37.49.83.49,1.37,0,.49-.14.93-.41,1.3-.27.38-.66.67-1.15.88-.5.21-1.08.32-1.75.32Zm-.51,1.35v-11.53h.93v11.53h-.93Z"/><path class="cls-2" d="m144.36,145.53c-.62,0-1.16-.08-1.64-.25-.47-.17-.88-.4-1.22-.68-.34-.29-.62-.61-.83-.97l.91-.74c.17.32.38.61.64.86.26.25.57.45.94.59.37.14.79.21,1.26.21.66,0,1.19-.12,1.58-.36s.58-.59.58-1.06c0-.28-.09-.53-.27-.74-.18-.22-.53-.39-1.03-.5l-2.01-.46c-.54-.13-.97-.29-1.29-.5-.32-.21-.55-.46-.7-.75s-.21-.61-.21-.95c0-.46.13-.89.38-1.27.25-.38.62-.69,1.1-.93.48-.23,1.05-.35,1.72-.35.75,0,1.4.15,1.95.46.55.3,1,.76,1.36,1.37l-.87.67c-.31-.55-.67-.95-1.08-1.18-.41-.23-.9-.35-1.47-.35-.46,0-.84.06-1.14.19-.3.13-.51.3-.66.52-.14.21-.21.46-.21.72,0,.21.04.39.12.56.08.17.23.32.44.45.21.13.5.24.88.33l1.86.42c.82.18,1.4.45,1.72.82.33.37.49.83.49,1.37,0,.49-.14.93-.41,1.3-.27.38-.66.67-1.15.88-.5.21-1.08.32-1.75.32Zm-.51,1.35v-11.53h.93v11.53h-.93Z"/><path class="cls-2" d="m155.32,145.53c-.62,0-1.16-.08-1.64-.25-.47-.17-.88-.4-1.22-.68-.34-.29-.62-.61-.83-.97l.91-.74c.17.32.38.61.64.86.26.25.57.45.94.59.37.14.79.21,1.26.21.66,0,1.19-.12,1.58-.36s.58-.59.58-1.06c0-.28-.09-.53-.27-.74-.18-.22-.53-.39-1.03-.5l-2.01-.46c-.54-.13-.97-.29-1.29-.5-.32-.21-.55-.46-.7-.75s-.21-.61-.21-.95c0-.46.13-.89.38-1.27.25-.38.62-.69,1.1-.93.48-.23,1.05-.35,1.72-.35.75,0,1.4.15,1.95.46.55.3,1,.76,1.36,1.37l-.87.67c-.31-.55-.67-.95-1.08-1.18-.41-.23-.9-.35-1.47-.35-.46,0-.84.06-1.14.19-.3.13-.51.3-.66.52-.14.21-.21.46-.21.72,0,.21.04.39.12.56.08.17.23.32.44.45.21.13.5.24.88.33l1.86.42c.82.18,1.4.45,1.72.82.33.37.49.83.49,1.37,0,.49-.14.93-.41,1.3-.27.38-.66.67-1.15.88-.5.21-1.08.32-1.75.32Zm-.51,1.35v-11.53h.93v11.53h-.93Z"/><path class="cls-2" d="m166.27,145.53c-.62,0-1.16-.08-1.64-.25-.47-.17-.88-.4-1.22-.68-.34-.29-.62-.61-.83-.97l.91-.74c.17.32.38.61.64.86.26.25.57.45.94.59.37.14.79.21,1.26.21.66,0,1.19-.12,1.58-.36s.58-.59.58-1.06c0-.28-.09-.53-.27-.74-.18-.22-.53-.39-1.03-.5l-2.01-.46c-.54-.13-.97-.29-1.29-.5-.32-.21-.55-.46-.7-.75s-.21-.61-.21-.95c0-.46.13-.89.38-1.27.25-.38.62-.69,1.1-.93.48-.23,1.05-.35,1.72-.35.75,0,1.4.15,1.95.46.55.3,1,.76,1.36,1.37l-.87.67c-.31-.55-.67-.95-1.08-1.18-.41-.23-.9-.35-1.47-.35-.46,0-.84.06-1.14.19-.3.13-.51.3-.66.52-.14.21-.21.46-.21.72,0,.21.04.39.12.56.08.17.23.32.44.45.21.13.5.24.88.33l1.86.42c.82.18,1.4.45,1.72.82.33.37.49.83.49,1.37,0,.49-.14.93-.41,1.3-.27.38-.66.67-1.15.88-.5.21-1.08.32-1.75.32Zm-.51,1.35v-11.53h.93v11.53h-.93Z"/></svg>