<?xml version="1.0" encoding="UTF-8"?><svg id="Layer_1" xmlns="http://www.w3.org/2000/svg" viewBox="0 0 257.86 257.86"><defs><style>.cls-1{fill:none;stroke:#0ae6c7;}.cls-1,.cls-2{stroke-miterlimit:10;}.cls-2{fill:#fff;stroke:#000;}</style></defs><path d="M79.38,87.51c-1.7,1.65-2.59,3.95-2.44,6.32.59,9.27,5.05,33.9,33.85,62.71,28.75,28.75,48.84,29.09,56.2,27.89,1.81-.3,3.46-1.19,4.7-2.55l11.85-13.09c4.15-4.59,3.1-11.83-2.2-15.04l-14.9-8.85c-5.46-3.31-12.43-2.71-17.24,1.48l-9.43,8.21s-24.46-13.33-32.37-31.67l12.43-16.51c2.36-3.14,2.45-7.43.23-10.66l-13.54-19.7c-3.2-4.66-9.82-5.32-13.88-1.39l-13.26,12.85Z"/><path class="cls-2" d="M74.23,88.51c-1.7,1.65-2.59,3.95-2.44,6.32.59,9.27,5.05,33.9,33.85,62.71,28.75,28.75,48.84,29.09,56.2,27.89,1.81-.3,3.46-1.19,4.7-2.55l11.85-13.09c4.15-4.59,3.1-11.83-2.2-15.04l-14.9-8.85c-5.46-3.31-12.43-2.71-17.24,1.48l-9.43,8.21s-24.46-13.33-32.37-31.67l12.43-16.51c2.36-3.14,2.45-7.43.23-10.66l-13.54-19.7c-3.2-4.66-9.82-5.32-13.88-1.39l-13.26,12.85Z"/><path class="cls-1" d="M133.51,100.99c13.8.89,24.72,12.38,24.72,26.41"/><path class="cls-1" d="M133.51,88.3c20.32,1.58,36.5,18.29,37.75,39.1"/><path class="cls-1" d="M133.51,76.91c27.3.69,49.39,22.8,50.7,50.49"/></svg>