<?xml version="1.0" encoding="UTF-8"?><svg id="Layer_1" xmlns="http://www.w3.org/2000/svg" viewBox="0 0 257.86 257.86"><defs><style>.cls-1{stroke:#000;stroke-miterlimit:10;}.cls-1,.cls-2{fill:#fff;}.cls-3,.cls-4,.cls-2{stroke-width:0px;}.cls-4{fill:#2b4bff;}</style></defs><rect class="cls-3" x="97.06" y="73.51" width="68.81" height="105.62" rx="3.07" ry="3.07"/><rect class="cls-1" x="91.99" y="78.73" width="68.81" height="105.62" rx="3.07" ry="3.07"/><line class="cls-1" x1="91.99" y1="179.21" x2="160.8" y2="179.21"/><path class="cls-1" d="m109.57,78.73h33.66v3.82c0,1.09-.88,1.97-1.97,1.97h-29.73c-1.09,0-1.97-.88-1.97-1.97v-3.82h0Z"/><line class="cls-1" x1="120.75" y1="81.62" x2="132.05" y2="81.62"/><line class="cls-1" x1="100" y1="122.65" x2="152.8" y2="122.65"/><line class="cls-1" x1="100" y1="133.34" x2="152.8" y2="133.34"/><line class="cls-1" x1="100" y1="144.03" x2="152.8" y2="144.03"/><line class="cls-1" x1="100" y1="108.8" x2="112.68" y2="108.8"/><line class="cls-1" x1="100" y1="103.13" x2="112.68" y2="103.13"/><path class="cls-4" d="m153.86,161.34c0,4.12-3.34,7.47-7.47,7.47s-7.48-3.35-7.48-7.47,3.35-7.48,7.48-7.48,7.47,3.35,7.47,7.48Z"/><path class="cls-2" d="m146.5,165.55c-.57,0-1.08-.08-1.52-.24-.44-.16-.82-.37-1.13-.63-.32-.27-.57-.56-.77-.9l.85-.68c.16.3.36.56.6.8.24.23.53.41.87.55.34.13.73.2,1.17.2.61,0,1.1-.11,1.46-.34s.54-.55.54-.98c0-.26-.09-.49-.25-.69-.17-.2-.49-.36-.95-.47l-1.87-.42c-.5-.12-.9-.27-1.19-.47-.3-.19-.51-.43-.65-.7s-.2-.56-.2-.88c0-.43.12-.82.35-1.18.24-.36.58-.64,1.02-.86.44-.22.98-.32,1.6-.32.7,0,1.3.14,1.81.42.51.28.93.7,1.26,1.27l-.81.62c-.29-.51-.62-.88-1-1.09-.38-.22-.83-.32-1.36-.32-.43,0-.78.06-1.06.18-.27.12-.48.28-.61.48-.13.2-.2.42-.2.67,0,.19.04.36.11.52.07.16.21.3.4.42.19.12.47.22.81.3l1.73.39c.76.17,1.3.42,1.6.76.3.34.45.77.45,1.27,0,.46-.13.86-.38,1.21-.25.35-.61.62-1.07.81-.46.19-1,.29-1.62.29Zm-.47,1.26v-10.7h.86v10.7h-.86Z"/></svg>