<?xml version="1.0" encoding="UTF-8"?><svg id="Layer_1" xmlns="http://www.w3.org/2000/svg" viewBox="0 0 257.86 257.86"><defs><style>.cls-1{stroke:#000;stroke-miterlimit:10;}.cls-1,.cls-2{fill:#fff;}.cls-3,.cls-4,.cls-2{stroke-width:0px;}.cls-4{fill:#2b4bff;}</style></defs><rect class="cls-3" x="95.68" y="73.51" width="68.81" height="105.62" rx="3.07" ry="3.07"/><rect class="cls-1" x="90.62" y="78.73" width="68.81" height="105.62" rx="3.07" ry="3.07"/><line class="cls-1" x1="90.62" y1="179.21" x2="159.43" y2="179.21"/><path class="cls-1" d="m108.19,78.73h33.66v3.82c0,1.09-.88,1.97-1.97,1.97h-29.73c-1.09,0-1.97-.88-1.97-1.97v-3.82h0Z"/><line class="cls-1" x1="119.38" y1="81.62" x2="130.67" y2="81.62"/><path class="cls-4" d="m172.63,99.81h-54c-9.17,0-16.61,7.44-16.61,16.61h0v25.15l16.61-8.54h54c9.17,0,16.61-7.44,16.61-16.61h0c0-9.17-7.44-16.61-16.61-16.61Z"/><path class="cls-2" d="m120.08,111.73l-.35,4.23,3.36-2.6.99,1.66-4.02,1.88,3.99,1.96-.96,1.64-3.38-2.66.4,4.31h-1.87l.37-4.3-3.35,2.65-.94-1.64,3.98-1.94-4.01-1.9.97-1.62,3.32,2.56-.32-4.23h1.82Z"/><path class="cls-2" d="m137.01,111.73l-.35,4.23,3.36-2.6.99,1.66-4.02,1.88,3.99,1.96-.96,1.64-3.38-2.66.4,4.31h-1.87l.37-4.3-3.35,2.65-.94-1.64,3.98-1.94-4.01-1.9.97-1.62,3.32,2.56-.32-4.23h1.82Z"/><path class="cls-2" d="m153.94,111.73l-.35,4.23,3.36-2.6.99,1.66-4.02,1.88,3.99,1.96-.96,1.64-3.38-2.66.4,4.31h-1.87l.37-4.3-3.35,2.65-.94-1.64,3.98-1.94-4.01-1.9.97-1.62,3.32,2.56-.32-4.23h1.82Z"/><path class="cls-2" d="m170.87,111.73l-.35,4.23,3.36-2.6.99,1.66-4.02,1.88,3.99,1.96-.96,1.64-3.38-2.66.4,4.31h-1.87l.37-4.3-3.35,2.65-.94-1.64,3.98-1.94-4.01-1.9.97-1.62,3.32,2.56-.32-4.23h1.82Z"/></svg>