<?xml version="1.0" encoding="UTF-8"?><svg xmlns="http://www.w3.org/2000/svg" viewBox="0 0 257.86 257.86"><defs><style>.cls-1{fill:#0ae6c7;mix-blend-mode:multiply;}.cls-1,.cls-2,.cls-3{stroke-width:0px;}.cls-4,.cls-5{stroke:#000;stroke-miterlimit:10;}.cls-4,.cls-3{fill:#fff;}.cls-5{fill:none;}.cls-6{isolation:isolate;}</style></defs><g class="cls-6"><g id="Layer_1"><polygon class="cls-2" points="106.5 106.93 106.52 106.92 106.52 106.92 106.5 106.93"/><path class="cls-2" d="m171.68,113.25c0-1.1-.28-2.22-.87-3.23-1.2-2.07-3.38-3.23-5.62-3.23-1.09,0-2.21.28-3.22.86h-.01s-6.01,3.74-6.01,3.74v-25.3c0-1.66-1.35-3-3-3h-42.9c-1.66,0-3,1.35-3,3v20.76c-.17.02-.35.02-.52.07h-.01c-1.19.33-2.01,1.19-2.6,2.15-.59.97-.97,2.08-1.31,3.07-3.85,11.49-11.85,21.71-13.96,33.99-.49,2.84-.64,5.7-1.02,8.49-1.5,10.77-6.72,20.99-14.55,28.52l-.58.56,25.77,16.68,2.24-2.58c3.51-4.88,9.58-8.22,15.23-10.3,2.47-.91,5.09-1.52,7.66-2.48,6.53-2.46,12.13-7.26,15.57-13.34h13.97c1.66,0,3-1.35,3-3v-3.04s-1.1-31.12-1.34-31.53l1.34-6.31v-1.46l.03.05,12.46-7.5h0s0,0,0,0h0s0,0,0,0c2.07-1.2,3.23-3.39,3.23-5.62Z"/><polygon class="cls-2" points="167.1 131.49 167.1 131.49 167.1 131.49 167.1 131.49"/><path class="cls-3" d="m166.83,113.79c-1.05-1.81-3.01-2.94-5.12-2.94-1.03,0-2.04.27-2.93.78l-6.89,4.28v-26.34c0-1.34-1.09-2.42-2.43-2.42h-42.9c-1.34,0-2.42,1.09-2.42,2.43v21.27l-.67.07c-.09,0-.19.01-.28.04-.9.25-1.64.87-2.26,1.89-.57.94-.95,2.06-1.26,2.96-1.59,4.73-3.91,9.32-6.15,13.75-3.22,6.38-6.56,12.97-7.79,20.15-.29,1.67-.46,3.37-.63,5.02-.12,1.16-.24,2.31-.39,3.45-1.52,10.95-6.75,21.19-14.72,28.86l27.61,14.38c3.58-4.97,8.71-8.87,14.45-10.98,1.21-.45,2.47-.83,3.69-1.19,1.31-.39,2.66-.8,3.97-1.29,6.35-2.39,11.92-7.16,15.27-13.08l.17-.29h14.31c1.34,0,2.42-1.09,2.42-2.42v-4.04s8.56-4.41,8.56-4.41c.64-.37-1.32-3.04-1.32-3.78,0-.36.3-.34.12-.65l.78-4.69c-.28-.48-.73-.82-1.27-.96l-1.37-.36,1.01-2.59c.64-.37,1.8-1.83,1.8-2.58,0-.36.8-1.86.61-2.17l-.77-3.66c-.28-.48-.73-.82-1.27-.97l-1.35-.36.94-3.81c.64-.37,1.23-.82,1.23-1.56,0-.36,3.71,0,3.53-.31l-3.07-5.32c-.55-.95-1.87-1.31-2.82-.75l-5.34,3.08v-4.57l.81,1.36,11.96-7.2c1.83-1.06,2.95-3.02,2.95-5.13,0-1.03-.27-2.05-.79-2.93Z"/><polygon class="cls-3" points="103.02 110.41 103.04 110.4 103.04 110.4 103.02 110.41"/><polygon class="cls-3" points="163.62 134.97 163.62 134.97 163.62 134.97 163.62 134.97"/><path class="cls-5" d="m70,186.87c7.93-7.62,13.2-17.96,14.72-28.86.39-2.82.54-5.67,1.02-8.47,2.07-12.08,10.03-22.29,13.95-33.9.67-1.97,1.5-4.29,3.51-4.84,1.48-.41,3.1.4,4.03,1.62s1.31,2.78,1.53,4.3c.66,4.58.11,9.33-1.58,13.64-1.44,3.68-3.72,7.16-3.95,11.11-.2,3.44,1.19,6.74,2.46,9.94,1.94,4.92,3.65,10.06,3.61,15.35-.04,5.29-2.1,10.81-6.41,13.87"/><path class="cls-2" d="m166.93,131.28c0,1.97-1.02,3.89-2.83,4.94l-6.63,3.83c-2.71,1.57-6.2.63-7.77-2.08-.51-.89-.75-1.87-.75-2.83,0-.39.05-.79.12-1.17h2.83v-3.84l6.52-3.77c2.71-1.55,6.2-.63,7.77,2.09.51.89.75,1.87.75,2.83Z"/><path class="cls-2" d="m166.93,143.72c0,1.97-1.02,3.89-2.83,4.94l-6.63,3.83c-2.71,1.57-6.2.63-7.77-2.08-.51-.89-.75-1.87-.75-2.83,0-.39.05-.79.12-1.17h2.83v-3.84l6.52-3.77c2.71-1.55,6.2-.63,7.77,2.09.51.89.75,1.87.75,2.83Z"/><path class="cls-2" d="m166.93,155.59c0,1.97-1.02,3.89-2.83,4.94l-6.63,3.83c-2.71,1.57-6.2.63-7.77-2.08-.51-.89-.75-1.87-.75-2.83,0-.39.05-.79.12-1.17h2.83v-3.84l6.52-3.77c2.71-1.55,6.2-.63,7.77,2.09.51.89.75,1.87.75,2.83Z"/><path class="cls-5" d="m151.9,115.75l6.89-4.28c2.81-1.62,6.43-.65,8.05,2.16h0c1.62,2.81.65,6.43-2.16,8.05l-12.47,7.5"/><line class="cls-5" x1="104.15" y1="147.29" x2="104.15" y2="137.31"/><path class="cls-5" d="m151.9,167.68v4.3c0,1.33-1.09,2.42-2.42,2.42h-41.78"/><path class="cls-5" d="m104.15,110.68v-21.28c0-1.33,1.09-2.42,2.42-2.42h42.9c1.33,0,2.42,1.09,2.42,2.42v42.69"/><line class="cls-5" x1="109.26" y1="171.47" x2="151.9" y2="171.47"/><path class="cls-5" d="m97.61,201.25c3.59-4.98,8.69-8.86,14.45-10.99,2.52-.93,5.15-1.53,7.66-2.48,6.47-2.44,12.03-7.23,15.39-13.27"/><line class="cls-5" x1="128.13" y1="72.01" x2="128.13" y2="41.55"/><line class="cls-5" x1="171.39" y1="109.7" x2="197.88" y2="109.7"/><line class="cls-5" x1="59.98" y1="109.7" x2="95.12" y2="109.7"/><line class="cls-5" x1="83.66" y1="64.96" x2="101.73" y2="83.02"/><line class="cls-5" x1="173.44" y1="64.96" x2="155.37" y2="83.02"/><line class="cls-5" x1="177.09" y1="90.86" x2="163.88" y2="96.03"/><line class="cls-5" x1="90.62" y1="124.69" x2="80.01" y2="128.84"/><line class="cls-5" x1="179.75" y1="132.25" x2="172" y2="128.86"/><line class="cls-5" x1="93.8" y1="94.64" x2="80.8" y2="88.95"/><line class="cls-5" x1="143.76" y1="75.1" x2="149.45" y2="62.09"/><line class="cls-5" x1="114.73" y1="74.52" x2="109.56" y2="61.3"/><rect class="cls-4" x="146.57" y="131.31" width="16.1" height="10.27" rx="5.14" ry="5.14" transform="translate(-47.51 95.59) rotate(-30)"/><rect class="cls-4" x="146.57" y="143.64" width="16.1" height="10.27" rx="5.14" ry="5.14" transform="translate(-53.67 97.24) rotate(-30)"/><rect class="cls-4" x="146.57" y="155.96" width="16.1" height="10.27" rx="5.14" ry="5.14" transform="translate(-59.84 98.89) rotate(-30)"/><polygon class="cls-1" points="120.81 156.57 126.4 133.69 114.13 133.69 133.94 103.15 128.36 125.77 140.63 125.77 120.81 156.57"/><path class="cls-5" d="m140.54,86.57v2.93c0,1-.82,1.82-1.82,1.82h-20.08c-1,0-1.82-.82-1.82-1.82v-2.93"/><line class="cls-5" x1="125.9" y1="89.16" x2="131.32" y2="89.16"/></g></g></svg>