<?xml version="1.0" encoding="UTF-8"?><svg id="Layer_1" xmlns="http://www.w3.org/2000/svg" viewBox="0 0 257.86 257.86"><defs><style>.cls-1,.cls-2,.cls-3{stroke:#000;stroke-miterlimit:10;}.cls-2,.cls-4{fill:#fff;}.cls-3{fill:none;}.cls-5{fill:#2b4bff;}.cls-5,.cls-6,.cls-4{stroke-width:0px;}.cls-6{fill:#0ae6c7;}</style></defs><path class="cls-5" d="m133.52,135.74c0,7.46-6.04,13.51-13.51,13.51s-13.52-6.05-13.52-13.51,6.05-13.52,13.52-13.52,13.51,6.05,13.51,13.52Z"/><path class="cls-4" d="m120.21,143.34c-1.03,0-1.95-.14-2.74-.43-.8-.28-1.48-.67-2.05-1.15-.57-.48-1.03-1.02-1.39-1.62l1.53-1.24c.28.54.64,1.02,1.08,1.44.43.42.96.75,1.57.99.61.24,1.32.36,2.11.36,1.11,0,1.99-.2,2.64-.61.65-.4.98-1,.98-1.78,0-.46-.15-.88-.46-1.25-.31-.37-.88-.65-1.72-.84l-3.37-.76c-.9-.21-1.62-.49-2.16-.84-.54-.35-.93-.77-1.17-1.26s-.36-1.02-.36-1.59c0-.78.21-1.49.64-2.14.43-.64,1.04-1.16,1.84-1.55.8-.39,1.77-.58,2.89-.58,1.26,0,2.35.25,3.27.76.92.51,1.68,1.27,2.28,2.29l-1.46,1.12c-.53-.93-1.13-1.59-1.81-1.98-.68-.39-1.5-.58-2.46-.58-.78,0-1.42.11-1.91.33-.5.22-.86.51-1.1.87-.24.36-.36.76-.36,1.21,0,.34.07.66.2.94.13.29.38.54.73.75.35.22.84.4,1.47.55l3.13.7c1.38.3,2.34.76,2.89,1.38.55.62.82,1.39.82,2.3,0,.82-.23,1.55-.69,2.18-.46.63-1.1,1.12-1.93,1.47-.83.35-1.81.53-2.93.53Zm-.86,2.27v-19.34h1.55v19.34h-1.55Z"/><path class="cls-1" d="m124.63,66.71v13.46h-.01c-29.8,0-53.98,24.19-53.98,53.99s24.18,53.98,53.98,53.98,54.01-24.16,54.01-53.98h13.45c0-37.25-30.19-67.46-67.44-67.46Zm-.01,98.75c-17.28,0-31.3-14-31.3-31.29s14.02-31.3,31.3-31.3h.01c17.29,0,31.29,14,31.29,31.3s-14.01,31.29-31.3,31.29Z"/><path class="cls-6" d="m187.82,136.52h0s-36.14.01-36.14.01c0-17.3-14.01-31.3-31.3-31.31v-36.14c37.25,0,67.44,30.19,67.44,67.44Z"/><path class="cls-2" d="m173.77,137.17c0,29.82-24.18,53.98-54,53.98s-53.98-24.16-53.98-53.98,24.17-53.99,53.98-53.99h.01v22.68h-.01c-17.28,0-31.31,14.01-31.31,31.31s14.03,31.3,31.31,31.3,31.31-14.01,31.31-31.3h22.69Z"/><line class="cls-3" x1="119.77" y1="168.46" x2="119.77" y2="191.15"/></svg>