<?xml version="1.0" encoding="UTF-8"?><svg id="Layer_1" xmlns="http://www.w3.org/2000/svg" viewBox="0 0 257.86 257.86"><defs><style>.cls-1{fill:#fff;}.cls-1,.cls-2,.cls-3{stroke:#000;stroke-miterlimit:10;}.cls-2{fill:#2b4bff;}.cls-3{fill:#0ae6c7;}.cls-4{stroke-width:0px;}</style></defs><path class="cls-4" d="m182.1,122.01h-47.14v-47.14c26.03,0,47.14,21.11,47.14,47.14Z"/><path class="cls-4" d="m158.54,166.07c-8.53,8.54-20.31,13.82-33.32,13.82-26.04,0-47.14-21.11-47.14-47.15s21.1-47.14,47.14-47.14v47.14l33.32,33.33Z"/><path class="cls-4" d="m184.42,132.03c0,13.01-5.28,24.81-13.81,33.33l-33.67-32.99,47.49-.34Z"/><path class="cls-3" d="m177.47,125.11h-47.14v-47.14c26.03,0,47.14,21.11,47.14,47.14Z"/><path class="cls-1" d="m153.9,169.18c-8.53,8.54-20.31,13.82-33.32,13.82-26.04,0-47.14-21.11-47.14-47.15s21.1-47.14,47.14-47.14v47.14l33.32,33.33Z"/><path class="cls-2" d="m179.79,132.74c0,13.01-5.28,24.81-13.81,33.33l-33.32-33.33h47.14Z"/></svg>