<?xml version="1.0" encoding="UTF-8"?><svg xmlns="http://www.w3.org/2000/svg" viewBox="0 0 257.86 257.86"><defs><style>.cls-1{fill:#0ae6c7;mix-blend-mode:multiply;}.cls-1,.cls-2,.cls-3{stroke-width:0px;}.cls-4,.cls-5{fill:#fff;}.cls-4,.cls-5,.cls-6,.cls-7{stroke-miterlimit:10;}.cls-4,.cls-6,.cls-7{stroke:#000;}.cls-4,.cls-7{stroke-width:1.18px;}.cls-5{stroke:#231f20;}.cls-6,.cls-7{fill:none;}.cls-8{isolation:isolate;}.cls-3{fill:#2b4bff;}</style></defs><g class="cls-8"><g id="Layer_1"><rect class="cls-2" x="74.21" y="81.59" width="113.25" height="90.86"/><rect class="cls-4" x="70.4" y="85.41" width="113.25" height="90.86"/><line class="cls-7" x1="70.4" y1="101.53" x2="183.65" y2="101.53"/><rect class="cls-1" x="70.4" y="85.41" width="113.25" height="16.12"/><polyline class="cls-6" points="169.35 116.85 164.61 116.85 162.24 116.85 152.41 116.85 150.05 116.85 123.66 116.85 121.3 116.85 111.47 116.85 109.11 116.85 102.53 116.85"/><line class="cls-6" x1="102.53" y1="138.85" x2="169.35" y2="138.85"/><line class="cls-6" x1="102.53" y1="160.84" x2="169.35" y2="160.84"/><rect class="cls-5" x="83.07" y="110.86" width="11.99" height="11.99"/><rect class="cls-5" x="83.07" y="132.85" width="11.99" height="11.99"/><rect class="cls-5" x="83.07" y="154.84" width="11.99" height="11.99"/><rect class="cls-3" x="85.06" y="134.84" width="8.01" height="8.01"/><rect class="cls-3" x="85.06" y="112.85" width="8.01" height="8.01"/></g></g></svg>