<?xml version="1.0" encoding="UTF-8"?><svg id="Layer_1" xmlns="http://www.w3.org/2000/svg" viewBox="0 0 257.86 257.86"><defs><style>.cls-1,.cls-2{stroke:#000;stroke-miterlimit:10;}.cls-2{fill:#fff;}</style></defs><path class="cls-1" d="m157.37,139.23c0,5.55,4.49,10.04,10.03,10.04,4.07,0,7.57-2.42,9.15-5.89h2.13v31.34h-31.34v-1.77c3.48-1.57,5.9-5.08,5.9-9.14,0-5.55-4.5-10.04-10.03-10.04s-10.04,4.49-10.04,10.04c0,4.06,2.42,7.56,5.89,9.14v1.77h-31.34v-30.85h-1.81c-1.76,3.89-5.68,6.6-10.23,6.6-6.21,0-11.23-5.03-11.23-11.24s5.02-11.22,11.23-11.22c4.55,0,8.48,2.7,10.23,6.59h1.81v-30.84h30.85v-2.07c-3.89-1.76-6.6-5.68-6.6-10.23,0-6.21,5.03-11.23,11.24-11.23s11.22,5.02,11.22,11.23c0,4.55-2.7,8.47-6.59,10.23v2.07h30.84v31.34h-2.13c-1.57-3.48-5.08-5.9-9.15-5.9-5.54,0-10.03,4.49-10.03,10.03Z"/><path class="cls-2" d="m152.1,142.14c0,5.55,4.49,10.04,10.03,10.04,4.07,0,7.57-2.42,9.15-5.89h2.13v31.34h-31.34v-1.77c3.48-1.57,5.9-5.08,5.9-9.14,0-5.55-4.5-10.04-10.03-10.04s-10.04,4.49-10.04,10.04c0,4.06,2.42,7.56,5.89,9.14v1.77h-31.34v-30.85h-1.81c-1.76,3.89-5.68,6.6-10.23,6.6-6.21,0-11.23-5.03-11.23-11.24s5.02-11.22,11.23-11.22c4.55,0,8.48,2.7,10.23,6.59h1.81v-30.84h30.85v-2.07c-3.89-1.76-6.6-5.68-6.6-10.23,0-6.21,5.03-11.23,11.24-11.23s11.22,5.02,11.22,11.23c0,4.55-2.7,8.47-6.59,10.23v2.07h30.84v31.34h-2.13c-1.57-3.48-5.08-5.9-9.15-5.9-5.54,0-10.03,4.49-10.03,10.03Z"/></svg>