<?xml version="1.0" encoding="UTF-8"?><svg xmlns="http://www.w3.org/2000/svg" viewBox="0 0 257.86 257.86"><defs><style>.cls-1{isolation:isolate;}.cls-2{mix-blend-mode:multiply;}.cls-3{fill:#fff;}.cls-3,.cls-4{stroke:#000;stroke-miterlimit:10;}.cls-5{fill:#0ae6c7;}.cls-4{fill:none;}</style></defs><g class="cls-1"><g id="Layer_1"><polygon points="173.12 72.68 173.12 180.03 173.05 180.1 162.65 169.69 152.24 180.1 141.84 169.7 131.43 180.1 121.03 169.7 110.62 180.1 100.22 169.7 89.83 180.08 89.83 72.68 173.12 72.68"/><polygon class="cls-3" points="168.03 77.76 168.03 185.11 167.96 185.18 157.56 174.77 147.15 185.18 136.75 174.78 126.34 185.18 115.94 174.78 105.53 185.18 95.13 174.78 84.74 185.16 84.74 77.76 168.03 77.76"/><line class="cls-4" x1="96.17" y1="134.08" x2="156.61" y2="134.08"/><line class="cls-4" x1="96.17" y1="159.26" x2="155.95" y2="159.26"/><line class="cls-4" x1="96.17" y1="146.67" x2="155.95" y2="146.67"/><line class="cls-4" x1="96.17" y1="121.5" x2="155.95" y2="121.5"/><path class="cls-4" d="M117.85,101.73c0,6.25-5.06,11.32-11.32,11.32s-11.33-5.07-11.33-11.32,5.07-11.33,11.33-11.33,11.32,5.07,11.32,11.33Z"/><g class="cls-2"><path class="cls-5" d="M106.7,108.11c-.87,0-1.63-.12-2.3-.36-.67-.24-1.24-.56-1.71-.96-.48-.4-.87-.85-1.17-1.36l1.28-1.04c.24.45.54.85.9,1.21.36.35.8.63,1.32.83.52.2,1.11.3,1.77.3.93,0,1.67-.17,2.21-.51s.82-.84.82-1.49c0-.39-.13-.74-.39-1.05-.26-.31-.74-.54-1.44-.71l-2.83-.64c-.75-.18-1.36-.41-1.81-.71s-.78-.65-.98-1.06c-.2-.41-.3-.85-.3-1.33,0-.65.18-1.25.54-1.79.36-.54.87-.97,1.55-1.3.67-.33,1.48-.49,2.42-.49,1.06,0,1.97.21,2.74.64.77.43,1.41,1.07,1.91,1.92l-1.22.94c-.44-.78-.95-1.33-1.52-1.66-.57-.33-1.26-.49-2.06-.49-.65,0-1.19.09-1.6.27-.41.18-.72.42-.92.73s-.3.64-.3,1.02c0,.29.06.55.17.79.11.24.32.45.61.63.3.18.71.34,1.23.46l2.62.58c1.16.25,1.96.64,2.42,1.16.46.52.69,1.17.69,1.93,0,.69-.19,1.3-.57,1.83-.38.53-.92.94-1.62,1.23-.7.3-1.52.44-2.46.44ZM105.98,110.01v-16.2h1.3v16.2h-1.3Z"/></g></g></g></svg>