<?xml version="1.0" encoding="UTF-8"?><svg id="Layer_1" xmlns="http://www.w3.org/2000/svg" viewBox="0 0 257.86 257.86"><defs><style>.cls-1{fill:#2c4bff;stroke:#2b4bff;stroke-linecap:round;stroke-linejoin:round;}.cls-2{fill:#fff;}.cls-2,.cls-3{stroke:#000;stroke-miterlimit:10;}.cls-3{fill:none;}.cls-4{stroke-width:0px;}</style></defs><path class="cls-4" d="m175.86,153.56v32.79l-19.61-8.91c-.06,1.42-.13,2.86-.21,4.31h-4.67v9.37h-15.49v-9.37h-5.94v9.37h-15.49v-9.37h-4.53s-.13-1.65-.3-4.59l-20.23,9.19v-32.79l20.6-26.66c2.04-27.36,7.9-57.27,22.99-69.9,0,0,18.44,11.4,22.87,70.65l20.01,25.91Z"/><polygon class="cls-1" points="106.74 128.19 86.14 154.87 86.14 187.66 108.11 177.67 106.74 128.19"/><polygon class="cls-1" points="152 128.19 172.6 154.87 172.6 187.66 150.63 177.67 152 128.19"/><path class="cls-2" d="m106.67,183.06s-7.93-98.8,23.06-124.74c0,0,28.82,17.82,23.06,124.74h-46.12Z"/><polygon class="cls-1" points="129.58 131.82 123.81 150.91 123.81 174.98 135.5 174.98 135.5 149.83 129.58 131.82"/><rect class="cls-2" x="111.19" y="183.06" width="15.49" height="9.38"/><rect class="cls-2" x="132.63" y="183.06" width="15.49" height="9.38"/><line class="cls-2" x1="114.43" y1="84.18" x2="144.68" y2="84.18"/><line class="cls-3" x1="179.07" y1="170.41" x2="179.07" y2="194.71"/><line class="cls-3" x1="187.73" y1="182.39" x2="187.73" y2="194.71"/><line class="cls-3" x1="155.72" y1="188.55" x2="155.72" y2="200.87"/><line class="cls-3" x1="78.79" y1="170.41" x2="78.79" y2="194.71"/><line class="cls-3" x1="70.13" y1="182.39" x2="70.13" y2="194.71"/><line class="cls-3" x1="102.14" y1="188.55" x2="102.14" y2="200.87"/></svg>