<?xml version="1.0" encoding="UTF-8"?><svg xmlns="http://www.w3.org/2000/svg" viewBox="0 0 257.86 257.86"><defs><style>.cls-1{fill:#0ae6c7;mix-blend-mode:multiply;stroke-width:0px;}.cls-2{stroke-width:.92px;}.cls-2,.cls-3,.cls-4{stroke:#000;stroke-miterlimit:10;}.cls-3{fill:#fff;}.cls-4{fill:#2b4bff;}.cls-5{isolation:isolate;}</style></defs><g class="cls-5"><g id="Layer_1"><polygon class="cls-2" points="154.51 75.73 154.51 69.24 109.66 69.24 109.66 75.73 86.63 75.73 86.63 184.68 177.53 184.68 177.53 75.73 154.51 75.73"/><rect class="cls-3" x="80.33" y="79.67" width="90.9" height="108.94"/><rect class="cls-4" x="103.36" y="73.18" width="44.84" height="11.61"/><circle class="cls-3" cx="102.33" cy="109.11" r="9.98"/><path class="cls-1" d="m102.32,106.2c-1.18,0-2.13.96-2.13,2.13s.95,2.13,2.13,2.13,2.13-.96,2.13-2.13-.95-2.13-2.13-2.13Z"/><path class="cls-1" d="m102.32,112.28c-2.94,0-5.44,1.87-6.39,4.49,1.74,1.43,3.97,2.28,6.4,2.28s4.64-.85,6.38-2.27c-.94-2.63-3.45-4.51-6.4-4.51Z"/><circle class="cls-3" cx="102.33" cy="136.94" r="9.98"/><path class="cls-1" d="m102.32,134.03c-1.18,0-2.13.96-2.13,2.13s.95,2.13,2.13,2.13,2.13-.96,2.13-2.13-.95-2.13-2.13-2.13Z"/><path class="cls-1" d="m102.32,140.12c-2.94,0-5.44,1.87-6.39,4.49,1.74,1.43,3.97,2.28,6.4,2.28s4.64-.85,6.38-2.27c-.94-2.63-3.45-4.51-6.4-4.51Z"/><circle class="cls-3" cx="102.33" cy="164.81" r="9.98"/><path class="cls-1" d="m102.32,161.9c-1.18,0-2.13.96-2.13,2.13s.95,2.13,2.13,2.13,2.13-.96,2.13-2.13-.95-2.13-2.13-2.13Z"/><path class="cls-1" d="m102.32,167.98c-2.94,0-5.44,1.87-6.39,4.49,1.74,1.43,3.97,2.28,6.4,2.28s4.64-.85,6.38-2.27c-.94-2.63-3.45-4.51-6.4-4.51Z"/><line class="cls-2" x1="119.36" y1="109.11" x2="162.35" y2="109.11"/><line class="cls-2" x1="119.36" y1="138.3" x2="162.35" y2="138.3"/><line class="cls-2" x1="119.36" y1="164.81" x2="162.35" y2="164.81"/></g></g></svg>