<?xml version="1.0" encoding="UTF-8"?><svg id="Layer_1" xmlns="http://www.w3.org/2000/svg" viewBox="0 0 257.86 257.86"><defs><style>.cls-1{fill:#fff;}.cls-1,.cls-2{stroke:#000;stroke-miterlimit:10;}.cls-2{fill:none;}.cls-3,.cls-4{stroke-width:0px;}.cls-4{fill:#2b4bff;}</style></defs><path class="cls-3" d="m168.29,122.47c-.95-4.86-2.86-9.37-5.52-13.34l4.66-6.24-8.42-8.41-2.22,1.66-4.02,3c-.69-.46-1.39-.9-2.11-1.31-3.42-1.99-7.21-3.43-11.23-4.22l-1.1-7.7h-11.91l-1.11,7.7c-4.86.95-9.38,2.86-13.34,5.53l-1.76-1.32-4.47-3.34-1.66,1.66-6.77,6.75,4.67,6.24c-2.66,3.97-4.58,8.48-5.52,13.34l-7.71,1.11v5.96h20.01c0-12.39,9.54-22.55,21.68-23.53.64-.05,1.28-.08,1.93-.08,13.04,0,23.61,10.57,23.61,23.6h0s20.02.01,20.02.01v-5.96l-7.71-1.11Z"/><path class="cls-1" d="m164.41,122.47c-.95-4.86-2.86-9.37-5.52-13.34l4.66-6.24-6.76-6.75-1.66-1.66-4.47,3.35-1.76,1.31c-3.97-2.67-8.49-4.58-13.35-5.53l-1.1-7.7h-11.91l-1.1,7.7c-4.02.78-7.81,2.22-11.23,4.21-.73.41-1.43.85-2.12,1.32l-4.01-3-2.22-1.66-8.42,8.41,4.66,6.24c-2.66,3.97-4.57,8.48-5.52,13.34l-7.71,1.11v5.96h20.02c0-13.04,10.56-23.61,23.61-23.61.65,0,1.3.03,1.94.08,12.13.99,21.66,11.14,21.66,23.52h0s20.02.01,20.02.01v-5.96l-7.71-1.11Z"/><polyline class="cls-2" points="183.79 129.54 176 129.54 172.12 129.54 155.98 129.54 152.1 129.54 108.76 129.54 104.89 129.54 88.75 129.54 84.87 129.54 74.07 129.54"/><line class="cls-2" x1="74.07" y1="141.77" x2="183.79" y2="141.77"/><line class="cls-2" x1="74.07" y1="154.01" x2="183.79" y2="154.01"/><line class="cls-2" x1="74.07" y1="166.24" x2="183.79" y2="166.24"/><circle class="cls-4" cx="89.64" cy="166.24" r="5.72"/><circle class="cls-4" cx="154.37" cy="154.01" r="5.72"/><circle class="cls-4" cx="123.8" cy="141.77" r="5.72"/></svg>