<?xml version="1.0" encoding="UTF-8"?><svg xmlns="http://www.w3.org/2000/svg" viewBox="0 0 257.86 257.86"><defs><style>.cls-1{fill:#0ae6c7;mix-blend-mode:multiply;}.cls-1,.cls-2{stroke-width:0px;}.cls-3{isolation:isolate;}.cls-4{fill:#fff;stroke:#000;stroke-linejoin:bevel;}</style></defs><g class="cls-3"><g id="Layer_1"><path class="cls-2" d="m178.18,102.31c-37.08-9.98-46.25-24.25-46.25-24.25l-6.01,2.65-.86,5.01c-6.58,5.75-18.67,13.58-39.59,19.21,0,0-6.65,49.67,46.46,74.86,53.11-25.2,46.25-77.49,46.25-77.49Z"/><path class="cls-4" d="m172.18,102.31c-37.08-9.98-46.25-24.25-46.25-24.25,0,0-9.17,14.26-46.25,24.25,0,0-6.86,52.29,46.25,77.49,53.11-25.2,46.25-77.49,46.25-77.49Z"/><polygon class="cls-1" points="118.76 158.06 124.85 133.1 111.48 133.1 133.09 99.8 127 124.47 140.38 124.47 118.76 158.06"/></g></g></svg>