<?xml version="1.0" encoding="UTF-8"?><svg id="Layer_1" xmlns="http://www.w3.org/2000/svg" viewBox="0 0 257.86 257.86"><defs><style>.cls-1{fill:none;stroke:#fff;stroke-miterlimit:10;}.cls-2,.cls-3{stroke-width:0px;}.cls-4{fill:#fff;stroke:#000;stroke-linejoin:bevel;}.cls-3{fill:#2c4bff;}</style></defs><path class="cls-2" d="m184.31,98.99c-41.7-11.23-52.01-27.26-52.01-27.26l-6.75,2.98-.97,5.63c-7.39,6.47-21,15.27-44.52,21.6,0,0-7.48,55.85,52.24,84.18,59.72-28.33,52.01-87.14,52.01-87.14Z"/><path class="cls-4" d="m177.56,98.99c-41.7-11.23-52.01-27.26-52.01-27.26,0,0-10.31,16.04-52.01,27.26,0,0-7.72,58.8,52.01,87.14,59.72-28.33,52.01-87.14,52.01-87.14Z"/><circle class="cls-3" cx="125.55" cy="128.93" r="17.81"/><polyline class="cls-1" points="116.1 132.85 121.24 137.99 136.02 123.22"/></svg>