<?xml version="1.0" encoding="UTF-8"?><svg id="Layer_1" xmlns="http://www.w3.org/2000/svg" viewBox="0 0 257.86 257.86"><defs><style>.cls-1{fill:none;stroke:#0ae6c7;stroke-linecap:round;stroke-linejoin:round;stroke-width:5px;}.cls-2{fill:#fff;stroke:#000;stroke-miterlimit:10;}</style></defs><path class="cls-1" d="M64.56,168.82c5.1-.17,8.29-5.37,10.76-9.83,3.18-5.74,6.7-11.29,10.54-16.61.7-.97,1.93-2.05,2.93-1.37-1.4,6.49-2.8,12.97-4.19,19.46-.13.6-.25,1.24,0,1.8.4.89,1.62,1.14,2.52.79s1.57-1.12,2.2-1.87c2.65-3.16,5.31-6.32,7.96-9.48,2.27,3.05-.38,7.71,1.34,11.1.39.77,1.11,1.48,1.98,1.46.68-.02,1.26-.47,1.78-.91,2.54-2.2,4.81-4.71,6.73-7.46.33,2.17.66,4.33.99,6.5,3.97,1.16,7.69-2.1,11.3-4.11,3.2-1.78,6.89-2.67,10.56-2.54"/><polygon points="135.93 158.25 120.81 161.54 124.09 146.42 181.46 89.04 193.3 100.88 135.93 158.25"/><polygon class="cls-2" points="131.16 158.78 116.04 162.07 119.32 146.95 176.7 89.58 188.53 101.41 131.16 158.78"/><line class="cls-2" x1="168.57" y1="97.7" x2="180.41" y2="109.54"/><line class="cls-2" x1="166.97" y1="99.3" x2="178.81" y2="111.13"/><line class="cls-2" x1="119.62" y1="146.65" x2="131.46" y2="158.48"/></svg>