<?xml version="1.0" encoding="UTF-8"?><svg xmlns="http://www.w3.org/2000/svg" viewBox="0 0 257.86 257.86"><defs><style>.cls-1{fill:#0ae6c7;mix-blend-mode:multiply;}.cls-1,.cls-2{stroke-width:0px;}.cls-3{fill:#fff;}.cls-3,.cls-4{stroke:#000;stroke-miterlimit:10;}.cls-4{fill:none;}.cls-5{isolation:isolate;}</style></defs><g class="cls-5"><g id="Layer_1"><circle class="cls-2" cx="141.63" cy="129.79" r="51.99"/><circle class="cls-3" cx="135.08" cy="128.07" r="51.99"/><path class="cls-1" d="m135.07,89.71c-21.18,0-38.36,17.18-38.36,38.36s17.18,38.36,38.36,38.36,38.37-17.17,38.37-38.36-17.18-38.36-38.37-38.36Zm0,60.6c-12.28,0-22.25-9.96-22.25-22.25s9.97-22.25,22.25-22.25,22.25,9.96,22.25,22.25-9.96,22.25-22.25,22.25Z"/><circle class="cls-1" cx="135.08" cy="128.07" r="10.58"/><circle class="cls-2" cx="135.08" cy="128.07" r="3.62"/><polygon class="cls-4" points="70.18 129.63 81.59 129.63 75.65 134.95 64.24 134.95 70.18 129.63"/><polygon class="cls-4" points="70.18 126.51 81.59 126.51 75.65 121.19 64.24 121.19 70.18 126.51"/><rect class="cls-3" x="70.34" y="126.51" width="64.73" height="3.12"/></g></g></svg>