<?xml version="1.0" encoding="UTF-8"?><svg id="Layer_1" xmlns="http://www.w3.org/2000/svg" viewBox="0 0 257.86 257.86"><defs><style>.cls-1,.cls-2{stroke:#000;stroke-miterlimit:10;}.cls-1,.cls-3{fill:#fff;}.cls-2{fill:none;}.cls-4,.cls-5,.cls-3{stroke-width:0px;}.cls-5{fill:#2b4bff;}</style></defs><rect class="cls-4" x="65.85" y="75" width="30.1" height="55.78" rx="6.02" ry="6.02"/><path class="cls-4" d="m187.7,108.53h-7c4.33,0,7.85-3.54,7.85-7.85,0-2.16-.88-4.12-2.3-5.55-1.43-1.43-3.39-2.3-5.55-2.3h-5.56c4.31,0,7.85-3.54,7.85-7.85,0-2.16-.88-4.12-2.3-5.55-1.43-1.43-3.39-2.3-5.55-2.3h-30.15c-14.84-1.53-24.36,2.66-30.41,8.02l-17.65-3-6.49,41.62,14.76.52c10.25,13.3,13.12,15.82,21.03,19.95,6.91,3.63,12.78,8.27,14.7,11.69,6.58,11.74,6.61,10.6,10.91,23.36.73,2.16,1.64,4.7,3.84,5.31,1.63.46,5.96-.43,6.98-1.77,1.03-1.34,1.44-3.04,1.68-4.72.71-5.03.11-10.23-1.73-14.97-1.58-4.03-6.71-19.67-5.93-23.37l25.64.2c4.32,0,7.85-3.54,7.85-7.85,0-2.16-.89-4.12-2.3-5.55-1.43-1.43-3.4-2.3-5.55-2.3h5.4c4.32,0,7.85-3.54,7.85-7.85,0-2.16-.89-4.12-2.3-5.55-1.43-1.43-3.4-2.3-5.55-2.3Z"/><path class="cls-3" d="m183.19,106.73h-7c4.33,0,7.85-3.54,7.85-7.85,0-2.16-.88-4.12-2.3-5.55-1.43-1.43-3.39-2.3-5.55-2.3h-5.56c4.31,0,7.85-3.54,7.85-7.85,0-2.16-.88-4.12-2.3-5.55-1.43-1.43-3.39-2.3-5.55-2.3h-30.15c-14.84-1.53-24.36,2.66-30.41,8.02l-17.65-3v41.85l8.27.29c10.25,13.3,13.12,15.82,21.03,19.95,6.91,3.63,12.78,8.27,14.7,11.69,6.58,11.74,6.61,10.6,10.91,23.36.73,2.16,1.64,4.7,3.84,5.31,1.63.46,5.96-.43,6.98-1.77,1.03-1.34,1.44-3.04,1.68-4.72.71-5.03.11-10.23-1.73-14.97-1.58-4.03-6.71-19.67-5.93-23.37l25.64.2c4.32,0,7.85-3.54,7.85-7.85,0-2.16-.89-4.12-2.3-5.55-1.43-1.43-3.4-2.3-5.55-2.3h5.4c4.32,0,7.85-3.54,7.85-7.85,0-2.16-.89-4.12-2.3-5.55-1.43-1.43-3.4-2.3-5.55-2.3Z"/><path class="cls-1" d="m166.76,107.19h9.44c4.32,0,7.85-3.53,7.85-7.85h0c0-4.32-3.53-7.85-7.85-7.85h-9.44"/><path class="cls-1" d="m175.03,122.89h8.16c4.32,0,7.85-3.53,7.85-7.85h0c0-4.32-3.53-7.85-7.85-7.85h-8.16"/><path class="cls-1" d="m80.56,122.22l20.13.72c10.24,13.3,13.12,15.81,21.03,19.95,6.92,3.62,12.79,8.27,14.7,11.68,6.59,11.73,6.61,10.61,10.9,23.36.73,2.16,1.65,4.7,3.85,5.31,1.63.45,5.95-.43,6.97-1.77,1.03-1.34,1.43-3.05,1.67-4.72.72-5.03.12-10.24-1.73-14.97-1.58-4.04-6.71-19.67-5.92-23.37l25.63.2c4.32,0,7.85-3.53,7.85-7.85h0c0-4.32-3.53-7.85-7.85-7.85h-9.44"/><path class="cls-2" d="m161.19,91.48h9.44c4.32,0,7.85-3.53,7.85-7.85h0c0-4.32-3.53-7.85-7.85-7.85h-30.15c-14.85-1.52-24.37,2.66-30.42,8.03l-19.54-3.32"/><rect class="cls-1" x="62.3" y="73.17" width="30.1" height="55.78" rx="6.02" ry="6.02"/><circle class="cls-5" cx="81.2" cy="86" r="3.84"/></svg>