<?xml version="1.0" encoding="UTF-8"?><svg id="Layer_1" xmlns="http://www.w3.org/2000/svg" viewBox="0 0 257.86 257.86"><defs><style>.cls-1{stroke-dasharray:0 0 6 3;}.cls-1,.cls-2{stroke:#000;}.cls-1,.cls-2,.cls-3{stroke-miterlimit:10;}.cls-1,.cls-3{fill:none;}.cls-2{fill:#fff;}.cls-3{stroke:#2c4bff;}.cls-4,.cls-5{stroke-width:0px;}.cls-5{fill:#2c4bff;}</style></defs><path class="cls-4" d="m127.78,54.4h4.14c4.56,0,8.26,3.7,8.26,8.26v13.55h-20.66v-13.55c0-4.56,3.7-8.26,8.26-8.26Z"/><rect class="cls-4" x="163.96" y="77.88" width="7.29" height="13.21" transform="translate(89.84 -86.34) rotate(38.77)"/><path class="cls-4" d="m167.21,74.72h12.44c1.35,0,2.45,1.1,2.45,2.45v2.58h-17.34v-2.58c0-1.35,1.1-2.45,2.45-2.45Z" transform="translate(86.59 -91.58) rotate(38.77)"/><circle class="cls-4" cx="131.9" cy="128.12" r="55.93"/><path class="cls-2" d="m123.89,55.86h4.14c4.56,0,8.26,3.7,8.26,8.26v13.55h-20.66v-13.55c0-4.56,3.7-8.26,8.26-8.26Z"/><rect class="cls-2" x="160" y="77.34" width="7.29" height="13.21" transform="translate(88.63 -83.98) rotate(38.77)"/><path class="cls-2" d="m163.25,74.18h12.44c1.35,0,2.45,1.1,2.45,2.45v2.58h-17.34v-2.58c0-1.35,1.1-2.45,2.45-2.45Z" transform="translate(85.37 -89.22) rotate(38.77)"/><circle class="cls-2" cx="125.96" cy="129.74" r="55.93"/><circle class="cls-5" cx="125.96" cy="79.67" r="2.08"/><circle class="cls-5" cx="125.96" cy="180.74" r="2.08"/><circle class="cls-5" cx="176.49" cy="130.2" r="2.08"/><circle class="cls-5" cx="75.42" cy="130.2" r="2.08"/><line class="cls-2" x1="125.96" y1="91.98" x2="125.96" y2="142.43"/><circle class="cls-2" cx="125.96" cy="129.74" r="6.28"/><circle class="cls-5" cx="161.69" cy="94.47" r="2.08"/><circle class="cls-5" cx="90.23" cy="165.94" r="2.08"/><circle class="cls-5" cx="161.69" cy="165.94" r="2.08"/><circle class="cls-5" cx="90.23" cy="94.47" r="2.08"/><circle class="cls-1" cx="125.96" cy="129.74" r="43.51"/><line class="cls-3" x1="168.61" y1="63.3" x2="168.61" y2="68.07"/><line class="cls-3" x1="185.85" y1="77.67" x2="181.07" y2="77.67"/><line class="cls-3" x1="180.56" y1="65.68" x2="176.58" y2="71.17"/></svg>