<?xml version="1.0" encoding="UTF-8"?><svg id="Layer_1" xmlns="http://www.w3.org/2000/svg" viewBox="0 0 257.86 257.86"><defs><style>.cls-1{fill:#fff;stroke:#000;stroke-miterlimit:10;}.cls-2,.cls-3{stroke-width:0px;}.cls-3{fill:#0ae6c7;}</style></defs><path class="cls-2" d="m180.55,150.41l2.26,14.69-3.39,3.27-13.83-13.72-11.29,12.42,12.7,13.57-3.1,3.37-14.69-1.69s-10.9-9.78-6.83-26.57l-15.68-15.68-35.55,35.54c-3.12,3.12-8.18,3.12-11.3,0-3.12-3.12-3.12-8.18,0-11.3l35.55-35.54-15.71-15.71c-2.14.61-15.35,3.86-25.96-5.97l-2.26-14.69,3.39-3.27,13.83,13.72,11.3-12.42-12.71-13.57,3.11-3.37,14.68,1.69s10.89,9.77,6.85,26.54l15.26,15.26,22.47-22.47-12.05-12.05,1.99-1.99c7.76-7.75,20.33-7.75,28.09,0l21.31,21.31-16.04,16.03-12-12-22.47,22.47,16.15,16.15c2.21-.63,15.36-3.8,25.92,5.98Z"/><path class="cls-1" d="m88.97,125.5h15.98v50.24c0,4.41-3.58,7.99-7.99,7.99h0c-4.41,0-7.99-3.58-7.99-7.99v-50.24h0Z" transform="translate(137.73 -23.27) rotate(45)"/><path class="cls-1" d="m185.51,101.37l-16.04,16.03-12-12-24.67,24.67-11.3-11.3,24.67-24.67-12.05-12.05,1.99-1.99c7.76-7.75,20.33-7.75,28.09,0l21.31,21.31Z"/><path class="cls-1" d="m161.56,155.01l-11.29,12.42,12.7,13.57-3.1,3.37-14.69-1.69s-10.9-9.78-6.83-26.57l-41.26-41.26c-2.14.61-15.35,3.86-25.96-5.97l-2.26-14.69,3.39-3.27,13.83,13.72,11.3-12.42-12.71-13.57,3.11-3.37,14.68,1.69s10.89,9.77,6.85,26.54l41.28,41.28c2.21-.63,15.36-3.8,25.92,5.98l2.26,14.69-3.39,3.27-13.83-13.72Z"/><rect class="cls-3" x="120.55" y="103.25" width="5.57" height="52.17" transform="translate(-55.33 125.09) rotate(-45)"/></svg>