<?xml version="1.0" encoding="UTF-8"?><svg id="Layer_1" xmlns="http://www.w3.org/2000/svg" viewBox="0 0 257.86 257.86"><defs><style>.cls-1{fill:#fff;}.cls-1,.cls-2{stroke:#000;stroke-miterlimit:10;stroke-width:2px;}.cls-2{fill:none;}</style></defs><path d="M73.46,108.71h23.73v57.27h-23.73c-2.7,0-4.89-2.19-4.89-4.89v-47.49c0-2.7,2.19-4.89,4.89-4.89Z"/><path d="M147.81,197.76l-50.63-31.78v-57.27l50.63-31.78c1.89-1.18,4.34.17,4.34,2.4v116.03c0,2.23-2.45,3.58-4.34,2.4Z"/><path class="cls-1" d="M67.94,103.51h23.73v57.27h-23.73c-2.7,0-4.89-2.19-4.89-4.89v-47.49c0-2.7,2.19-4.89,4.89-4.89Z"/><path class="cls-1" d="M142.29,192.57l-50.63-31.78v-57.27l50.63-31.78c1.89-1.18,4.34.17,4.34,2.4v116.03c0,2.23-2.45,3.58-4.34,2.4Z"/><path class="cls-2" d="M178.96,107.75s14.37,19.96,0,47.76"/><path class="cls-2" d="M164.81,117.45s8.54,11.85,0,28.36"/><path class="cls-2" d="M194.4,97.03s20.83,28.92,0,69.2"/></svg>