<svg xmlns="http://www.w3.org/2000/svg" width="24" height="24" viewBox="0 0 24 24">
  <path fill="#777" fill-rule="evenodd" d="M4,4 L9,4 C9.55228475,4 10,4.44771525 10,5 L10,18 C10,18.5522847 9.55228475,19 9,19 L4,19 C3.44771525,19 3,18.5522847 3,18 L3,5 C3,4.44771525 3.44771525,4 4,4 Z M5,6 L5,17 L8,17 L8,6 L5,6 Z M12,4 L19,4 C19.5522847,4 20,4.44771525 20,5 L20,11 C20,11.5522847 19.5522847,12 19,12 L12,12 C11.4477153,12 11,11.5522847 11,11 L11,5 C11,4.44771525 11.4477153,4 12,4 Z M13,6 L13,10 L18,10 L18,6 L13,6 Z M12,13 L19,13 C19.5522847,13 20,13.4477153 20,14 L20,18 C20,18.5522847 19.5522847,19 19,19 L12,19 C11.4477153,19 11,18.5522847 11,18 L11,14 C11,13.4477153 11.4477153,13 12,13 Z M13,15 L13,17 L18,17 L18,15 L13,15 Z"/>
</svg>
