<svg xmlns="http://www.w3.org/2000/svg" width="24" height="24" viewBox="0 0 24 24">
  <path fill="#777" fill-rule="evenodd" d="M20.2351068,10.9568932 C20.7176513,11.4394377 21,12.1039902 21,12.8 C21,13.5030199 20.719868,14.1635781 20.2351068,14.6351068 L14.6447259,20.225355 C14.1635781,20.719868 13.5030199,21 12.8,21 C12.1034494,21 11.4467141,20.7249276 10.9648932,20.2431068 L3.76489322,13.0431068 C3.27671871,12.5549323 3,11.8990064 3,11.2 L3,5.6 C3,4.16771525 4.16771525,3 5.6,3 L11.2,3 C11.8965506,3 12.5532859,3.27507238 13.0351068,3.75689322 L20.2351068,10.9568932 Z M18.8208932,12.3711068 L11.6208932,5.17110678 C11.5121555,5.06236906 11.3632494,5 11.2,5 L5.6,5 C5.27228475,5 5,5.27228475 5,5.6 L5,11.2 C5,11.3638084 5.06274074,11.5125272 5.17910678,11.6288932 L12.3791068,18.8288932 C12.4878445,18.9376309 12.6367506,19 12.8,19 C12.9619677,19 13.105876,18.9389708 13.2208932,18.8208932 L18.830645,13.2112741 C18.9389708,13.105876 19,12.9619677 19,12.8 C19,12.641083 18.9328712,12.4830848 18.8208932,12.3711068 Z M8,9 C7.44771525,9 7,8.55228475 7,8 C7,7.44771525 7.44771525,7 8,7 C8.55228475,7 9,7.44771525 9,8 C9,8.55228475 8.55228475,9 8,9 Z"/>
</svg>
