<svg xmlns="http://www.w3.org/2000/svg" width="24" height="24" viewBox="0 0 24 24">
  <path fill="#777" fill-rule="evenodd" d="M13,4 L19,4 C19.5522847,4 20,4.44771525 20,5 L20,20 C20,20.5522847 19.5522847,21 19,21 L13,21 C12.4477153,21 12,20.5522847 12,20 L12,5 C12,4.44771525 12.4477153,4 13,4 Z M14,6 L14,19 L18,19 L18,6 L14,6 Z M5,4 L10,4 C10.5522847,4 11,4.44771525 11,5 L11,11 C11,11.5522847 10.5522847,12 10,12 L5,12 C4.44771525,12 4,11.5522847 4,11 L4,5 C4,4.44771525 4.44771525,4 5,4 Z M6,6 L6,10 L9,10 L9,6 L6,6 Z M5,13 L10,13 C10.5522847,13 11,13.4477153 11,14 L11,20 C11,20.5522847 10.5522847,21 10,21 L5,21 C4.44771525,21 4,20.5522847 4,20 L4,14 C4,13.4477153 4.44771525,13 5,13 Z M6,15 L6,19 L9,19 L9,15 L6,15 Z"/>
</svg>
