<svg xmlns="http://www.w3.org/2000/svg" width="24" height="24" viewBox="0 0 24 24">
  <path fill="#777" fill-rule="evenodd" d="M17,16 L17,14 C17,13.4477153 17.4477153,13 18,13 C18.5522847,13 19,13.4477153 19,14 L19,16 L21,16 C21.5522847,16 22,16.4477153 22,17 C22,17.5522847 21.5522847,18 21,18 L19,18 L19,20 C19,20.5522847 18.5522847,21 18,21 C17.4477153,21 17,20.5522847 17,20 L17,18 L15,18 C14.4477153,18 14,17.5522847 14,17 C14,16.4477153 14.4477153,16 15,16 L17,16 Z M12,18 L11,18 C10.4477153,18 10,17.5522847 10,17 L10,13 C10,12.4477153 10.4477153,12 11,12 L15,12 L15,14 L12,14 L12,16 L12,18 Z M3,3 L8,3 C8.55228475,3 9,3.44771525 9,4 L9,17 C9,17.5522847 8.55228475,18 8,18 L3,18 C2.44771525,18 2,17.5522847 2,17 L2,4 C2,3.44771525 2.44771525,3 3,3 Z M4,5 L4,16 L7,16 L7,5 L4,5 Z M11,3 L18,3 C18.5522847,3 19,3.44771525 19,4 L19,10 C19,10.5522847 18.5522847,11 18,11 L11,11 C10.4477153,11 10,10.5522847 10,10 L10,4 C10,3.44771525 10.4477153,3 11,3 Z M12,5 L12,9 L17,9 L17,5 L12,5 Z"/>
</svg>
