<svg xmlns="http://www.w3.org/2000/svg" version="1.1" viewBox="0 0 24 24">
  <path d="M17.2,15.5H6.8c-1,0-1.8.8-1.8,1.8v1.8c0,1,.8,1.8,1.8,1.8h10.5c1,0,1.8-.8,1.8-1.8v-1.8c0-1-.8-1.8-1.8-1.8ZM17.2,19H6.8v-1.8h10.5v1.8Z"/>
  <path d="M17.2,9.4H6.8c-1,0-1.8.8-1.8,1.8v1.8c0,1,.8,1.8,1.8,1.8h10.5c1,0,1.8-.8,1.8-1.8v-1.8c0-1-.8-1.8-1.8-1.8ZM17.2,12.9H6.8v-1.8h10.5v1.8Z"/>
  <path d="M17.2,3.2H6.8c-1,0-1.8.8-1.8,1.8v1.8c0,1,.8,1.8,1.8,1.8h10.5c1,0,1.8-.8,1.8-1.8v-1.8c0-1-.8-1.8-1.8-1.8ZM17.2,6.8H6.8v-1.8h10.5v1.8Z"/>
</svg>