<svg xmlns="http://www.w3.org/2000/svg" width="24" height="24" viewBox="0 0 24 24">
  <path fill="#777" fill-rule="evenodd" d="M13,11 L13,9 C13,8.44771525 12.5522847,8 12,8 C11.4477153,8 11,8.44771525 11,9 L11,11 L9,11 C8.44771525,11 8,11.4477153 8,12 C8,12.5522847 8.44771525,13 9,13 L11,13 L11,15 C11,15.5522847 11.4477153,16 12,16 C12.5522847,16 13,15.5522847 13,15 L13,13 L15,13 C15.5522847,13 16,12.5522847 16,12 C16,11.4477153 15.5522847,11 15,11 L13,11 Z M12,19 C8.13400675,19 5,15.8659932 5,12 C5,8.13400675 8.13400675,5 12,5 C15.8659932,5 19,8.13400675 19,12 C19,15.8659932 15.8659932,19 12,19 Z"/>
</svg>
