<svg width="18" height="18" viewBox="0 0 18 18" fill="none" xmlns="http://www.w3.org/2000/svg">
<path d="M15 0C16.6569 0 18 1.34315 18 3V15C18 16.6569 16.6569 18 15 18H3C1.34315 18 0 16.6569 0 15V3C0 1.34315 1.34315 0 3 0H15ZM3 2C2.44772 2 2 2.44772 2 3V15C2 15.5523 2.44772 16 3 16H9V11H8C7.44772 11 7 10.5523 7 10C7 9.44771 7.44772 9 8 9H9V7C9 5.34315 10.3431 4 12 4H12.5C13.0523 4 13.5 4.44772 13.5 5C13.5 5.55228 13.0523 6 12.5 6H12C11.4477 6 11 6.44772 11 7V9H12C12.5523 9 13 9.44772 13 10C13 10.5523 12.5523 11 12 11H11V16H15C15.5523 16 16 15.5523 16 15V3C16 2.44772 15.5523 2 15 2H3Z" fill="#797986"/>
</svg>
