<svg width="18" height="18" viewBox="0 0 18 18" fill="none" xmlns="http://www.w3.org/2000/svg">
<path d="M15 0C16.6569 0 18 1.34315 18 3V15C18 16.6569 16.6569 18 15 18H3C1.34315 18 0 16.6569 0 15V3C0 1.34315 1.34315 0 3 0H15ZM3 2C2.44772 2 2 2.44772 2 3V15C2 15.5523 2.44772 16 3 16H15C15.5523 16 16 15.5523 16 15V3C16 2.44772 15.5523 2 15 2H3ZM6.5 7C6.77614 7 7 7.22386 7 7.5V13.5C7 13.7761 6.77614 14 6.5 14H5.5C5.22386 14 5 13.7761 5 13.5V7.5C5 7.22386 5.22386 7 5.5 7H6.5ZM11 7C12.6569 7 14 8.34315 14 10V13.5C14 13.7761 13.7761 14 13.5 14H12.5C12.2239 14 12 13.7761 12 13.5V10C12 9.44772 11.5523 9 11 9C10.4477 9 10 9.44772 10 10V13.5C10 13.7761 9.77614 14 9.5 14H8.5C8.22386 14 8 13.7761 8 13.5V10C8 8.34315 9.34315 7 11 7ZM6 4C6.55228 4 7 4.44772 7 5C7 5.55228 6.55228 6 6 6C5.44772 6 5 5.55228 5 5C5 4.44772 5.44772 4 6 4Z" fill="#797986"/>
</svg>
