<svg width="118" height="25" viewBox="0 0 118 25" fill="none" xmlns="http://www.w3.org/2000/svg">
<g clip-path="url(#clip0_3_1901)">
<path d="M90.4048 7.13669V24.5671H93.3898V18.5285C94.5277 19.6312 96.0539 20.3056 97.7327 20.3056C101.254 20.3056 104.111 17.3357 104.111 13.6695C104.111 10.0033 101.254 7.03125 97.7327 7.03125C96.0539 7.03125 94.5277 7.70562 93.3898 8.80833V7.13669H90.4048ZM93.3898 14.3087C93.3247 13.8892 93.3225 13.4586 93.3898 13.0303C93.4459 12.6591 93.5536 12.2944 93.7152 11.9407C94.5905 10.0363 96.6307 9.11806 98.5743 9.75069C100.201 10.2801 101.297 11.8155 101.326 13.6036C101.371 16.5383 98.5272 18.5109 95.8003 17.4389C94.4761 16.9183 93.5985 15.6816 93.3898 14.3087Z" fill="white"/>
<path d="M54.9649 7.0664V8.80833C53.827 7.70562 52.3008 7.03125 50.622 7.03125C47.1006 7.03125 44.2435 10.0033 44.2435 13.6695C44.2435 17.3357 47.1006 20.3056 50.622 20.3056C52.3008 20.3056 53.827 19.6312 54.9649 18.5285V20.2155H57.9499V7.0664H54.9649ZM52.5544 17.4389C49.8275 18.5109 46.9839 16.5383 47.0288 13.6036C47.058 11.8155 48.1532 10.2801 49.7804 9.75069C51.724 9.11806 53.7641 10.0363 54.6395 11.9407C54.801 12.2944 54.9088 12.6591 54.9649 13.0303C55.0322 13.4586 55.03 13.8892 54.9649 14.3087C54.7562 15.6816 53.8786 16.9183 52.5544 17.4389Z" fill="white"/>
<path d="M25.0962 20.2201L18.1005 2.28231C17.5462 0.869871 16.213 0 14.7699 0H10.6582C9.21506 0 7.88415 0.869871 7.32755 2.28231L0.403667 19.7566C0.248806 20.1476 0.123121 20.5496 0.0513014 20.9626C0.0198802 21.1493 -0.00256348 21.336 -0.00256348 21.5227C-0.00256348 23.4777 1.55054 25 3.54803 25H21.779C23.1706 24.9934 24.4543 24.1631 25.0109 22.9132C25.3745 22.096 25.4306 21.1427 25.0962 20.2179V20.2201ZM15.8786 21.4151H4.99565C4.88343 21.4151 4.58717 21.3777 4.45924 21.2921C3.96099 20.9648 3.66474 20.4376 3.88468 19.783L9.32728 6.30656C9.4395 5.97926 9.76718 5.57069 10.4876 5.57069C10.9657 5.57069 11.3854 5.81232 11.5515 6.30656L17.0412 19.7874C17.1152 19.9477 17.1063 20.1081 17.1063 20.2201C17.1063 20.8703 16.5519 21.4151 15.8831 21.4151H15.8786Z" fill="white"/>
<path d="M43.0432 17.5672C42.3968 18.4327 41.5799 19.1137 40.5946 19.6079C39.5285 20.1417 38.3502 20.4097 37.0642 20.4097C35.0016 20.4097 33.2959 19.7771 31.9493 18.5096C30.6004 17.2443 29.9271 15.6254 29.9271 13.6528C29.9271 11.6802 30.6139 9.99322 31.9875 8.69281C33.3633 7.39239 35.0735 6.74219 37.1181 6.74219C38.3345 6.74219 39.4567 6.98382 40.4891 7.46708C41.351 7.87346 42.0871 8.42482 42.6976 9.12335L40.3881 11.2255C39.4859 10.1228 38.3884 9.57146 37.0912 9.57146C35.9622 9.57146 35.0286 9.94709 34.2879 10.6939C33.5473 11.443 33.177 12.4029 33.177 13.5759C33.177 14.749 33.5563 15.7352 34.3149 16.4821C35.0735 17.2312 36.0071 17.6046 37.1181 17.6046C38.5433 17.6046 39.7507 16.9961 40.736 15.7792L43.0432 17.5672Z" fill="white"/>
<path d="M86.901 18.3829C85.5611 19.6767 83.8734 20.3247 81.8377 20.3247C79.8021 20.3247 78.1098 19.6723 76.7609 18.3697C75.4121 17.0671 74.7388 15.4372 74.7388 13.4778C74.7388 11.5184 75.4121 9.86651 76.7609 8.57269C78.1098 7.27887 79.8021 6.63086 81.8377 6.63086C83.8734 6.63086 85.5611 7.27887 86.901 8.57269C88.2409 9.86651 88.9097 11.503 88.9097 13.4778C88.9097 15.4526 88.2387 17.0891 86.901 18.3829ZM79.0323 16.3905C79.7706 17.1396 80.7066 17.5152 81.8377 17.5152C82.9689 17.5152 83.9003 17.1374 84.6297 16.3796C85.3614 15.6217 85.725 14.6552 85.725 13.48C85.725 12.3048 85.3591 11.3427 84.6297 10.5936C83.898 9.84455 82.9689 9.46892 81.8377 9.46892C80.7066 9.46892 79.7504 9.84455 79.0188 10.5936C78.2871 11.3427 77.9235 12.3048 77.9235 13.48C77.9235 14.6552 78.2939 15.6437 79.0323 16.3927V16.3905Z" fill="white"/>
<path d="M73.2415 12.4484V20.2179H69.7604V13.1074C69.7604 12.0113 69.4799 11.1809 68.9188 10.6164C68.3577 10.0497 67.5834 9.76849 66.5959 9.76849C65.2089 9.76849 64.1001 10.4495 63.1373 11.3698V20.2179H60.0266V7.06662H63.0745V8.47247C64.3246 7.59381 65.7857 6.95898 67.4667 6.95898C69.1477 6.95898 70.6066 7.44225 71.6614 8.41316C72.7163 9.38408 73.2415 10.7284 73.2415 12.4484Z" fill="white"/>
<path d="M118 6.95801L109.611 24.4565H106.563L109.465 18.4904L103.58 6.95801L106.785 6.94922L111.049 15.2306L115.078 6.94922L118 6.95801Z" fill="white"/>
</g>
<defs>
<clipPath id="clip0_3_1901">
<rect width="118" height="25" fill="white"/>
</clipPath>
</defs>
</svg>
