<svg xmlns="http://www.w3.org/2000/svg" width="24" height="24" viewBox="0 0 24 24">
  <path fill="#777" fill-rule="evenodd" d="M5,5 C5.55228475,5 6,5.44771525 6,6 C6,6.55228475 5.55228475,7 5,7 C4.44771525,7 4,6.55228475 4,6 C4,5.44771525 4.44771525,5 5,5 Z M5,9 C5.55228475,9 6,9.44771525 6,10 C6,10.5522847 5.55228475,11 5,11 C4.44771525,11 4,10.5522847 4,10 C4,9.44771525 4.44771525,9 5,9 Z M9,5 L19,5 C19.5522847,5 20,5.44771525 20,6 C20,6.55228475 19.5522847,7 19,7 L9,7 C8.44771525,7 8,6.55228475 8,6 C8,5.44771525 8.44771525,5 9,5 Z M9,9 L19,9 C19.5522847,9 20,9.44771525 20,10 C20,10.5522847 19.5522847,11 19,11 L9,11 C8.44771525,11 8,10.5522847 8,10 C8,9.44771525 8.44771525,9 9,9 Z M5,13 C5.55228475,13 6,13.4477153 6,14 C6,14.5522847 5.55228475,15 5,15 C4.44771525,15 4,14.5522847 4,14 C4,13.4477153 4.44771525,13 5,13 Z M9,13 L19,13 C19.5522847,13 20,13.4477153 20,14 C20,14.5522847 19.5522847,15 19,15 L9,15 C8.44771525,15 8,14.5522847 8,14 C8,13.4477153 8.44771525,13 9,13 Z M5,17 C5.55228475,17 6,17.4477153 6,18 C6,18.5522847 5.55228475,19 5,19 C4.44771525,19 4,18.5522847 4,18 C4,17.4477153 4.44771525,17 5,17 Z M9,17 L19,17 C19.5522847,17 20,17.4477153 20,18 C20,18.5522847 19.5522847,19 19,19 L9,19 C8.44771525,19 8,18.5522847 8,18 C8,17.4477153 8.44771525,17 9,17 Z"/>
</svg>
