<svg xmlns="http://www.w3.org/2000/svg" width="24" height="24" viewBox="0 0 24 24">
  <path fill="#777" fill-rule="evenodd" d="M5,5 L19,5 C19.5522847,5 20,5.44771525 20,6 C20,6.55228475 19.5522847,7 19,7 L5,7 C4.44771525,7 4,6.55228475 4,6 C4,5.44771525 4.44771525,5 5,5 Z M11,9 L19,9 C19.5522847,9 20,9.44771525 20,10 C20,10.5522847 19.5522847,11 19,11 L11,11 C10.4477153,11 10,10.5522847 10,10 C10,9.44771525 10.4477153,9 11,9 Z M11,13 L19,13 C19.5522847,13 20,13.4477153 20,14 C20,14.5522847 19.5522847,15 19,15 L11,15 C10.4477153,15 10,14.5522847 10,14 C10,13.4477153 10.4477153,13 11,13 Z M7.88728036,8.64987802 C7.97593688,8.5789528 8.08609213,8.54031242 8.19962788,8.54031242 C8.47577026,8.54031242 8.69962788,8.76417005 8.69962788,9.04031242 L8.69962788,14.9596876 C8.69962788,15.0732233 8.66098751,15.1833786 8.59006229,15.2720351 C8.41755751,15.4876661 8.10291133,15.5226268 7.88728036,15.350122 L4.18767089,12.3904344 C4.15883854,12.3673685 4.13264989,12.3411799 4.10958401,12.3123475 C3.93707923,12.0967166 3.97203992,11.7820704 4.18767089,11.6095656 L7.88728036,8.64987802 Z M5,17 L19,17 C19.5522847,17 20,17.4477153 20,18 C20,18.5522847 19.5522847,19 19,19 L5,19 C4.44771525,19 4,18.5522847 4,18 C4,17.4477153 4.44771525,17 5,17 Z"/>
</svg>
