<svg xmlns="http://www.w3.org/2000/svg" width="24" height="24" viewBox="0 0 24 24">
  <path fill="#777" fill-rule="evenodd" d="M5,5 L11,5 C11.5522847,5 12,5.44771525 12,6 C12,6.55228475 11.5522847,7 11,7 L5,7 C4.44771525,7 4,6.55228475 4,6 C4,5.44771525 4.44771525,5 5,5 Z M5,8 L19,8 C19.5522847,8 20,8.44771525 20,9 C20,9.55228475 19.5522847,10 19,10 L5,10 C4.44771525,10 4,9.55228475 4,9 C4,8.44771525 4.44771525,8 5,8 Z M5,11 L17,11 C17.5522847,11 18,11.4477153 18,12 C18,12.5522847 17.5522847,13 17,13 L5,13 C4.44771525,13 4,12.5522847 4,12 C4,11.4477153 4.44771525,11 5,11 Z M5,14 L19,14 C19.5522847,14 20,14.4477153 20,15 C20,15.5522847 19.5522847,16 19,16 L5,16 C4.44771525,16 4,15.5522847 4,15 C4,14.4477153 4.44771525,14 5,14 Z M5,17 L11,17 C11.5522847,17 12,17.4477153 12,18 C12,18.5522847 11.5522847,19 11,19 L5,19 C4.44771525,19 4,18.5522847 4,18 C4,17.4477153 4.44771525,17 5,17 Z"/>
</svg>
