<svg xmlns="http://www.w3.org/2000/svg" width="24" height="24" viewBox="0 0 24 24">
  <path fill="#777" fill-rule="evenodd" d="M12.04,17.32 C8.4,17.32 6.08,15.22 6.08,11.16 L6.08,6.22 C6.08,5.54 6.62,5 7.32,5 C8,5 8.54,5.54 8.54,6.22 L8.54,11.06 C8.54,13.66 9.88,15.04 12.08,15.04 C14.26,15.04 15.6,13.74 15.6,11.16 L15.6,6.22 C15.6,5.54 16.14,5 16.84,5 C17.52,5 18.06,5.54 18.06,6.22 L18.06,11.04 C18.06,15.22 15.7,17.32 12.04,17.32 Z M7,18.1 L17,18.1 C17.5522847,18.1 18,18.5477153 18,19.1 C18,19.6522847 17.5522847,20.1 17,20.1 L7,20.1 C6.44771525,20.1 6,19.6522847 6,19.1 C6,18.5477153 6.44771525,18.1 7,18.1 Z"/>
</svg>
