<svg xmlns="http://www.w3.org/2000/svg" width="24" height="24" viewBox="0 0 24 24">
  <path fill="#777" fill-rule="evenodd" d="M3,17.98 L3,6.22 C3,5.54 3.54,5 4.24,5 C4.92,5 5.46,5.54 5.46,6.22 L5.46,10.92 L12.14,10.92 L12.14,6.22 C12.14,5.54 12.68,5 13.36,5 C14.06,5 14.6,5.54 14.6,6.22 L14.6,17.98 C14.6,18.66 14.06,19.2 13.36,19.2 C12.68,19.2 12.14,18.66 12.14,17.98 L12.14,13.2 L5.46,13.2 L5.46,17.98 C5.46,18.66 4.92,19.2 4.24,19.2 C3.54,19.2 3,18.66 3,17.98 Z M18.892,18.316 L18.892,10.924 L17.884,11.232 C17.786,11.26 17.66,11.274 17.576,11.274 C17.17,11.274 16.82,10.938 16.82,10.546 C16.82,10.182 17.044,9.902 17.394,9.804 L18.878,9.328 C19.214,9.23 19.466,9.174 19.718,9.174 L19.746,9.174 C20.236,9.174 20.6,9.552 20.6,10.028 L20.6,18.316 C20.6,18.792 20.222,19.17 19.746,19.17 C19.284,19.17 18.892,18.792 18.892,18.316 Z"/>
</svg>
