<svg xmlns="http://www.w3.org/2000/svg" width="24" height="24" viewBox="0 0 24 24">
  <path fill="#777" fill-rule="evenodd" d="M4,16.384 L4,6.976 C4,6.432 4.432,6 4.992,6 C5.536,6 5.968,6.432 5.968,6.976 L5.968,10.736 L11.312,10.736 L11.312,6.976 C11.312,6.432 11.744,6 12.288,6 C12.848,6 13.28,6.432 13.28,6.976 L13.28,16.384 C13.28,16.928 12.848,17.36 12.288,17.36 C11.744,17.36 11.312,16.928 11.312,16.384 L11.312,12.56 L5.968,12.56 L5.968,16.384 C5.968,16.928 5.536,17.36 4.992,17.36 C4.432,17.36 4,16.928 4,16.384 Z M15.193,16.642 C15.193,16.378 15.314,16.158 15.545,15.971 L17.91,13.958 C18.966,13.067 19.351,12.572 19.351,11.879 C19.351,11.12 18.812,10.68 18.108,10.68 C17.492,10.68 17.063,10.966 16.59,11.538 C16.491,11.648 16.337,11.747 16.117,11.747 C15.776,11.747 15.501,11.472 15.501,11.131 C15.501,10.988 15.556,10.834 15.655,10.713 C16.282,9.932 16.997,9.47 18.207,9.47 C19.714,9.47 20.748,10.394 20.748,11.769 L20.748,11.791 C20.748,13.001 20.11,13.661 18.746,14.772 L17.162,16.092 L20.286,16.092 C20.616,16.092 20.88,16.356 20.88,16.686 C20.88,17.016 20.616,17.28 20.286,17.28 L15.919,17.28 C15.501,17.28 15.193,17.038 15.193,16.642 Z"/>
</svg>
