<svg xmlns="http://www.w3.org/2000/svg" width="24" height="24" viewBox="0 0 24 24">
  <path fill="#777" fill-rule="evenodd" d="M4,16.384 L4,6.976 C4,6.432 4.432,6 4.992,6 C5.536,6 5.968,6.432 5.968,6.976 L5.968,10.736 L11.312,10.736 L11.312,6.976 C11.312,6.432 11.744,6 12.288,6 C12.848,6 13.28,6.432 13.28,6.976 L13.28,16.384 C13.28,16.928 12.848,17.36 12.288,17.36 C11.744,17.36 11.312,16.928 11.312,16.384 L11.312,12.56 L5.968,12.56 L5.968,16.384 C5.968,16.928 5.536,17.36 4.992,17.36 C4.432,17.36 4,16.928 4,16.384 Z M18.141,17.412 C17.008,17.412 16.161,17.016 15.534,16.411 C15.413,16.312 15.314,16.125 15.314,15.927 C15.314,15.575 15.611,15.278 15.963,15.278 C16.161,15.278 16.304,15.355 16.414,15.454 C16.898,15.938 17.448,16.191 18.163,16.191 C18.922,16.191 19.494,15.729 19.494,15.025 L19.494,15.003 C19.494,14.244 18.801,13.815 17.723,13.815 L17.448,13.815 C17.129,13.815 16.865,13.551 16.865,13.232 C16.865,13.056 16.942,12.891 17.151,12.682 L18.955,10.757 L16.161,10.757 C15.831,10.757 15.567,10.493 15.567,10.174 C15.567,9.844 15.831,9.58 16.161,9.58 L20.099,9.58 C20.484,9.58 20.77,9.811 20.77,10.174 C20.77,10.493 20.616,10.68 20.385,10.911 L18.57,12.792 C19.736,12.935 20.836,13.529 20.836,14.948 L20.836,14.97 C20.836,16.389 19.747,17.412 18.141,17.412 Z"/>
</svg>
