<svg xmlns="http://www.w3.org/2000/svg" width="24" height="24" viewBox="0 0 24 24">
  <path fill="#777" fill-rule="evenodd" d="M6,17.46 L6,6.54 C6,5.68 6.68,5 7.54,5 L12.5,5 C14.1,5 15.36,5.44 16.16,6.24 C16.8,6.88 17.12,7.66 17.12,8.62 L17.12,8.66 C17.12,10.24 16.28,11.12 15.28,11.68 C16.9,12.3 17.9,13.24 17.9,15.12 L17.9,15.16 C17.9,17.72 15.82,19 12.66,19 L7.54,19 C6.68,19 6,18.32 6,17.46 Z M9,10.66 L11.84,10.66 C13.2,10.66 14.06,10.22 14.06,9.18 L14.06,9.14 C14.06,8.22 13.34,7.7 12.04,7.7 L9,7.7 L9,10.66 Z M9,16.3 L12.66,16.3 C14.02,16.3 14.84,15.82 14.84,14.78 L14.84,14.74 C14.84,13.8 14.14,13.22 12.56,13.22 L9,13.22 L9,16.3 Z"/>
</svg>
