<svg xmlns="http://www.w3.org/2000/svg" width="24" height="24" viewBox="0 0 24 24">
  <path fill="#777" fill-rule="evenodd" d="M5.93886719,16.7195312 C5.93886719,16.9871107 5.85781331,17.2146475 5.69570313,17.4021484 C5.53359294,17.5896494 5.30605615,17.7185543 5.01308594,17.7888672 L5.01308594,17.8064453 C5.35879079,17.8494143 5.62050692,17.9543937 5.79824219,18.1213867 C5.97597745,18.2883797 6.06484375,18.5134751 6.06484375,18.7966797 C6.06484375,19.2087911 5.91543118,19.5295887 5.61660156,19.759082 C5.31777194,19.9885754 4.8910184,20.1033203 4.33632813,20.1033203 C3.87148205,20.1033203 3.4593768,20.0261726 3.1,19.871875 L3.1,19.1013672 C3.26601646,19.185352 3.44863182,19.2537107 3.64785156,19.3064453 C3.84707131,19.35918 4.04433496,19.3855469 4.23964844,19.3855469 C4.53847806,19.3855469 4.75917897,19.3347661 4.90175781,19.2332031 C5.04433665,19.1316401 5.115625,18.9685558 5.115625,18.7439453 C5.115625,18.5427724 5.03359457,18.4001957 4.86953125,18.3162109 C4.70546793,18.2322261 4.4437518,18.1902344 4.084375,18.1902344 L3.75917969,18.1902344 L3.75917969,17.4958984 L4.09023438,17.4958984 C4.42226729,17.4958984 4.66494064,17.4524418 4.81826172,17.3655273 C4.9715828,17.2786128 5.04824219,17.1296886 5.04824219,16.91875 C5.04824219,16.5945296 4.84511922,16.4324219 4.43886719,16.4324219 C4.29824148,16.4324219 4.15517651,16.4558591 4.00966797,16.5027344 C3.86415943,16.5496096 3.70253995,16.6306635 3.52480469,16.7458984 L3.10585938,16.121875 C3.49648633,15.8406236 3.96230198,15.7 4.50332031,15.7 C4.9466819,15.7 5.29677606,15.7898429 5.55361328,15.9695312 C5.8104505,16.1492196 5.93886719,16.3992171 5.93886719,16.7195312 Z M6.10585938,14.0447266 L3.11171875,14.0447266 L3.11171875,13.4148437 L4.18691406,12.3279297 C4.50527503,12.0017562 4.71328076,11.7756842 4.8109375,11.649707 C4.90859424,11.5237298 4.97890604,11.4070318 5.021875,11.2996094 C5.06484396,11.192187 5.08632813,11.08086 5.08632813,10.965625 C5.08632813,10.7937491 5.03896532,10.6658207 4.94423828,10.5818359 C4.84951125,10.4978511 4.72304767,10.4558594 4.56484375,10.4558594 C4.39882729,10.4558594 4.23769609,10.4939449 4.08144531,10.5701172 C3.92519453,10.6462894 3.76211022,10.7546868 3.5921875,10.8953125 L3.1,10.3123047 C3.31093855,10.1326163 3.48574149,10.0056644 3.62441406,9.93144531 C3.76308663,9.85722619 3.9144523,9.80009786 4.07851563,9.76005859 C4.24257895,9.72001933 4.42617086,9.7 4.62929688,9.7 C4.89687634,9.7 5.1332021,9.74882764 5.33828125,9.84648437 C5.5433604,9.94414111 5.7025385,10.0808585 5.81582031,10.2566406 C5.92910213,10.4324228 5.98574219,10.6335926 5.98574219,10.8601562 C5.98574219,11.0574229 5.95107457,11.2424796 5.88173828,11.415332 C5.812402,11.5881845 5.7049812,11.7654288 5.55947266,11.9470703 C5.41396412,12.1287118 5.15761902,12.3874983 4.79042969,12.7234375 L4.23964844,13.2419922 L4.23964844,13.2830078 L6.10585938,13.2830078 L6.10585938,14.0447266 Z M5.12402344,8.28320312 L4.21875,8.28320312 L4.21875,5.8046875 L4.22753906,5.39746094 L4.2421875,4.95214844 C4.09179612,5.10253981 3.98730498,5.20117164 3.92871094,5.24804688 L3.43652344,5.64355469 L3,5.09863281 L4.37988281,4 L5.12402344,4 L5.12402344,8.28320312 Z M9,5 L20,5 C20.5522847,5 21,5.44771525 21,6 C21,6.55228475 20.5522847,7 20,7 L9,7 C8.44771525,7 8,6.55228475 8,6 C8,5.44771525 8.44771525,5 9,5 Z M9,11 L20,11 C20.5522847,11 21,11.4477153 21,12 C21,12.5522847 20.5522847,13 20,13 L9,13 C8.44771525,13 8,12.5522847 8,12 C8,11.4477153 8.44771525,11 9,11 Z M9,17 L20,17 C20.5522847,17 21,17.4477153 21,18 C21,18.5522847 20.5522847,19 20,19 L9,19 C8.44771525,19 8,18.5522847 8,18 C8,17.4477153 8.44771525,17 9,17 Z"/>
</svg>
