<svg xmlns="http://www.w3.org/2000/svg" width="24" height="24" viewBox="0 0 24 24">
  <path fill="#777" fill-rule="evenodd" d="M5,5 L19,5 C19.5522847,5 20,5.44771525 20,6 C20,6.55228475 19.5522847,7 19,7 L5,7 C4.44771525,7 4,6.55228475 4,6 C4,5.44771525 4.44771525,5 5,5 Z M11,9 L19,9 C19.5522847,9 20,9.44771525 20,10 C20,10.5522847 19.5522847,11 19,11 L11,11 C10.4477153,11 10,10.5522847 10,10 C10,9.44771525 10.4477153,9 11,9 Z M11,13 L19,13 C19.5522847,13 20,13.4477153 20,14 C20,14.5522847 19.5522847,15 19,15 L11,15 C10.4477153,15 10,14.5522847 10,14 C10,13.4477153 10.4477153,13 11,13 Z M4.81234752,8.64987802 L8.51195699,11.6095656 C8.72758796,11.7820704 8.76254865,12.0967166 8.59004388,12.3123475 C8.56697799,12.3411799 8.54078935,12.3673685 8.51195699,12.3904344 L4.81234752,15.350122 C4.59671656,15.5226268 4.28207037,15.4876661 4.1095656,15.2720351 C4.03864038,15.1833786 4,15.0732233 4,14.9596876 L4,9.04031242 C4,8.76417005 4.22385763,8.54031242 4.5,8.54031242 C4.61353575,8.54031242 4.723691,8.5789528 4.81234752,8.64987802 Z M5,17 L19,17 C19.5522847,17 20,17.4477153 20,18 C20,18.5522847 19.5522847,19 19,19 L5,19 C4.44771525,19 4,18.5522847 4,18 C4,17.4477153 4.44771525,17 5,17 Z"/>
</svg>
