<svg xmlns="http://www.w3.org/2000/svg" width="24" height="24" viewBox="0 0 24 24">
  <path fill="#777" fill-rule="evenodd" d="M7,18 L7,13 C7,12.4477153 7.44771525,12 8,12 L16,12 C16.5522847,12 17,12.4477153 17,13 L17,18 L18,18 L18,7.8039444 L16.2131192,6 L13,6 L13,9 C13,9.55228475 12.5522847,10 12,10 L8,10 C7.44771525,10 7,9.55228475 7,9 L7,6 L6,6 L6,18 L7,18 Z M6,4 L16.6301192,4 C16.8969827,4 17.1527759,4.10666575 17.3405781,4.29626134 L19.7104589,6.6887731 C19.8959435,6.87602891 20,7.12894154 20,7.39251175 L20,18 C20,19.1045695 19.1045695,20 18,20 L6,20 C4.8954305,20 4,19.1045695 4,18 L4,6 C4,4.8954305 4.8954305,4 6,4 Z M9,6 L9,8 L11,8 L11,6 L9,6 Z M9,14 L9,18 L15,18 L15,14 L9,14 Z"/>
</svg>
