<svg xmlns="http://www.w3.org/2000/svg" width="24" height="24" viewBox="0 0 24 24">
  <path fill="#777" fill-rule="evenodd" d="M6,6 L6,14 L14,14 L14,6 L6,6 Z M6,4 L14,4 C15.1045695,4 16,4.8954305 16,6 L16,14 C16,15.1045695 15.1045695,16 14,16 L6,16 C4.8954305,16 4,15.1045695 4,14 L4,6 C4,4.8954305 4.8954305,4 6,4 Z M9,17 L11,17 L11,19 L19,19 L19,11 L17,11 L17,9 L19,9 C20.1045695,9 21,9.8954305 21,11 L21,19 C21,20.1045695 20.1045695,21 19,21 L11,21 C9.8954305,21 9,20.1045695 9,19 L9,17 Z"/>
</svg>
