<svg xmlns="http://www.w3.org/2000/svg" width="24" height="24" viewBox="0 0 24 24">
  <g fill="none" fill-rule="evenodd">
    <rect width="24" height="24" fill="#000" opacity="0"/>
    <path fill="#777" d="M16,7 L8,7 L7,7 L7,8 L7.07987729,8 L16.9201227,8 L17,8 L17,7 L16,7 Z M8,5 C8,4.44771525 8.44771525,4 9,4 L15,4 C15.5522847,4 16,4.44771525 16,5 L17,5 C18.1045695,5 19,5.8954305 19,7 L19,9 C19,9.55228475 18.5522847,10 18,10 L17.838329,10 L17.1420467,18.153393 C17.0618933,19.1953873 16.1930103,20 15.1479377,20 L8.85206228,20 C7.80698966,20 6.93810672,19.1953873 6.85795331,18.153393 L6.16167096,10 L6,10 C5.44771525,10 5,9.55228475 5,9 L5,7 C5,5.8954305 5.8954305,5 7,5 L8,5 Z M15.8402454,10 L8.15975459,10 L8.85206228,18 L15.1479377,18 L15.8402454,10 Z"/>
  </g>
</svg>
