<svg xmlns="http://www.w3.org/2000/svg" width="24" height="24" viewBox="0 0 24 24">
  <path fill="#777" fill-rule="evenodd" d="M5.68613389,12.9091913 L16.9229041,12.9091913 L16.9229041,10.9091913 L5.69005429,10.9091913 L3.92372133,11.9145748 L5.68613389,12.9091913 Z M18.9229041,14.9091913 L5.68613389,14.9091913 C5.34170873,14.9091913 5.00312051,14.8202438 4.70316531,14.6509642 L1.40417033,12.7891782 C0.923193026,12.5177389 0.753328899,11.9077848 1.02476818,11.4268075 C1.11370069,11.2692233 1.24372429,11.1387223 1.40098137,11.0492127 L4.70070779,9.17103326 C5.00219992,8.99942621 5.34314437,8.90919134 5.69005429,8.90919134 L18.9229041,8.90919134 L21.9229041,8.90919134 C22.4751889,8.90919134 22.9229041,9.35690659 22.9229041,9.90919134 L22.9229041,13.9091913 C22.9229041,14.4614761 22.4751889,14.9091913 21.9229041,14.9091913 L18.9229041,14.9091913 Z M18.9229041,10.9091913 L18.9229041,12.9091913 L20.9229041,12.9091913 L20.9229041,10.9091913 L18.9229041,10.9091913 Z" transform="rotate(-45 11.91 11.91)"/>
</svg>
