<svg xmlns="http://www.w3.org/2000/svg" width="24" height="24" viewBox="0 0 24 24">
  <path fill="#777" fill-rule="evenodd" d="M20,10 L20,19 C20,20.1045695 19.1045695,21 18,21 L6,21 C4.8954305,21 4,20.1045695 4,19 L4,10 C3.44771525,10 3,9.55228475 3,9 L3,5 C3,4.44771525 3.44771525,4 4,4 L20,4 C20.5522847,4 21,4.44771525 21,5 L21,9 C21,9.55228475 20.5522847,10 20,10 Z M6,10 L6,19 L18,19 L18,10 L6,10 Z M5,6 L5,8 L19,8 L19,6 L5,6 Z M10,11 L14,11 C14.5522847,11 15,11.4477153 15,12 C15,12.5522847 14.5522847,13 14,13 L10,13 C9.44771525,13 9,12.5522847 9,12 C9,11.4477153 9.44771525,11 10,11 Z"/>
</svg>
