<svg xmlns="http://www.w3.org/2000/svg" width="24" height="24" viewBox="0 0 24 24">
  <path fill="#777" fill-rule="evenodd" d="M8,4 C8,3.44771525 8.44771525,3 9,3 L15,3 C15.5522847,3 16,3.44771525 16,4 L18,4 C19.1045695,4 20,4.8954305 20,6 L20,8 C20,8.55228475 19.5522847,9 19,9 L18.8610432,9 L18.1244641,19.133038 C18.0544244,20.1836337 17.1818216,21 16.1288938,21 L7.87110618,21 C6.81817844,21 5.94557558,20.1836337 5.87553587,19.133038 L5.13895679,9 L5,9 C4.44771525,9 4,8.55228475 4,8 L4,6 C4,4.8954305 4.8954305,4 6,4 L8,4 Z M8,6 L6,6 L6,7 L18,7 L18,6 L16,6 L8,6 Z M7.13777285,9 L7.87110618,19 L16.1288938,19 L16.8622271,9 L7.13777285,9 Z"/>
</svg>
