<svg width="100%" height="100%" viewBox="0 0 24 24" version="1.1" xmlns="http://www.w3.org/2000/svg" xml:space="preserve" style="fill-rule:evenodd;clip-rule:evenodd;stroke-linejoin:round;stroke-miterlimit:2;">
    <path d="M2.158,5.109L3.03,4.738C3.744,4.434 4.312,3.866 4.615,3.153L4.987,2.281L5.358,3.153C5.662,3.866 6.23,4.434 6.943,4.738L7.815,5.109L6.943,5.48C6.23,5.784 5.662,6.352 5.358,7.065L4.987,7.937L4.615,7.065C4.312,6.352 3.744,5.784 3.03,5.48L2.158,5.109Z" style="fill-rule:nonzero;"/>
    <path d="M18.027,8.126L18.027,6C18.027,5.448 17.579,5 17.027,5L9.143,5C8.591,5 8.143,4.552 8.143,4C8.143,3.448 8.591,3 9.143,3L17.027,3C18.684,3 20.027,4.343 20.027,6L20.027,8.126C20.027,9.783 18.684,11.126 17.027,11.126L5.639,11.126C4.747,11.126 4.024,10.403 4.024,9.511C4.024,8.958 4.472,8.511 5.024,8.511C5.44,8.511 5.797,8.765 5.948,9.126L17.027,9.126C17.579,9.126 18.027,8.678 18.027,8.126Z" style="fill-rule:nonzero;"/>
    <path d="M20.027,14.56C20.027,15.112 19.579,15.56 19.027,15.56C18.584,15.56 18.209,15.272 18.078,14.874L7.024,14.874C6.472,14.874 6.024,15.321 6.024,15.874L6.024,18C6.024,18.552 6.472,19 7.024,19L14.589,19L14.691,19.006C15.195,19.057 15.589,19.482 15.589,20C15.589,20.517 15.195,20.944 14.691,20.995L14.589,21L7.024,21C5.367,21 4.024,19.657 4.024,18L4.024,15.874C4.024,14.217 5.367,12.874 7.024,12.874L18.34,12.874C19.272,12.874 20.027,13.629 20.027,14.56Z" style="fill-rule:nonzero;"/>
    <path d="M17.5,19.732L16.862,19.732C16.31,19.732 15.862,19.285 15.862,18.732C15.862,18.18 16.31,17.732 16.862,17.732L17.5,17.732L17.5,17.095C17.5,16.542 17.948,16.095 18.5,16.095C19.052,16.095 19.5,16.542 19.5,17.095L19.5,17.732L20.138,17.732C20.69,17.732 21.138,18.18 21.138,18.732C21.138,19.285 20.69,19.732 20.138,19.732L19.5,19.732L19.5,20.37C19.5,20.922 19.052,21.37 18.5,21.37C17.948,21.37 17.5,20.922 17.5,20.37L17.5,19.732Z"/>
</svg>
