<svg width="100%" height="100%" viewBox="0 0 24 24" xmlns="http://www.w3.org/2000/svg">
    <path fill-rule="evenodd" clip-rule="evenodd" d="M9.16943 5.12722C10.023 2.37151 13.8562 2.31265 14.8384 4.94949H17.0864C18.7433 4.94949 20.0864 6.29263 20.0864 7.94949V18.0511C20.0863 19.7078 18.7432 21.0511 17.0864 21.0511H6.98486C5.3281 21.0511 3.98502 19.7078 3.98486 18.0511V10.052C3.98505 9.49991 4.43269 9.05203 4.98486 9.05203C5.53702 9.05203 5.98467 9.49991 5.98486 10.052V18.0511C5.98502 18.6032 6.43267 19.0511 6.98486 19.0511H17.0864C17.6386 19.0511 18.0863 18.6032 18.0864 18.0511V7.94949C18.0864 7.3972 17.6387 6.94949 17.0864 6.94949H15.4653L15.9019 8.35867C16.0013 8.68024 15.7609 9.00598 15.4243 9.00613H8.64599C8.30979 9.00562 8.0693 8.67997 8.16845 8.35867L9.16943 5.12722ZM12.0356 5.01785C11.4886 5.01809 11.0445 5.46198 11.0444 6.00906C11.0446 6.55608 11.4886 7.00002 12.0356 7.00027C12.144 7.00022 12.2486 6.98173 12.3462 6.94949L12.4888 6.88894C12.7989 6.72912 13.0119 6.41118 13.0239 6.04128C13.0243 6.03056 13.0259 6.01986 13.0259 6.00906C13.0258 5.77666 12.946 5.56288 12.812 5.39382C12.6502 5.19013 12.4102 5.05158 12.1372 5.02371L12.0356 5.01785Z" />
    <path d="M12.105 14.0257C12.6091 14.077 13.0024 14.5031 13.0024 15.0208C13.0024 15.5384 12.6091 15.9646 12.105 16.0159L12.0024 16.0208H8.96826C8.41598 16.0208 7.96827 15.573 7.96826 15.0208C7.96826 14.4685 8.41597 14.0208 8.96826 14.0208H12.0024L12.105 14.0257Z" />
    <path d="M15.1392 11.0022C15.6433 11.0534 16.0364 11.4798 16.0366 11.9973C16.0366 12.5151 15.6434 12.9412 15.1392 12.9925L15.0366 12.9973H8.96826C8.41597 12.9973 7.96826 12.5496 7.96826 11.9973C7.96851 11.4453 8.41613 10.9973 8.96826 10.9973H15.0366L15.1392 11.0022Z" />
    <path d="M2.20905 5.13769L3.08105 4.76647C3.79444 4.46277 4.36255 3.89466 4.66625 3.18127L5.03747 2.30927L5.4087 3.18127C5.7124 3.89466 6.2805 4.46277 6.99389 4.76647L7.8659 5.13769L6.99389 5.50892C6.2805 5.81262 5.7124 6.38072 5.4087 7.09411L5.03747 7.96612L4.66625 7.09411C4.36255 6.38072 3.79444 5.81262 3.08105 5.50892L2.20905 5.13769Z" />
</svg>
