<svg width="100%" height="100%" viewBox="0 0 24 24" xmlns="http://www.w3.org/2000/svg">
    <path fill-rule="evenodd" clip-rule="evenodd" d="M16.2491 3.29314C16.6397 2.90261 17.2727 2.90261 17.6632 3.29314L20.4913 6.12126C20.8819 6.51179 20.8819 7.1448 20.4913 7.53533L9.01086 19.0168C8.76735 19.2603 8.46467 19.4361 8.13293 19.5285L4.48352 20.5451C3.95152 20.6932 3.40022 20.3818 3.25207 19.8498C3.20365 19.6757 3.20334 19.4918 3.25109 19.3176L4.25598 15.6554C4.34783 15.321 4.52537 15.0159 4.77063 14.7707L16.2491 3.29314ZM6.18469 16.1847L5.6466 18.1447L7.5968 17.6017L15.5421 9.65642L14.128 8.24236L6.18469 16.1847ZM15.5421 6.82829L16.9562 8.24236L18.3702 6.82829L16.9562 5.41423L15.5421 6.82829Z" />
    <path d="M4.00001 6.82814L4.87202 6.45692C5.58541 6.15322 6.15351 5.58511 6.45721 4.87172L6.82844 3.99972L7.19966 4.87172C7.50336 5.58511 8.07147 6.15322 8.78486 6.45692L9.65687 6.82814L8.78486 7.19937C8.07147 7.50307 7.50336 8.07117 7.19966 8.78456L6.82844 9.65657L6.45721 8.78456C6.15351 8.07117 5.58541 7.50307 4.87202 7.19937L4.00001 6.82814Z" />
    <path d="M15.5859 17L15.714 16.9455C16.4274 16.6418 16.9955 16.0737 17.2992 15.3603L17.3537 15.2323L17.4082 15.3603C17.7119 16.0737 18.28 16.6418 18.9934 16.9455L19.1215 17L18.9934 17.0545C18.28 17.3582 17.7119 17.9263 17.4082 18.6397L17.3537 18.7678L17.2992 18.6397C16.9955 17.9263 16.4274 17.3582 15.714 17.0545L15.5859 17Z" />
</svg>
