<svg width="100%" height="100%" viewBox="0 0 24 24" xmlns="http://www.w3.org/2000/svg">
    <path d="M18.5173 12.9917C18.7935 12.9917 19.0173 13.2156 19.0173 13.4917V13.9917H20.5173C20.7935 13.9917 21.0173 14.2156 21.0173 14.4917V15.4917C21.0173 15.7678 20.7935 15.9917 20.5173 15.9917H17.0173V16.9917H20.0173C20.5696 16.9917 21.0173 17.4394 21.0173 17.9917V20.9917C21.0173 21.5045 20.6313 21.9272 20.134 21.985L20.0173 21.9917H19.0173V22.4917C19.0173 22.7678 18.7935 22.9917 18.5173 22.9917H17.5173C17.2412 22.9917 17.0173 22.7678 17.0173 22.4917V21.9917H15.5173C15.2412 21.9917 15.0173 21.7678 15.0173 21.4917V20.4917C15.0173 20.2156 15.2412 19.9917 15.5173 19.9917H19.0173V18.9917H16.0173C15.465 18.9917 15.0173 18.544 15.0173 17.9917V14.9917C15.0173 14.4394 15.465 13.9917 16.0173 13.9917H17.0173V13.4917C17.0173 13.2156 17.2412 12.9917 17.5173 12.9917H18.5173Z" />
    <path d="M2.19482 5.12598L3.06683 4.75475C3.78022 4.45105 4.34833 3.88295 4.65203 3.16956L5.02325 2.29755L5.39448 3.16956C5.69818 3.88295 6.26628 4.45105 6.97967 4.75475L7.85168 5.12598L6.97967 5.4972C6.26628 5.8009 5.69818 6.36901 5.39448 7.0824L5.02325 7.9544L4.65203 7.0824C4.34833 6.36901 3.78022 5.8009 3.06683 5.4972L2.19482 5.12598Z" />
    <path d="M5 8.75098C5.5521 8.75119 6 9.19882 6 9.75098V18C6 19.1046 6.89543 20 8 20H13.2383L13.3408 20.0049C13.8448 20.0563 14.2383 20.4824 14.2383 21C14.2383 21.5176 13.8448 21.9437 13.3408 21.9951L13.2383 22H8C5.79086 22 4 20.2091 4 18V9.75098C4 9.19869 4.44772 8.75098 5 8.75098ZM14.5889 2C15.1339 2.00011 15.6561 2.22276 16.0332 2.61621L19.4443 6.1748L19.5703 6.32031C19.8474 6.67163 20 7.10745 20 7.55859V11.2891C19.9998 11.841 19.552 12.2889 19 12.2891C18.448 12.2889 18.0002 11.841 18 11.2891V8.99707H15.002C13.8976 8.99707 13.0023 8.1013 13.002 6.99707V4H8.08984C7.53756 4 7.08984 3.55228 7.08984 3C7.08984 2.44772 7.53756 2 8.08984 2H14.5889ZM15.002 6.99707H17.4619L15.002 4.43066V6.99707Z" />
    <path d="M12.1885 10.0103L12.29 10.0151C12.7945 10.0661 13.1885 10.4923 13.1885 11.0103C13.1885 11.5282 12.7945 11.9544 12.29 12.0054L12.1885 12.0103H9.17871C8.62643 12.0103 8.17871 11.5625 8.17871 11.0103C8.17871 10.458 8.62643 10.0103 9.17871 10.0103H12.1885Z" />
    <path d="M12.1885 13.0286L12.29 13.0334C12.7945 13.0844 13.1885 13.5106 13.1885 14.0286C13.1885 14.5465 12.7945 14.9727 12.29 15.0237L12.1885 15.0286H9.17871C8.62643 15.0286 8.17871 14.5808 8.17871 14.0286C8.17871 13.4763 8.62643 13.0286 9.17871 13.0286H12.1885Z" />
    <path d="M12.1885 16.0469L12.29 16.0518C12.7945 16.1028 13.1885 16.529 13.1885 17.0469C13.1885 17.5648 12.7945 17.991 12.29 18.042L12.1885 18.0469H9.17871C8.62643 18.0469 8.17871 17.5992 8.17871 17.0469C8.17871 16.4946 8.62643 16.0469 9.17871 16.0469H12.1885Z" />
    <path d="M15.1616 10.0103L15.2642 10.0151C15.7684 10.0664 16.1616 10.4925 16.1616 11.0103C16.1616 11.528 15.7684 11.9541 15.2642 12.0054L15.1616 12.0103H15.1519C14.5996 12.0103 14.1519 11.5625 14.1519 11.0103C14.1519 10.458 14.5996 10.0103 15.1519 10.0103H15.1616Z" />
</svg>
