<svg width="100%" height="100%" viewBox="0 0 24 24" xmlns="http://www.w3.org/2000/svg">
    <path fill-rule="evenodd" clip-rule="evenodd" d="M14.5889 2C15.1339 2.00011 15.6561 2.22276 16.0332 2.61621L19.4443 6.1748L19.5703 6.32031C19.8474 6.67163 20 7.10745 20 7.55859V18C20 20.209 18.209 21.9998 16 22H8C5.79086 22 4 20.2091 4 18V10.0469C4 9.49459 4.44772 9.04688 5 9.04688C5.5521 9.04709 6 9.49472 6 10.0469V18C6 19.1046 6.89543 20 8 20H16C17.1044 19.9998 18 19.1044 18 18V8.99707H15.002C13.8976 8.99707 13.0023 8.1013 13.002 6.99707V4H8.08984C7.53756 4 7.08984 3.55228 7.08984 3C7.08984 2.44772 7.53756 2 8.08984 2H14.5889ZM15.002 6.99707H17.4619L15.002 4.43066V6.99707Z" />
    <path d="M12.1025 16.0049C12.6066 16.0562 13 16.4823 13 17C13 17.5177 12.6066 17.9438 12.1025 17.9951L12 18H9C8.4478 17.9999 8 17.5522 8 17C8 16.4478 8.4478 16.0001 9 16H12L12.1025 16.0049Z" />
    <path d="M15.0127 11C15.5302 11.0002 15.9565 11.3935 16.0078 11.8975L16.0127 12V17C16.0127 17.5522 15.5648 17.9998 15.0127 18C14.4604 18 14.0127 17.5523 14.0127 17V12L14.0176 11.8975C14.069 11.3934 14.4951 11 15.0127 11Z" />
    <path d="M12.1025 13.0078C12.6066 13.0592 13 13.4853 13 14.0029C13 14.5206 12.6066 14.9467 12.1025 14.998L12 15.0029H9C8.4478 15.0028 8 14.5552 8 14.0029C8 13.4507 8.4478 13.003 9 13.0029H12L12.1025 13.0078Z" />
    <path d="M12.1016 9.99902C12.606 10.05 12.9999 10.4763 13 10.9941C13 11.5121 12.606 11.9383 12.1016 11.9893L12 11.9941H9C8.4478 11.994 8 11.5464 8 10.9941C8.00013 10.442 8.44788 9.99424 9 9.99414H12L12.1016 9.99902Z" />
    <path d="M2.19482 5.12596L3.06683 4.75473C3.78022 4.45103 4.34833 3.88293 4.65203 3.16954L5.02325 2.29753L5.39448 3.16954C5.69818 3.88293 6.26628 4.45103 6.97967 4.75473L7.85168 5.12596L6.97967 5.49718C6.26628 5.80088 5.69818 6.36899 5.39448 7.08238L5.02325 7.95438L4.65203 7.08238C4.34833 6.36899 3.78022 5.80088 3.06683 5.49718L2.19482 5.12596Z" />
</svg>
