<svg width="100%" height="100%" viewBox="0 0 24 24" xmlns="http://www.w3.org/2000/svg">
    <path fill-rule="evenodd" clip-rule="evenodd" d="M18.8945 20.0005C18.7457 20.0379 18.5927 20.0662 18.4365 20.0806L18.1543 20.0933L7.28414 20.0718C7.03158 20.0712 6.78475 20.0455 6.54586 20.0005H5.11715L4.93453 19.9927C4.09397 19.9162 3.38938 19.3161 3.17965 18.4985L3.14254 18.3198L2.01461 11.3462C1.83023 10.2062 2.64432 9.16541 3.76168 9.03954L3.98922 9.02684H17.8779L18.0605 9.03466C18.9632 9.11676 19.7086 9.80213 19.8535 10.7124L19.8955 10.98L20.1259 9.06298L20.1328 8.95263C20.138 8.40488 19.6945 7.94481 19.1328 7.94481H14.4912C13.9528 7.9447 13.4383 7.73293 13.0576 7.36083L12.9033 7.19188L11.872 5.92919H9.66011C9.10832 5.92881 8.66038 5.48101 8.66011 4.92919C8.66011 4.37714 9.10815 3.92957 9.66011 3.92919H11.872C12.4722 3.92931 13.0411 4.19884 13.4209 4.66356L14.4521 5.92626L14.4697 5.93993C14.4761 5.94287 14.484 5.94474 14.4912 5.94481H19.1328C20.8742 5.94481 22.2369 7.41841 22.1269 9.13329L22.1113 9.30028L21.1396 17.4487C21.1128 17.6728 21.0579 17.8872 20.9853 18.0923C20.9421 19.0617 20.1951 19.8778 19.2138 19.9878L18.9873 20.0005H18.8945ZM5.11715 18.0005H18.9873L17.8779 11.0268H3.98922L5.11715 18.0005Z" />
    <path d="M2.15823 5.10901L3.03024 4.73778C3.74363 4.43408 4.31173 3.86598 4.61543 3.15259L4.98666 2.28058L5.35789 3.15259C5.66159 3.86598 6.22969 4.43408 6.94308 4.73778L7.81509 5.10901L6.94308 5.48023C6.22969 5.78393 5.66158 6.35204 5.35789 7.06542L4.98666 7.93743L4.61543 7.06542C4.31173 6.35204 3.74363 5.78393 3.03024 5.48023L2.15823 5.10901Z" />
</svg>
