<svg width="100%" height="100%" viewBox="0 0 24 24" version="1.1" xmlns="http://www.w3.org/2000/svg" xml:space="preserve" style="fill-rule:evenodd;clip-rule:evenodd;stroke-linejoin:round;stroke-miterlimit:2;">
    <path d="M15.829,3.014C16.933,3.014 17.829,3.909 17.829,5.014L17.829,5C17.829,4.992 17.827,4.984 17.827,4.976L20.077,5.374L20.276,5.42C21.251,5.697 21.878,6.673 21.697,7.692L19.777,18.527L19.731,18.727C19.473,19.637 18.605,20.243 17.662,20.173L17.465,20.148C17.464,20.147 17.461,20.147 17.46,20.147C17.097,20.657 16.502,20.989 15.829,20.989L5.838,20.989C4.803,20.989 3.952,20.202 3.849,19.193L3.838,18.989L3.838,9.824C3.838,9.272 4.286,8.824 4.838,8.824C5.356,8.824 5.782,9.218 5.834,9.722L5.838,9.824L5.838,18.989L15.829,18.989L15.829,5.014L8.952,5.014C8.4,5.014 7.952,4.566 7.952,4.014C7.952,3.461 8.399,3.014 8.952,3.014L15.829,3.014ZM17.829,18.059L19.728,7.344L17.829,7.007L17.829,18.059Z"/>
    <path d="M9.946,15.006C10.45,15.057 10.844,15.483 10.844,16.001C10.844,16.519 10.45,16.945 9.946,16.996L9.844,17.001L7.877,17.001C7.325,17.001 6.877,16.553 6.877,16.001C6.878,15.449 7.325,15.001 7.877,15.001L9.844,15.001L9.946,15.006Z" style="fill-rule:nonzero;"/>
    <path d="M11.913,12.026C12.417,12.078 12.81,12.504 12.81,13.022C12.81,13.539 12.417,13.965 11.913,14.017L11.81,14.022L7.877,14.022C7.325,14.021 6.878,13.574 6.877,13.022C6.877,12.469 7.325,12.022 7.877,12.022L11.81,12.022L11.913,12.026Z" style="fill-rule:nonzero;"/>
    <path d="M13.919,9.046C14.424,9.097 14.818,9.523 14.818,10.041C14.818,10.559 14.424,10.985 13.919,11.036L13.818,11.041L7.877,11.041C7.325,11.041 6.877,10.593 6.877,10.041C6.878,9.489 7.325,9.041 7.877,9.041L13.818,9.041L13.919,9.046Z" style="fill-rule:nonzero;"/>
    <path d="M10.919,6.066C11.424,6.118 11.817,6.544 11.817,7.062C11.817,7.579 11.424,8.005 10.919,8.057L10.817,8.062L7.877,8.062C7.325,8.061 6.878,7.614 6.877,7.062C6.877,6.509 7.325,6.062 7.877,6.062L10.817,6.062L10.919,6.066Z" style="fill-rule:nonzero;"/>
    <path d="M2,5.126L2.872,4.755C3.585,4.451 4.154,3.883 4.457,3.17L4.828,2.298L5.2,3.17C5.503,3.883 6.071,4.451 6.785,4.755L7.657,5.126L6.785,5.497C6.071,5.801 5.503,6.369 5.2,7.082L4.828,7.954L4.457,7.082C4.154,6.369 3.585,5.801 2.872,5.497L2,5.126Z" style="fill-rule:nonzero;"/>
</svg>
