<svg width="100%" height="100%" viewBox="0 0 24 24" version="1.1" xmlns="http://www.w3.org/2000/svg" xml:space="preserve" style="fill-rule:evenodd;clip-rule:evenodd;stroke-linejoin:round;stroke-miterlimit:2;">
    <path d="M15.259,7.527L15.387,7.473C16.1,7.169 16.668,6.601 16.972,5.888L17.027,5.76L17.081,5.888C17.385,6.601 17.953,7.169 18.666,7.473L18.794,7.527L18.666,7.582C17.953,7.886 17.385,8.454 17.081,9.167L17.027,9.295L16.972,9.167C16.668,8.454 16.1,7.886 15.387,7.582L15.259,7.527Z" style="fill-rule:nonzero;"/>
    <path d="M3.943,17.607L4.815,17.236C5.528,16.932 6.096,16.364 6.4,15.65L6.771,14.778L7.142,15.65C7.446,16.364 8.014,16.932 8.728,17.236L9.6,17.607L8.728,17.978C8.014,18.282 7.446,18.85 7.142,19.563L6.771,20.435L6.4,19.563C6.096,18.85 5.528,18.282 4.815,17.978L3.943,17.607Z" style="fill-rule:nonzero;"/>
    <path d="M3.056,12.174L8.12,10.019C8.975,9.655 9.655,8.975 10.019,8.12L12.174,3.056L14.33,8.12C14.694,8.975 15.374,9.655 16.228,10.019L21.292,12.174L16.228,14.33C15.374,14.694 14.694,15.374 14.33,16.228L12.174,21.292L10.019,16.228C9.655,15.374 8.975,14.694 8.12,14.33L3.056,12.174Z" style="fill-rule:nonzero;"/>
</svg>
