<svg width="100%" height="100%" viewBox="0 0 24 24" version="1.1" xmlns="http://www.w3.org/2000/svg" xml:space="preserve" style="fill-rule:evenodd;clip-rule:evenodd;stroke-linejoin:round;stroke-miterlimit:2;">
    <path d="M15.259,7.527L15.387,7.473C16.1,7.169 16.668,6.601 16.972,5.888L17.027,5.76L17.081,5.888C17.385,6.601 17.953,7.169 18.666,7.473L18.794,7.527L18.666,7.582C17.953,7.886 17.385,8.454 17.081,9.167L17.027,9.295L16.972,9.167C16.668,8.454 16.1,7.886 15.387,7.582L15.259,7.527Z" style="fill-rule:nonzero;"/>
    <path d="M3.943,17.607L4.815,17.236C5.528,16.932 6.096,16.364 6.4,15.65L6.771,14.778L7.142,15.65C7.446,16.364 8.014,16.932 8.728,17.236L9.6,17.607L8.728,17.978C8.014,18.282 7.446,18.85 7.142,19.563L6.771,20.435L6.4,19.563C6.096,18.85 5.528,18.282 4.815,17.978L3.943,17.607Z" style="fill-rule:nonzero;"/>
    <path d="M14.382,8.186L14.525,8.479C14.886,9.142 15.462,9.668 16.162,9.966L21.349,12.174L16.162,14.382C15.362,14.723 14.723,15.361 14.382,16.161L12.175,21.349L9.966,16.161C9.668,15.461 9.142,14.885 8.479,14.524L8.188,14.382L3,12.174L8.188,9.966C8.888,9.668 9.464,9.142 9.825,8.479L9.966,8.186L12.175,3L14.382,8.186ZM11.516,8.846C11.005,10.047 10.047,11.004 8.846,11.515L7.299,12.174L8.846,12.833L9.069,12.934C10.165,13.465 11.037,14.377 11.516,15.502L12.174,17.05L12.834,15.502C13.345,14.301 14.301,13.344 15.502,12.833L17.049,12.174L15.502,11.515C14.302,11.004 13.345,10.047 12.834,8.846L12.174,7.299L11.516,8.846Z"/>
</svg>
