<svg width="100%" height="100%" viewBox="0 0 24 24" version="1.1" xmlns="http://www.w3.org/2000/svg" xml:space="preserve" style="fill-rule:evenodd;clip-rule:evenodd;stroke-linejoin:round;stroke-miterlimit:2;">
    <path d="M8.229,8.006C8.229,7.363 8.061,7.213 8.019,7.18C7.946,7.125 7.753,7.039 7.306,7.058L7.098,7.074L6.995,7.079C6.489,7.077 6.056,6.692 6.005,6.177C5.954,5.661 6.304,5.199 6.801,5.098L6.902,5.083L7.196,5.061C7.886,5.029 8.628,5.13 9.229,5.589C9.831,5.13 10.573,5.029 11.263,5.061L11.557,5.083L11.658,5.098C12.155,5.199 12.505,5.661 12.454,6.177C12.403,6.692 11.971,7.077 11.464,7.079L11.361,7.074L11.153,7.058C10.706,7.039 10.513,7.125 10.44,7.18C10.398,7.213 10.23,7.363 10.23,8.006L10.23,16.196L10.23,16.209L10.237,16.415C10.27,16.875 10.403,16.993 10.44,17.021C10.513,17.077 10.706,17.161 11.153,17.142L11.361,17.128C11.911,17.074 12.4,17.476 12.454,18.025C12.508,18.575 12.106,19.064 11.557,19.118L11.263,19.139C10.573,19.172 9.831,19.071 9.229,18.613C8.628,19.071 7.886,19.172 7.196,19.139L6.902,19.118C6.353,19.064 5.951,18.575 6.005,18.025C6.059,17.476 6.548,17.074 7.098,17.128L7.306,17.142C7.753,17.161 7.946,17.077 8.019,17.021C8.056,16.993 8.189,16.875 8.222,16.415L8.229,16.209L8.229,16.196L8.229,8.006Z"/>
    <path d="M3,13.539C3,12.987 3.448,12.539 4,12.539C4.552,12.539 5,12.987 5,13.539L5,14.197L6.323,14.197L6.426,14.201C6.93,14.253 7.323,14.679 7.323,15.197C7.323,15.714 6.93,16.14 6.426,16.191L6.323,16.197L4.5,16.197C3.672,16.197 3,15.525 3,14.697L3,13.539ZM21,14.697C21,15.525 20.328,16.197 19.5,16.197L12.105,16.197C11.553,16.197 11.106,15.749 11.105,15.197C11.105,14.644 11.553,14.197 12.105,14.197L19,14.197L19,10.005L12.105,10.005C11.553,10.005 11.105,9.557 11.105,9.005C11.105,8.453 11.553,8.005 12.105,8.005L19.5,8.005C20.328,8.005 21,8.677 21,9.505L21,14.697Z" style="fill-rule:nonzero;"/>
    <path d="M2,9.005L2.872,8.634C3.585,8.33 4.154,7.762 4.457,7.049L4.828,6.177L5.2,7.049C5.503,7.762 6.071,8.33 6.785,8.634L7.657,9.005L6.785,9.376C6.071,9.68 5.503,10.248 5.2,10.962L4.828,11.834L4.457,10.962C4.154,10.248 3.585,9.68 2.872,9.376L2,9.005Z" style="fill-rule:nonzero;"/>
</svg>
