<svg width="24" height="24" viewBox="0 0 24 24" fill="none" xmlns="http://www.w3.org/2000/svg">
  <path d="M18 3C19.6569 3 21 4.34315 21 6V18C21 19.6569 19.6569 21 18 21H6C4.34315 21 3 19.6569 3 18V6C3 4.34315 4.34315 3 6 3H18ZM18 5H6C5.44772 5 5 5.44772 5 6V18C5 18.5523 5.44772 19 6 19H18C18.5523 19 19 18.5523 19 18V6C19 5.44772 18.5523 5 18 5Z" fill="#52555A"/>
  <path d="M17.5 10C17.7761 10 18 10.4477 18 11C18 11.5523 17.7761 12 17.5 12H14.5C14.2239 12 14 11.5523 14 11C14 10.4477 14.2239 10 14.5 10H17.5Z" fill="#52555A"/>
  <path d="M17.5 7C17.7761 7 18 7.44772 18 8C18 8.55228 17.7761 9 17.5 9H14.5C14.2239 9 14 8.55228 14 8C14 7.44772 14.2239 7 14.5 7H17.5Z" fill="#52555A"/>
  <path d="M17.125 13C17.6082 13 18 13.4477 18 14C18 14.5523 17.6082 15 17.125 15H11.875C11.3918 15 11 14.5523 11 14C11 13.4477 11.3918 13 11.875 13H17.125Z" fill="#52555A"/>
  <path d="M17 16C17.5523 16 18 16.4477 18 17C18 17.5523 17.5523 18 17 18H7C6.44772 18 6 17.5523 6 17C6 16.4477 6.44772 16 7 16H17Z" fill="#52555A"/>
  <path d="M9.95042 7.5C9.95042 6.67157 9.27884 6 8.45042 6C7.62199 6 6.95042 6.67157 6.95042 7.5C6.95042 7.94972 7.14832 8.64791 7.46176 9.1916C6.59606 9.57365 6.33878 10.4549 6.0845 11.1942C6.05455 11.2813 6.02814 11.3951 6.00527 11.5357C5.96973 11.7538 6.11775 11.9593 6.33584 11.9948C6.35708 11.9983 6.37856 12 6.40008 12H10.5008L10.5815 11.9919C10.7638 11.9547 10.9009 11.7934 10.9009 11.6C10.9009 11.5785 10.8992 11.5571 10.8958 11.5358C10.8732 11.3969 10.8471 11.2842 10.8176 11.1979C10.5664 10.4639 10.2326 9.59664 9.42973 9.20832C9.74859 8.6617 9.95042 7.95415 9.95042 7.5Z" fill="#52555A"/>
</svg>
