<svg xmlns="http://www.w3.org/2000/svg" width="24" height="24" viewBox="0 0 24 24">
  <path fill="#777" fill-rule="evenodd" d="M6,10 L8,10 C8.55228475,10 9,10.4477153 9,11 C9,11.5522847 8.55228475,12 8,12 L6,12 L6,14 C6,14.5522847 5.55228475,15 5,15 C4.44771525,15 4,14.5522847 4,14 L4,12 L2,12 C1.44771525,12 1,11.5522847 1,11 C1,10.4477153 1.44771525,10 2,10 L4,10 L4,8 C4,7.44771525 4.44771525,7 5,7 C5.55228475,7 6,7.44771525 6,8 L6,10 Z M10.7643259,12.4172367 C10.2494651,11.3063164 10,9.92739506 10,8.47216797 C10,5.83966111 11.7804272,4 14.4863281,4 C17.1910006,4 19,5.8532848 19,8.47216797 C19,9.9133509 18.7403448,11.2928697 18.2126208,12.4080154 L19.2283441,12.8143047 C21.5062943,13.7254848 23,15.9317373 23,18.3851648 L23,20 C23,20.5522847 22.5522847,21 22,21 L7,21 C6.44771525,21 6,20.5522847 6,20 L6,18.3851648 C6,15.9317373 7.49370567,13.7254848 9.77165594,12.8143047 L10.7643259,12.4172367 Z M11.9799757,14.0850427 L10.5144373,14.671258 C8.99580378,15.2787115 8,16.7495465 8,18.3851648 L8,19 L21,19 L21,18.3851648 C21,16.7495465 20.0041962,15.2787115 18.4855627,14.671258 L16.9876261,14.0720834 C16.320475,14.6456144 15.4846927,14.9815674 14.4761963,14.9815674 C13.4689899,14.9815674 12.6394975,14.6516675 11.9799757,14.0850427 Z M17,8.47216797 C17,6.94717306 16.0754602,6 14.4863281,6 C12.899909,6 12,6.92984856 12,8.47216797 C12,10.9717874 12.9395099,12.9815674 14.4761963,12.9815674 C16.0220356,12.9815674 17,10.9326221 17,8.47216797 Z"/>
</svg>
