<svg width="24" height="24" viewBox="0 0 24 24" fill="none" xmlns="http://www.w3.org/2000/svg">
  <path d="M12 2C14.7614 2 17 4.23858 17 7C17 8.95672 16.8947 10.0508 16.4167 11.2201C16.2456 11.6387 16.0333 12.0158 15.7797 12.3476L17.1089 12.8464C17.9671 13.1686 18.6562 13.7488 18.6562 13.7488L16.4167 14.7205L13.8183 13.7488C13.2814 13.9314 12.6754 14.0266 12 14.0266C11.3275 14.0266 10.7238 13.9322 10.1887 13.7512L7.59691 14.7205C6.03496 15.3056 5 16.7985 5 18.4664V19H9.5C9.5 19 9.5 19.5 10 20C10.0781 20.0781 11.5 21 11.5 21H4C3.44772 21 3 20.5523 3 20V18.4664C3 15.9645 4.55245 13.7252 6.89537 12.8476L8.2225 12.3506C7.96794 12.018 7.75488 11.64 7.58325 11.2201C7.10532 10.0508 7 8.95672 7 7C7 4.23858 9.23858 2 12 2ZM12 4C10.3431 4 9 5.34315 9 7C9 10.5857 9.58895 12.0266 12 12.0266C14.411 12.0266 15 10.5857 15 7C15 5.34315 13.6569 4 12 4Z" />
  <path fill-rule="evenodd" clip-rule="evenodd" d="M18.874 16.6453L13.3901 18.8754L14.5084 19.542C14.6348 19.403 14.7665 19.2619 14.9012 19.13C14.9115 19.1199 14.9256 19.1055 14.9426 19.088C15.0082 19.0209 15.117 18.9094 15.2198 18.8309L15.2318 18.8185L15.233 18.8173C15.239 18.811 15.2481 18.8014 15.2576 18.7918C15.4518 18.5955 15.7684 18.5937 15.9647 18.7879C16.1611 18.9821 16.1628 19.2986 15.9686 19.495L15.9551 19.509L15.9546 19.5096C15.9483 19.5162 15.9387 19.5263 15.9283 19.5367C15.9085 19.5567 15.8728 19.5917 15.827 19.6255C15.7903 19.6525 15.7624 19.6812 15.7145 19.7303C15.6858 19.7597 15.6499 19.7965 15.6007 19.8446C15.5289 19.9149 15.4578 19.9885 15.3861 20.0651L16.8137 20.9161L18.874 16.6453ZM19.8728 14.6199C20.5935 14.3268 21.2966 15.0758 20.9585 15.7766L17.8563 22.2073C17.6395 22.6566 17.0841 22.8235 16.6555 22.5681L14.6864 21.3944L13.7505 21.8791C13.2581 22.1341 12.6931 21.6952 12.8183 21.1551L12.9965 20.387L11.5004 19.4953C10.8976 19.136 10.9653 18.2422 11.6155 17.9778L19.8728 14.6199Z" />
</svg>
