<svg xmlns="http://www.w3.org/2000/svg" width="24" height="24" viewBox="0 0 24 24">
  <path fill="#777" fill-rule="evenodd" d="M14.6613004,21 L4,21 C3.44771525,21 3,20.5522847 3,20 L3,18.4663935 C3,15.9645009 4.55244605,13.7252195 6.89537111,12.8476269 L8.22247481,12.3505319 C7.9679227,12.0179835 7.7548713,11.6399557 7.58325343,11.2200948 C7.10532397,10.0508466 7,8.95671987 7,7 C7,4.23857625 9.23857625,2 12,2 C14.7614237,2 17,4.23857625 17,7 C17,8.95671987 16.894676,10.0508466 16.4167466,11.2200948 C16.2456531,11.6386727 16.033379,12.0156728 15.7798576,12.347482 L17.1088564,12.8464276 C18.2362949,13.2697014 19.180386,14.0083539 19.8561876,14.9397644 C19.7784158,15.0009386 19.7034357,15.0673796 19.631728,15.1390873 L19.2781746,15.4926407 L18.9246212,15.1390873 C18.1727903,14.3872564 17.0612367,14.2143905 16.1439861,14.6204895 L13.8203124,13.7481135 C13.2829617,13.9311643 12.6762391,14.0266113 12,14.0266113 C11.3266971,14.0266113 10.7223083,13.9319913 10.186691,13.7504929 L7.59691407,14.7205491 C6.03496403,15.3056108 5,16.7984651 5,18.4663935 L5,19 L15.7144661,19 L15.7426407,19.0281746 L15.3890873,19.381728 C14.9389704,19.8318448 14.6963748,20.4108988 14.6613004,21 Z M12,12.0266113 C14.4110475,12.0266113 15,10.5857466 15,7 C15,5.34314575 13.6568542,4 12,4 C10.3431458,4 9,5.34314575 9,7 C9,10.5857466 9.58895254,12.0266113 12,12.0266113 Z M19.3431458,17.5857864 L20.7573593,16.1715729 C21.1478836,15.7810486 21.7810486,15.7810486 22.1715729,16.1715729 C22.5620972,16.5620972 22.5620972,17.1952621 22.1715729,17.5857864 L20.7573593,19 L22.1715729,20.4142136 C22.5620972,20.8047379 22.5620972,21.4379028 22.1715729,21.8284271 C21.7810486,22.2189514 21.1478836,22.2189514 20.7573593,21.8284271 L19.3431458,20.4142136 L17.9289322,21.8284271 C17.5384079,22.2189514 16.9052429,22.2189514 16.5147186,21.8284271 C16.1241943,21.4379028 16.1241943,20.8047379 16.5147186,20.4142136 L17.9289322,19 L16.5147186,17.5857864 C16.1241943,17.1952621 16.1241943,16.5620972 16.5147186,16.1715729 C16.9052429,15.7810486 17.5384079,15.7810486 17.9289322,16.1715729 L19.3431458,17.5857864 Z"/>
</svg>
