<svg xmlns="http://www.w3.org/2000/svg" width="24" height="24" viewBox="0 0 24 24">
  <path fill="#777" fill-rule="evenodd" d="M11.7019519,5.30635675 C12.2349118,5.10701452 12.8337022,5 13.4863281,5 C16.1910006,5 18,6.8532848 18,9.47216797 C18,10.9133509 17.7403448,12.2928697 17.2126208,13.4080154 L18.2283441,13.8143047 C20.5062943,14.7254848 22,16.9317373 22,19.3851648 L22,21 C22,21.5522847 21.5522847,22 21,22 L6,22 C5.44771525,22 5,21.5522847 5,21 L5,19.3851648 C5,19.256041 5.00413744,19.1276018 5.01230889,19 L2,19 C1.44771525,19 1,18.5522847 1,18 L1,17.0922765 C1,14.8183265 2.28548814,12.7397799 4.31999042,11.7240786 L4.92918845,11.4199436 C4.26066159,10.3417212 4,8.79322227 4,7 C4,4.6701918 5.42234851,3 8,3 C9.88741368,3 11.1588995,3.90849205 11.7019519,5.30635675 Z M9.54617278,12.8880591 L9.38400971,12.8068537 C8.97956331,12.9505067 8.52003321,13.0266113 8,13.0266113 C7.48250056,13.0266113 7.02495605,12.95174 6.62200537,12.8102118 L5.21332695,13.5134779 C3.88456161,14.1768483 3.03504558,15.5202698 3.00105924,17 L5.49427354,17 C6.11157483,15.5759877 7.27156975,14.4143391 8.77165594,13.8143047 L9.76432588,13.4172367 C9.68538888,13.2469136 9.61269032,13.0702907 9.54617278,12.8880591 Z M9.96940601,6.5368597 C9.82997873,5.55056069 9.20881012,5 8,5 C6.60454982,5 6,5.70989222 6,7 C6,9.44131431 6.60640398,11.0266113 8,11.0266113 C8.42082316,11.0266113 8.77016164,10.8799548 9.05272517,10.6080911 C9.01747659,10.2371655 9,9.85733956 9,9.47216797 C9,8.30876345 9.34773363,7.30020891 9.96940601,6.5368597 Z M15.9876261,15.0720834 C15.320475,15.6456144 14.4846927,15.9815674 13.4761963,15.9815674 C12.4689899,15.9815674 11.6394975,15.6516675 10.9799757,15.0850427 L9.51443729,15.671258 C7.99580378,16.2787115 7,17.7495465 7,19.3851648 L7,20 L20,20 L20,19.3851648 C20,17.7495465 19.0041962,16.2787115 17.4855627,15.671258 L15.9876261,15.0720834 Z M16,9.47216797 C16,7.94717306 15.0754602,7 13.4863281,7 C11.899909,7 11,7.92984856 11,9.47216797 C11,11.9717874 11.9395099,13.9815674 13.4761963,13.9815674 C15.0220356,13.9815674 16,11.9326221 16,9.47216797 Z"/>
</svg>
