<svg xmlns="http://www.w3.org/2000/svg" width="24" height="24" viewBox="0 0 24 24">
  <path fill="#777" fill-rule="evenodd" d="M19,20 L17.8292943,20 C17.4174579,21.1651924 16.3062188,22 15,22 C13.3431458,22 12,20.6568542 12,19 C12,17.3431458 13.3431458,16 15,16 C16.3062188,16 17.4174579,16.8348076 17.8292943,18 L21,18 C21.5522847,18 22,18.4477153 22,19 C22,19.5522847 21.5522847,20 21,20 C21,20.5522847 20.5522847,21 20,21 C19.4477153,21 19,20.5522847 19,20 Z M10.5211618,21 L3,21 C2.44771525,21 2,20.5522847 2,20 L2,18.4663935 C2,15.9645009 3.55244605,13.7252195 5.89537111,12.8476269 L7.22247481,12.3505319 C6.9679227,12.0179835 6.7548713,11.6399557 6.58325343,11.2200948 C6.10532397,10.0508466 6,8.95671987 6,7 C6,4.23857625 8.23857625,2 11,2 C13.7614237,2 16,4.23857625 16,7 C16,8.95671987 15.894676,10.0508466 15.4167466,11.2200948 C15.2456531,11.6386727 15.033379,12.0156728 14.7798576,12.347482 L16.1088564,12.8464276 C17.6313866,13.4180306 18.8195517,14.56478 19.4641613,15.9846925 L19.1016235,15.9810791 L17.1459509,15.9931605 C16.7033289,15.4293664 16.1079329,14.9823837 15.4059042,14.7188213 L12.8203124,13.7481135 C12.2829617,13.9311643 11.6762391,14.0266113 11,14.0266113 C10.3266971,14.0266113 9.72230834,13.9319913 9.18669096,13.7504929 L6.59691407,14.7205491 C5.03496403,15.3056108 4,16.7984651 4,18.4663935 L4,19 L10.0538503,19 L10.5211618,21 Z M11,12.0266113 C13.4110475,12.0266113 14,10.5857466 14,7 C14,5.34314575 12.6568542,4 11,4 C9.34314575,4 8,5.34314575 8,7 C8,10.5857466 8.58895254,12.0266113 11,12.0266113 Z M15,20 C15.5522847,20 16,19.5522847 16,19 C16,18.4477153 15.5522847,18 15,18 C14.4477153,18 14,18.4477153 14,19 C14,19.5522847 14.4477153,20 15,20 Z"/>
</svg>
