<svg width="24" height="24" viewBox="0 0 24 24" fill="none" xmlns="http://www.w3.org/2000/svg">
<path d="M21.5 13C22.3284 13 23 13.6716 23 14.5V19C23 19.5523 22.5523 20 22 20H19V21H20C20.5523 21 21 21.4477 21 22C21 22.5523 20.5523 23 20 23H16C15.4477 23 15 22.5523 15 22C15 21.4477 15.4477 21 16 21H17V20H14C13.4477 20 13 19.5523 13 19V14.5C13 13.6716 13.6716 13 14.5 13H21.5ZM11 2C13.7614 2 16 4.23858 16 7C16 8.95672 15.8947 10.0508 15.4167 11.2201C15.3025 11.4996 15.1699 11.7605 15.0189 12.0019L14 12C12.9456 12 12.0818 12.8159 12.0055 13.8507L12.002 13.949L11.7634 13.9831C11.5196 14.0119 11.2651 14.0266 11 14.0266C10.3275 14.0266 9.72383 13.9322 9.18871 13.7512L6.59691 14.7205C5.03496 15.3056 4 16.7985 4 18.4664V19H12V20.999L3 21C2.44772 21 2 20.5523 2 20V18.4664C2 15.9645 3.55245 13.7252 5.89537 12.8476L7.2225 12.3506C6.96794 12.018 6.75488 11.64 6.58325 11.2201C6.10532 10.0508 6 8.95672 6 7C6 4.23858 8.23858 2 11 2ZM21 15H15V18H21V15ZM11 4C9.34315 4 8 5.34315 8 7C8 10.5857 8.58895 12.0266 11 12.0266C13.411 12.0266 14 10.5857 14 7C14 5.34315 12.6569 4 11 4Z" fill="#52555A"/>
</svg>
