<svg xmlns="http://www.w3.org/2000/svg" width="24" height="24" viewBox="0 0 24 24">
  <path fill="#777" fill-rule="evenodd" d="M10.7643259,12.4172367 C10.2494651,11.3063164 10,9.92739506 10,8.47216797 C10,5.83966111 11.7804272,4 14.4863281,4 C17.1910006,4 19,5.8532848 19,8.47216797 C19,9.9133509 18.7403448,11.2928697 18.2126208,12.4080154 L19.2283441,12.8143047 C21.5062943,13.7254848 23,15.9317373 23,18.3851648 L23,20 C23,20.5522847 22.5522847,21 22,21 L7,21 C6.44771525,21 6,20.5522847 6,20 L6,18.3851648 C6,15.9317373 7.49370567,13.7254848 9.77165594,12.8143047 L10.7643259,12.4172367 Z M11.9799757,14.0850427 L10.5144373,14.671258 C8.99580378,15.2787115 8,16.7495465 8,18.3851648 L8,19 L21,19 L21,18.3851648 C21,16.7495465 20.0041962,15.2787115 18.4855627,14.671258 L16.9876261,14.0720834 C16.320475,14.6456144 15.4846927,14.9815674 14.4761963,14.9815674 C13.4689899,14.9815674 12.6394975,14.6516675 11.9799757,14.0850427 Z M17,8.47216797 C17,6.94717306 16.0754602,6 14.4863281,6 C12.899909,6 12,6.92984856 12,8.47216797 C12,10.9717874 12.9395099,12.9815674 14.4761963,12.9815674 C16.0220356,12.9815674 17,10.9326221 17,8.47216797 Z M6,5.53553391 L5.70710678,5.82842712 C5.31658249,6.21895142 4.68341751,6.21895142 4.29289322,5.82842712 C3.90236893,5.43790283 3.90236893,4.80473785 4.29289322,4.41421356 L6.41421356,2.29289322 C6.80473785,1.90236893 7.43790283,1.90236893 7.82842712,2.29289322 C7.83385922,2.29832532 7.83921576,2.30380436 7.84449674,2.30932905 L9.94974747,4.41457977 C10.3402718,4.80510407 10.3402718,5.43826904 9.94974747,5.82879334 C9.55922318,6.21931763 8.9260582,6.21931763 8.53553391,5.82879334 L8,5.29325943 L8,9 C8,9.55228475 7.55228475,10 7,10 C6.44771525,10 6,9.55228475 6,9 L6,5.53553391 Z M5,11.1715729 L5.41421356,10.7573593 C5.80473785,10.366835 6.43790283,10.366835 6.82842712,10.7573593 C7.21895142,11.1478836 7.21895142,11.7810486 6.82842712,12.1715729 L4.70710678,14.2928932 C4.31658249,14.6834175 3.68341751,14.6834175 3.29289322,14.2928932 L1.17157288,12.1715729 C0.781048584,11.7810486 0.781048584,11.1478836 1.17157288,10.7573593 C1.56209717,10.366835 2.19526215,10.366835 2.58578644,10.7573593 L3,11.1715729 L3,8 C3,7.44771525 3.44771525,7 4,7 C4.55228475,7 5,7.44771525 5,8 L5,11.1715729 Z"/>
</svg>
