<svg xmlns="http://www.w3.org/2000/svg" width="24" height="24" viewBox="0 0 24 24">
  <path fill="#777" fill-rule="evenodd" d="M14.2218254,21 L4,21 C3.44771525,21 3,20.5522847 3,20 L3,18.4663935 C3,15.9645009 4.55244605,13.7252195 6.89537111,12.8476269 L8.22247481,12.3505319 C7.9679227,12.0179835 7.7548713,11.6399557 7.58325343,11.2200948 C7.10532397,10.0508466 7,8.95671987 7,7 C7,4.23857625 9.23857625,2 12,2 C14.7614237,2 17,4.23857625 17,7 C17,8.95671987 16.894676,10.0508466 16.4167466,11.2200948 C16.2456531,11.6386727 16.033379,12.0156728 15.7798576,12.347482 L17.1088564,12.8464276 C17.9669539,13.1685828 18.7188421,13.6734302 19.327071,14.3069074 C19.2385079,14.3773853 19.1530075,14.4535942 19.0710678,14.5355339 L17.8990833,15.7075184 C17.4910936,15.2781471 16.9847457,14.9361356 16.4059042,14.7188213 L13.8203124,13.7481135 C13.2829617,13.9311643 12.6762391,14.0266113 12,14.0266113 C11.3266971,14.0266113 10.7223083,13.9319913 10.186691,13.7504929 L7.59691407,14.7205491 C6.03496403,15.3056108 5,16.7984651 5,18.4663935 L5,19 L13.2508026,19 C13.3018184,19.6922434 13.591991,20.3701656 14.1213203,20.8994949 L14.2218254,21 Z M12,12.0266113 C14.4110475,12.0266113 15,10.5857466 15,7 C15,5.34314575 13.6568542,4 12,4 C10.3431458,4 9,5.34314575 9,7 C9,10.5857466 9.58895254,12.0266113 12,12.0266113 Z M18.0284271,18.6497475 L20.8568542,15.8213203 C21.2473785,15.4307961 21.8805435,15.4307961 22.2710678,15.8213203 C22.6615921,16.2118446 22.6615921,16.8450096 22.2710678,17.2355339 L18.7355339,20.7710678 C18.3450096,21.1615921 17.7118446,21.1615921 17.3213203,20.7710678 L15.9071068,19.3568542 C15.5165825,18.96633 15.5165825,18.333165 15.9071068,17.9426407 C16.2976311,17.5521164 16.9307961,17.5521164 17.3213203,17.9426407 L18.0284271,18.6497475 Z"/>
</svg>
