<svg xmlns="http://www.w3.org/2000/svg" width="24" height="24" viewBox="0 0 24 24">
  <path fill="#777" fill-rule="evenodd" d="M20,17 C20.5522847,17 21,17.4477153 21,18 L21,21 C21,21.5522847 20.5522847,22 20,22 L14,22 C13.4477153,22 13,21.5522847 13,21 L13,18 C13,17.4477153 13.4477153,17 14,17 L14,15.5 C14,14.1192881 15.2929688,13 17.0783691,13 C18.8637695,13 20,14.1192881 20,15.5 L20,17 Z M12,21 L3,21 C2.44771525,21 2,20.5522847 2,20 L2,18.4663935 C2,15.9645009 3.55244605,13.7252195 5.89537111,12.8476269 L7.22247481,12.3505319 C6.9679227,12.0179835 6.7548713,11.6399557 6.58325343,11.2200948 C6.10532397,10.0508466 6,8.95671987 6,7 C6,4.23857625 8.23857625,2 11,2 C13.7614237,2 16,4.23857625 16,7 C16,8.95671987 15.894676,10.0508466 15.4167466,11.2200948 C15.2456531,11.6386727 15.033379,12.0156728 14.7798576,12.347482 L15.0438752,12.4466021 C14.3262492,12.7905658 13.7485891,13.3161597 13.3928363,13.9630559 L12.8203124,13.7481135 C12.2829617,13.9311643 11.6762391,14.0266113 11,14.0266113 C10.3266971,14.0266113 9.72230834,13.9319913 9.18669096,13.7504929 L6.59691407,14.7205491 C5.03496403,15.3056108 4,16.7984651 4,18.4663935 L4,19 L12,19 L12,21 Z M11,12.0266113 C13.4110475,12.0266113 14,10.5857466 14,7 C14,5.34314575 12.6568542,4 11,4 C9.34314575,4 8,5.34314575 8,7 C8,10.5857466 8.58895254,12.0266113 11,12.0266113 Z M17,15 C16.4477153,15 16,15.4477153 16,16 L16,17 L18,17 L18,16 C18,15.4477153 17.5522847,15 17,15 Z"/>
</svg>
