<svg xmlns="http://www.w3.org/2000/svg" width="24" height="24" viewBox="0 0 24 24">
  <path fill="#777" fill-rule="evenodd" d="M18.0703553,12.4145632 L18.6865606,12.7231367 C20.7174623,13.7401393 22,15.8167475 22,18.0880591 L22,19 C22,19.5522847 21.5522847,20 21,20 L9,20 C8.44771525,20 8,19.5522847 8,19 L8,18.0922765 C8,15.8183265 9.28548814,13.7397799 11.3199904,12.7240786 L11.9291884,12.4199436 C11.2606616,11.3417212 11,9.79322227 11,8 C11,5.6701918 12.4223485,4 15,4 C17.5717902,4 19,5.68677831 19,8 C19,9.78605693 18.7388702,11.3345474 18.0703553,12.4145632 Z M13.6220054,13.8102118 L12.2133269,14.5134779 C10.8845616,15.1768483 10.0350456,16.5202698 10.0010592,18 L19.9990354,18 C19.9666056,16.520352 19.1186837,15.1762803 17.7910404,14.5114441 L16.3840097,13.8068537 C15.9795633,13.9505067 15.5200332,14.0266113 15,14.0266113 C14.4825006,14.0266113 14.024956,13.95174 13.6220054,13.8102118 Z M15,12.0266113 C16.3898952,12.0266113 17,10.4268089 17,8 C17,6.72443601 16.3866138,6 15,6 C13.6045498,6 13,6.70989222 13,8 C13,10.4413143 13.606404,12.0266113 15,12.0266113 Z M3,6 L9,6 C9.55228475,6 10,6.44771525 10,7 C10,7.55228475 9.55228475,8 9,8 L3,8 C2.44771525,8 2,7.55228475 2,7 C2,6.44771525 2.44771525,6 3,6 Z M3,9 L9,9 C9.55228475,9 10,9.44771525 10,10 C10,10.5522847 9.55228475,11 9,11 L3,11 C2.44771525,11 2,10.5522847 2,10 C2,9.44771525 2.44771525,9 3,9 Z M3,12 L7,12 C7.55228475,12 8,12.4477153 8,13 C8,13.5522847 7.55228475,14 7,14 L3,14 C2.44771525,14 2,13.5522847 2,13 C2,12.4477153 2.44771525,12 3,12 Z M3,15 L6,15 C6.55228475,15 7,15.4477153 7,16 C7,16.5522847 6.55228475,17 6,17 L3,17 C2.44771525,17 2,16.5522847 2,16 C2,15.4477153 2.44771525,15 3,15 Z"/>
</svg>
