<svg xmlns="http://www.w3.org/2000/svg" width="24" height="24" viewBox="0 0 24 24">
  <path fill="#777" fill-rule="evenodd" d="M15.1660437,12.2015971 C16.8892201,13.0292134 18,14.7767679 18,16.7081318 L18,19 L6,19 L6,16.7081318 C6,14.7767679 7.11077994,13.0292134 8.83395628,12.2015971 C8.54760676,11.7217835 8.36675217,11.1701992 8.32442368,10.5776003 L8.21628245,9.06362315 C8.06701891,6.97393365 9.64004496,5.1589036 11.7297345,5.00964006 C11.8196798,5.0032154 11.9098255,5 12,5 C14.0950136,5 15.7933576,6.69834405 15.7933576,8.79335761 C15.7933576,8.88353207 15.7901422,8.97367785 15.7837175,9.06362315 L15.6755763,10.5776003 C15.6332478,11.1701992 15.4523932,11.7217835 15.1660437,12.2015971 Z M10.4946012,13.6791925 L9.88582797,13.9227018 C8.74685283,14.3782918 8,15.4814181 8,16.7081318 L8,17 L16,17 L16,16.7081318 C16,15.4814181 15.2531472,14.3782918 14.114172,13.9227018 L13.5053988,13.6791925 C13.0448535,13.8855772 12.5350131,14 12,14 C11.4649869,14 10.9551465,13.8855772 10.4946012,13.6791925 Z M12,7 C11.9573689,7 11.9147513,7.00152012 11.8722286,7.00455746 C10.8843015,7.07512368 10.1406336,7.93320201 10.2111998,8.92112905 L10.3193411,10.4351062 C10.3823224,11.3168449 11.1160149,12 12,12 C12.8839851,12 13.6176776,11.3168449 13.6806589,10.4351062 L13.7888002,8.92112905 C13.7918375,8.87860628 13.7933576,8.83598872 13.7933576,8.79335761 C13.7933576,7.80291355 12.9904441,7 12,7 Z"/>
</svg>
