<svg xmlns="http://www.w3.org/2000/svg" width="24" height="24" viewBox="0 0 24 24">
  <path fill="#777" fill-rule="evenodd" d="M18.9957411,13.9873218 C18.7541602,14.0940568 18.5278595,14.2464046 18.329899,14.4443651 C18.0172523,14.7570117 17.818378,15.1403475 17.7332762,15.5429247 C17.3568201,15.1904488 16.908712,14.9075902 16.4059042,14.7188213 L13.8203124,13.7481135 C13.2829617,13.9311643 12.6762391,14.0266113 12,14.0266113 C11.3266971,14.0266113 10.7223083,13.9319913 10.186691,13.7504929 L7.59691407,14.7205491 C6.03496403,15.3056108 5,16.7984651 5,18.4663935 L5,19 L14.4104693,19 C14.1005713,19.6113068 13.8980308,20.2862424 13.8276546,21 L4,21 C3.44771525,21 3,20.5522847 3,20 L3,18.4663935 C3,15.9645009 4.55244605,13.7252195 6.89537111,12.8476269 L8.22247481,12.3505319 C7.9679227,12.0179835 7.7548713,11.6399557 7.58325343,11.2200948 C7.10532397,10.0508466 7,8.95671987 7,7 C7,4.23857625 9.23857625,2 12,2 C14.7614237,2 17,4.23857625 17,7 C17,8.95671987 16.894676,10.0508466 16.4167466,11.2200948 C16.2456531,11.6386727 16.033379,12.0156728 15.7798576,12.347482 L17.1088564,12.8464276 C17.8172169,13.1123671 18.4532009,13.5028026 18.9957411,13.9873218 Z M12,12.0266113 C14.4110475,12.0266113 15,10.5857466 15,7 C15,5.34314575 13.6568542,4 12,4 C10.3431458,4 9,5.34314575 9,7 C9,10.5857466 9.58895254,12.0266113 12,12.0266113 Z M19.6281746,19 L19.4781746,19 C18.1095166,19 17,20.1095166 17,21.4781746 C17,22.0304593 16.5522847,22.4781746 16,22.4781746 C15.4477153,22.4781746 15,22.0304593 15,21.4781746 C15,19.0049471 17.0049471,17 19.4781746,17 L19.5571068,17 L19.1784271,16.6213203 C18.7879028,16.2307961 18.7879028,15.5976311 19.1784271,15.2071068 C19.5689514,14.8165825 20.2021164,14.8165825 20.5926407,15.2071068 L22.713961,17.3284271 C23.1044853,17.7189514 23.1044853,18.3521164 22.713961,18.7426407 L20.5926407,20.863961 C20.2021164,21.2544853 19.5689514,21.2544853 19.1784271,20.863961 C18.7879028,20.4734367 18.7879028,19.8402718 19.1784271,19.4497475 L19.6281746,19 Z"/>
</svg>
