<svg xmlns="http://www.w3.org/2000/svg" width="24" height="24" viewBox="0 0 24 24">
  <path fill="#777" fill-rule="evenodd" d="M13.3414114,21 L4,21 C3.44771525,21 3,20.5522847 3,20 L3,18.4663935 C3,15.9645009 4.55244605,13.7252195 6.89537111,12.8476269 L8.22247481,12.3505319 C7.9679227,12.0179835 7.7548713,11.6399557 7.58325343,11.2200948 C7.10532397,10.0508466 7,8.95671987 7,7 C7,4.23857625 9.23857625,2 12,2 C14.7614237,2 17,4.23857625 17,7 C17,8.95671987 16.894676,10.0508466 16.4167466,11.2200948 C16.2456531,11.6386727 16.033379,12.0156728 15.7798576,12.347482 L17.1088564,12.8464276 C17.3296643,12.9293254 17.5434396,13.0243202 17.7495441,13.1304908 C16.8297224,13.3254909 15.9877472,13.7312405 15.2765353,14.2948227 L13.8203124,13.7481135 C13.2829617,13.9311643 12.6762391,14.0266113 12,14.0266113 C11.3266971,14.0266113 10.7223083,13.9319913 10.186691,13.7504929 L7.59691407,14.7205491 C6.03496403,15.3056108 5,16.7984651 5,18.4663935 L5,19 L13,19 C13,19.7012708 13.1203084,20.3744421 13.3414114,21 Z M12,12.0266113 C14.4110475,12.0266113 15,10.5857466 15,7 C15,5.34314575 13.6568542,4 12,4 C10.3431458,4 9,5.34314575 9,7 C9,10.5857466 9.58895254,12.0266113 12,12.0266113 Z M19,24 C16.2385763,24 14,21.7614237 14,19 C14,16.2385763 16.2385763,14 19,14 C21.7614237,14 24,16.2385763 24,19 C24,21.7614237 21.7614237,24 19,24 Z M19,22 C20.6568542,22 22,20.6568542 22,19 C22,17.3431458 20.6568542,16 19,16 C17.3431458,16 16,17.3431458 16,19 C16,20.6568542 17.3431458,22 19,22 Z M18,18 L20,18 C20.5522847,18 21,18.4477153 21,19 C21,19.5522847 20.5522847,20 20,20 L18,20 C17.4477153,20 17,19.5522847 17,19 C17,18.4477153 17.4477153,18 18,18 Z"/>
</svg>
