<svg xmlns="http://www.w3.org/2000/svg" width="24" height="24" viewBox="0 0 24 24">
  <path fill="#777" fill-rule="evenodd" d="M13.4142136,12 L14.8284271,10.5857864 C15.2189514,10.1952621 15.2189514,9.56209717 14.8284271,9.17157288 C14.4379028,8.78104858 13.8047379,8.78104858 13.4142136,9.17157288 L12,10.5857864 L10.5857864,9.17157288 C10.1952621,8.78104858 9.56209717,8.78104858 9.17157288,9.17157288 C8.78104858,9.56209717 8.78104858,10.1952621 9.17157288,10.5857864 L10.5857864,12 L9.17157288,13.4142136 C8.78104858,13.8047379 8.78104858,14.4379028 9.17157288,14.8284271 C9.56209717,15.2189514 10.1952621,15.2189514 10.5857864,14.8284271 L12,13.4142136 L13.4142136,14.8284271 C13.8047379,15.2189514 14.4379028,15.2189514 14.8284271,14.8284271 C15.2189514,14.4379028 15.2189514,13.8047379 14.8284271,13.4142136 L13.4142136,12 Z M12,18 C8.6862915,18 6,15.3137085 6,12 C6,8.6862915 8.6862915,6 12,6 C15.3137085,6 18,8.6862915 18,12 C18,15.3137085 15.3137085,18 12,18 Z"/>
</svg>
