<svg xmlns="http://www.w3.org/2000/svg" width="24" height="24" viewBox="0 0 24 24">
  <path fill="#777" fill-rule="evenodd" d="M13.4142136,12 L14.8284271,13.4142136 C15.2189514,13.8047379 15.2189514,14.4379028 14.8284271,14.8284271 C14.4379028,15.2189514 13.8047379,15.2189514 13.4142136,14.8284271 L12,13.4142136 L10.5857864,14.8284271 C10.1952621,15.2189514 9.56209717,15.2189514 9.17157288,14.8284271 C8.78104858,14.4379028 8.78104858,13.8047379 9.17157288,13.4142136 L10.5857864,12 L9.17157288,10.5857864 C8.78104858,10.1952621 8.78104858,9.56209717 9.17157288,9.17157288 C9.56209717,8.78104858 10.1952621,8.78104858 10.5857864,9.17157288 L12,10.5857864 L13.4142136,9.17157288 C13.8047379,8.78104858 14.4379028,8.78104858 14.8284271,9.17157288 C15.2189514,9.56209717 15.2189514,10.1952621 14.8284271,10.5857864 L13.4142136,12 Z M12,19 C8.13400675,19 5,15.8659932 5,12 C5,8.13400675 8.13400675,5 12,5 C15.8659932,5 19,8.13400675 19,12 C19,15.8659932 15.8659932,19 12,19 Z M12,17 C14.7614237,17 17,14.7614237 17,12 C17,9.23857625 14.7614237,7 12,7 C9.23857625,7 7,9.23857625 7,12 C7,14.7614237 9.23857625,17 12,17 Z"/>
</svg>
