<svg xmlns="http://www.w3.org/2000/svg" width="24" height="24" viewBox="0 0 24 24">
  <path fill="#777" fill-rule="evenodd" d="M11.4851819,11.4851737 L11.4851819,7.48486146 C11.4851819,6.93257671 11.9328972,6.48486146 12.4851819,6.48486146 C13.0374667,6.48486146 13.4851819,6.93257671 13.4851819,7.48486146 L13.4851819,11.4851737 L17.4847208,11.4851737 C18.0370056,11.4851737 18.4847208,11.9328889 18.4847208,12.4851737 C18.4847208,13.0374584 18.0370056,13.4851737 17.4847208,13.4851737 L13.4851819,13.4851737 L13.4851819,17.4855024 C13.4851819,18.0377872 13.0374667,18.4855024 12.4851819,18.4855024 C11.9328972,18.4855024 11.4851819,18.0377872 11.4851819,17.4855024 L11.4851819,13.4851737 L7.48564304,13.4851737 C6.93335829,13.4851737 6.48564304,13.0374584 6.48564304,12.4851737 C6.48564304,11.9328889 6.93335829,11.4851737 7.48564304,11.4851737 L11.4851819,11.4851737 Z" transform="rotate(45 12.485 12.485)"/>
</svg>
