<svg xmlns="http://www.w3.org/2000/svg" width="24" height="24" viewBox="0 0 24 24">
  <path fill="#777" fill-rule="evenodd" d="M11,18.0007935 L14,18 C14.7596567,17.999371 15.7911587,18 16.5,18 C18.9852814,18 21,15.9852814 21,13.5 C21,11.5131596 19.7123755,9.82706001 17.9260835,9.23065835 C17.5674046,7.38961314 15.9459831,6 14,6 C12.691472,6 11.5296963,6.62832141 10.7999182,7.59971887 C10.2985359,7.22314263 9.67532684,7 9,7 C7.34314575,7 6,8.34314575 6,10 C6,10.3562362 6.06209127,10.6979701 6.1760418,11.0149699 C4.39491499,11.1784367 3,12.6764066 3,14.5001763 C3,16.4331729 4.56700338,18.0001763 6.5,18.0001763 C7.61243556,18.0001763 11,18.0007935 11,18.0007935 Z M9,5 C9.47994749,5 9.95057795,5.06825026 10.4001604,5.19920571 C11.4200603,4.43366704 12.6748959,4 14,4 C16.4989924,4 18.6794444,5.53815203 19.57193,7.77022049 C21.6438737,8.88132727 23,11.0603834 23,13.5 C23,17.0898509 20.0898509,20 16.5,20 C16.349375,20 16.18196,19.9999724 16.0000001,19.99992 L13,20 L10.9996356,20.0007934 C10.5762067,20.0007163 10.5762067,20.0007163 9.16685037,20.0004849 C8.87364285,20.0004394 8.87364285,20.0004394 8.5750709,20.0003951 C7.35380749,20.0002261 6.90192508,20.0001763 6.5,20.0001763 C3.46243388,20.0001763 1,17.5377424 1,14.5001763 C1,12.366633 2.2194566,10.5017285 4.0164655,9.59127163 C4.22441159,7.02102238 6.37618826,5 9,5 Z"/>
</svg>
