<svg xmlns="http://www.w3.org/2000/svg" width="24" height="24" viewBox="0 0 24 24">
  <path fill="#777" d="M8.3,5.44331559 C8.13431458,5.44331559 8,5.57763017 8,5.74331559 L8,18.2566844 C8,18.3259371 8.02395938,18.3930571 8.06781281,18.4466557 C8.17273108,18.5748892 8.36173789,18.5937899 8.48997134,18.4888716 L16.1370301,12.2321872 C16.1524707,12.2195539 16.1666127,12.205412 16.1792459,12.1899713 C16.2841642,12.0617379 16.2652635,11.8727311 16.1370301,11.7678128 L8.48997134,5.5111284 C8.4363727,5.46727497 8.36925271,5.44331559 8.3,5.44331559 Z M9.75644692,3.9632138 L17.4035056,10.2198982 C18.3866287,11.0242716 18.5315339,12.4733238 17.7271605,13.4564469 C17.6303056,13.5748252 17.5218839,13.6832469 17.4035056,13.7801018 L9.75644692,20.0367862 C8.77332385,20.8411596 7.32427163,20.6962544 6.51989821,19.7131313 C6.18368857,19.3022084 6,18.7876218 6,18.2566844 L6,5.74331559 C6,4.47306067 7.02974508,3.44331559 8.3,3.44331559 C8.83093743,3.44331559 9.34552402,3.62700416 9.75644692,3.9632138 Z"/>
</svg>
