<svg xmlns="http://www.w3.org/2000/svg" width="24" height="24" viewBox="0 0 24 24">
  <path fill="#777" fill-rule="evenodd" d="M7,6 L7,18 L9,18 L9,6 L7,6 Z M7,4 L9,4 C10.1045695,4 11,4.8954305 11,6 L11,18 C11,19.1045695 10.1045695,20 9,20 L7,20 C5.8954305,20 5,19.1045695 5,18 L5,6 C5,4.8954305 5.8954305,4 7,4 Z M15,6 L15,18 L17,18 L17,6 L15,6 Z M15,4 L17,4 C18.1045695,4 19,4.8954305 19,6 L19,18 C19,19.1045695 18.1045695,20 17,20 L15,20 C13.8954305,20 13,19.1045695 13,18 L13,6 C13,4.8954305 13.8954305,4 15,4 Z"/>
</svg>
