<svg width="24" height="24" viewBox="0 0 24 24" xmlns="http://www.w3.org/2000/svg">
  <path fill="#777" fill-rule="evenodd"  d="M17,3 C19.209139,3 21,4.790861 21,7 C21,9.209139 19.209139,11 17,11 L16.913,10.998 L16.1129856,14.6029974 C17.2460045,15.3092452 18,16.56657 18,18 C18,20.209139 16.209139,22 14,22 C11.790861,22 10,20.209139 10,18 C10,17.2581812 10.201935,16.5635268 10.5538336,15.968008 L8.03199196,13.4461664 C7.43647323,13.798065 6.74181883,14 6,14 C3.790861,14 2,12.209139 2,10 C2,7.790861 3.790861,6 6,6 C7.43845073,6 8.69956056,6.75928668 9.40440344,7.89893397 L13.0039639,7.17968671 C13.0013306,7.12012044 13,7.06021561 13,7 C13,4.790861 14.790861,3 17,3 Z M14,16 C12.8954305,16 12,16.8954305 12,18 C12,19.1045695 12.8954305,20 14,20 C15.1045695,20 16,19.1045695 16,18 C16,16.8954305 15.1045695,16 14,16 Z M13.5955966,9.10106603 L9.99603171,9.82021345 C9.99866795,9.87981263 10,9.93975075 10,10 C10,10.7418188 9.79806504,11.4364732 9.44616637,12.031992 L11.968008,14.5538336 C12.5635268,14.201935 13.2581812,14 14,14 L14.196,14.004 L14.9850667,10.4561896 C14.4183574,10.1250885 13.9404124,9.65859237 13.5955966,9.10106603 Z M6,8 C4.8954305,8 4,8.8954305 4,10 C4,11.1045695 4.8954305,12 6,12 C7.1045695,12 8,11.1045695 8,10 C8,8.8954305 7.1045695,8 6,8 Z M17,5 C15.8954305,5 15,5.8954305 15,7 C15,8.1045695 15.8954305,9 17,9 C18.1045695,9 19,8.1045695 19,7 C19,5.8954305 18.1045695,5 17,5 Z" id="Combined-Shape"></path>
</svg>