<svg xmlns="http://www.w3.org/2000/svg" width="24" height="24" viewBox="0 0 24 24">
  <path fill="#777" fill-rule="evenodd" d="M8.07983526,19.5612963 C7.382237,20.0081163 6.45450265,19.8048204 6.00768258,19.1072222 C5.78193294,18.7547703 5.7137098,18.3240264 5.81949686,17.9190643 L6.92227316,13.6975402 L3.54875878,10.9304511 C2.90823793,10.4050707 2.81489814,9.45992102 3.34027852,8.81940017 C3.60571968,8.49578589 3.99429937,8.29779464 4.41213123,8.27326394 L8.76781585,8.01754383 L10.3570007,3.95406345 C10.6587353,3.18254045 11.5287825,2.80170172 12.3003055,3.10343632 C12.6901068,3.25588355 12.9984854,3.56426214 13.1509326,3.95406345 L14.7401175,8.01754383 L19.0958021,8.27326394 C19.9228052,8.32181689 20.5538637,9.03159529 20.5053107,9.85859838 C20.48078,10.2764302 20.2827888,10.6650099 19.9591745,10.9304511 L16.5856601,13.6975402 L17.6884364,17.9190643 C17.8978179,18.7205947 17.4177863,19.5401006 16.6162559,19.749482 C16.2112938,19.855269 15.7805499,19.7870459 15.428098,19.5612963 L11.7539667,17.207971 L8.07983526,19.5612963 Z"/>
</svg>
