<svg width="24" height="24" viewBox="0 0 24 24" fill="none" xmlns="http://www.w3.org/2000/svg">
    <path fill-rule="evenodd" clip-rule="evenodd" d="M11.1257 5.05418C11.4125 5.01839 11.7043 5 12 5C12.2957 5 12.5875 5.01839 12.8743 5.05418C13.4224 5.12256 13.8112 5.62227 13.7428 6.17031C13.6744 6.71834 13.1747 7.10717 12.6267 7.03879C12.4218 7.01322 12.2127 7 12 7C11.7873 7 11.5782 7.01322 11.3733 7.03879C10.8253 7.10717 10.3256 6.71834 10.2572 6.17031C10.1888 5.62227 10.5776 5.12256 11.1257 5.05418ZM14.8896 6.64633C15.2286 6.21029 15.8568 6.13157 16.2929 6.47052C16.7548 6.82957 17.1704 7.24521 17.5295 7.70713C17.8684 8.14317 17.7897 8.77142 17.3537 9.11037C16.9176 9.44932 16.2894 9.3706 15.9504 8.93456C15.6935 8.60403 15.396 8.3065 15.0654 8.04957C14.6294 7.71063 14.5507 7.08237 14.8896 6.64633ZM9.11037 6.64633C9.44932 7.08237 9.3706 7.71063 8.93456 8.04957C8.60403 8.30651 8.3065 8.60403 8.04957 8.93456C7.71063 9.3706 7.08237 9.44932 6.64633 9.11037C6.21029 8.77142 6.13157 8.14317 6.47052 7.70713C6.82957 7.24522 7.24521 6.82958 7.70713 6.47052C8.14317 6.13158 8.77142 6.21029 9.11037 6.64633ZM17.8297 10.2572C18.3777 10.1888 18.8774 10.5776 18.9458 11.1257C18.9816 11.4125 19 11.7043 19 12C19 12.2957 18.9816 12.5875 18.9458 12.8743C18.8774 13.4224 18.3777 13.8112 17.8297 13.7428C17.2817 13.6744 16.8928 13.1747 16.9612 12.6267C16.9868 12.4218 17 12.2127 17 12C17 11.7873 16.9868 11.5782 16.9612 11.3733C16.8928 10.8253 17.2817 10.3256 17.8297 10.2572ZM6.17031 10.2572C6.71834 10.3256 7.10717 10.8253 7.03879 11.3733C7.01322 11.5782 7 11.7873 7 12C7 12.2127 7.01322 12.4218 7.03879 12.6267C7.10717 13.1747 6.71834 13.6744 6.17031 13.7428C5.62227 13.8112 5.12256 13.4224 5.05418 12.8743C5.01839 12.5875 5 12.2957 5 12C5 11.7043 5.01839 11.4125 5.05418 11.1257C5.12256 10.5776 5.62227 10.1888 6.17031 10.2572ZM17.3537 14.8896C17.7897 15.2286 17.8684 15.8568 17.5295 16.2929C17.1704 16.7548 16.7548 17.1704 16.2929 17.5295C15.8568 17.8684 15.2286 17.7897 14.8896 17.3537C14.5507 16.9176 14.6294 16.2894 15.0654 15.9504C15.396 15.6935 15.6935 15.396 15.9504 15.0654C16.2894 14.6294 16.9176 14.5507 17.3537 14.8896ZM6.64633 14.8896C7.08237 14.5507 7.71063 14.6294 8.04957 15.0654C8.30651 15.396 8.60403 15.6935 8.93456 15.9504C9.3706 16.2894 9.44932 16.9176 9.11037 17.3537C8.77142 17.7897 8.14317 17.8684 7.70713 17.5295C7.24522 17.1704 6.82958 16.7548 6.47052 16.2929C6.13158 15.8568 6.21029 15.2286 6.64633 14.8896ZM10.2572 17.8297C10.3256 17.2817 10.8253 16.8928 11.3733 16.9612C11.5782 16.9868 11.7873 17 12 17C12.2127 17 12.4218 16.9868 12.6267 16.9612C13.1747 16.8928 13.6744 17.2817 13.7428 17.8297C13.8112 18.3777 13.4224 18.8774 12.8743 18.9458C12.5875 18.9816 12.2957 19 12 19C11.7043 19 11.4125 18.9816 11.1257 18.9458C10.5776 18.8774 10.1888 18.3777 10.2572 17.8297Z" />
</svg>
