<svg xmlns="http://www.w3.org/2000/svg" width="24" height="24" viewBox="0 0 24 24">
  <path fill="#777" fill-rule="evenodd" d="M17.8845666,10.9186376 L11.4222217,21.073751 C10.2041531,22.9878587 7.24434643,21.7159979 7.79461371,19.5149287 L9.1733459,14 L8.74426761,14 C6.82039549,14 5.544746,12.2459028 6.15291452,10.4213972 L8.75728936,2.60827273 C9.07568752,1.65307827 9.9847126,1 10.984826,1 L15.493775,1 C17.1614197,1 18.1174936,2.70694614 17.4098129,4.12230767 L15.9664001,7.00913325 C17.9504911,7.16126524 18.9876643,9.18519832 17.8845666,10.9186376 Z M15.493775,3 L10.984826,3 C10.846795,3 10.7012073,3.10107422 10.654656,3.24072826 L8.05028112,11.0538528 C7.87610023,11.5763955 8.17825189,12 8.74426761,12 L11.7348987,12 L9.73489871,20 L16.1972436,9.84488659 C16.4941823,9.37826861 16.2915455,9 15.7255298,9 L12.7348987,9 L15.6209585,3.22788048 C15.6838859,3.10202557 15.6262864,3 15.493775,3 Z"/>
</svg>
