<svg xmlns="http://www.w3.org/2000/svg" width="24" height="24" viewBox="0 0 24 24">
  <path fill="#777" fill-rule="evenodd" d="M11.9999436,21.9999744 C11.4476589,21.9999744 10.9999436,21.5522591 10.9999436,20.9999744 C10.9999436,20.4476896 11.4476589,19.9999744 11.9999436,19.9999744 C13.2177882,19.9999744 14.3949738,19.7283233 15.4667071,19.2120979 C15.9642793,18.9724307 16.5619299,19.1815039 16.8015972,19.6790761 C17.0412644,20.1766482 16.8321912,20.7742989 16.334619,21.0139661 C14.9935756,21.659911 13.5199288,21.9999744 11.9999436,21.9999744 Z M19.8097991,18.2459947 C19.4646061,18.6771099 18.8352841,18.7467636 18.4041689,18.4015707 C17.9730538,18.0563777 17.9034,17.4270557 18.248593,16.9959405 C18.9974894,16.0606358 19.5285519,14.9696011 19.7975497,13.7969591 C19.9210336,13.2586561 20.4575179,12.9223787 20.9958209,13.0458626 C21.534124,13.1693464 21.8704014,13.7058307 21.7469175,14.2441338 C21.4101968,15.7120002 20.7457362,17.0770928 19.8097991,18.2459947 Z M21.7670135,9.84531162 C21.8855262,10.3847309 21.5443141,10.9180902 21.0048948,11.036603 C20.4654755,11.1551157 19.9321162,10.8139035 19.8136034,10.2744842 C19.5553879,9.0991975 19.034511,8.0036712 18.2944364,7.06180388 C17.9532127,6.62754031 18.0286365,5.99888369 18.4629,5.65766002 C18.8971636,5.31643634 19.5258202,5.39186009 19.8670439,5.82612366 C20.7920182,7.00330647 21.4437895,8.3741344 21.7670135,9.84531162 Z M16.3559624,2.99629447 C16.8529628,3.23714508 17.0606133,3.83529154 16.8197627,4.33229197 C16.578912,4.8292924 15.9807656,5.03694285 15.4837652,4.79609224 C14.4132583,4.27731555 13.2368044,4.00287513 12.0193142,3.99999727 C11.4670309,3.9986918 11.0203752,3.54991951 11.0216807,2.9976363 C11.0229862,2.44535309 11.4717585,1.99869738 12.0240417,2.00000285 C13.5436924,2.00359496 15.0164539,2.34715733 16.3559624,2.99629447 Z M7.76467072,2.9387779 C8.26486074,2.70462327 8.8601647,2.92028758 9.09431932,3.4204776 C9.32847394,3.92066762 9.11280964,4.51597158 8.61261962,4.7501262 C7.52662242,5.25851551 6.56681703,6.00727413 5.80669918,6.9355834 C5.45680838,7.36289461 4.82676166,7.42565625 4.39945045,7.07576545 C3.97213924,6.72587464 3.9093776,6.09582792 4.25926841,5.66851671 C5.20837301,4.50940355 6.40696958,3.57436034 7.76467072,2.9387779 Z M2.28966079,9.60152646 C2.42171837,9.06526231 2.96350018,8.73758814 3.49976433,8.86964572 C4.03602848,9.00170331 4.36370265,9.54348512 4.23164507,10.0797493 C4.08040849,10.6938962 4.00213434,11.327844 3.9999945,11.9694652 C3.9999497,12.5535923 4.05606892,13.1030514 4.16839106,13.6418818 C4.28109516,14.1825446 3.93416611,14.7122031 3.39350334,14.8249072 C2.85284057,14.9376113 2.32318208,14.5906822 2.21047797,14.0500195 C2.07003255,13.3762763 1.99993924,12.6899979 2.00000004,11.9660618 C2.00267519,11.161944 2.1004942,10.3697009 2.28966079,9.60152646 Z M4.05990585,18.0798595 C3.72385162,17.6415833 3.80671887,17.0138645 4.24499504,16.6778102 C4.68327121,16.341756 5.31099002,16.4246233 5.64704425,16.8628994 C6.37707704,17.8149957 7.31288069,18.5941282 8.38192414,19.1372571 C8.87430672,19.3874128 9.07067047,19.9893589 8.82051484,20.4817415 C8.57035922,20.9741241 7.96841307,21.1704878 7.47603048,20.9203322 C6.13987592,20.2414971 4.97146685,19.2687017 4.05990585,18.0798595 Z"/>
</svg>
