<svg width="24" height="24" viewBox="0 0 24 24" fill="none" xmlns="http://www.w3.org/2000/svg">
    <path d="M11.9999 22C11.4477 22 10.9999 21.5523 10.9999 21C10.9999 20.4477 11.4477 20 11.9999 20C13.2178 20 14.395 19.7283 15.4667 19.2121C15.9643 18.9724 16.5619 19.1815 16.8016 19.6791C17.0413 20.1766 16.8322 20.7743 16.3346 21.014C14.9936 21.6599 13.5199 22 11.9999 22ZM19.8098 18.246C19.4646 18.6771 18.8353 18.7468 18.4042 18.4016C17.9731 18.0564 17.9034 17.4271 18.2486 16.9959C18.9975 16.0606 19.5286 14.9696 19.7976 13.797C19.921 13.2587 20.4575 12.9224 20.9958 13.0459C21.5341 13.1693 21.8704 13.7058 21.7469 14.2441C21.4102 15.712 20.7457 17.0771 19.8098 18.246ZM21.767 9.84531C21.8855 10.3847 21.5443 10.9181 21.0049 11.0366C20.4655 11.1551 19.9321 10.8139 19.8136 10.2745C19.5554 9.0992 19.0345 8.00367 18.2944 7.06181C17.9532 6.62754 18.0286 5.99889 18.4629 5.65766C18.8972 5.31644 19.5258 5.39186 19.867 5.82613C20.792 7.00331 21.4438 8.37414 21.767 9.84531ZM16.356 2.9963C16.853 3.23715 17.0606 3.83529 16.8198 4.33229C16.5789 4.8293 15.9808 5.03695 15.4838 4.79609C14.4133 4.27732 13.2368 4.00288 12.0193 4C11.467 3.99869 11.0204 3.54992 11.0217 2.99764C11.023 2.44536 11.4718 1.9987 12.024 2C13.5437 2.0036 15.0165 2.34716 16.356 2.9963ZM7.76467 2.93878C8.26486 2.70463 8.86016 2.92029 9.09432 3.42048C9.32847 3.92067 9.11281 4.51597 8.61262 4.75013C7.52662 5.25852 6.56682 6.00728 5.8067 6.93559C5.45681 7.3629 4.82676 7.42566 4.39945 7.07577C3.97214 6.72588 3.90938 6.09583 4.25927 5.66852C5.20837 4.50941 6.40697 3.57436 7.76467 2.93878ZM2.28966 9.60153C2.42172 9.06527 2.9635 8.73759 3.49976 8.86965C4.03603 9.00171 4.3637 9.54349 4.23165 10.0798C4.08041 10.6939 4.00213 11.3278 4 11.9695C3.99995 12.5536 4.05607 13.1031 4.16839 13.6419C4.2811 14.1825 3.93417 14.7122 3.3935 14.8249C2.85284 14.9376 2.32318 14.5907 2.21048 14.05C2.07003 13.3763 1.99994 12.69 2 11.9661C2.00268 11.1619 2.10049 10.3697 2.28966 9.60153ZM4.05991 18.0799C3.72385 17.6416 3.80672 17.0139 4.245 16.6778C4.68327 16.3418 5.31099 16.4246 5.64704 16.8629C6.37708 17.815 7.31288 18.5941 8.38192 19.1373C8.87431 19.3874 9.07067 19.9894 8.82051 20.4817C8.57036 20.9741 7.96841 21.1705 7.47603 20.9203C6.13988 20.2415 4.97147 19.2687 4.05991 18.0799Z" />
</svg>
