<svg xmlns="http://www.w3.org/2000/svg" width="24" height="24" viewBox="0 0 24 24">
  <path fill="#777" fill-rule="evenodd" d="M8.61922419,20.40364 C7.45656043,21.1483401 5.9103365,20.8095137 5.1656364,19.6468499 C4.78938699,19.0594301 4.67568177,18.3415236 4.85199353,17.6665868 L5.79288316,14.064779 L2.91459797,11.7038963 C1.84706322,10.8282624 1.6914969,9.25301289 2.56713086,8.18547814 C3.00953279,7.646121 3.65716562,7.31613559 4.35355204,7.27525109 L8.06982567,7.05707049 L9.42571946,3.59010575 C9.92861047,2.30423409 11.3786891,1.66950286 12.6645608,2.17239387 C13.3142296,2.42647259 13.8281939,2.9404369 14.0822727,3.59010575 L15.4381664,7.05707049 L19.1544401,7.27525109 C20.5327786,7.35617266 21.5845428,8.53913667 21.5036212,9.91747516 C21.4627367,10.6138616 21.1327513,11.2614944 20.5933941,11.7038963 L17.715109,14.064779 L18.6559986,17.6665868 C19.0049676,19.0024707 18.204915,20.3683139 16.8690311,20.7172829 C16.1940942,20.8935947 15.4761877,20.7798895 14.8887679,20.40364 L11.7539961,18.395781 L8.61922419,20.40364 Z M11.4843163,16.1934305 C11.6486894,16.0881475 11.8593027,16.0881475 12.0236758,16.1934305 L15.967487,18.7194889 C16.0849709,18.7947387 16.2285522,18.8174798 16.3635396,18.7822174 C16.6307164,18.7124236 16.7907269,18.439255 16.7209331,18.1720782 L15.5372135,13.6406959 C15.4878775,13.4518336 15.5529606,13.2515284 15.7038847,13.1277345 L19.3250137,10.1575422 C19.4328851,10.0690618 19.4988822,9.93953526 19.5070591,9.80025798 C19.5232434,9.52459028 19.3128906,9.28799748 19.0372229,9.27181316 L14.3618328,8.99732331 C14.1669684,8.98588291 13.9965786,8.8620875 13.9254817,8.68029573 L12.2196514,4.31855752 C12.1688356,4.18862375 12.0660428,4.08583089 11.936109,4.03501515 C11.6789347,3.93443694 11.3889189,4.06138319 11.2883407,4.31855752 L9.58251037,8.68029573 C9.5114135,8.8620875 9.34102373,8.98588291 9.14615934,8.99732331 L4.47076922,9.27181316 C4.33149194,9.27999007 4.20196537,9.34598715 4.11348499,9.45385858 C3.93835819,9.66736553 3.96947146,9.98241542 4.18297841,10.1575422 L7.80410738,13.1277345 C7.95503149,13.2515284 8.02011459,13.4518336 7.97077864,13.6406959 L6.78705901,18.1720782 C6.75179665,18.3070656 6.7745377,18.4506469 6.84978758,18.5681308 C6.9987276,18.8006636 7.30797239,18.8684289 7.54050514,18.7194889 L11.4843163,16.1934305 Z"/>
</svg>
