<svg width="24" height="24" viewBox="0 0 24 24" fill="none" xmlns="http://www.w3.org/2000/svg">
    <path fill-rule="evenodd" clip-rule="evenodd" d="M10.7286 8.20659C11.1293 8.07232 11.5572 8 12 8C12.4428 8 12.8707 8.07232 13.2714 8.20659C13.7951 8.38205 14.0774 8.94881 13.9019 9.47248C13.7265 9.99615 13.1597 10.2784 12.636 10.103C12.4375 10.0365 12.224 10 12 10C11.776 10 11.5625 10.0365 11.364 10.103C10.8403 10.2784 10.2735 9.99615 10.0981 9.47248C9.92262 8.94881 10.2049 8.38205 10.7286 8.20659ZM14.5275 10.0981C15.0512 9.92262 15.618 10.2049 15.7934 10.7286C15.9277 11.1293 16 11.5572 16 12C16 12.4428 15.9277 12.8707 15.7934 13.2714C15.618 13.7951 15.0512 14.0774 14.5275 13.9019C14.0039 13.7265 13.7216 13.1597 13.897 12.636C13.9635 12.4375 14 12.224 14 12C14 11.776 13.9635 11.5625 13.897 11.364C13.7216 10.8403 14.0039 10.2735 14.5275 10.0981ZM9.47248 10.0981C9.99615 10.2735 10.2784 10.8403 10.103 11.364C10.0365 11.5625 10 11.776 10 12C10 12.224 10.0365 12.4375 10.103 12.636C10.2784 13.1597 9.99615 13.7265 9.47248 13.9019C8.94881 14.0774 8.38205 13.7951 8.20659 13.2714C8.07232 12.8707 8 12.4428 8 12C8 11.5572 8.07232 11.1293 8.20659 10.7286C8.38205 10.2049 8.94881 9.92262 9.47248 10.0981ZM10.0981 14.5275C10.2735 14.0039 10.8403 13.7216 11.364 13.897C11.5625 13.9635 11.776 14 12 14C12.224 14 12.4375 13.9635 12.636 13.897C13.1597 13.7216 13.7265 14.0039 13.9019 14.5275C14.0774 15.0512 13.7951 15.618 13.2714 15.7934C12.8707 15.9277 12.4428 16 12 16C11.5572 16 11.1293 15.9277 10.7286 15.7934C10.2049 15.618 9.92262 15.0512 10.0981 14.5275Z" />
</svg>
