<svg width="24" height="24" viewBox="0 0 24 24" fill="none" xmlns="http://www.w3.org/2000/svg">
    <path fill-rule="evenodd" clip-rule="evenodd" d="M11.5109 7.02369C11.6721 7.008 11.8353 7 12 7C12.1647 7 12.3279 7.008 12.4891 7.02369C13.0388 7.07718 13.441 7.56616 13.3875 8.11585C13.334 8.66554 12.845 9.06778 12.2954 9.01428C12.1985 9.00485 12.0999 9 12 9C11.9001 9 11.8015 9.00485 11.7046 9.01428C11.155 9.06778 10.666 8.66554 10.6125 8.11585C10.559 7.56616 10.9612 7.07718 11.5109 7.02369ZM13.765 8.27301C14.1156 7.84629 14.7457 7.78458 15.1724 8.13519C15.4252 8.34285 15.6572 8.57481 15.8648 8.82756C16.2154 9.25429 16.1537 9.88444 15.727 10.235C15.3003 10.5856 14.6701 10.5239 14.3195 10.0972C14.1945 9.94511 14.0549 9.80547 13.9028 9.68049C13.4761 9.32989 13.4144 8.69974 13.765 8.27301ZM10.235 8.27301C10.5856 8.69974 10.5239 9.32989 10.0972 9.68049C9.94511 9.80547 9.80547 9.94511 9.68049 10.0972C9.32989 10.5239 8.69974 10.5856 8.27301 10.235C7.84629 9.88444 7.78458 9.25429 8.13519 8.82756C8.34285 8.57481 8.57481 8.34285 8.82756 8.13519C9.25429 7.78458 9.88444 7.84629 10.235 8.27301ZM15.8842 10.6125C16.4338 10.559 16.9228 10.9612 16.9763 11.5109C16.992 11.6721 17 11.8353 17 12C17 12.1647 16.992 12.3279 16.9763 12.4891C16.9228 13.0388 16.4338 13.441 15.8842 13.3875C15.3345 13.334 14.9322 12.845 14.9857 12.2954C14.9951 12.1985 15 12.0999 15 12C15 11.9001 14.9951 11.8015 14.9857 11.7046C14.9322 11.155 15.3345 10.666 15.8842 10.6125ZM8.11585 10.6125C8.66554 10.666 9.06778 11.155 9.01428 11.7046C9.00485 11.8015 9 11.9001 9 12C9 12.0999 9.00485 12.1985 9.01428 12.2954C9.06778 12.845 8.66554 13.334 8.11585 13.3875C7.56616 13.441 7.07718 13.0388 7.02369 12.4891C7.008 12.3279 7 12.1647 7 12C7 11.8353 7.008 11.6721 7.02369 11.5109C7.07718 10.9612 7.56616 10.559 8.11585 10.6125ZM15.727 13.765C16.1537 14.1156 16.2154 14.7457 15.8648 15.1724C15.6572 15.4252 15.4252 15.6572 15.1724 15.8648C14.7457 16.2154 14.1156 16.1537 13.765 15.727C13.4144 15.3003 13.4761 14.6701 13.9028 14.3195C14.0549 14.1945 14.1945 14.0549 14.3195 13.9028C14.6701 13.4761 15.3003 13.4144 15.727 13.765ZM8.27301 13.765C8.69974 13.4144 9.32989 13.4761 9.68049 13.9028C9.80547 14.0549 9.94511 14.1945 10.0972 14.3195C10.5239 14.6701 10.5856 15.3003 10.235 15.727C9.88444 16.1537 9.25429 16.2154 8.82756 15.8648C8.57481 15.6572 8.34285 15.4252 8.13519 15.1724C7.78458 14.7457 7.84629 14.1156 8.27301 13.765ZM10.6125 15.8842C10.666 15.3345 11.155 14.9322 11.7046 14.9857C11.8015 14.9951 11.9001 15 12 15C12.0999 15 12.1985 14.9951 12.2954 14.9857C12.845 14.9322 13.334 15.3345 13.3875 15.8842C13.441 16.4338 13.0388 16.9228 12.4891 16.9763C12.3279 16.992 12.1647 17 12 17C11.8353 17 11.6721 16.992 11.5109 16.9763C10.9612 16.9228 10.559 16.4338 10.6125 15.8842Z" />
</svg>
