<svg xmlns="http://www.w3.org/2000/svg" width="24" height="24" viewBox="0 0 24 24">
  <path fill="#777" fill-rule="evenodd" d="M22.0874619,18.6833911 C21.8521159,19.3289224 21.2900831,19.835955 20.5652668,19.9677398 C20.4472189,19.9892031 20.3274791,20 20.2074959,20 L4.27307403,20 C3.30650174,20 2.47823992,19.3087523 2.30533421,18.3577709 L1.03260694,11.3577709 C0.835015537,10.2710182 1.55582319,9.22985158 2.64257588,9.03226018 C2.76062374,9.01079693 2.88036356,9 3.00034676,9 L3.40291378,9 L3.60392132,7 C3.60392132,5.33771525 4.94163657,4 6.60392132,4 L12.6039213,4 C12.8691378,4 13.1234917,4.10535684 13.3110281,4.29289322 L15.0181349,6 L20.6039213,6 C22.2588945,6 23.6039213,7.3403888 23.6039213,9 L23.5961992,9.12403473 L22.6031577,17.068367 C22.5897885,17.6662523 22.4015045,18.220979 22.0874619,18.6833911 Z M21.1919022,12.233895 L21.6026093,8.94823868 C21.5757091,8.41893406 21.1385545,8 20.6039213,8 L14.6039213,8 C14.3387048,8 14.0843509,7.89464316 13.8968145,7.70710678 L12.1897078,6 L6.60392132,6 C6.04620607,6 5.60392132,6.44228475 5.59895851,7.09950372 L5.40795147,9 L18.9347686,9 C19.9013409,9 20.7296027,9.69124773 20.9025084,10.6422291 L21.1919022,12.233895 Z M3.00034676,11 L4.27307403,18 L20.2074959,18 L18.9347686,11 L3.00034676,11 Z"/>
</svg>
