<svg xmlns="http://www.w3.org/2000/svg" width="24" height="24" viewBox="0 0 24 24">
  <path fill="#777" fill-rule="evenodd" d="M13.4142136,12 L12.2928932,10.8786797 C11.9023689,10.4881554 11.9023689,9.85499039 12.2928932,9.46446609 C12.6834175,9.0739418 13.3165825,9.0739418 13.7071068,9.46446609 L16.5355339,12.2928932 C16.9260582,12.6834175 16.9260582,13.3165825 16.5355339,13.7071068 L13.7071068,16.5355339 C13.3165825,16.9260582 12.6834175,16.9260582 12.2928932,16.5355339 C11.9023689,16.1450096 11.9023689,15.5118446 12.2928932,15.1213203 L13.4142136,14 L8,14 C7.44771525,14 7,13.5522847 7,13 C7,12.4477153 7.44771525,12 8,12 L13.4142136,12 Z M13.4142136,6 L19,6 C20.6549732,6 22,7.3403888 22,9 L22,17 C22,18.6568542 20.6568542,20 19,20 L5,20 C3.34314575,20 2,18.6568542 2,17 L2,7 C2,5.33771525 3.33771525,4 5,4 L11,4 C11.2652165,4 11.5195704,4.10535684 11.7071068,4.29289322 L13.4142136,6 Z M10.5857864,6 L5,6 C4.44228475,6 4,6.44228475 4,7 L4,17 C4,17.5522847 4.44771525,18 5,18 L19,18 C19.5522847,18 20,17.5522847 20,17 L20,9 C20,8.44650776 19.5519472,8 19,8 L13,8 C12.7347835,8 12.4804296,7.89464316 12.2928932,7.70710678 L10.5857864,6 Z"/>
</svg>
