<svg width="24" height="24" viewBox="0 0 24 24" fill="none" xmlns="http://www.w3.org/2000/svg">
<path fill-rule="evenodd" clip-rule="evenodd" d="M12.4142 6H18C19.655 6 21 7.34039 21 9V10.0218C20.3945 9.63413 19.7204 9.3441 19 9.17393V9C19 8.44651 18.5519 8 18 8H12C11.7348 8 11.4804 7.89464 11.2929 7.70711L9.58579 6H4C3.44228 6 3 6.44228 3 7V17C3 17.5523 3.44772 18 4 18H11.4982C11.8099 18.7476 12.2573 19.4245 12.8096 20H4C2.34315 20 1 18.6569 1 17V7C1 5.33772 2.33772 4 4 4H10C10.2652 4 10.5196 4.10536 10.7071 4.29289L12.4142 6ZM21 15.5C21 17.433 19.433 19 17.5 19C15.567 19 14 17.433 14 15.5C14 13.567 15.567 12 17.5 12C19.433 12 21 13.567 21 15.5ZM23 15.5C23 18.5376 20.5376 21 17.5 21C14.4624 21 12 18.5376 12 15.5C12 12.4624 14.4624 10 17.5 10C20.5376 10 23 12.4624 23 15.5ZM16.875 12.5H17.625L17.9148 15.5912L20.0576 16.8426L19.7527 17.5279L16.5281 16.5H16.5L16.5008 16.4913L16.4982 16.4905L16.5016 16.483L16.875 12.5Z" fill="#52555A"/>
</svg>
