<svg width="24" height="24" viewBox="0 0 24 24" fill="none" xmlns="http://www.w3.org/2000/svg">
<path d="M15.478 2.9834C15.7456 2.98349 16.0031 3.09168 16.1909 3.28223L19.0239 6.15625C19.2081 6.34329 19.312 6.59588 19.312 6.8584V6.9873C21.0946 6.99287 22.4804 8.5432 22.2847 10.3164L21.3003 19.2354L21.27 19.4229C21.0795 20.3431 20.265 21.0172 19.3081 21.0156L6.56885 20.9902C6.51187 20.9901 6.45409 20.9876 6.39795 20.9844H5.42822L5.24561 20.9766C4.40523 20.8999 3.70043 20.2998 3.49072 19.4824L3.45361 19.3037L2.32568 12.3301C2.14137 11.1902 2.95563 10.1495 4.07275 10.0234L4.30029 10.0107H4.29932C4.279 10.0108 4.25794 10.0131 4.23779 10.0137L4.43115 7.7207C4.55434 6.2647 5.7049 5.12435 7.13232 4.9873L7.42139 4.97363H7.48975C7.8883 3.8605 8.92307 3.05083 10.1577 2.98828L10.312 2.9834H15.478ZM5.42822 18.9844H19.2983L18.189 12.0107H4.30029L5.42822 18.9844ZM19.312 10.3564C19.716 10.6314 20.0166 11.0514 20.1343 11.5498L20.2964 10.0967C20.3614 9.50776 19.9031 8.99285 19.312 8.9873V10.3564ZM10.312 4.98438C9.75973 4.98438 9.31201 5.43209 9.31201 5.98438V10.0117H17.312V8.48145H15.813C14.7777 8.4813 13.9263 7.6938 13.8237 6.68555L13.813 6.48145V4.98438H10.312ZM7.31201 6.97949C6.84231 7.03107 6.46495 7.40891 6.42432 7.88965L6.24561 10.0107H7.31201V6.97949ZM15.813 6.48145H16.5366L15.813 5.74707V6.48145Z" fill="#52555A"/>
</svg>
