<svg width="24" height="24" viewBox="0 0 24 24" fill="none" xmlns="http://www.w3.org/2000/svg">
<path d="M4.87988 7V8.70215C4.38423 8.76148 4 9.18368 4 9.69531V17C4.00013 17.5522 4.4478 18 5 18H15.6201C15.8418 18 16.0461 17.9268 16.2119 17.8047H18.5078C18.1558 19.0702 16.9979 20 15.6201 20H5C3.34323 20 2.00013 18.6567 2 17V9.69531C2 8.07409 3.286 6.75333 4.89355 6.69727C4.885 6.79706 4.87988 6.89799 4.87988 7ZM12.7773 4C13.0443 4.00003 13.3005 4.10714 13.4883 4.29688L14.8359 5.6582C14.8406 5.6629 14.8465 5.66644 14.8525 5.66895L14.8721 5.67285H19C20.6567 5.67292 21.9999 7.01611 22 8.67285V14.3047C22 15.9615 20.6568 17.3046 19 17.3047H8.37988C6.72303 17.3047 5.37988 15.9615 5.37988 14.3047V7C5.37988 5.34315 6.72303 4 8.37988 4H12.7773ZM8.37988 6C7.8276 6 7.37988 6.44772 7.37988 7V14.3047C7.37988 14.857 7.8276 15.3047 8.37988 15.3047H19C19.5522 15.3046 20 14.8569 20 14.3047V8.67285C19.9999 8.12068 19.5522 7.67292 19 7.67285H14.8721C14.3249 7.67285 13.8 7.45423 13.415 7.06543L12.3613 6H8.37988Z" fill="#52555A"/>
</svg>
