<svg xmlns="http://www.w3.org/2000/svg" width="24" height="24" viewBox="0 0 24 24">
  <path fill="#777" fill-rule="evenodd" d="M13.4142136,6 L19,6 C20.6549732,6 22,7.3403888 22,9 L22,17 C22,18.6568542 20.6568542,20 19,20 L5,20 C3.34314575,20 2,18.6568542 2,17 L2,7 C2,5.33771525 3.33771525,4 5,4 L11,4 C11.2652165,4 11.5195704,4.10535684 11.7071068,4.29289322 L13.4142136,6 Z M10.5857864,6 L5,6 C4.44228475,6 4,6.44228475 4,7 L4,17 C4,17.5522847 4.44771525,18 5,18 L19,18 C19.5522847,18 20,17.5522847 20,17 L20,9 C20,8.44650776 19.5519472,8 19,8 L13,8 C12.7347835,8 12.4804296,7.89464316 12.2928932,7.70710678 L10.5857864,6 Z M10.5445293,13.0059444 C10.5445293,13.9088518 11.1979861,14.5741975 12.1366142,14.5741975 C12.6715603,14.5741975 13.1122059,14.2998343 13.3856505,13.9841842 C13.465306,13.8922074 13.6041359,13.8807508 13.7014087,13.9537594 L14.7028858,14.7049753 C14.0257593,15.6078827 13.1702994,16 12.0890586,16 C10.3069676,16 9,14.6692546 9,13.0059444 C9,11.3306373 10.3425262,10 12.1010015,10 C13.098966,10 13.9900385,10.4633426 14.5247145,11.152466 L13.6100803,11.9577224 C13.5144828,12.0419174 13.3711136,12.0330007 13.2824333,11.9416183 C12.9815902,11.6317505 12.5756386,11.4257485 12.1010015,11.4257485 C11.209929,11.4257485 10.5445293,12.1267608 10.5445293,13.0059444 Z"/>
</svg>