<svg xmlns="http://www.w3.org/2000/svg" width="24" height="24" viewBox="0 0 24 24">
  <path fill="#777" fill-rule="evenodd" d="M20,17 C20,18.6568542 18.6568542,20 17,20 L5,20 C3.34314575,20 2,18.6568542 2,17 L2,9 C2,7.33771525 3.33771525,6 5,6 C5,4.33771525 6.33771525,3 8,3 L13,3 C13.2652165,3 13.5195704,3.10535684 13.7071068,3.29289322 L15.4142136,5 L20,5 C21.6568542,5 23,6.34314575 23,8 L23,14 C23,15.6568542 21.6568542,17 20,17 Z M20,15 C20.5522847,15 21,14.5522847 21,14 L21,8 C21,7.44771525 20.5522847,7 20,7 L15,7 C14.7347835,7 14.4804296,6.89464316 14.2928932,6.70710678 L12.5857864,5 L8,5 C7.44228475,5 7,5.44228475 7,6 L10,6 C10.2652165,6 10.5195704,6.10535684 10.7071068,6.29289322 L12.4142136,8 L16.9940809,8 C18.6617653,8 20,9.33833084 20,10.9981014 L20,15 Z M5,8 C4.44228475,8 4,8.44228475 4,9 L4,17 C4,17.5522847 4.44771525,18 5,18 L17,18 C17.5522847,18 18,17.5522847 18,17 L18,10.9981014 C18,10.4428682 17.5571637,10 16.9940809,10 L12,10 C11.7347835,10 11.4804296,9.89464316 11.2928932,9.70710678 L9.58578644,8 L5,8 Z M12,13 L13.0010581,13 C13.5533429,13 14.0010581,13.4477153 14.0010581,14 C14.0010581,14.5522847 13.5533429,15 13.0010581,15 L12,15 L12,16 C12,16.5522847 11.5522847,17 11,17 C10.4477153,17 10,16.5522847 10,16 L10,15 L8.9989419,15 C8.44665715,15 7.9989419,14.5522847 7.9989419,14 C7.9989419,13.4477153 8.44665715,13 8.9989419,13 L10,13 L10,12 C10,11.4477152 10.4477153,11 11,11 C11.5522847,11 12,11.4477152 12,12 L12,13 Z"/>
</svg>
