<svg xmlns="http://www.w3.org/2000/svg" width="24" height="24" viewBox="0 0 24 24">
  <path fill="#777" fill-rule="evenodd" d="M12.9957864,18 L19,18 C19.5522847,18 20,17.5522847 20,17 L20,9 C20,8.44650776 19.5519472,8 19,8 L13,8 C12.7347835,8 12.4804296,7.89464316 12.2928932,7.70710678 L10.5857864,6 L5,6 C4.44228475,6 4,6.44228475 4,7 L4,17 C4,17.5522847 4.44771525,18 5,18 L10.9957864,18 L10.9957864,12.363961 L9.11710678,14.2426407 C8.72658249,14.633165 8.09341751,14.633165 7.70289322,14.2426407 C7.31236893,13.8521164 7.31236893,13.2189514 7.70289322,12.8284271 L11.2384271,9.29289322 C11.6289514,8.90236893 12.2621164,8.90236893 12.6526407,9.29289322 L16.1881746,12.8284271 C16.5786989,13.2189514 16.5786989,13.8521164 16.1881746,14.2426407 C15.7976503,14.633165 15.1644853,14.633165 14.773961,14.2426407 L12.9957864,12.4644661 L12.9957864,18 Z M13.4142136,6 L19,6 C20.6549732,6 22,7.3403888 22,9 L22,17 C22,18.6568542 20.6568542,20 19,20 L5,20 C3.34314575,20 2,18.6568542 2,17 L2,7 C2,5.33771525 3.33771525,4 5,4 L11,4 C11.2652165,4 11.5195704,4.10535684 11.7071068,4.29289322 L13.4142136,6 Z"/>
</svg>
