<svg width="24" height="24" viewBox="0 0 24 24" fill="none" xmlns="http://www.w3.org/2000/svg">
<path fill-rule="evenodd" clip-rule="evenodd" d="M23.1919 12.3586C22.7519 11.5632 22.1501 10.8698 21.4308 10.3228L21.6026 8.94824C21.5757 8.41893 21.1386 8 20.6039 8H20H18H14.6039C14.3387 8 14.0844 7.89464 13.8968 7.70711L12.1897 6H6.60392C6.04621 6 5.60392 6.44228 5.59896 7.0995L5.40795 9H17C17 9.00632 17.0001 9.01263 17.0002 9.01893C15.357 9.14389 13.8846 9.87979 12.8096 11H3.00035L4.27307 18H11.4982C11.8099 18.7476 12.2573 19.4245 12.8096 20H4.27307C3.3065 20 2.47824 19.3088 2.30533 18.3578L1.03261 11.3578C0.835016 10.271 1.55582 9.22985 2.64258 9.03226C2.76062 9.0108 2.88036 9 3.00035 9H3.40291L3.60392 7C3.60392 5.33772 4.94164 4 6.60392 4H12.6039C12.8691 4 13.1235 4.10536 13.311 4.29289L15.0181 6H20.6039C22.2589 6 23.6039 7.34039 23.6039 9L23.5962 9.12403L23.1919 12.3586ZM17.5 19C19.433 19 21 17.433 21 15.5C21 13.567 19.433 12 17.5 12C15.567 12 14 13.567 14 15.5C14 17.433 15.567 19 17.5 19ZM17.5 21C20.5376 21 23 18.5376 23 15.5C23 12.4624 20.5376 10 17.5 10C14.4624 10 12 12.4624 12 15.5C12 18.5376 14.4624 21 17.5 21ZM17.625 12.5H16.875L16.5016 16.483L16.4983 16.4905L16.5008 16.4913L16.5 16.5H16.5281L19.7528 17.5279L20.0576 16.8426L17.9148 15.5912L17.625 12.5Z" fill="#52555A"/>
</svg>
