<svg xmlns="http://www.w3.org/2000/svg" width="24" height="24" viewBox="0 0 24 24">
  <path fill="#777" fill-rule="evenodd" d="M13.4142136,6 L19,6 C20.6549732,6 22,7.3403888 22,9 L22,17 C22,18.6568542 20.6568542,20 19,20 L5,20 C3.34314575,20 2,18.6568542 2,17 L2,7 C2,5.33771525 3.33771525,4 5,4 L11,4 C11.2652165,4 11.5195704,4.10535684 11.7071068,4.29289322 L13.4142136,6 Z M10.5857864,6 L5,6 C4.44228475,6 4,6.44228475 4,7 L4,17 C4,17.5522847 4.44771525,18 5,18 L19,18 C19.5522847,18 20,17.5522847 20,17 L20,9 C20,8.44650776 19.5519472,8 19,8 L13,8 C12.7347835,8 12.4804296,7.89464316 12.2928932,7.70710678 L10.5857864,6 Z M13,12 L15,12 C15.5522847,12 16,12.4477153 16,13 C16,13.5522847 15.5522847,14 15,14 L13,14 L13,16 C13,16.5522847 12.5522847,17 12,17 C11.4477153,17 11,16.5522847 11,16 L11,14 L9,14 C8.44771525,14 8,13.5522847 8,13 C8,12.4477153 8.44771525,12 9,12 L11,12 L11,10 C11,9.44771525 11.4477153,9 12,9 C12.5522847,9 13,9.44771525 13,10 L13,12 Z"/>
</svg>
