<svg width="24" height="24" viewBox="0 0 24 24" fill="none" xmlns="http://www.w3.org/2000/svg">
<path fill-rule="evenodd" clip-rule="evenodd" d="M19 6H13.4142L11.7071 4.29289C11.5196 4.10536 11.2652 4 11 4H5C3.33772 4 2 5.33772 2 7V17C2 18.6569 3.34315 20 5 20H19C20.6569 20 22 18.6569 22 17V9C22 7.34039 20.655 6 19 6ZM5 6H10.5858L12.2929 7.70711C12.4804 7.89464 12.7348 8 13 8H19C19.5519 8 20 8.44651 20 9V17C20 17.5523 19.5523 18 19 18H5C4.44772 18 4 17.5523 4 17V7C4 6.44228 4.44228 6 5 6ZM13.6204 9.59101C13.4859 9.23461 13.1539 9 12.784 9H11.2409C10.8723 9 10.5411 9.23311 10.4058 9.58784L8.06267 15.7303C8.02126 15.8389 8 15.9545 8 16.0712C8 16.5842 8.40195 17 8.89778 17H15.102C15.2137 17 15.3244 16.9784 15.4285 16.9364C15.8903 16.7499 16.1186 16.2113 15.9383 15.7335L13.6204 9.59101ZM10.9019 10.8609C10.9325 10.7823 10.9929 10.7201 11.069 10.6888C11.2225 10.6256 11.3966 10.7032 11.4576 10.862L11.5214 11.0278L13.2152 15.4331C13.2292 15.4695 13.2364 15.5084 13.2364 15.5476C13.2364 15.7185 13.1024 15.8571 12.9371 15.8571H9.4022C9.36393 15.8571 9.32602 15.8496 9.29052 15.8348C9.13718 15.771 9.06288 15.5906 9.12455 15.432L10.9019 10.8609Z" fill="#52555A"/>
</svg>
