<svg xmlns="http://www.w3.org/2000/svg" width="24" height="24" viewBox="0 0 24 24">
  <path fill="#777" fill-rule="evenodd" d="M13.7351967,14.3741177 C13.2019172,13.7207202 13,12.695445 13,11.9946919 C13,10.893054 13.8954305,10 15,10 C16.1045695,10 17,10.893054 17,11.9946919 C17,12.6947385 16.7984897,13.7186531 16.2664152,14.3721403 C16.6006608,14.497496 16.9964092,14.6545212 17.4536604,14.843216 C18.3894676,15.2293901 19,16.1418158 19,17.1541723 L19,18 C19.5522847,18 20,17.5522847 20,17 L20,9 C20,8.44650776 19.5519472,8 19,8 L13,8 C12.7347835,8 12.4804296,7.89464316 12.2928932,7.70710678 L10.5857864,6 L5,6 C4.44228475,6 4,6.44228475 4,7 L4,17 C4,17.5522847 4.44771525,18 5,18 L10.9999924,18 L10.9999911,17.1558302 C10.999996,16.1427013 11.6114513,15.229742 12.5482985,14.8440642 C13.0051651,14.6559831 13.4007978,14.4993342 13.7351967,14.3741177 Z M13.4142136,6 L19,6 C20.6549732,6 22,7.3403888 22,9 L22,17 C22,18.6568542 20.6568542,20 19,20 L5,20 C3.34314575,20 2,18.6568542 2,17 L2,7 C2,5.33771525 3.33771525,4 5,4 L11,4 C11.2652165,4 11.5195704,4.10535684 11.7071068,4.29289322 L13.4142136,6 Z"/>
</svg>
