<svg width="24" height="24" viewBox="0 0 24 24" fill="none" xmlns="http://www.w3.org/2000/svg">
<path fill-rule="evenodd" clip-rule="evenodd" d="M22 12C22.4791 11.9999 22.8778 12.1672 23.1911 12.365L23.5962 9.12403L23.6039 9C23.6039 7.34039 22.2589 6 20.6039 6H15.0181L13.311 4.29289C13.1235 4.10536 12.8691 4 12.6039 4H6.60392C4.94164 4 3.60392 5.33772 3.60392 7L3.40291 9H3.00035C2.88036 9 2.76062 9.0108 2.64258 9.03226C1.55582 9.22985 0.835016 10.271 1.03261 11.3578L2.30533 18.3578C2.47824 19.3088 3.3065 20 4.27307 20H13.5146L13.386 18H4.27307L3.00035 11H18.9348L19.1166 12.0001L21.1494 12.0001L20.9025 10.6422C20.7296 9.69125 19.9013 9 18.9348 9H5.40795L5.59896 7.0995C5.60392 6.44228 6.04621 6 6.60392 6H12.1897L13.8968 7.70711C14.0844 7.89464 14.3387 8 14.6039 8H20.6039C21.1386 8 21.5757 8.41893 21.6026 8.94824L21.2211 12.0001L22 12ZM18.4888 12.9538C18.3565 12.9536 18.2637 13.0597 18.2814 13.1908L18.298 13.2525C18.3143 13.2924 18.3405 13.3292 18.3745 13.359L19.6887 14.5062L16.0648 18.6484L14.7531 17.4984C14.7021 17.4537 14.6377 17.4286 14.5741 17.4285C14.4418 17.4283 14.349 17.5344 14.3668 17.6655L14.8244 21.0413C14.8599 21.3035 15.1032 21.5163 15.3678 21.5167L18.7666 21.5216C18.83 21.5217 18.8875 21.4968 18.9264 21.4525C19.0075 21.36 18.9873 21.2097 18.8813 21.1168L17.5689 19.9667L21.1945 15.8224L22.5095 16.9696C22.6157 17.0623 22.7673 17.0624 22.8482 16.9697C22.8869 16.9253 22.9039 16.865 22.8954 16.8021L22.4389 13.4341C22.4033 13.1719 22.16 12.9591 21.8954 12.9587L18.4888 12.9538Z" fill="#52555A"/>
</svg>
