<svg width="24" height="24" viewBox="0 0 24 24" fill="none" xmlns="http://www.w3.org/2000/svg">
<path d="M18 5C18 4.44772 17.5523 4 17 4C16.4477 4 16 4.44772 16 5L16 19C16 19.5523 16.4477 20 17 20C17.5523 20 18 19.5523 18 19L18 5Z" fill="#52555A"/>
<path d="M12.3639 15.5425C12.7545 15.933 12.7545 16.5662 12.3639 16.9567C11.9734 17.3472 11.3402 17.3472 10.9497 16.9567L6.70708 12.7141C6.31655 12.3235 6.31655 11.6904 6.70708 11.2998L10.9497 7.0572C11.3402 6.66668 11.9734 6.66668 12.3639 7.05721C12.7545 7.44773 12.7545 8.08089 12.3639 8.47142L8.8284 12.007L12.3639 15.5425Z" fill="#52555A"/>
</svg>
