<svg xmlns="http://www.w3.org/2000/svg" width="24" height="24" viewBox="0 0 24 24">
  <path fill="#777" fill-rule="evenodd" d="M17.0779055,12 L14.998561,12 C14.4462763,12 13.998561,11.5522847 13.998561,11 L13.998561,5 L9.99856105,5 L9.99856105,11 C9.99856105,11.5522847 9.5508458,12 8.99856105,12 L6.91921661,12 L11.998561,19.2562063 L17.0779055,12 Z M17.9917156,10 C19.3524883,10 20.026796,11.2748866 19.2449536,12.3918043 L13.3906323,20.7551204 C12.6762481,21.7756693 11.3200842,21.774541 10.6064897,20.7551204 L4.75216851,12.3918043 C3.96933851,11.2734758 4.64383035,10 6.00540652,10 L7.99856105,10 L7.99856105,4 C7.99856105,3.44771525 8.4462763,3 8.99856105,3 L14.998561,3 C15.5508458,3 15.998561,3.44771525 15.998561,4 L15.998561,10 L17.9917156,10 Z" transform="matrix(-1 0 0 1 23.997 0)"/>
</svg>
