<svg xmlns="http://www.w3.org/2000/svg" width="24" height="24" viewBox="0 0 24 24">
  <path fill="#777" fill-rule="evenodd" d="M17.2583266,11.7382175 L15.2603435,11.7382175 C14.7080588,11.7382175 14.2603435,11.2905023 14.2603435,10.7382175 L14.2603435,4.73821754 L10.2603435,4.73821754 L10.2603435,10.7382175 C10.2603435,11.2905023 9.81061132,11.7382175 9.25832657,11.7382175 L7.25832657,11.7382175 L12.2603435,18.9944239 L17.2583266,11.7382175 Z M18.253498,9.73821754 C19.6142708,9.73821754 20.2885784,11.0131041 19.5067361,12.1300219 L13.6524148,20.4933379 C12.9380305,21.5138869 11.5818666,21.5127585 10.8682722,20.4933379 L5.01395097,12.1300219 C4.23112097,11.0116933 4.90561281,9.73821754 6.26718898,9.73821754 L8.26034351,9.73821754 L8.26034351,3.73821754 C8.26034351,3.18593279 8.70805876,2.73821754 9.26034351,2.73821754 L15.2603435,2.73821754 C15.8126283,2.73821754 16.2603435,3.18593279 16.2603435,3.73821754 L16.2603435,9.73821754 L18.253498,9.73821754 Z" transform="rotate(-90 12.26 11.998)"/>
</svg>
