<svg xmlns="http://www.w3.org/2000/svg" width="24" height="24" viewBox="0 0 24 24">
  <path fill="#777" fill-rule="evenodd" d="M17.0779055,11.48 L14.998561,11.48 C14.4462763,11.48 13.998561,11.0322847 13.998561,10.48 L13.998561,4.48 L9.99856105,4.48 L9.99856105,10.48 C9.99856105,11.0322847 9.5508458,11.48 8.99856105,11.48 L6.91921661,11.48 L11.998561,18.7362063 L17.0779055,11.48 Z M17.9917156,9.48 C19.3524883,9.48 20.026796,10.7548866 19.2449536,11.8718043 L13.3906323,20.2351204 C12.6762481,21.2556693 11.3200842,21.254541 10.6064897,20.2351204 L4.75216851,11.8718043 C3.96933851,10.7534758 4.64383035,9.48 6.00540652,9.48 L7.99856105,9.48 L7.99856105,3.48 C7.99856105,2.92771525 8.4462763,2.48 8.99856105,2.48 L14.998561,2.48 C15.5508458,2.48 15.998561,2.92771525 15.998561,3.48 L15.998561,9.48 L17.9917156,9.48 Z" transform="rotate(-180 11.998 11.74)"/>
</svg>
