<svg width="24" height="24" viewBox="0 0 24 24" fill="none" xmlns="http://www.w3.org/2000/svg">
<path d="M6 5C6 4.44772 6.44772 4 7 4C7.55229 4 8 4.44772 8 5L8 19C8 19.5523 7.55229 20 7 20C6.44772 20 6 19.5523 6 19L6 5Z" fill="#52555A"/>
<path d="M11.636 15.5425C11.2455 15.933 11.2455 16.5662 11.636 16.9567C12.0266 17.3472 12.6597 17.3472 13.0502 16.9567L17.2929 12.7141C17.6834 12.3235 17.6834 11.6904 17.2929 11.2999L13.0502 7.05722C12.6597 6.66669 12.0266 6.66669 11.636 7.05722C11.2455 7.44774 11.2455 8.08091 11.636 8.47143L15.1716 12.007L11.636 15.5425Z" fill="#52555A"/>
</svg>
