<svg xmlns="http://www.w3.org/2000/svg" width="24" height="24" viewBox="0 0 24 24">
  <path fill="#777" fill-rule="evenodd" d="M7.41698427,11.0028687 L19.0065919,11.0028687 C19.5588766,11.0028687 20.0065919,11.4505839 20.0065919,12.0028687 C20.0065919,12.5551534 19.5588766,13.0028687 19.0065919,13.0028687 L7.41952075,13.0028687 L10.7321257,16.3211475 C11.1223156,16.7120058 11.1217739,17.3451706 10.7309155,17.7353605 C10.3400572,18.1255505 9.70689248,18.1250087 9.3167025,17.7341504 L4.29228843,12.7011304 C3.90144378,12.3096163 3.90273921,11.6751582 4.29517937,11.2852434 L9.32215691,6.29061448 C9.71393972,5.90135279 10.3471014,5.90339657 10.7363631,6.29517939 C11.1256248,6.68696221 11.123581,7.32012389 10.7317982,7.70938558 L7.41698427,11.0028687 Z" transform="rotate(-90 12.003 12.014)"/>
</svg>
