<svg xmlns="http://www.w3.org/2000/svg" width="24" height="24" viewBox="0 0 24 24">
  <path fill="#777" fill-rule="evenodd" d="M19,7.48403778 L11.7660667,14.717971 C11.3755425,15.1084953 10.7423775,15.1084953 10.3518532,14.717971 C9.96132889,14.3274467 9.96132889,13.6942818 10.3518532,13.3037575 L17.6556107,6 L14,6 C13.4477153,6 13,5.55228475 13,5 C13,4.44771525 13.4477153,4 14,4 L19,4 C20.1045695,4 21,4.8954305 21,6 L21,11 C21,11.5522847 20.5522847,12 20,12 C19.4477153,12 19,11.5522847 19,11 L19,7.48403778 Z M16,13.0455322 C16,12.4932475 16.4477153,12.0455322 17,12.0455322 C17.5522847,12.0455322 18,12.4932475 18,13.0455322 L18,18 C18,19.6568542 16.6568542,21 15,21 L7,21 C5.34314575,21 4,19.6568542 4,18 L4,10 C4,8.34314575 5.34314575,7 7,7 L11.9981689,7 C12.5504537,7 12.9981689,7.44771525 12.9981689,8 C12.9981689,8.55228475 12.5504537,9 11.9981689,9 L7,9 C6.44771525,9 6,9.44771525 6,10 L6,18 C6,18.5522847 6.44771525,19 7,19 L15,19 C15.5522847,19 16,18.5522847 16,18 L16,13.0455322 Z"/>
</svg>
