<svg xmlns="http://www.w3.org/2000/svg" width="16" height="15" viewBox="0 0 16 15">
  <path fill="#777" fill-rule="evenodd" d="M10.8492424,5.8492424 L8.4527958,5.8492424 C8.31472461,5.8492424 8.2027958,5.73731359 8.2027958,5.5992424 C8.2027958,5.53293828 8.22913501,5.4693498 8.2760191,5.42246571 L11.495689,2.2027958 C11.6909512,2.00753365 12.0075336,2.00753365 12.2027958,2.2027958 L15.4224657,5.42246571 C15.5200968,5.52009678 15.5200968,5.67838803 15.4224657,5.7760191 C15.3755816,5.82290319 15.3119931,5.8492424 15.245689,5.8492424 L12.8492424,5.8492424 L12.8492424,10.8492424 L17.8492424,10.8492424 L17.8492424,8.0992424 C17.8492424,8.03293828 17.8755816,7.9693498 17.9224657,7.92246571 C18.0200968,7.82483464 18.178388,7.82483464 18.2760191,7.92246571 L21.495689,11.1421356 C21.6909512,11.3373978 21.6909512,11.6539803 21.495689,11.8492424 L18.2760191,15.0689123 C18.229135,15.1157964 18.1655465,15.1421356 18.0992424,15.1421356 C17.9611712,15.1421356 17.8492424,15.0302068 17.8492424,14.8921356 L17.8492424,12.8492424 L12.8492424,12.8492424 L12.8492424,17.8492424 L15.245689,17.8492424 C15.3119931,17.8492424 15.3755816,17.8755816 15.4224657,17.9224657 C15.5200968,18.0200968 15.5200968,18.178388 15.4224657,18.2760191 L12.2027958,21.495689 C12.0075336,21.6909512 11.6909512,21.6909512 11.495689,21.495689 L8.2760191,18.2760191 C8.22913501,18.229135 8.2027958,18.1655465 8.2027958,18.0992424 C8.2027958,17.9611712 8.31472461,17.8492424 8.4527958,17.8492424 L10.8492424,17.8492424 L10.8492424,12.8492424 L5.8492424,12.8492424 L5.8492424,14.8921356 C5.8492424,15.0302068 5.73731359,15.1421356 5.5992424,15.1421356 C5.53293828,15.1421356 5.4693498,15.1157964 5.42246571,15.0689123 L2.2027958,11.8492424 C2.00753365,11.6539803 2.00753365,11.3373978 2.2027958,11.1421356 L5.42246571,7.92246571 C5.52009678,7.82483464 5.67838803,7.82483464 5.7760191,7.92246571 C5.82290319,7.9693498 5.8492424,8.03293828 5.8492424,8.0992424 L5.8492424,10.8492424 L10.8492424,10.8492424 L10.8492424,5.8492424 Z" transform="rotate(45 14.678 5.02)"/>
</svg>
