<svg xmlns="http://www.w3.org/2000/svg" width="24" height="24" viewBox="0 0 24 24">
  <path fill="#777" fill-rule="evenodd" d="M15.0028687,11.0028645 C14.4505862,11.0044489 14.0015884,10.5580198 14.0000041,10.0057373 C13.9984198,9.45345484 14.4448489,9.00445709 14.9971313,9.00287278 L16,9 C17.6568542,9 19,10.3431458 19,12 L19,18 C19,19.6568542 17.6568542,21 16,21 L8,21 C6.34314575,21 5,19.6568542 5,18 L5,12 C5,10.3431458 6.34314575,9 8.00286865,9.00000411 L9.00286865,9.00287278 C9.55515113,9.00445709 10.0015802,9.45345484 9.99999589,10.0057373 C9.99841157,10.5580198 9.54941383,11.0044489 8.99713135,11.0028645 L8,11 C7.44771525,11 7,11.4477153 7,12 L7,18 C7,18.5522847 7.44771525,19 8,19 L16,19 C16.5522847,19 17,18.5522847 17,18 L17,12 C17,11.4477153 16.5522847,11 16.0028687,10.9999959 L15.0028687,11.0028645 Z M10.9957864,5.77396103 L9.11710678,7.65264069 C8.72658249,8.04316498 8.09341751,8.04316498 7.70289322,7.65264069 C7.31236893,7.2621164 7.31236893,6.62895142 7.70289322,6.23842712 L11.2384271,2.70289322 C11.6289514,2.31236893 12.2621164,2.31236893 12.6526407,2.70289322 L16.1881746,6.23842712 C16.5786989,6.62895142 16.5786989,7.2621164 16.1881746,7.65264069 C15.7976503,8.04316498 15.1644853,8.04316498 14.773961,7.65264069 L12.9957864,5.87446609 L12.9957864,14.9957864 C12.9957864,15.5480712 12.5480712,15.9957864 11.9957864,15.9957864 C11.4435017,15.9957864 10.9957864,15.5480712 10.9957864,14.9957864 L10.9957864,5.77396103 Z"/>
</svg>
