<svg xmlns="http://www.w3.org/2000/svg" width="24" height="24" viewBox="0 0 24 24">
  <path fill="#777" fill-rule="evenodd" d="M7.99909273,11.8334841 L9.3990719,10.7397005 C9.83427822,10.3996801 10.4627237,10.4768435 10.8027441,10.9120498 C11.1427646,11.3472561 11.0656012,11.9757016 10.6303948,12.315722 L7.47835183,14.7783679 C7.04314551,15.1183884 6.41470005,15.041225 6.0746796,14.6060186 L3.6120337,11.4539756 C3.27201326,11.0187693 3.34917666,10.3903238 3.78438298,10.0503034 C4.2195893,9.71028295 4.84803477,9.78744635 5.18805521,10.2226527 L6.0308038,11.3013217 C6.38139862,7.7633623 9.3661765,5 12.9963722,5 C16.8623655,5 19.9963722,8.13400675 19.9963722,12 C19.9963722,15.8659932 16.8623655,19 12.9963722,19 C11.9090784,19 10.8552158,18.751188 9.90013211,18.2794933 C9.40494691,18.0349324 9.20177583,17.4352496 9.44633679,16.9400644 C9.69089775,16.4448792 10.2905805,16.2417081 10.7857657,16.4862691 C11.4669402,16.822686 12.2179672,17 12.9963722,17 C15.757796,17 17.9963722,14.7614237 17.9963722,12 C17.9963722,9.23857625 15.757796,7 12.9963722,7 C10.2906714,7 8.0869298,9.14914312 7.99909273,11.8334841 Z" transform="matrix(-1 0 0 1 23.396 0)"/>
</svg>
