<svg xmlns="http://www.w3.org/2000/svg" width="24" height="24" viewBox="0 0 24 24">
  <path fill="#777" fill-rule="evenodd" d="M13,8 L13,13.1715729 C13,13.9672223 12.6839295,14.7302841 12.1213203,15.2928932 L7.70710678,19.7071068 C7.31658249,20.0976311 6.68341751,20.0976311 6.29289322,19.7071068 C5.90236893,19.3165825 5.90236893,18.6834175 6.29289322,18.2928932 L10.7071068,13.8786797 C10.8946432,13.6911433 11,13.4367894 11,13.1715729 L11,8 L8.37480909,8 C8.20912366,8 8.07480909,7.86568542 8.07480909,7.7 C8.07480909,7.61872484 8.10778542,7.54092765 8.16619251,7.48440983 L11.6523055,4.11106044 C11.8461532,3.92348305 12.1538464,3.92348305 12.3476941,4.11106044 L15.8338071,7.48440983 C15.9528743,7.59962558 15.9559965,7.78954942 15.8407807,7.90861658 C15.7842629,7.96702366 15.7064657,8 15.6251905,8 L13,8 Z M13.2928932,16.7071068 C12.9023689,16.3165825 12.9023689,15.6834175 13.2928932,15.2928932 C13.6834175,14.9023689 14.3165825,14.9023689 14.7071068,15.2928932 L17.7071068,18.2928932 C18.0976311,18.6834175 18.0976311,19.3165825 17.7071068,19.7071068 C17.3165825,20.0976311 16.6834175,20.0976311 16.2928932,19.7071068 L13.2928932,16.7071068 Z"/>
</svg>
