<svg xmlns="http://www.w3.org/2000/svg" width="24" height="24" viewBox="0 0 24 24">
  <path fill="#777" fill-rule="evenodd" d="M14,11 L14,5.50342274 C14,5.23290253 13.7804053,5 13.5095215,5 L10.4904785,5 C10.2150574,5 10,5.22539004 10,5.50342274 L10,11 L6.50034732,11 C6.22900057,11 6.15999504,11.159995 6.35735893,11.3573589 L11.6426411,16.6426411 C11.8395145,16.8395145 12.159995,16.840005 12.3573589,16.6426411 L17.6426411,11.3573589 C17.8395145,11.1604855 17.7759869,11 17.4996527,11 L14,11 Z M16,9 L17.4996527,9 C19.5744142,9 20.502137,11.3262901 19.0568546,12.7715725 L13.7715725,18.0568546 C12.7930291,19.035398 11.2062191,19.0346462 10.2284275,18.0568546 L4.94314537,12.7715725 C3.49045726,11.3188844 4.44065652,9 6.50034732,9 L8,9 L8,5.50342274 C8,4.13346795 9.09726715,3 10.4904785,3 L13.5095215,3 C14.899045,3 16,4.14165826 16,5.50342274 L16,9 Z M4,20 L20,20 C20.5522847,20 21,20.4477153 21,21 C21,21.5522847 20.5522847,22 20,22 L4,22 C3.44771525,22 3,21.5522847 3,21 C3,20.4477153 3.44771525,20 4,20 Z"/>
</svg>
