<svg xmlns="http://www.w3.org/2000/svg" width="24" height="24" viewBox="0 0 24 24">
  <path fill="#777" fill-rule="evenodd" d="M17.5857864,8.58157288 C18.366835,9.36262146 18.366835,10.6289514 17.5857864,11.41 C17.2107137,11.7850728 16.7020059,11.9957864 16.1715729,11.9957864 L7,11.9957864 C5.8954305,11.9957864 5,11.1003559 5,9.99578644 C5,9.46535346 5.21071368,8.95664563 5.58578644,8.58157288 L10.1715729,3.99578644 C10.9526215,3.21473785 12.2189514,3.21473785 13,3.99578644 L17.5857864,8.58157288 Z M11.5857864,5.41 L7,9.99578644 L16.1715729,9.99578644 L11.5857864,5.41 Z M17.5857864,16.41 L13,20.9957864 C12.2189514,21.776835 10.9526215,21.776835 10.1715729,20.9957864 L5.58578644,16.41 C5.21071368,16.0349272 5,15.5262194 5,14.9957864 C5,13.8912169 5.8954305,12.9957864 7,12.9957864 L16.1715729,12.9957864 C16.7020059,12.9957864 17.2107137,13.2065001 17.5857864,13.5815729 C18.366835,14.3626215 18.366835,15.6289514 17.5857864,16.41 Z M11.5857864,19.5815729 L16.1715729,14.9957864 L7,14.9957864 L11.5857864,19.5815729 Z"/>
</svg>
