<svg xmlns="http://www.w3.org/2000/svg" width="24" height="24" viewBox="0 0 24 24">
  <path fill="#777" fill-rule="evenodd" d="M17.9957864,17.5857864 C18.776835,18.366835 18.776835,19.633165 17.9957864,20.4142136 C17.6207137,20.7892863 17.1120059,21 16.5815729,21 L7.41,21 C6.3054305,21 5.41,20.1045695 5.41,19 C5.41,18.469567 5.62071368,17.9608592 5.99578644,17.5857864 L10.5815729,13 C11.3626215,12.2189514 12.6289514,12.2189514 13.41,13 L17.9957864,17.5857864 Z M11.9957864,14.4142136 L7.41,19 L16.5815729,19 L11.9957864,14.4142136 Z M17.9957864,6.41421356 L13.41,11 C12.6289514,11.7810486 11.3626215,11.7810486 10.5815729,11 L5.99578644,6.41421356 C5.62071368,6.03914081 5.41,5.53043298 5.41,5 C5.41,3.8954305 6.3054305,3 7.41,3 L16.5815729,3 C17.1120059,3 17.6207137,3.21071368 17.9957864,3.58578644 C18.776835,4.36683502 18.776835,5.63316498 17.9957864,6.41421356 Z M11.9957864,9.58578644 L16.5815729,5 L7.41,5 L11.9957864,9.58578644 Z"/>
</svg>
