<svg xmlns="http://www.w3.org/2000/svg" width="24" height="24" viewBox="0 0 24 24">
  <path fill="#777" fill-rule="evenodd" d="M6.38265691,19 C4.84089588,17.2697027 4.05407715,15.2723405 4.05407715,13.0352783 C4.05407715,10.002633 5.59371957,7.64787736 8.55555672,6.08092296 C9.04373269,5.82265437 9.64884557,6.00903113 9.90711415,6.49720711 C10.1653827,6.98538308 9.97900598,7.59049596 9.49083,7.84876454 C7.1605122,9.08161482 6.05407715,10.7738156 6.05407715,13.0352783 C6.05407715,14.8179037 6.69137194,16.3987784 8,17.8071233 L8,16 C8,15.4477153 8.44771525,15 9,15 C9.55228475,15 10,15.4477153 10,16 L10,20 C10,20.5522847 9.55228475,21 9,21 L5,21 C4.44771525,21 4,20.5522847 4,20 C4,19.4477153 4.44771525,19 5,19 L6.38265691,19 Z M13,16 L20,16 C20.5522847,16 21,16.4477153 21,17 L21,20 C21,20.5522847 20.5522847,21 20,21 L13,21 C12.4477153,21 12,20.5522847 12,20 L12,17 C12,16.4477153 12.4477153,16 13,16 Z M14,18 L14,19 L19,19 L19,18 L14,18 Z M13,10 L20,10 C20.5522847,10 21,10.4477153 21,11 L21,14 C21,14.5522847 20.5522847,15 20,15 L13,15 C12.4477153,15 12,14.5522847 12,14 L12,11 C12,10.4477153 12.4477153,10 13,10 Z M14,12 L14,13 L19,13 L19,12 L14,12 Z M13,4 L20,4 C20.5522847,4 21,4.44771525 21,5 L21,8 C21,8.55228475 20.5522847,9 20,9 L13,9 C12.4477153,9 12,8.55228475 12,8 L12,5 C12,4.44771525 12.4477153,4 13,4 Z M14,6 L14,7 L19,7 L19,6 L14,6 Z"/>
</svg>
