<svg xmlns="http://www.w3.org/2000/svg" width="24" height="24" viewBox="0 0 24 24">
  <path fill="#777" fill-rule="evenodd" d="M8.44425125,10.0255716 L10.2426407,11.823961 C10.633165,12.2144853 10.633165,12.8476503 10.2426407,13.2381746 C9.8521164,13.6286989 9.21895142,13.6286989 8.82842712,13.2381746 L5.29289322,9.70264069 C4.90236893,9.3121164 4.90236893,8.67895142 5.29289322,8.28842712 L8.82842712,4.75289322 C9.21895142,4.36236893 9.8521164,4.36236893 10.2426407,4.75289322 C10.633165,5.14341751 10.633165,5.77658249 10.2426407,6.16710678 L8.38417587,8.02557159 L10.0355339,8.02557159 C15.0060967,8.02557159 19.0355339,12.0550088 19.0355339,17.0255716 L19.0355339,18.0252054 C19.0355339,18.5774901 18.5878187,19.0252054 18.0355339,19.0252054 C17.4832492,19.0252054 17.0355339,18.5774901 17.0355339,18.0252054 L17.0355339,17.0255716 C17.0355339,13.1595783 13.9015272,10.0255716 10.0355339,10.0255716 L8.44425125,10.0255716 Z"/>
</svg>
