<svg version="1.1" id="Layer_1" xmlns="http://www.w3.org/2000/svg" xmlns:xlink="http://www.w3.org/1999/xlink" x="0px" y="0px" viewBox="0 0 24 24" style="enable-background:new 0 0 24 24;" xml:space="preserve">
	<path class="st0" d="M19,17.617c-1.73,1.542-3.728,2.329-5.965,2.329c-3.033,0-5.387-1.54-6.954-4.501
		c-0.258-0.488-0.072-1.093,0.416-1.352s1.093-0.072,1.352,0.416c1.233,2.33,2.925,3.437,5.187,3.437
		c1.783,0,3.364-0.637,4.772-1.946H16c-0.552,0-1-0.448-1-1s0.448-1,1-1h4c0.552,0,1,0.448,1,1v4c0,0.552-0.448,1-1,1s-1-0.448-1-1
		V17.617z M16,11V4c0-0.552,0.448-1,1-1h3c0.552,0,1,0.448,1,1v7c0,0.552-0.448,1-1,1h-3C16.448,12,16,11.552,16,11z M18,10h1V5h-1
		V10z M10,11V4c0-0.552,0.448-1,1-1h3c0.552,0,1,0.448,1,1v7c0,0.552-0.448,1-1,1h-3C10.448,12,10,11.552,10,11z M12,10h1V5h-1V10z
		 M4,11V4c0-0.552,0.448-1,1-1h3c0.552,0,1,0.448,1,1v7c0,0.552-0.448,1-1,1H5C4.448,12,4,11.552,4,11z M6,10h1V5H6V10z"/>
</svg>
