<svg width="24" height="24" viewBox="0 0 24 24" xmlns="http://www.w3.org/2000/svg">
 <path d="m8.3289 20.915c-0.095444 0.11145-0.26206 0.11298-0.35936 0.0036l-2.9049-3.2729c-0.086247-0.09717-0.086247-0.24708 0-0.34425l2.9049-3.2727c0.097298-0.10961 0.26391-0.10809 0.35936 0.0033l0.80841 0.94328c0.08352 0.09739 0.08228 0.24518-0.0028 0.34113l-1.105 1.2449h8.2193v-3.3958c0-0.13996 0.10874-0.25342 0.24284-0.25342h1.1337c0.13424 0 0.24298 0.11346 0.24298 0.25342v4.9669c0 0.14004-0.10873 0.25347-0.24298 0.25347h-9.5957l1.105 1.2448c0.08512 0.09596 0.08636 0.24374 0.0028 0.3412zm-1.5545-9.8279c-0.13417 0-0.24294-0.11346-0.24294-0.25342v-4.9669c0-0.13997 0.10876-0.25342 0.24294-0.25342h9.5957l-1.105-1.2449c-0.08512-0.095912-0.08629-0.24363-0.0027-0.34108l0.80837-0.94328c0.09547-0.11137 0.26208-0.11289 0.3593-0.00325l2.905 3.2726c0.08614 0.097145 0.08614 0.24719 0 0.34434l-2.905 3.2726c-0.09722 0.10961-0.26382 0.10809-0.3593-0.0033l-0.80843-0.94332c-0.08352-0.097478-0.08235-0.24519 0.0029-0.3411l1.1049-1.2448h-8.2192v3.3957c0 0.13996-0.10876 0.25342-0.24292 0.25342z" fill="#777" fill-rule="evenodd" stroke-width=".83853"/>
</svg>
