<svg width="24" height="24" viewBox="0 0 24 24"  xmlns="http://www.w3.org/2000/svg">
<path fill-rule="evenodd" fill="#777" d="M13.106 1.39278L10.3976 3.54799C9.97453 3.88466 9.91935 4.48283 10.2744 4.88406L12.547 7.45254C12.902 7.85376 13.5327 7.90609 13.9558 7.56943C14.3789 7.23276 14.434 6.63459 14.079 6.23337L13.2721 5.31965C16.5312 5.88525 19 8.5845 19 11.828C19 13.3667 18.444 14.8224 17.4404 15.9924C17.0919 16.3987 17.1567 16.996 17.5852 17.3265C18.0136 17.657 18.6435 17.5956 18.992 17.1893C20.283 15.6841 21 13.8068 21 11.828C21 7.65111 17.8208 4.17746 13.6276 3.45284L14.3916 2.84573C14.8146 2.50907 14.8698 1.91089 14.5148 1.50967C14.1598 1.10845 13.5291 1.05612 13.106 1.39278ZM5.0855 6.49709C3.74658 8.00736 3 9.9094 3 11.9173C3 16.4149 6.72632 20.0905 11.4292 20.3675L10.6393 20.9961C10.2162 21.3327 10.1611 21.9309 10.5161 22.3321C10.8711 22.7333 11.5018 22.7857 11.9249 22.449L14.6333 20.2938C15.0563 19.9571 15.1115 19.359 14.7565 18.9577L12.4839 16.3892C12.1289 15.988 11.4982 15.9357 11.0751 16.2724C10.652 16.609 10.5968 17.2072 10.9518 17.6084L11.7241 18.4825C7.98417 18.3466 5 15.4574 5 11.9173C5 10.3606 5.5774 8.88957 6.61634 7.71767C6.97175 7.31677 6.91718 6.71855 6.49445 6.38149C6.07172 6.04444 5.44091 6.0962 5.0855 6.49709Z"/>
</svg>
