<svg xmlns="http://www.w3.org/2000/svg" width="24" height="24" viewBox="0 0 24 24">
  <path fill="#777" fill-rule="evenodd" d="M15.6181746,9.99867966 L9,9.99867966 C7.34314575,9.99867966 6,11.3418254 6,12.9986797 C6,14.6555339 7.34314575,15.9986797 9,15.9986797 L11,15.9986797 C11.5522847,15.9986797 12,16.4463949 12,16.9986797 C12,17.5509644 11.5522847,17.9986797 11,17.9986797 L9,17.9986797 C6.23857625,17.9986797 4,15.7601034 4,12.9986797 C4,10.2372559 6.23857625,7.99867966 9,7.99867966 L15.6244661,7.99867966 L13.7928932,6.16710678 C13.4023689,5.77658249 13.4023689,5.14341751 13.7928932,4.75289322 C14.1834175,4.36236893 14.8165825,4.36236893 15.2071068,4.75289322 L18.7426407,8.28842712 C19.133165,8.67895142 19.133165,9.3121164 18.7426407,9.70264069 L15.2071068,13.2381746 C14.8165825,13.6286989 14.1834175,13.6286989 13.7928932,13.2381746 C13.4023689,12.8476503 13.4023689,12.2144853 13.7928932,11.823961 L15.6181746,9.99867966 Z"/>
</svg>
