<svg width="24" height="24" viewBox="0 0 24 24" xmlns="http://www.w3.org/2000/svg">
  <path fill="#777" fill-rule="evenodd" clip-rule="evenodd" d="M12.8602 4.16512L10.7537 5.769C10.4246 6.01954 10.3817 6.4647 10.6578 6.76328L12.4254 8.67471C12.7015 8.97329 13.1921 9.01224 13.5212 8.7617C13.8502 8.51116 13.8931 8.066 13.617 7.76742L12.9894 7.08745C15.5242 7.50836 17.4444 9.5171 17.4444 11.9309C17.4444 13.0759 17.012 14.1592 16.2315 15.03C15.9604 15.3323 16.0108 15.7768 16.344 16.0228C16.6773 16.2687 17.1671 16.223 17.4382 15.9206C18.4423 14.8005 19 13.4035 19 11.9309C19 8.82249 16.5273 6.23744 13.2659 5.69819L13.8601 5.24639C14.1892 4.99585 14.2321 4.55069 13.956 4.25211C13.6799 3.95353 13.1893 3.91458 12.8602 4.16512ZM15.8889 11.591V12.3022C15.8889 12.3013 15.8889 12.3004 15.8889 12.2995V11.5937C15.8889 11.5928 15.8889 11.5919 15.8889 11.591ZM6.62205 7.96368C5.58067 9.0876 5 10.5031 5 11.9973C5 15.3443 7.89825 18.0797 11.556 18.2858L10.9417 18.7536C10.6126 19.0041 10.5697 19.4493 10.8458 19.7479C11.1219 20.0465 11.6125 20.0854 11.9416 19.8349L14.0481 18.231C14.3772 17.9804 14.4201 17.5353 14.144 17.2367L12.3764 15.3253C12.1003 15.0267 11.6097 14.9878 11.2806 15.2383C10.9516 15.4888 10.9087 15.934 11.1848 16.2326L11.7854 16.8831C8.87658 16.7819 6.55556 14.6318 6.55556 11.9973C6.55556 10.8388 7.00465 9.74413 7.81271 8.87202C8.08914 8.57368 8.04669 8.12848 7.7179 7.87765C7.38911 7.62682 6.89848 7.66534 6.62205 7.96368Z" />
</svg>