<svg width="24" height="24" viewBox="0 0 24 24" xmlns="http://www.w3.org/2000/svg">
  <path fill="#52555A" fill-rule="evenodd" d="M12.7426407,12.823961 C13.133165,13.2144853 13.133165,13.8476503 12.7426407,14.2381746 C12.3521164,14.6286989 11.7189514,14.6286989 11.3284271,14.2381746 L11.3284271,14.2381746 L7.79289322,10.7026407 C7.40236893,10.3121164 7.40236893,9.67895142 7.79289322,9.28842712 C7.79698122,9.28433912 7.80109581,9.28029392 7.80523643,9.2762915 L7.80523643,9.2762915 L11.3284271,5.75289322 C11.7189514,5.36236893 12.3521164,5.36236893 12.7426407,5.75289322 C13.133165,6.14341751 13.133165,6.77658249 12.7426407,7.16710678 L12.7426407,7.16710678 L10.8852136,9.025 L11.5355339,9.02557159 C16.5060967,9.02557159 20.5355339,12.0550088 20.5355339,17.0255716 L20.5355339,18.0252054 C20.5355339,18.5774901 20.0878187,19.0252054 19.5355339,19.0252054 C18.9832492,19.0252054 18.5355339,18.5774901 18.5355339,18.0252054 L18.5355339,17.0255716 C18.5355339,13.1595783 15.4015272,11.0255716 11.5355339,11.0255716 L10.9452136,11.025 Z M7.24264069,5.75289322 C7.63316498,5.36236893 8.26632996,5.36236893 8.65685425,5.75289322 C9.04737854,6.14341751 9.04737854,6.77658249 8.65685425,7.16710678 L8.65685425,7.16710678 L5.82984134,9.99553391 L8.65685425,12.823961 C9.04737854,13.2144853 9.04737854,13.8476503 8.65685425,14.2381746 C8.26632996,14.6286989 7.63316498,14.6286989 7.24264069,14.2381746 L7.24264069,14.2381746 L3.70710678,10.7026407 C3.31658249,10.3121164 3.31658249,9.67895142 3.70710678,9.28842712 C3.71119478,9.28433912 3.71530937,9.28029392 3.71944999,9.2762915 L3.71944999,9.2762915 Z"></path>
</svg>
