<svg xmlns="http://www.w3.org/2000/svg" width="24" height="24" viewBox="0 0 24 24">
  <path fill="#777" fill-rule="evenodd" d="M9.99578644,17.0810678 L11.8384271,15.2384271 C12.2289514,14.8479028 12.8621164,14.8479028 13.2526407,15.2384271 C13.643165,15.6289514 13.643165,16.2621164 13.2526407,16.6526407 L9.71710678,20.1881746 C9.52127672,20.3840047 9.26443311,20.4816349 9.00776695,20.4810653 C8.7511008,20.4816349 8.49425719,20.3840047 8.29842712,20.1881746 L4.76289322,16.6526407 C4.37236893,16.2621164 4.37236893,15.6289514 4.76289322,15.2384271 C5.15341751,14.8479028 5.78658249,14.8479028 6.17710678,15.2384271 L7.99578644,17.0571068 L7.99578644,5.99578644 C7.99578644,5.44350169 8.44350169,4.99578644 8.99578644,4.99578644 C9.54807119,4.99578644 9.99578644,5.44350169 9.99578644,5.99578644 L9.99578644,17.0810678 Z M13,5 L15,5 C15.5522847,5 16,5.44771525 16,6 C16,6.55228475 15.5522847,7 15,7 L13,7 C12.4477153,7 12,6.55228475 12,6 C12,5.44771525 12.4477153,5 13,5 Z M13,8 L17,8 C17.5522847,8 18,8.44771525 18,9 C18,9.55228475 17.5522847,10 17,10 L13,10 C12.4477153,10 12,9.55228475 12,9 C12,8.44771525 12.4477153,8 13,8 Z M13,11 L19,11 C19.5522847,11 20,11.4477153 20,12 C20,12.5522847 19.5522847,13 19,13 L13,13 C12.4477153,13 12,12.5522847 12,12 C12,11.4477153 12.4477153,11 13,11 Z"/>
</svg>
