<svg xmlns="http://www.w3.org/2000/svg" width="24" height="24" viewBox="0 0 24 24">
  <path fill="#52555A" fill-rule="evenodd" d="M8.50285343,9.47190014 L9.50285343,9.47483254 C10.0551359,9.47645206 10.501565,9.9354265 10.4999807,10.4999807 C10.4983963,11.0645348 10.0493945,11.5045284 9.49711201,11.5029089 L8.49998066,11.4999807 C7.94769591,11.4999807 7.49998066,11.9354242 7.49998066,12.4999807 L7.49998066,18.4333209 C7.49998066,18.9978773 7.94769591,19.4555408 8.49998066,19.4555408 L16.4999807,19.4555408 C17.0522654,19.4555408 17.4999807,18.9978773 17.4999807,18.4333209 L17.4999807,12.4999807 C17.4999807,11.9354242 17.0493968,11.4970525 16.4999807,11.4970483 L15.4999807,11.4999807 C14.9476982,11.5016002 14.501565,11.0645348 14.4999807,10.4999807 C14.4983963,9.9354265 14.9448295,9.50453679 15.497112,9.50291727 L16.4999807,9.49998066 C18.1568349,9.49998066 19.4999807,10.8063112 19.4999807,12.4999807 L19.4999807,18.4333209 C19.4999807,20.1269903 18.1568349,21.4999807 16.4999807,21.4999807 L8.49998066,21.4999807 C6.84312641,21.4999807 5.49998066,20.1269903 5.49998066,18.4333209 L5.49998066,12.4999807 C5.49998066,10.8063112 6.84313052,9.47190014 8.50285343,9.47190014 Z M12.3979321,2.50001934 L12.5147731,2.50130139 C12.7091027,2.51486673 12.9000734,2.58554541 13.060374,2.71303734 L13.1526555,2.79634769 L16.7111677,6.43393032 C17.0621421,6.79270343 17.0891402,7.3496489 16.7921618,7.73891004 L16.7111677,7.83252018 L16.6881553,7.85604392 C16.6830883,7.86122351 16.6779645,7.86634726 16.6727849,7.87141426 C16.312301,8.2240624 15.7509335,8.24532563 15.366221,7.93935228 L15.2739417,7.85604392 L13.4956947,6.03788541 L13.4957671,15.3845738 C13.4957671,15.9368586 13.0480518,16.3845738 12.4957671,16.3845738 C11.9434823,16.3845738 11.4957671,15.9368586 11.4957671,15.3845738 L11.4956947,5.93388541 L9.61708744,7.85604392 L9.61327657,7.85991813 L9.6017171,7.87141426 C9.24123314,8.2240624 8.67986564,8.24532563 8.29515319,7.93935228 L8.20287388,7.85604392 L8.17986147,7.83252018 C7.82888702,7.4737471 7.80188896,6.91680163 8.09886732,6.52754046 L8.17986142,6.43393032 L11.7106947,2.82288541 L11.7460599,2.78861162 L11.7537791,2.78097688 C11.8739433,2.66342472 12.0164284,2.58269398 12.1672512,2.53863101 L12.2816548,2.51246055 C12.3201841,2.50602495 12.359016,2.50187868 12.3979321,2.50001934 Z" transform="rotate(90 12.5 12)"/>
</svg>
