<svg  xmlns="http://www.w3.org/2000/svg" width="24" height="24" viewBox="0 0 24 24">
  <path fill="#777" fill-rule="evenodd" d="M3.52066 14.9467C3.53452 14.7108 3.63157 14.4788 3.81181 14.2986L7.34735 10.763C7.73787 10.3725 8.37104 10.3725 8.76156 10.763C9.15209 11.1536 9.15209 11.7867 8.76156 12.1773L6.94399 13.9952L15.0042 13.9959C15.5565 13.9959 16.0042 14.4437 16.0042 14.9959C16.0042 15.5482 15.5565 15.9959 15.0042 15.9959L6.91999 15.9952L8.76156 17.8386C9.12205 18.1991 9.14978 18.7663 8.84475 19.1586L8.76156 19.2528C8.37104 19.6433 7.73787 19.6433 7.34735 19.2528L3.81181 15.7173C3.63157 15.537 3.53452 15.3051 3.52066 15.0692L3.52066 14.9467ZM21.5883 9.00472C21.5744 9.24063 21.4773 9.47255 21.2971 9.6528L17.7616 13.1883C17.371 13.5789 16.7379 13.5789 16.3473 13.1883C15.9568 12.7978 15.9568 12.1646 16.3473 11.7741L18.126 9.99516L10.0042 9.99594C9.45192 9.99594 9.0042 9.54823 9.0042 8.99594C9.0042 8.44366 9.45192 7.99594 10.0042 7.99594L18.226 7.99516L16.3473 6.11726C15.9869 5.75678 15.9591 5.18955 16.2642 4.79726L16.3473 4.70305C16.7379 4.31252 17.371 4.31252 17.7616 4.70305L21.2971 8.23858C21.4773 8.41883 21.5744 8.65075 21.5883 8.88666L21.5883 9.00472Z" />
</svg>
