<svg xmlns="http://www.w3.org/2000/svg" width="24" height="24" viewBox="0 0 24 24">
  <path fill="#777" fill-rule="evenodd" d="M15.9957864,17.0810678 L17.8384271,15.2384271 C18.2289514,14.8479028 18.8621164,14.8479028 19.2526407,15.2384271 C19.643165,15.6289514 19.643165,16.2621164 19.2526407,16.6526407 L15.7171068,20.1881746 C15.5212767,20.3840047 15.2644331,20.4816349 15.007767,20.4810653 C14.7511008,20.4816349 14.4942572,20.3840047 14.2984271,20.1881746 L10.7628932,16.6526407 C10.3723689,16.2621164 10.3723689,15.6289514 10.7628932,15.2384271 C11.1534175,14.8479028 11.7865825,14.8479028 12.1771068,15.2384271 L13.9957864,17.0571068 L13.9957864,8.99578644 C13.9957864,8.44350169 14.4435017,7.99578644 14.9957864,7.99578644 C15.5480712,7.99578644 15.9957864,8.44350169 15.9957864,8.99578644 L15.9957864,17.0810678 Z M7.99578644,5.77396103 L6.11710678,7.65264069 C5.72658249,8.04316498 5.09341751,8.04316498 4.70289322,7.65264069 C4.31236893,7.2621164 4.31236893,6.62895142 4.70289322,6.23842712 L8.23842712,2.70289322 C8.62895142,2.31236893 9.2621164,2.31236893 9.65264069,2.70289322 L13.1881746,6.23842712 C13.5786989,6.62895142 13.5786989,7.2621164 13.1881746,7.65264069 C12.7976503,8.04316498 12.1644853,8.04316498 11.773961,7.65264069 L9.99578644,5.87446609 L9.99578644,13.9957864 C9.99578644,14.5480712 9.54807119,14.9957864 8.99578644,14.9957864 C8.44350169,14.9957864 7.99578644,14.5480712 7.99578644,13.9957864 L7.99578644,5.77396103 Z"/>
</svg>
