<svg xmlns="http://www.w3.org/2000/svg" width="24" height="24" viewBox="0 0 24 24">
  <path fill="#777" fill-rule="evenodd" d="M12,19 C8.13400675,19 5,15.8659932 5,12 C5,8.13400675 8.13400675,5 12,5 C15.8659932,5 19,8.13400675 19,12 C19,15.8659932 15.8659932,19 12,19 Z M12,17 C14.7614237,17 17,14.7614237 17,12 C17,9.23857625 14.7614237,7 12,7 C9.23857625,7 7,9.23857625 7,12 C7,14.7614237 9.23857625,17 12,17 Z M12.036,13.466 L11.94,13.466 C11.592,13.466 11.34,13.202 11.292,12.878 L11.172,12.062 C11.112,11.666 11.34,11.39 11.724,11.342 C12.768,11.21 13.248,10.886 13.248,10.298 L13.248,10.274 C13.248,9.734 12.84,9.422 12.144,9.422 C11.628,9.422 11.184,9.578 10.752,9.902 C10.608,10.01 10.416,10.094 10.212,10.094 C9.756,10.094 9.372,9.71 9.372,9.254 C9.372,9.026 9.468,8.786 9.684,8.606 C10.32,8.078 11.124,7.742 12.18,7.742 C13.908,7.742 15.084,8.63 15.084,10.226 L15.084,10.25 C15.084,11.774 14.028,12.398 12.72,12.662 L12.684,12.878 C12.636,13.19 12.384,13.466 12.036,13.466 Z M10.896,15.278 C10.896,14.702 11.34,14.258 11.94,14.258 C12.54,14.258 12.984,14.702 12.984,15.278 L12.984,15.302 C12.984,15.878 12.54,16.322 11.94,16.322 C11.34,16.322 10.896,15.878 10.896,15.302 L10.896,15.278 Z"/>
</svg>
