<svg xmlns="http://www.w3.org/2000/svg" width="24" height="24" viewBox="0 0 24 24">
  <path fill="#777" fill-rule="evenodd" d="M12,18 C8.6862915,18 6,15.3137085 6,12 C6,8.6862915 8.6862915,6 12,6 C15.3137085,6 18,8.6862915 18,12 C18,15.3137085 15.3137085,18 12,18 Z M12.036,13.466 C12.384,13.466 12.636,13.19 12.684,12.878 L12.72,12.662 C14.028,12.398 15.084,11.774 15.084,10.25 L15.084,10.226 C15.084,8.63 13.908,7.742 12.18,7.742 C11.124,7.742 10.32,8.078 9.684,8.606 C9.468,8.786 9.372,9.026 9.372,9.254 C9.372,9.71 9.756,10.094 10.212,10.094 C10.416,10.094 10.608,10.01 10.752,9.902 C11.184,9.578 11.628,9.422 12.144,9.422 C12.84,9.422 13.248,9.734 13.248,10.274 L13.248,10.298 C13.248,10.886 12.768,11.21 11.724,11.342 C11.34,11.39 11.112,11.666 11.172,12.062 L11.292,12.878 C11.34,13.202 11.592,13.466 11.94,13.466 L12.036,13.466 Z M10.896,15.278 L10.896,15.302 C10.896,15.878 11.34,16.322 11.94,16.322 C12.54,16.322 12.984,15.878 12.984,15.302 L12.984,15.278 C12.984,14.702 12.54,14.258 11.94,14.258 C11.34,14.258 10.896,14.702 10.896,15.278 Z"/>
</svg>
