<svg xmlns="http://www.w3.org/2000/svg" width="24" height="24" viewBox="0 0 24 24">
  <path fill="#777" fill-rule="evenodd" d="M12.267,14.328 L12.165,14.328 C11.774,14.328 11.485,14.039 11.434,13.648 L11.264,12.186 C11.196,11.727 11.468,11.387 11.927,11.336 C13.525,11.183 14.409,10.571 14.409,9.5 L14.409,9.466 C14.409,8.514 13.678,7.851 12.454,7.851 C11.553,7.851 10.822,8.174 10.142,8.786 C9.972,8.922 9.751,9.024 9.513,9.024 C8.986,9.024 8.561,8.599 8.561,8.089 C8.561,7.834 8.663,7.562 8.901,7.358 C9.802,6.508 10.941,5.947 12.505,5.947 C14.885,5.947 16.5,7.273 16.5,9.398 L16.5,9.432 C16.5,11.574 14.953,12.543 13.066,12.866 L12.998,13.648 C12.93,14.022 12.658,14.328 12.267,14.328 Z M10.958,16.742 C10.958,16.079 11.468,15.569 12.165,15.569 C12.862,15.569 13.372,16.079 13.372,16.742 L13.372,16.912 C13.372,17.575 12.862,18.085 12.165,18.085 C11.468,18.085 10.958,17.575 10.958,16.912 L10.958,16.742 Z"/>
</svg>
