<svg xmlns="http://www.w3.org/2000/svg" width="24" height="24" viewBox="0 0 24 24">
  <path fill="#777" fill-rule="evenodd" d="M18,9 L15,9 C13.8954305,9 13,8.1045695 13,7 L13,4 L7,4 C6.44771525,4 6,4.44771525 6,5 L6,19 C6,19.5522847 6.44771525,20 7,20 L17,20 C17.5522847,20 18,19.5522847 18,19 L18,9 Z M17.5808911,7 L15,4.39564984 L15,7 L17.5808911,7 Z M7,2 L15.0247803,2 C15.2915648,2 15.5472891,2.10660281 15.7350789,2.29609951 L19.7102986,6.30745205 C19.8958813,6.49472165 20,6.74770342 20,7.01135254 L20,19 C20,20.6568542 18.6568542,22 17,22 L7,22 C5.34314575,22 4,20.6568542 4,19 L4,5 C4,3.34314575 5.34314575,2 7,2 Z M9.58578644,10.7426407 L8.57629395,12.5104076 L7.81801948,11.8033009 C6.84170876,10.8269901 6.84170876,9.24407768 7.81801948,8.26776695 C8.79433021,7.29145622 10.3772427,7.29145622 11.3535534,8.26776695 L14.1819805,11.0961941 C15.1582912,12.0725048 15.1582912,13.6554173 14.1819805,14.631728 L13.8284271,14.9852814 L12.4142136,13.5710678 L12.767767,13.2175144 C12.9630291,13.0222523 12.9630291,12.7056698 12.767767,12.5104076 L9.93933983,9.68198052 C9.74407768,9.48671837 9.42749519,9.48671837 9.23223305,9.68198052 C9.0369709,9.87724266 9.0369709,10.1938252 9.23223305,10.3890873 L9.58578644,10.7426407 Z M14.563961,15.4568542 L15.6309204,13.7706299 L16.331728,14.3961941 C17.3080387,15.3725048 17.3080387,16.9554173 16.331728,17.931728 C15.3554173,18.9080387 13.7725048,18.9080387 12.7961941,17.931728 L9.96776695,15.1033009 C8.99145622,14.1269901 8.99145622,12.5440777 9.96776695,11.567767 L10.3213203,11.2142136 L11.7355339,12.6284271 L11.3819805,12.9819805 C11.1867184,13.1772427 11.1867184,13.4938252 11.3819805,13.6890873 L14.2104076,16.5175144 C14.4056698,16.7127766 14.7222523,16.7127766 14.9175144,16.5175144 C15.1127766,16.3222523 15.1127766,16.0056698 14.9175144,15.8104076 L14.563961,15.4568542 Z"/>
</svg>
