<svg width="24" height="24" viewBox="0 0 24 24" fill="none" xmlns="http://www.w3.org/2000/svg">
<path fill-rule="evenodd" clip-rule="evenodd" d="M15.7351 2.2961C15.5473 2.1066 15.2916 2 15.0248 2H7C5.34315 2 4 3.34315 4 5V19C4 20.6569 5.34315 22 7 22H14.5671C13.797 21.488 13.152 20.8028 12.6876 20H7C6.44772 20 6 19.5523 6 19V5C6 4.44772 6.44772 4 7 4H13V7C13 8.10457 13.8954 9 15 9L18 8.999V11.0011C18.7029 11.0143 19.3762 11.1484 20 11.3834V7.01135C20 6.7477 19.8959 6.49472 19.7103 6.30745L15.7351 2.2961ZM15 4.396L17.581 6.999L15 7V4.396Z" fill="#52555A"/>
<path d="M18.2793 12.6C18.7212 12.6 19.0793 12.9582 19.0793 13.4V13.548C19.0825 13.8307 19.2345 14.0907 19.4793 14.232L19.5886 14.2845C19.8128 14.372 20.0672 14.3545 20.2793 14.232L20.3833 14.16C20.5673 14.0528 20.7863 14.0234 20.992 14.0782C21.1977 14.133 21.3731 14.2675 21.4793 14.452L21.8793 15.148C22.1104 15.5197 21.9999 16.008 21.6313 16.244L21.4793 16.332C21.234 16.4649 21.0807 16.721 21.0793 17L21.0833 17.1014C21.108 17.3352 21.2397 17.547 21.4433 17.672L21.5953 17.76C21.9743 17.9839 22.1012 18.4719 21.8793 18.852L21.4793 19.548C21.2623 19.9118 20.7993 20.0434 20.4233 19.848L20.2993 19.776C20.0518 19.6331 19.7469 19.6331 19.4993 19.776L19.4128 19.8337C19.2213 19.9803 19.1045 20.2072 19.0993 20.452V20.6C19.0993 21.0418 18.7412 21.4 18.2993 21.4H17.4993C17.0575 21.4 16.6993 21.0418 16.6993 20.6V20.444C16.6934 20.1642 16.5417 19.9079 16.2993 19.768L16.1901 19.7155C15.9659 19.628 15.7115 19.6455 15.4993 19.768L15.3753 19.84C15.1914 19.9472 14.9724 19.9766 14.7667 19.9218C14.561 19.867 14.3856 19.7325 14.2793 19.548L13.8793 18.852C13.7712 18.6672 13.7417 18.4468 13.7973 18.2401C13.8529 18.0334 13.9891 17.8576 14.1753 17.752L14.3273 17.664C14.5727 17.5311 14.726 17.275 14.7273 16.996L14.7198 16.8926C14.6862 16.6549 14.542 16.4443 14.3273 16.328L14.1753 16.24C13.9913 16.1344 13.8567 15.9601 13.8012 15.7553C13.7457 15.5505 13.7738 15.3321 13.8793 15.148L14.2793 14.452C14.4973 14.0767 14.9747 13.9436 15.3553 14.152L15.4793 14.224C15.7269 14.3669 16.0318 14.3669 16.2793 14.224L16.3659 14.1663C16.5574 14.0197 16.6742 13.7928 16.6793 13.548V13.4C16.6793 12.9582 17.0375 12.6 17.4793 12.6H18.2793ZM17.8793 15.8C17.2166 15.8 16.6793 16.3373 16.6793 17C16.6793 17.6627 17.2166 18.2 17.8793 18.2C18.5421 18.2 19.0793 17.6627 19.0793 17C19.0793 16.3373 18.5421 15.8 17.8793 15.8Z" fill="#52555A"/>
</svg>
