<svg xmlns="http://www.w3.org/2000/svg" width="24" height="24" viewBox="0 0 24 24">
  <path fill="#777" fill-rule="evenodd" d="M7,3 L17.0218628,3 C18.6787171,3 20.0218628,4.34314575 20.0218628,6 L20.00291,19.004373 C20.0004974,20.659518 18.65806,22 17.0029132,22 L7,22 C5.34314575,22 4,20.6568542 4,19 L4,6 C4,4.34314575 5.34314575,3 7,3 Z M7,5 C6.44771525,5 6,5.44771525 6,6 L6,19 C6,19.5522847 6.44771525,20 7,20 L17.0029132,20 C17.5546288,20 18.0021079,19.5531727 18.0029121,19.0014577 L18.0218618,6.00145766 C18.0218628,5.44771525 17.5741476,5 17.0218628,5 L7,5 Z M8,7 L16,7 C16.5522847,7 17,7.44771525 17,8 C17,8.55228475 16.5522847,9 16,9 L8,9 C7.44771525,9 7,8.55228475 7,8 C7,7.44771525 7.44771525,7 8,7 Z M8,10 L16,10 C16.5522847,10 17,10.4477153 17,11 C17,11.5522847 16.5522847,12 16,12 L8,12 C7.44771525,12 7,11.5522847 7,11 C7,10.4477153 7.44771525,10 8,10 Z M8,13 L16,13 C16.5522847,13 17,13.4477153 17,14 C17,14.5522847 16.5522847,15 16,15 L8,15 C7.44771525,15 7,14.5522847 7,14 C7,13.4477153 7.44771525,13 8,13 Z M8,16 L16,16 C16.5522847,16 17,16.4477153 17,17 C17,17.5522847 16.5522847,18 16,18 L8,18 C7.44771525,18 7,17.5522847 7,17 C7,16.4477153 7.44771525,16 8,16 Z"/>
</svg>
