<svg xmlns="http://www.w3.org/2000/svg" width="24" height="24" viewBox="0 0 24 24">
  <path fill="#777" fill-rule="evenodd" d="M13.9946732,14.6337734 L10.403432,17.4254085 C10.2944224,17.5101467 10.1373587,17.4904707 10.0526206,17.3814611 C10.0185152,17.3375869 10,17.2836 10,17.2280291 L10,11.25 C10,11.1119288 10.1119288,11 10.25,11 C10.3055709,11 10.3595578,11.0185152 10.403432,11.0526206 L13.9946732,13.8442558 C14.2126924,14.0137321 14.2520443,14.3278593 14.082568,14.5458785 C14.0570398,14.5787188 14.0275134,14.6082452 13.9946732,14.6337734 Z M18,9 L15,9 C13.8954305,9 13,8.1045695 13,7 L13,4 L7,4 C6.44771525,4 6,4.44771525 6,5 L6,19 C6,19.5522847 6.44771525,20 7,20 L17,20 C17.5522847,20 18,19.5522847 18,19 L18,9 Z M17.5808911,7 L15,4.39564984 L15,7 L17.5808911,7 Z M7,2 L15.0247803,2 C15.2915648,2 15.5472891,2.10660281 15.7350789,2.29609951 L19.7102986,6.30745205 C19.8958813,6.49472165 20,6.74770342 20,7.01135254 L20,19 C20,20.6568542 18.6568542,22 17,22 L7,22 C5.34314575,22 4,20.6568542 4,19 L4,5 C4,3.34314575 5.34314575,2 7,2 Z"/>
</svg>
