<svg width="24" height="24" viewBox="0 0 24 24" fill="none" xmlns="http://www.w3.org/2000/svg">
<g id="files/files_filled">
<g id="Vector">
<path d="M16.0485 2C16.2872 2 16.516 2.09538 16.684 2.26493L20.2408 5.85404C20.4068 6.02159 20.5 6.24795 20.5 6.48384V17.2105C20.5 18.693 19.2982 19.8947 17.8158 19.8947H8.86842C7.38597 19.8947 6.18421 18.693 6.18421 17.2105V4.68421C6.18421 3.20176 7.38597 2 8.86842 2H16.0485ZM14.2368 3.78947H8.86842C8.37427 3.78947 7.97368 4.19006 7.97368 4.68421V17.2105C7.97368 17.7047 8.37427 18.1053 8.86842 18.1053H17.8158C18.3099 18.1053 18.7105 17.7047 18.7105 17.2105V8.26226L16.0263 8.26316C15.038 8.26316 14.2368 7.46198 14.2368 6.47368V3.78947ZM18.3356 6.47279L16.0263 4.14379V6.47368L18.3356 6.47279Z" fill="#52555A"/>
<path fill-rule="evenodd" clip-rule="evenodd" d="M5.75323 4.68421C5.74239 4.78795 5.73682 4.89327 5.73682 4.99988V6.47368H5.1842C4.69005 6.47368 4.28947 6.87427 4.28947 7.36842V19.8947C4.28947 20.3889 4.69005 20.7895 5.1842 20.7895H14.1315C14.4798 20.7895 14.7816 20.5905 14.9294 20.3H16.7853C16.59 21.5902 15.4762 22.5789 14.1315 22.5789H5.1842C3.70176 22.5789 2.5 21.3772 2.5 19.8947V7.36842C2.5 5.88597 3.70176 4.68421 5.1842 4.68421H5.75323Z" fill="#52555A"/>
<path fill-rule="evenodd" clip-rule="evenodd" d="M16.4778 9.45815C16.9748 9.45815 17.3778 9.8611 17.3778 10.3582V16.0037C17.3778 16.5007 16.9748 16.9037 16.4778 16.9037C15.9807 16.9037 15.5778 16.5007 15.5778 16.0037V10.3582C15.5778 9.8611 15.9807 9.45815 16.4778 9.45815Z" fill="#52555A"/>
<path fill-rule="evenodd" clip-rule="evenodd" d="M9.51119 13.1809C9.51119 12.6839 9.91414 12.2809 10.4112 12.2809H13.4089C13.906 12.2809 14.3089 12.6839 14.3089 13.1809C14.3089 13.678 13.906 14.0809 13.4089 14.0809H10.4112C9.91414 14.0809 9.51119 13.678 9.51119 13.1809Z" fill="#52555A"/>
<path fill-rule="evenodd" clip-rule="evenodd" d="M9.51119 10.3582C9.51119 9.8611 9.91414 9.45815 10.4112 9.45815H13.4089C13.906 9.45815 14.3089 9.8611 14.3089 10.3582C14.3089 10.8552 13.906 11.2582 13.4089 11.2582H10.4112C9.91414 11.2582 9.51119 10.8552 9.51119 10.3582Z" fill="#52555A"/>
<path fill-rule="evenodd" clip-rule="evenodd" d="M9.51119 16.0037C9.51119 15.5066 9.91414 15.1037 10.4112 15.1037H13.4089C13.906 15.1037 14.3089 15.5066 14.3089 16.0037C14.3089 16.5007 13.906 16.9037 13.4089 16.9037H10.4112C9.91414 16.9037 9.51119 16.5007 9.51119 16.0037Z" fill="#52555A"/>
</g>
</g>
</svg>
