<svg xmlns="http://www.w3.org/2000/svg" width="24" height="24" viewBox="0 0 24 24">
  <path fill="#777" fill-rule="evenodd" d="M9.82842712,14.5355339 L11.2426407,15.9497475 C11.633165,16.3402718 11.633165,16.9734367 11.2426407,17.363961 C10.8521164,17.7544853 10.2189514,17.7544853 9.82842712,17.363961 L7.70710678,15.2426407 C7.31658249,14.8521164 7.31658249,14.2189514 7.70710678,13.8284271 L9.82842712,11.7071068 C10.2189514,11.3165825 10.8521164,11.3165825 11.2426407,11.7071068 C11.633165,12.0976311 11.633165,12.7307961 11.2426407,13.1213203 L9.82842712,14.5355339 Z M14.2781746,14.5710678 L12.863961,13.1568542 C12.4734367,12.76633 12.4734367,12.133165 12.863961,11.7426407 C13.2544853,11.3521164 13.8876503,11.3521164 14.2781746,11.7426407 L16.3994949,13.863961 C16.7900192,14.2544853 16.7900192,14.8876503 16.3994949,15.2781746 L14.2781746,17.3994949 C13.8876503,17.7900192 13.2544853,17.7900192 12.863961,17.3994949 C12.4734367,17.0089706 12.4734367,16.3758057 12.863961,15.9852814 L14.2781746,14.5710678 Z M18,9 L15,9 C13.8954305,9 13,8.1045695 13,7 L13,4 L7,4 C6.44771525,4 6,4.44771525 6,5 L6,19 C6,19.5522847 6.44771525,20 7,20 L17,20 C17.5522847,20 18,19.5522847 18,19 L18,9 Z M17.5808911,7 L15,4.39564984 L15,7 L17.5808911,7 Z M7,2 L15.0247803,2 C15.2915648,2 15.5472891,2.10660281 15.7350789,2.29609951 L19.7102986,6.30745205 C19.8958813,6.49472165 20,6.74770342 20,7.01135254 L20,19 C20,20.6568542 18.6568542,22 17,22 L7,22 C5.34314575,22 4,20.6568542 4,19 L4,5 C4,3.34314575 5.34314575,2 7,2 Z"/>
</svg>
