<svg xmlns="http://www.w3.org/2000/svg" width="24" height="24" viewBox="0 0 24 24">
  <path fill="#777" fill-rule="evenodd" d="M18,9 L15,9 C13.8954305,9 13,8.1045695 13,7 L13,4 L7,4 C6.44771525,4 6,4.44771525 6,5 L6,19 C6,19.5522847 6.44771525,20 7,20 L17,20 C17.5522847,20 18,19.5522847 18,19 L18,9 Z M17.5808911,7 L15,4.39564984 L15,7 L17.5808911,7 Z M7,2 L15.0247803,2 C15.2915648,2 15.5472891,2.10660281 15.7350789,2.29609951 L19.7102986,6.30745205 C19.8958813,6.49472165 20,6.74770342 20,7.01135254 L20,19 C20,20.6568542 18.6568542,22 17,22 L7,22 C5.34314575,22 4,20.6568542 4,19 L4,5 C4,3.34314575 5.34314575,2 7,2 Z M9,10 L12,10 C12.5522847,10 13,10.4477153 13,11 C13,11.5522847 12.5522847,12 12,12 L9,12 C8.44771525,12 8,11.5522847 8,11 C8,10.4477153 8.44771525,10 9,10 Z M9,13 L15,13 C15.5522847,13 16,13.4477153 16,14 C16,14.5522847 15.5522847,15 15,15 L9,15 C8.44771525,15 8,14.5522847 8,14 C8,13.4477153 8.44771525,13 9,13 Z M9,16 L15,16 C15.5522847,16 16,16.4477153 16,17 C16,17.5522847 15.5522847,18 15,18 L9,18 C8.44771525,18 8,17.5522847 8,17 C8,16.4477153 8.44771525,16 9,16 Z"/>
</svg>
