<svg width="24" height="24" viewBox="0 0 24 24" fill="none" xmlns="http://www.w3.org/2000/svg">
<path d="M16.5486 2C16.7873 2 17.0161 2.09538 17.1841 2.26493L20.7409 5.85404C20.907 6.02159 21.0001 6.24795 21.0001 6.48384V17.2105C21.0001 18.693 19.7984 19.8947 18.3159 19.8947H9.36854C7.88609 19.8947 6.68433 18.693 6.68433 17.2105V4.68421C6.68433 3.20176 7.88609 2 9.36854 2H16.5486ZM14.737 3.78947H9.36854C8.87439 3.78947 8.4738 4.19006 8.4738 4.68421V17.2105C8.4738 17.7047 8.87439 18.1053 9.36854 18.1053H18.3159C18.8101 18.1053 19.2106 17.7047 19.2106 17.2105V8.26226L16.5264 8.26316C15.5381 8.26316 14.737 7.46198 14.737 6.47368V3.78947ZM18.8357 6.47279L16.5264 4.14379V6.47368L18.8357 6.47279Z" fill="#52555A"/>
<path fill-rule="evenodd" clip-rule="evenodd" d="M6.70065 4.6842C6.68978 4.78805 6.68421 4.89348 6.68421 5.0002V6.47368C6.19006 6.47368 5.78947 6.87427 5.78947 7.36842V19.8947C5.78947 20.3889 6.19006 20.7895 6.68421 20.7895H15.6316C16.1257 20.7895 16.5262 20.389 16.5263 19.8949H18.3158C18.3157 21.3773 17.114 22.5789 15.6316 22.5789H6.68421C5.20176 22.5789 4 21.3772 4 19.8947V7.36842C4 5.88597 5.20176 4.6842 6.68421 4.6842H6.70065Z" fill="#52555A"/>
</svg>
