<svg xmlns="http://www.w3.org/2000/svg" width="24" height="24" viewBox="0 0 24 24">
  <path fill="#777" fill-rule="evenodd" d="M10.9353739,14.1899202 L12.470167,11.5040322 C12.744177,11.0245147 13.3550317,10.857918 13.8345491,11.131928 C13.9895804,11.2205173 14.118064,11.3490009 14.2066533,11.5040322 L16.9109419,16.2365372 C17.0479469,16.4762959 16.9646485,16.7817233 16.7248898,16.9187283 C16.6493409,16.961899 16.5638338,16.9846067 16.4768203,16.9846067 L10.9641598,16.9846067 L7.5,16.9846067 C7.22385763,16.9846067 7,16.7607491 7,16.4846067 C7,16.394099 7.02456686,16.3052886 7.07108039,16.2276476 L8.75556543,13.4158821 C9.03939459,12.9421106 9.65355129,12.7881319 10.1273228,13.0719611 C10.2684055,13.1564815 10.3864645,13.2744939 10.4710407,13.4155432 L10.9353739,14.1899202 Z M18,9 L15,9 C13.8954305,9 13,8.1045695 13,7 L13,4 L7,4 C6.44771525,4 6,4.44771525 6,5 L6,19 C6,19.5522847 6.44771525,20 7,20 L17,20 C17.5522847,20 18,19.5522847 18,19 L18,9 Z M17.5808911,7 L15,4.39564984 L15,7 L17.5808911,7 Z M7,2 L15.0247803,2 C15.2915648,2 15.5472891,2.10660281 15.7350789,2.29609951 L19.7102986,6.30745205 C19.8958813,6.49472165 20,6.74770342 20,7.01135254 L20,19 C20,20.6568542 18.6568542,22 17,22 L7,22 C5.34314575,22 4,20.6568542 4,19 L4,5 C4,3.34314575 5.34314575,2 7,2 Z"/>
</svg>
