<svg xmlns="http://www.w3.org/2000/svg" width="24" height="24" viewBox="0 0 24 24">
  <path fill="#777" fill-rule="evenodd" d="M13.4142136,12.8284271 L12.2928932,11.7071068 C11.9023689,11.3165825 11.9023689,10.6834175 12.2928932,10.2928932 C12.6834175,9.90236893 13.3165825,9.90236893 13.7071068,10.2928932 L16.5355339,13.1213203 C16.9260582,13.5118446 16.9260582,14.1450096 16.5355339,14.5355339 L13.7071068,17.363961 C13.3165825,17.7544853 12.6834175,17.7544853 12.2928932,17.363961 C11.9023689,16.9734367 11.9023689,16.3402718 12.2928932,15.9497475 L13.4142136,14.8284271 L8,14.8284271 C7.44771525,14.8284271 7,14.3807119 7,13.8284271 C7,13.2761424 7.44771525,12.8284271 8,12.8284271 L13.4142136,12.8284271 Z M18,9 L15,9 C13.8954305,9 13,8.1045695 13,7 L13,4 L7,4 C6.44771525,4 6,4.44771525 6,5 L6,19 C6,19.5522847 6.44771525,20 7,20 L17,20 C17.5522847,20 18,19.5522847 18,19 L18,9 Z M17.5808911,7 L15,4.39564984 L15,7 L17.5808911,7 Z M7,2 L15.0247803,2 C15.2915648,2 15.5472891,2.10660281 15.7350789,2.29609951 L19.7102986,6.30745205 C19.8958813,6.49472165 20,6.74770342 20,7.01135254 L20,19 C20,20.6568542 18.6568542,22 17,22 L7,22 C5.34314575,22 4,20.6568542 4,19 L4,5 C4,3.34314575 5.34314575,2 7,2 Z"/>
</svg>
