<svg xmlns="http://www.w3.org/2000/svg" width="24" height="24" viewBox="0 0 24 24">
  <path fill="#777" fill-rule="evenodd" d="M15.0163818,12.0324707 L13.0161377,12.0484619 L13,16.0159912 C13,17.1205607 12.1045695,18.0159912 11,18.0159912 C9.8954305,18.0159912 9,17.1205607 9,16.0159912 C9,14.9114217 9.8954305,14.0159912 11,14.0159912 C11.3715716,14.0159912 11.7112721,14.1169162 12.0061165,14.2884678 L11.9832153,10.0217896 L15.0002441,10 L15.0163818,12.0324707 Z M18,9 L15,9 C13.8954305,9 13,8.1045695 13,7 L13,4 L7,4 C6.44771525,4 6,4.44771525 6,5 L6,19 C6,19.5522847 6.44771525,20 7,20 L17,20 C17.5522847,20 18,19.5522847 18,19 L18,9 Z M17.5808911,7 L15,4.39564984 L15,7 L17.5808911,7 Z M7,2 L15.0247803,2 C15.2915648,2 15.5472891,2.10660281 15.7350789,2.29609951 L19.7102986,6.30745205 C19.8958813,6.49472165 20,6.74770342 20,7.01135254 L20,19 C20,20.6568542 18.6568542,22 17,22 L7,22 C5.34314575,22 4,20.6568542 4,19 L4,5 C4,3.34314575 5.34314575,2 7,2 Z"/>
</svg>
