<svg xmlns="http://www.w3.org/2000/svg" width="24" height="24" viewBox="0 0 24 24">
  <path fill="#777" fill-rule="evenodd" d="M11.1531379,14.1286281 L8.82169999,12.240667 C8.39249413,11.8931029 7.76279769,11.9592867 7.41523364,12.3884925 C7.06766958,12.8176984 7.13385334,13.4473948 7.56305921,13.7949589 L10.6716431,16.3122404 C10.886246,16.4860225 11.1509716,16.5563675 11.4054919,16.5296164 C11.6600123,16.5028652 11.9043274,16.3790178 12.0781094,16.1644149 L17.7419929,9.17010122 C18.089557,8.74089536 18.0233732,8.11119892 17.5941674,7.76363487 C17.1649615,7.41607081 16.5352651,7.48225458 16.187701,7.91146044 L11.1531379,14.1286281 Z M12,22 C6.4771525,22 2,17.5228475 2,12 C2,6.4771525 6.4771525,2 12,2 C17.5228475,2 22,6.4771525 22,12 C22,17.5228475 17.5228475,22 12,22 Z"/>
</svg>
