<svg xmlns="http://www.w3.org/2000/svg" width="24" height="24" viewBox="0 0 24 24">
  <path fill="#777" fill-rule="evenodd" d="M11.1531379,14.1286281 L16.187701,7.91146044 C16.5352651,7.48225458 17.1649615,7.41607081 17.5941674,7.76363487 C18.0233732,8.11119892 18.089557,8.74089536 17.7419929,9.17010122 L12.0781094,16.1644149 C11.9043274,16.3790178 11.6600123,16.5028652 11.4054919,16.5296164 C11.1509716,16.5563675 10.886246,16.4860225 10.6716431,16.3122404 L7.56305921,13.7949589 C7.13385334,13.4473948 7.06766958,12.8176984 7.41523364,12.3884925 C7.76279769,11.9592867 8.39249413,11.8931029 8.82169999,12.240667 L11.1531379,14.1286281 Z M5,3 L19,3 C20.1045695,3 21,3.8954305 21,5 L21,19 C21,20.1045695 20.1045695,21 19,21 L5,21 C3.8954305,21 3,20.1045695 3,19 L3,5 C3,3.8954305 3.8954305,3 5,3 Z M5,5 L5,19 L19,19 L19,5 L5,5 Z"/>
</svg>
