<svg width="24" height="24" viewBox="0 0 24 24" fill="none" xmlns="http://www.w3.org/2000/svg">
<path d="M8.77725 12.8465C8.34804 12.4989 8.28186 11.8692 8.62943 11.44C8.97699 11.0108 9.60669 10.9446 10.0359 11.2922L11.5908 12.5501L14.7368 8.66511C15.0843 8.2359 15.714 8.16972 16.1433 8.51728C16.5725 8.86485 16.6386 9.49454 16.2911 9.92375L12.5152 14.5866C12.1924 14.9852 11.6264 15.0707 11.2036 14.8026L11.1087 14.7344L8.77725 12.8465Z" fill="#52555A"/>
<path d="M19.8278 12C20.3651 12 20.8062 12.4369 20.7482 12.9711C20.5923 14.4077 20.0921 15.7907 19.284 17.0001C18.2951 18.4802 16.8895 19.6337 15.2449 20.3149C13.6004 20.9961 11.7908 21.1743 10.045 20.8271C8.61839 20.5433 7.28674 19.9191 6.16068 19.0135C5.74191 18.6767 5.74486 18.0559 6.12485 17.6759V17.6759C6.50483 17.2959 7.11749 17.3023 7.54611 17.6264C8.39242 18.2664 9.37578 18.7098 10.4246 18.9184C11.793 19.1906 13.2113 19.0509 14.5002 18.517C15.7892 17.9831 16.8908 17.079 17.6659 15.919C18.2601 15.0298 18.6418 14.0209 18.7877 12.97C18.8616 12.4377 19.2904 12 19.8278 12V12Z" fill="#52555A"/>
<path d="M3.79699 12.6098C3.26116 12.6506 2.78817 12.2484 2.8054 11.7113C2.85385 10.2015 3.2819 8.72246 4.057 7.41374C4.99799 5.8249 6.40493 4.56396 8.08697 3.80197C9.76901 3.03999 11.6447 2.81384 13.4597 3.15421C14.9546 3.43456 16.3488 4.08811 17.5157 5.04735C17.9309 5.38859 17.9213 6.00935 17.5372 6.38524V6.38524C17.1532 6.76113 16.5407 6.74824 16.1155 6.41954C15.2356 5.73917 14.2032 5.27361 13.101 5.06689C11.6785 4.80013 10.2083 4.97737 8.88999 5.5746C7.57165 6.17182 6.46893 7.16011 5.7314 8.40541C5.15991 9.37035 4.82914 10.4534 4.76032 11.5636C4.72707 12.0999 4.33282 12.5689 3.79699 12.6098V12.6098Z" fill="#52555A"/>
<rect x="1.53711" y="9.88477" width="5.53206" height="2" rx="1" transform="rotate(50.2207 1.53711 9.88477)" fill="#52555A"/>
<rect x="21.9141" y="15.1797" width="5.38407" height="2" rx="1" transform="rotate(-129.4 21.9141 15.1797)" fill="#52555A"/>
<rect x="2.20068" y="13.8906" width="5.60471" height="2" rx="1" transform="rotate(-39.7793 2.20068 13.8906)" fill="#52555A"/>
<rect x="21.1079" y="11.0977" width="5.47968" height="2" rx="1" transform="rotate(138.727 21.1079 11.0977)" fill="#52555A"/>
</svg>
