<svg xmlns="http://www.w3.org/2000/svg" width="24" height="24" viewBox="0 0 24 24">
  <path fill="#777" fill-rule="evenodd" d="M12.5,19 C8.91014913,19 6,16.0898509 6,12.5 C6,8.91014913 8.91014913,6 12.5,6 C16.0898509,6 19,8.91014913 19,12.5 C19,16.0898509 16.0898509,19 12.5,19 Z M11.5900787,13.5508369 L10.0357867,12.2921962 C9.60658088,11.9446321 8.97688445,12.0108159 8.62932039,12.4400217 C8.28175634,12.8692276 8.3479401,13.498924 8.77714596,13.8464881 L11.1085838,15.7344493 C11.5377897,16.0820133 12.1674861,16.0158295 12.5150502,15.5866237 L16.2909725,10.9237479 C16.6385366,10.4945421 16.5723528,9.86484562 16.143147,9.51728156 C15.7139411,9.16971751 15.0842447,9.23590127 14.7366806,9.66510713 L11.5900787,13.5508369 Z"/>
</svg>
