<svg xmlns="http://www.w3.org/2000/svg" width="24" height="24" viewBox="0 0 24 24">
  <path fill="#777" fill-rule="evenodd" d="M11.5900787,13.5508369 L14.7366806,9.66510713 C15.0842447,9.23590127 15.7139411,9.16971751 16.143147,9.51728156 C16.5723528,9.86484562 16.6385366,10.4945421 16.2909725,10.9237479 L12.5150502,15.5866237 C12.1674861,16.0158295 11.5377897,16.0820133 11.1085838,15.7344493 L8.77714596,13.8464881 C8.3479401,13.498924 8.28175634,12.8692276 8.62932039,12.4400217 C8.97688445,12.0108159 9.60658088,11.9446321 10.0357867,12.2921962 L11.5900787,13.5508369 Z M12.5,20 C8.35786438,20 5,16.6421356 5,12.5 C5,8.35786438 8.35786438,5 12.5,5 C16.6421356,5 20,8.35786438 20,12.5 C20,16.6421356 16.6421356,20 12.5,20 Z M12.5,18 C15.5375661,18 18,15.5375661 18,12.5 C18,9.46243388 15.5375661,7 12.5,7 C9.46243388,7 7,9.46243388 7,12.5 C7,15.5375661 9.46243388,18 12.5,18 Z"/>
</svg>
